<svg width="253" height="51" viewBox="0 0 253 51" fill="none" xmlns="http://www.w3.org/2000/svg">
<path d="M243.182 32.7634L249.005 25.3172L252.542 34.0834L243.182 32.7634Z" fill="#00CDC1"/>
<path d="M4.41357 44.9946C4.41357 46.0992 3.51814 46.9946 2.41357 46.9946C1.309 46.9946 0.413574 46.0992 0.413574 44.9946C0.413574 43.8901 1.309 42.9946 2.41357 42.9946C3.51814 42.9946 4.41357 43.8901 4.41357 44.9946Z" fill="#808080"/>
<path d="M201.911 44.0073C201.911 45.1119 201.016 46.0073 199.911 46.0073C198.807 46.0073 197.911 45.1119 197.911 44.0073C197.911 42.9028 198.807 42.0073 199.911 42.0073C201.016 42.0073 201.911 42.9028 201.911 44.0073Z" fill="url(#paint0_linear_11116_31469)"/>
<path d="M158.452 22.4888C158.452 23.5933 157.557 24.4888 156.452 24.4888C155.348 24.4888 154.452 23.5933 154.452 22.4888C154.452 21.3842 155.348 20.4888 156.452 20.4888C157.557 20.4888 158.452 21.3842 158.452 22.4888Z" fill="#808080"/>
<mask id="path-5-inside-1_11116_31469" fill="white">
<path d="M78.9404 4.811L93.7896 19.6602C94.9612 20.8318 94.9612 22.7313 93.7896 23.9029L69.748 47.9445C68.5764 49.1161 66.6769 49.1161 65.5054 47.9445L48.5348 30.974C47.3632 29.8024 47.3632 27.9029 48.5348 26.7313L70.4551 4.811H78.9404Z"/>
</mask>
<path d="M78.9404 4.811L80.3546 3.39679L79.7688 2.811L78.9404 2.811L78.9404 4.811ZM70.4551 4.811L70.4551 2.811L69.6267 2.811L69.0409 3.39679L70.4551 4.811ZM77.5262 6.22521L92.3754 21.0745L95.2039 18.246L80.3546 3.39679L77.5262 6.22521ZM92.3754 22.4887L68.3338 46.5303L71.1622 49.3587L95.2039 25.3171L92.3754 22.4887ZM66.9196 46.5303L49.949 29.5597L47.1206 32.3882L64.0912 49.3587L66.9196 46.5303ZM49.949 28.1455L71.8693 6.22521L69.0409 3.39679L47.1206 25.3171L49.949 28.1455ZM70.4551 6.811H78.9404L78.9404 2.811H70.4551L70.4551 6.811ZM49.949 29.5597C49.5585 29.1692 49.5585 28.536 49.949 28.1455L47.1206 25.3171C45.168 27.2697 45.168 30.4355 47.1206 32.3882L49.949 29.5597ZM68.3338 46.5303C67.9433 46.9208 67.3101 46.9208 66.9196 46.5303L64.0912 49.3587C66.0438 51.3113 69.2096 51.3113 71.1622 49.3587L68.3338 46.5303ZM92.3754 21.0745C92.7659 21.465 92.7659 22.0981 92.3754 22.4887L95.2039 25.3171C97.1565 23.3645 97.1565 20.1986 95.2039 18.246L92.3754 21.0745Z" fill="#808080" mask="url(#path-5-inside-1_11116_31469)"/>
<path d="M70.9551 6.01811H78.4404L74.6978 9.76075L70.9551 6.01811Z" fill="#808080" stroke="#808080"/>
<rect x="61.9697" y="19.6602" width="21" height="1" transform="rotate(45 61.9697 19.6602)" fill="#808080" stroke="#808080"/>
<rect x="80.3545" y="16.8316" width="10" height="1" transform="rotate(45 80.3545 16.8316)" fill="#808080" stroke="#808080"/>
<rect x="69.041" y="13.296" width="20" height="5" transform="rotate(45 69.041 13.296)" stroke="#808080" stroke-width="2"/>
<rect x="58.4341" y="23.903" width="20" height="5" transform="rotate(45 58.4341 23.903)" stroke="#808080" stroke-width="2"/>
<path d="M116.414 44.5684C116.414 45.6729 115.518 46.5684 114.414 46.5684C113.309 46.5684 112.414 45.6729 112.414 44.5684C112.414 43.4638 113.309 42.5684 114.414 42.5684C115.518 42.5684 116.414 43.4638 116.414 44.5684Z" fill="#00CDC1"/>
<defs>
<linearGradient id="paint0_linear_11116_31469" x1="197.911" y1="41.8511" x2="201.911" y2="46.0073" gradientUnits="userSpaceOnUse">
<stop stop-color="#FF8E3D"/>
<stop offset="1" stop-color="#FF6F3D"/>
</linearGradient>
</defs>
</svg>
