<svg width="246" height="100" viewBox="0 0 246 100" fill="none" xmlns="http://www.w3.org/2000/svg">
<path d="M3.71185 40.9261L12.4916 44.4293L5.06787 50.2812L3.71185 40.9261Z" fill="#00CDC1"/>
<path d="M235.769 68.446L241.592 60.9998L245.129 69.766L235.769 68.446Z" fill="white"/>
<path d="M24 66C24 67.1046 23.1046 68 22 68C20.8954 68 20 67.1046 20 66C20 64.8954 20.8954 64 22 64C23.1046 64 24 64.8954 24 66Z" fill="white"/>
<path d="M225 54C225 55.1046 224.105 56 223 56C221.895 56 221 55.1046 221 54C221 52.8954 221.895 52 223 52C224.105 52 225 52.8954 225 54Z" fill="#00CDC1"/>
<path d="M134 47C134 48.1046 133.105 49 132 49C130.895 49 130 48.1046 130 47C130 45.8954 130.895 45 132 45C133.105 45 134 45.8954 134 47Z" fill="white"/>
<path d="M43.2426 65.0418V57.385L57.799 42.8286C58.58 42.0476 59.8464 42.0476 60.6274 42.8286L84.669 66.8702C85.4501 67.6513 85.4501 68.9176 84.669 69.6987L67.6985 86.6692C66.9174 87.4503 65.6511 87.4503 64.8701 86.6692L43.2426 65.0418Z" stroke="#00CDC1" stroke-width="2"/>
<path d="M42.9497 56.2636L47.8995 61.2134L42.9497 66.1631V56.2636Z" fill="#00CDC1"/>
<rect x="56.3848" y="73.9414" width="22" height="2" transform="rotate(-45 56.3848 73.9414)" fill="#00CDC1"/>
<rect x="53.5562" y="55.5566" width="11" height="2" transform="rotate(-45 53.5562 55.5566)" fill="#00CDC1"/>
<rect x="50.7277" y="66.8701" width="20" height="5" transform="rotate(-45 50.7277 66.8701)" stroke="#00CDC1" stroke-width="2"/>
<rect x="61.3346" y="77.4771" width="20" height="5" transform="rotate(-45 61.3346 77.4771)" stroke="#00CDC1" stroke-width="2"/>
<path d="M200.456 10.2426H208.113L222.669 24.799C223.45 25.58 223.45 26.8464 222.669 27.6274L198.627 51.6691C197.846 52.4501 196.58 52.4501 195.799 51.6691L178.828 34.6985C178.047 33.9174 178.047 32.6511 178.828 31.8701L200.456 10.2426Z" stroke="#00CDC1" stroke-width="2"/>
<path d="M209.234 9.94975L204.284 14.8995L199.334 9.94975H209.234Z" fill="#00CDC1"/>
<rect width="6" height="3" transform="matrix(0.707106 0.707107 -0.707106 0.707107 207.82 18.4351)" fill="#00CDC1"/>
<rect x="204.284" y="21.9707" width="6" height="3" transform="rotate(45 204.284 21.9707)" fill="#00CDC1"/>
<rect x="200.749" y="25.5059" width="6" height="3" transform="rotate(45 200.749 25.5059)" fill="#00CDC1"/>
<rect width="6" height="3" transform="matrix(0.707106 0.707107 -0.707106 0.707107 197.213 29.0415)" fill="#00CDC1"/>
<rect width="6" height="3" transform="matrix(0.707107 0.707106 -0.707107 0.707106 193.678 32.5771)" fill="#00CDC1"/>
<rect width="6" height="3" transform="matrix(0.707106 0.707107 -0.707106 0.707107 190.142 36.1128)" fill="#00CDC1"/>
<rect width="6" height="3" transform="matrix(0.707106 0.707107 -0.707106 0.707107 198.627 16.3135)" fill="#00CDC1"/>
<rect x="195.092" y="19.8491" width="6" height="3" transform="rotate(45 195.092 19.8491)" fill="#00CDC1"/>
<rect width="6" height="3" transform="matrix(0.707106 0.707107 -0.707106 0.707107 191.556 23.3848)" fill="#00CDC1"/>
<rect x="188.021" y="26.9204" width="6" height="3" transform="rotate(45 188.021 26.9204)" fill="#00CDC1"/>
<rect x="184.485" y="30.4561" width="6" height="3" transform="rotate(45 184.485 30.4561)" fill="#00CDC1"/>
<rect width="6" height="3" transform="matrix(0.707106 0.707107 -0.707106 0.707107 213.477 24.0918)" fill="#00CDC1"/>
<rect width="6" height="3" transform="matrix(0.707108 0.707106 -0.707108 0.707106 209.941 27.6274)" fill="#00CDC1"/>
<rect width="6" height="3" transform="matrix(0.707106 0.707107 -0.707106 0.707107 206.405 31.1631)" fill="#00CDC1"/>
<rect width="6" height="3" transform="matrix(0.707106 0.707107 -0.707106 0.707107 202.87 34.6987)" fill="#00CDC1"/>
<rect x="199.334" y="38.2339" width="6" height="3" transform="rotate(45 199.334 38.2339)" fill="#00CDC1"/>
<rect width="6" height="3" transform="matrix(0.707106 0.707107 -0.707106 0.707107 195.799 41.7695)" fill="#00CDC1"/>
<path d="M162.042 89.2549L154.385 89.2549L139.829 74.6986C139.048 73.9175 139.048 72.6512 139.829 71.8701L163.87 47.8285C164.651 47.0475 165.918 47.0475 166.699 47.8285L183.669 64.7991C184.45 65.5801 184.45 66.8465 183.669 67.6275L162.042 89.2549Z" stroke="#00CDC1" stroke-width="2"/>
<path d="M153.264 89.5478L158.213 84.5981L163.163 89.5478L153.264 89.5478Z" fill="#00CDC1"/>
<rect x="146.192" y="75.4053" width="11" height="2" transform="rotate(-45 146.192 75.4053)" fill="#00CDC1"/>
<rect x="149.728" y="78.9409" width="11" height="2" transform="rotate(-45 149.728 78.9409)" fill="#00CDC1"/>
<rect width="6" height="2" transform="matrix(0.707106 -0.707107 0.707106 0.707107 156.799 78.9409)" fill="#00CDC1"/>
<path fill-rule="evenodd" clip-rule="evenodd" d="M165.284 52.0711L153.971 63.3848L168.113 77.5269L179.427 66.2132L165.284 52.0711ZM165.992 57.0208C166.773 57.8019 166.773 59.0682 165.992 59.8492C165.21 60.6303 163.944 60.6303 163.163 59.8492C162.382 59.0682 162.382 57.8019 163.163 57.0208C163.944 56.2398 165.21 56.2398 165.992 57.0208ZM163.517 70.1023L168.113 74.6985L176.598 66.2132L173.77 63.3848L163.163 64.0919L163.517 70.1023Z" fill="#00CDC1"/>
<path d="M116.255 31.4562L116.255 39.1131L101.699 53.6694C100.918 54.4505 99.6512 54.4505 98.8701 53.6694L74.8285 29.6278C74.0475 28.8468 74.0475 27.5804 74.8285 26.7994L91.7991 9.82882C92.5801 9.04777 93.8465 9.04777 94.6275 9.82882L116.255 31.4562Z" stroke="#00CDC1" stroke-width="2"/>
<path d="M116.548 40.2344L111.598 35.2847L116.548 30.3349L116.548 40.2344Z" fill="#00CDC1"/>
<rect x="81.1924" y="26.0923" width="2" height="10" transform="rotate(-45 81.1924 26.0923)" fill="#00CDC1"/>
<rect x="81.1924" y="31.749" width="2" height="6" transform="rotate(-45 81.1924 31.749)" fill="#00CDC1"/>
<rect x="88.9707" y="39.5269" width="22" height="2" transform="rotate(-45 88.9707 39.5269)" fill="#00CDC1"/>
<rect x="92.5059" y="43.0625" width="22" height="2" transform="rotate(-45 92.5059 43.0625)" fill="#00CDC1"/>
<rect x="96.0415" y="46.5981" width="11" height="2" transform="rotate(-45 96.0415 46.5981)" fill="#00CDC1"/>
<rect x="93.9204" y="21.8496" width="2" height="4" transform="rotate(-45 93.9204 21.8496)" fill="#00CDC1"/>
<rect x="93.9204" y="16.1924" width="2" height="8" transform="rotate(-45 93.9204 16.1924)" fill="#00CDC1"/>
<rect x="89.6777" y="23.2637" width="2" height="6" transform="rotate(-45 89.6777 23.2637)" fill="#00CDC1"/>
<rect x="85.4351" y="24.6777" width="2" height="8" transform="rotate(-45 85.4351 24.6777)" fill="#00CDC1"/>
</svg>
