<svg width="46" height="47" viewBox="0 0 46 47" fill="none" xmlns="http://www.w3.org/2000/svg">
<path d="M45.3333 26.4439C45.3333 37.7033 36.3813 46.8307 25.3385 46.8307C14.2957 46.8307 5.34375 37.7033 5.34375 26.4439C5.34375 15.1846 14.2957 6.05713 25.3385 6.05713C36.3813 6.05713 45.3333 15.1846 45.3333 26.4439Z" fill="url(#paint0_linear_11116_31459)"/>
<path fill-rule="evenodd" clip-rule="evenodd" d="M22.9862 44.403C34.8535 44.403 44.4738 34.7827 44.4738 22.9154C44.4738 11.0482 34.8535 1.42786 22.9862 1.42786C11.119 1.42786 1.49866 11.0482 1.49866 22.9154C1.49866 34.7827 11.119 44.403 22.9862 44.403ZM22.9862 45.2625C35.3282 45.2625 45.3333 35.2574 45.3333 22.9154C45.3333 10.5735 35.3282 0.568359 22.9862 0.568359C10.6443 0.568359 0.63916 10.5735 0.63916 22.9154C0.63916 35.2574 10.6443 45.2625 22.9862 45.2625Z" fill="white"/>
<g style="mix-blend-mode:exclusion">
<path d="M29.0939 18.8338C27.0685 19.6796 25.1767 20.1025 23.4184 20.1025C21.6602 20.1025 20.3248 19.802 19.4122 19.2011C18.4997 18.6001 18.0435 17.7766 18.0435 16.7306C18.0435 16.0851 18.1325 15.5176 18.3105 15.0279C18.5108 14.5383 18.8558 13.993 19.3455 13.3921C19.568 13.8372 21.1928 14.1711 24.2197 14.3936C25.0209 14.4381 25.7776 14.4604 26.4898 14.4604H33.9013L34.6357 17.2647L33.1 19.6684L31.5977 22.2391L29.5612 26.0116C28.4484 28.126 27.7251 29.6617 27.3912 30.6187C27.0796 31.5757 26.8905 32.2434 26.8237 32.6218C26.6901 33.1782 26.6234 33.7012 26.6234 34.1909C26.6234 34.6583 26.7458 35.0144 26.9906 35.2592C26.5455 36.0604 25.6663 36.6391 24.3532 36.9952C23.9303 37.1065 23.4629 37.1621 22.951 37.1621C22.4391 37.1621 21.9606 37.062 21.5155 36.8617C21.0704 36.6614 20.7031 36.4054 20.4138 36.0938C19.8574 35.4261 19.5792 34.7139 19.5792 33.9572C19.5792 33.1782 19.6904 32.5216 19.913 31.9875C20.1356 31.4311 20.4027 30.8969 20.7142 30.385L29.0939 18.8338Z" fill="#AEFF00"/>
</g>
<g style="mix-blend-mode:hue">
<path d="M19.8469 13.3584L23.5526 13.5253H31.999C32.3328 13.5253 32.4998 13.7701 32.4998 14.2598C32.4998 14.7494 32.2883 15.2613 31.8655 15.7955C31.4648 16.3297 30.6302 17.3868 29.3616 18.9671C28.1152 20.5473 27.1137 21.827 26.3569 22.8063C24.109 25.7219 22.5511 27.9698 21.6831 29.5501C20.8151 31.1303 20.3811 32.4212 20.3811 33.4227C20.3811 33.8678 20.4923 34.2573 20.7149 34.5912C20.9375 34.9028 21.2157 35.0586 21.5495 35.0586C21.9056 35.0586 22.195 35.0252 22.4175 34.9584C22.2172 35.8487 21.7832 36.5052 21.1155 36.9281C20.4701 37.3287 19.7579 37.5291 18.9789 37.5291C18.1999 37.5291 17.5211 37.2731 16.9424 36.7612C16.3637 36.227 16.0744 35.4703 16.0744 34.491C16.0744 33.5117 16.3971 32.41 17.0426 31.1859C17.7103 29.9396 18.5226 28.7711 19.4797 27.6805C20.4589 26.5677 21.5161 25.4326 22.6512 24.2753C23.8086 23.1179 24.8658 22.0719 25.8228 21.1371C28.1152 18.9782 29.2614 17.4202 29.2614 16.4632C29.2614 16.3742 29.2392 16.2184 29.1947 15.9958H22.1171C20.982 15.9958 20.0806 16.1627 19.4129 16.4966C18.7452 16.8082 18.3001 17.1977 18.0775 17.665C17.8772 18.1102 17.7214 18.5664 17.6101 19.0338C17.5211 19.479 17.3875 19.8685 17.2095 20.2023C17.0537 20.5139 16.82 20.6697 16.5084 20.6697C16.1968 20.6474 16.041 20.5695 16.041 20.436C16.041 20.3915 16.0744 20.2913 16.1412 20.1355C16.2079 19.9797 16.2858 19.7015 16.3749 19.3009C16.4861 18.9003 16.5974 18.4329 16.7087 17.8987C17.1538 15.7399 17.5656 14.449 17.944 14.0261C18.3223 13.581 18.9566 13.3584 19.8469 13.3584Z" fill="#BDECFF"/>
</g>
<path d="M19.3789 37.1619C19.3566 36.9616 19.3455 36.7501 19.3455 36.5276C19.3455 36.2827 19.3455 36.0602 19.3455 35.8599C19.3455 34.4577 19.6348 32.922 20.2135 31.2528C20.8144 29.5835 21.5711 27.9143 22.4836 26.245C23.3962 24.5535 24.4088 22.9399 25.5217 21.4042C26.6568 19.8463 27.7473 18.4775 28.7934 17.2979H18.0435V14.9609H31.5643V17.2979C30.4515 18.4107 29.3387 19.7684 28.2258 21.3708C27.113 22.9511 26.1115 24.6092 25.2212 26.3452C24.3309 28.0812 23.6076 29.7838 23.0512 31.4531C22.517 33.1223 22.25 34.5801 22.25 35.8265C22.25 36.0713 22.25 36.305 22.25 36.5276C22.25 36.7501 22.2611 36.9616 22.2833 37.1619H19.3789Z" fill="white"/>
<defs>
<linearGradient id="paint0_linear_11116_31459" x1="5.34383" y1="4.46441" x2="46.1401" y2="46.0391" gradientUnits="userSpaceOnUse">
<stop stop-color="#FFC671"/>
<stop offset="0.59375" stop-color="#FF7541"/>
<stop offset="1" stop-color="#FF6F3D"/>
</linearGradient>
</defs>
</svg>
