<svg width="213" height="54" viewBox="0 0 213 54" fill="none" xmlns="http://www.w3.org/2000/svg">
<path d="M9.16397 9.66388L-7.75256e-05 7.34524L6.58995 0.568262L9.16397 9.66388Z" fill="#808080"/>
<path d="M138.712 15.4266L147.492 18.9298L140.068 24.7817L138.712 15.4266Z" fill="#FF6F3D"/>
<path d="M205.213 31.1503L205.213 22.5794L212.636 26.8648L205.213 31.1503Z" fill="#00CDC1"/>
<path d="M35 33.5684C35 34.6729 34.1046 35.5684 33 35.5684C31.8954 35.5684 31 34.6729 31 33.5684C31 32.4638 31.8954 31.5684 33 31.5684C34.1046 31.5684 35 32.4638 35 33.5684Z" fill="url(#paint0_linear_11116_31446)"/>
<path d="M186.249 5.56836C186.249 6.67293 185.354 7.56836 184.249 7.56836C183.144 7.56836 182.249 6.67293 182.249 5.56836C182.249 4.46379 183.144 3.56836 184.249 3.56836C185.354 3.56836 186.249 4.46379 186.249 5.56836Z" fill="#808080"/>
<g opacity="0.66">
<mask id="path-6-inside-1_11116_31446" fill="white">
<path d="M65.2426 20.5391L80.0919 5.68986C81.2635 4.51828 83.163 4.51828 84.3345 5.68986L108.376 29.7315C109.548 30.9031 109.548 32.8026 108.376 33.9741L91.4056 50.9447C90.234 52.1163 88.3345 52.1163 87.163 50.9447L65.2426 29.0244V20.5391Z"/>
</mask>
<path d="M65.2426 20.5391L63.8284 19.1249L63.2426 19.7107L63.2426 20.5391L65.2426 20.5391ZM65.2426 29.0244L63.2426 29.0244L63.2426 29.8528L63.8284 30.4386L65.2426 29.0244ZM66.6569 21.9533L81.5061 7.10407L78.6777 4.27564L63.8284 19.1249L66.6569 21.9533ZM82.9203 7.10407L106.962 31.1457L109.79 28.3173L85.7487 4.27564L82.9203 7.10407ZM106.962 32.5599L89.9914 49.5305L92.8198 52.3589L109.79 35.3883L106.962 32.5599ZM88.5772 49.5305L66.6569 27.6102L63.8284 30.4386L85.7487 52.3589L88.5772 49.5305ZM67.2426 29.0244V20.5391L63.2426 20.5391V29.0244L67.2426 29.0244ZM89.9914 49.5305C89.6009 49.921 88.9677 49.921 88.5772 49.5305L85.7487 52.3589C87.7014 54.3115 90.8672 54.3115 92.8198 52.3589L89.9914 49.5305ZM106.962 31.1457C107.352 31.5362 107.352 32.1694 106.962 32.5599L109.79 35.3883C111.743 33.4357 111.743 30.2699 109.79 28.3173L106.962 31.1457ZM81.5061 7.10407C81.8966 6.71355 82.5298 6.71354 82.9203 7.10407L85.7487 4.27564C83.7961 2.32302 80.6303 2.32302 78.6777 4.27564L81.5061 7.10407Z" fill="#808080" mask="url(#path-6-inside-1_11116_31446)"/>
<path d="M65.9497 19.832L70.8995 24.7817L65.9497 29.7315V19.832Z" fill="#808080"/>
<rect x="79.3848" y="37.5098" width="22" height="2" transform="rotate(-45 79.3848 37.5098)" fill="#808080"/>
<rect x="76.5562" y="19.125" width="11" height="2" transform="rotate(-45 76.5562 19.125)" fill="#808080"/>
<rect x="73.7277" y="30.4385" width="20" height="5" transform="rotate(-45 73.7277 30.4385)" stroke="#808080" stroke-width="2"/>
<rect x="84.3346" y="41.0454" width="20" height="5" transform="rotate(-45 84.3346 41.0454)" stroke="#808080" stroke-width="2"/>
</g>
<defs>
<linearGradient id="paint0_linear_11116_31446" x1="31" y1="31.4121" x2="35" y2="35.5684" gradientUnits="userSpaceOnUse">
<stop stop-color="#FF8E3D"/>
<stop offset="1" stop-color="#FF6F3D"/>
</linearGradient>
</defs>
</svg>
