<svg width="260" height="100" viewBox="0 0 260 100" fill="none" xmlns="http://www.w3.org/2000/svg">
<path d="M9.16397 41.0955L-7.75256e-05 38.7769L6.58995 31.9999L9.16397 41.0955Z" fill="white"/>
<path d="M117.712 39.9261L126.492 43.4293L119.068 49.2812L117.712 39.9261Z" fill="#00CDC1"/>
<path d="M249.902 47.7575L253.461 39.0001L259.266 46.4607L249.902 47.7575Z" fill="#00CDC1"/>
<path d="M96 65C96 66.1046 95.1046 67 94 67C92.8954 67 92 66.1046 92 65C92 63.8954 92.8954 63 94 63C95.1046 63 96 63.8954 96 65Z" fill="white"/>
<path d="M150 58C150 59.1046 149.105 60 148 60C146.895 60 146 59.1046 146 58C146 56.8954 146.895 56 148 56C149.105 56 150 56.8954 150 58Z" fill="#00CDC1"/>
<path d="M229 34C229 35.1046 228.105 36 227 36C225.895 36 225 35.1046 225 34C225 32.8954 225.895 32 227 32C228.105 32 229 32.8954 229 34Z" fill="white"/>
<path d="M27.2426 60.0418V52.385L41.799 37.8286C42.58 37.0476 43.8464 37.0476 44.6274 37.8286L68.669 61.8702C69.4501 62.6513 69.4501 63.9176 68.669 64.6987L51.6985 81.6692C50.9174 82.4503 49.6511 82.4503 48.8701 81.6692L27.2426 60.0418Z" stroke="#00CDC1" stroke-width="2"/>
<path d="M26.9497 51.2636L31.8995 56.2134L26.9497 61.1631V51.2636Z" fill="#00CDC1"/>
<rect x="40.3848" y="68.9414" width="22" height="2" transform="rotate(-45 40.3848 68.9414)" fill="#00CDC1"/>
<rect x="37.5562" y="50.5566" width="11" height="2" transform="rotate(-45 37.5562 50.5566)" fill="#00CDC1"/>
<rect x="34.7277" y="61.8701" width="20" height="5" transform="rotate(-45 34.7277 61.8701)" stroke="#00CDC1" stroke-width="2"/>
<rect x="45.3346" y="72.4771" width="20" height="5" transform="rotate(-45 45.3346 72.4771)" stroke="#00CDC1" stroke-width="2"/>
<path d="M89.4558 5.24264H97.1126L111.669 19.799C112.45 20.58 112.45 21.8464 111.669 22.6274L87.6273 46.669C86.8463 47.4501 85.5799 47.4501 84.7989 46.669L67.8283 29.6985C67.0473 28.9174 67.0473 27.6511 67.8283 26.8701L89.4558 5.24264Z" stroke="#00CDC1" stroke-width="2"/>
<path d="M98.2339 4.94975L93.2842 9.89949L88.3344 4.94975H98.2339Z" fill="#00CDC1"/>
<rect x="96.8198" y="13.4351" width="6" height="3" transform="rotate(45 96.8198 13.4351)" fill="#00CDC1"/>
<rect x="93.2842" y="16.9707" width="6" height="3" transform="rotate(45 93.2842 16.9707)" fill="#00CDC1"/>
<rect x="89.7485" y="20.5059" width="6" height="3" transform="rotate(45 89.7485 20.5059)" fill="#00CDC1"/>
<rect x="86.2129" y="24.0415" width="6" height="3" transform="rotate(45 86.2129 24.0415)" fill="#00CDC1"/>
<rect x="82.6777" y="27.5771" width="6" height="3" transform="rotate(45 82.6777 27.5771)" fill="#00CDC1"/>
<rect x="79.1421" y="31.1128" width="6" height="3" transform="rotate(45 79.1421 31.1128)" fill="#00CDC1"/>
<rect x="87.6274" y="11.3135" width="6" height="3" transform="rotate(45 87.6274 11.3135)" fill="#00CDC1"/>
<rect x="84.0918" y="14.8491" width="6" height="3" transform="rotate(45 84.0918 14.8491)" fill="#00CDC1"/>
<rect x="80.5562" y="18.3848" width="6" height="3" transform="rotate(45 80.5562 18.3848)" fill="#00CDC1"/>
<rect x="77.0205" y="21.9204" width="6" height="3" transform="rotate(45 77.0205 21.9204)" fill="#00CDC1"/>
<rect x="73.4854" y="25.4561" width="6" height="3" transform="rotate(45 73.4854 25.4561)" fill="#00CDC1"/>
<rect x="102.477" y="19.0918" width="6" height="3" transform="rotate(45 102.477 19.0918)" fill="#00CDC1"/>
<rect x="98.9409" y="22.6274" width="6" height="3" transform="rotate(45 98.9409 22.6274)" fill="#00CDC1"/>
<rect x="95.4053" y="26.1631" width="6" height="3" transform="rotate(45 95.4053 26.1631)" fill="#00CDC1"/>
<rect x="91.8701" y="29.6982" width="6" height="3" transform="rotate(45 91.8701 29.6982)" fill="#00CDC1"/>
<rect x="88.3345" y="33.2339" width="6" height="3" transform="rotate(45 88.3345 33.2339)" fill="#00CDC1"/>
<rect x="84.7988" y="36.7695" width="6" height="3" transform="rotate(45 84.7988 36.7695)" fill="#00CDC1"/>
<path d="M155.243 37.0418L155.243 29.385L169.799 14.8286C170.58 14.0476 171.846 14.0476 172.627 14.8286L196.669 38.8702C197.45 39.6513 197.45 40.9176 196.669 41.6987L179.698 58.6692C178.917 59.4503 177.651 59.4503 176.87 58.6692L155.243 37.0418Z" stroke="#00CDC1" stroke-width="2"/>
<path d="M154.95 28.2636L159.899 33.2134L154.95 38.1631L154.95 28.2636Z" fill="#00CDC1"/>
<rect x="169.092" y="21.1924" width="11" height="2" transform="rotate(45 169.092 21.1924)" fill="#00CDC1"/>
<rect x="165.557" y="24.728" width="11" height="2" transform="rotate(45 165.557 24.728)" fill="#00CDC1"/>
<rect x="165.557" y="31.7988" width="6" height="2" transform="rotate(45 165.557 31.7988)" fill="#00CDC1"/>
<path fill-rule="evenodd" clip-rule="evenodd" d="M192.427 40.2844L181.113 28.9707L166.971 43.1128L178.284 54.4265L192.427 40.2844ZM187.477 40.9915C186.696 41.7726 185.429 41.7726 184.648 40.9915C183.867 40.2105 183.867 38.9441 184.648 38.1631C185.429 37.382 186.696 37.382 187.477 38.1631C188.258 38.9441 188.258 40.2105 187.477 40.9915ZM174.395 38.5166L169.799 43.1128L178.284 51.5981L181.113 48.7697L180.406 38.1631L174.395 38.5166Z" fill="#00CDC1"/>
<path d="M233.255 74.4562L233.255 82.1131L218.699 96.6694C217.918 97.4505 216.651 97.4505 215.87 96.6694L191.829 72.6278C191.047 71.8468 191.047 70.5804 191.829 69.7994L208.799 52.8288C209.58 52.0478 210.846 52.0478 211.628 52.8288L233.255 74.4562Z" stroke="#00CDC1" stroke-width="2"/>
<path d="M233.548 83.2344L228.598 78.2847L233.548 73.3349L233.548 83.2344Z" fill="#00CDC1"/>
<rect x="198.192" y="69.0923" width="2" height="10" transform="rotate(-45 198.192 69.0923)" fill="#00CDC1"/>
<rect x="198.192" y="74.749" width="2" height="6" transform="rotate(-45 198.192 74.749)" fill="#00CDC1"/>
<rect x="205.971" y="82.5269" width="22" height="2" transform="rotate(-45 205.971 82.5269)" fill="#00CDC1"/>
<rect x="209.506" y="86.0625" width="22" height="2" transform="rotate(-45 209.506 86.0625)" fill="#00CDC1"/>
<rect x="213.042" y="89.5981" width="11" height="2" transform="rotate(-45 213.042 89.5981)" fill="#00CDC1"/>
<rect x="210.92" y="64.8496" width="2" height="4" transform="rotate(-45 210.92 64.8496)" fill="#00CDC1"/>
<rect x="210.92" y="59.1924" width="2" height="8" transform="rotate(-45 210.92 59.1924)" fill="#00CDC1"/>
<rect x="206.678" y="66.2637" width="2" height="6" transform="rotate(-45 206.678 66.2637)" fill="#00CDC1"/>
<rect x="202.435" y="67.6777" width="2" height="8" transform="rotate(-45 202.435 67.6777)" fill="#00CDC1"/>
</svg>
