<svg width="74" height="51" viewBox="0 0 74 51" fill="none" xmlns="http://www.w3.org/2000/svg">
<path d="M69.5958 41.5789L60.816 45.0821L68.2397 50.934L69.5958 41.5789Z" fill="#00CDC1"/>
<path d="M0.836426 47.689C0.836426 48.7935 1.73186 49.689 2.83643 49.689C3.941 49.689 4.83643 48.7935 4.83643 47.689C4.83643 46.5844 3.941 45.689 2.83643 45.689C1.73186 45.689 0.836426 46.5844 0.836426 47.689Z" fill="white"/>
<g opacity="0.66">
<mask id="path-3-inside-1_11116_31540" fill="white">
<path d="M41.8481 4.50534L56.6974 19.3546C57.8689 20.5262 57.8689 22.4256 56.6974 23.5972L32.6557 47.6388C31.4841 48.8104 29.5847 48.8104 28.4131 47.6388L11.4425 30.6683C10.2709 29.4967 10.2709 27.5972 11.4425 26.4256L33.3628 4.50534H41.8481Z"/>
</mask>
<path d="M41.8481 4.50534L43.2623 3.09112L42.6765 2.50534L41.8481 2.50534L41.8481 4.50534ZM33.3628 4.50534L33.3628 2.50534L32.5344 2.50534L31.9486 3.09112L33.3628 4.50534ZM40.4339 5.91955L55.2831 20.7688L58.1116 17.9404L43.2623 3.09112L40.4339 5.91955ZM55.2831 22.183L31.2415 46.2246L34.0699 49.0531L58.1116 25.0114L55.2831 22.183ZM29.8273 46.2246L12.8567 29.2541L10.0283 32.0825L26.9989 49.0531L29.8273 46.2246ZM12.8567 27.8399L34.777 5.91955L31.9486 3.09112L10.0283 25.0114L12.8567 27.8399ZM33.3628 6.50534H41.8481L41.8481 2.50534H33.3628L33.3628 6.50534ZM12.8567 29.2541C12.4662 28.8635 12.4662 28.2304 12.8567 27.8399L10.0283 25.0114C8.07568 26.9641 8.07568 30.1299 10.0283 32.0825L12.8567 29.2541ZM31.2415 46.2246C30.851 46.6152 30.2178 46.6152 29.8273 46.2246L26.9989 49.0531C28.9515 51.0057 32.1173 51.0057 34.0699 49.0531L31.2415 46.2246ZM55.2831 20.7688C55.6737 21.1593 55.6737 21.7925 55.2831 22.183L58.1116 25.0114C60.0642 23.0588 60.0642 19.893 58.1116 17.9404L55.2831 20.7688Z" fill="#808080" mask="url(#path-3-inside-1_11116_31540)"/>
<path d="M42.5552 5.21244L37.6055 10.1622L32.6557 5.21244H42.5552Z" fill="#808080"/>
<rect x="24.8774" y="18.6475" width="22" height="2" transform="rotate(45 24.8774 18.6475)" fill="#808080"/>
<rect x="43.2622" y="15.8188" width="11" height="2" transform="rotate(45 43.2622 15.8188)" fill="#808080"/>
<rect x="31.9487" y="12.9904" width="20" height="5" transform="rotate(45 31.9487 12.9904)" stroke="#808080" stroke-width="2"/>
<rect x="21.3418" y="23.5973" width="20" height="5" transform="rotate(45 21.3418 23.5973)" stroke="#808080" stroke-width="2"/>
</g>
</svg>
