<svg width="72" height="43" viewBox="0 0 72 43" fill="none" xmlns="http://www.w3.org/2000/svg">
<path d="M62.892 3.37435L71.6718 6.87754L64.248 12.7294L62.892 3.37435Z" fill="#FF6F3D"/>
<path d="M4.18018 38.5137C4.18018 39.6182 3.28475 40.5137 2.18018 40.5137C1.07561 40.5137 0.180176 39.6182 0.180176 38.5137C0.180176 37.4091 1.07561 36.5137 2.18018 36.5137C3.28475 36.5137 4.18018 37.4091 4.18018 38.5137Z" fill="url(#paint0_linear_11116_31528)"/>
<path d="M51.6866 25.829C51.6866 35.0458 44.3586 42.5174 35.3191 42.5174C26.2796 42.5174 18.9517 35.0458 18.9517 25.829C18.9517 16.6123 26.2796 9.14062 35.3191 9.14062C44.3586 9.14062 51.6866 16.6123 51.6866 25.829Z" fill="url(#paint1_linear_11116_31528)"/>
<path fill-rule="evenodd" clip-rule="evenodd" d="M33.3936 40.53C43.108 40.53 50.9831 32.6549 50.9831 22.9405C50.9831 13.2261 43.108 5.35104 33.3936 5.35104C23.6792 5.35104 15.8042 13.2261 15.8042 22.9405C15.8042 32.6549 23.6792 40.53 33.3936 40.53ZM33.3936 41.2335C43.4966 41.2335 51.6867 33.0435 51.6867 22.9405C51.6867 12.8375 43.4966 4.64746 33.3936 4.64746C23.2907 4.64746 15.1006 12.8375 15.1006 22.9405C15.1006 33.0435 23.2907 41.2335 33.3936 41.2335Z" fill="white"/>
<g style="mix-blend-mode:exclusion">
<path d="M38.3929 19.5991C36.735 20.2914 35.1863 20.6376 33.747 20.6376C32.3078 20.6376 31.2146 20.3916 30.4676 19.8997C29.7207 19.4078 29.3472 18.7337 29.3472 17.8774C29.3472 17.349 29.42 16.8844 29.5658 16.4836C29.7298 16.0828 30.0122 15.6364 30.413 15.1445C30.5952 15.5089 31.9252 15.7822 34.4029 15.9644C35.0588 16.0008 35.6783 16.019 36.2613 16.019H42.3282L42.9294 18.3146L41.6723 20.2823L40.4425 22.3866L38.7755 25.4747C37.8645 27.2055 37.2724 28.4626 36.9991 29.246C36.7441 30.0294 36.5892 30.576 36.5346 30.8857C36.4252 31.3412 36.3706 31.7693 36.3706 32.1702C36.3706 32.5528 36.4708 32.8443 36.6712 33.0447C36.3068 33.7006 35.5872 34.1742 34.5122 34.4657C34.1661 34.5568 33.7835 34.6024 33.3645 34.6024C32.9454 34.6024 32.5537 34.5204 32.1893 34.3564C31.8249 34.1925 31.5243 33.9829 31.2875 33.7279C30.832 33.1813 30.6043 32.5983 30.6043 31.9789C30.6043 31.3412 30.6954 30.8037 30.8776 30.3665C31.0598 29.911 31.2784 29.4738 31.5334 29.0547L38.3929 19.5991Z" fill="#AEFF00"/>
</g>
<g style="mix-blend-mode:hue">
<path d="M30.8235 15.1172L33.8569 15.2538H40.771C41.0443 15.2538 41.1809 15.4542 41.1809 15.8551C41.1809 16.2559 41.0079 16.6749 40.6617 17.1122C40.3338 17.5494 39.6505 18.4148 38.6121 19.7084C37.5918 21.0019 36.7719 22.0495 36.1525 22.8511C34.3124 25.2378 33.0371 27.0779 32.3265 28.3715C31.616 29.665 31.2607 30.7217 31.2607 31.5416C31.2607 31.906 31.3518 32.2248 31.534 32.4981C31.7162 32.7531 31.9439 32.8807 32.2172 32.8807C32.5087 32.8807 32.7456 32.8534 32.9277 32.7987C32.7638 33.5275 32.4085 34.0649 31.8619 34.4111C31.3336 34.739 30.7506 34.903 30.1129 34.903C29.4752 34.903 28.9196 34.6935 28.4459 34.2744C27.9722 33.8372 27.7353 33.2177 27.7353 32.4161C27.7353 31.6145 27.9995 30.7126 28.5279 29.7106C29.0744 28.6903 29.7394 27.7338 30.5228 26.8411C31.3245 25.9301 32.1899 25.001 33.119 24.0536C34.0664 23.1062 34.9318 22.2499 35.7152 21.4847C37.5918 19.7175 38.5301 18.4421 38.5301 17.6587C38.5301 17.5859 38.5119 17.4583 38.4754 17.2761H32.6818C31.7526 17.2761 31.0148 17.4128 30.4682 17.6861C29.9216 17.9411 29.5572 18.26 29.375 18.6426C29.2111 19.0069 29.0835 19.3804 28.9924 19.763C28.9196 20.1274 28.8103 20.4462 28.6645 20.7195C28.537 20.9746 28.3457 21.1021 28.0906 21.1021C27.8355 21.0839 27.708 21.0201 27.708 20.9108C27.708 20.8744 27.7353 20.7924 27.79 20.6649C27.8447 20.5373 27.9084 20.3096 27.9813 19.9817C28.0724 19.6537 28.1635 19.2711 28.2546 18.8339C28.619 17.0666 28.956 16.0099 29.2657 15.6638C29.5755 15.2994 30.0947 15.1172 30.8235 15.1172Z" fill="#BDECFF"/>
</g>
<path d="M30.4403 34.6026C30.4221 34.4387 30.413 34.2656 30.413 34.0834C30.413 33.883 30.413 33.7008 30.413 33.5368C30.413 32.389 30.6498 31.1319 31.1235 29.7655C31.6154 28.3991 32.2349 27.0326 32.9819 25.6662C33.7288 24.2816 34.5578 22.9607 35.4687 21.7036C36.3979 20.4283 37.2906 19.3078 38.1469 18.3422H29.3472V16.4292H40.4152V18.3422C39.5042 19.2531 38.5933 20.3645 37.6823 21.6763C36.7714 22.9698 35.9515 24.3271 35.2228 25.7482C34.494 27.1693 33.9019 28.563 33.4464 29.9295C33.0092 31.2959 32.7906 32.4892 32.7906 33.5095C32.7906 33.7099 32.7906 33.9012 32.7906 34.0834C32.7906 34.2656 32.7997 34.4387 32.8179 34.6026H30.4403Z" fill="white"/>
<defs>
<linearGradient id="paint0_linear_11116_31528" x1="0.180183" y1="36.3574" x2="4.18018" y2="40.5137" gradientUnits="userSpaceOnUse">
<stop stop-color="#FF8E3D"/>
<stop offset="1" stop-color="#FF6F3D"/>
</linearGradient>
<linearGradient id="paint1_linear_11116_31528" x1="18.9517" y1="7.83684" x2="52.347" y2="41.8694" gradientUnits="userSpaceOnUse">
<stop stop-color="#FFC671"/>
<stop offset="0.59375" stop-color="#FF7541"/>
<stop offset="1" stop-color="#FF6F3D"/>
</linearGradient>
</defs>
</svg>
