<svg width="49" height="85" viewBox="0 0 49 85" fill="none" xmlns="http://www.w3.org/2000/svg">
<path d="M24.4558 1.24264H32.1126L46.669 15.799C47.45 16.58 47.45 17.8464 46.669 18.6274L22.6273 42.669C21.8463 43.4501 20.5799 43.4501 19.7989 42.669L2.82834 25.6985C2.04729 24.9174 2.04729 23.6511 2.82834 22.8701L24.4558 1.24264Z" stroke="#00CDC1" stroke-width="2"/>
<path d="M33.2339 0.949747L28.2842 5.89949L23.3344 0.949747H33.2339Z" fill="#00CDC1"/>
<rect x="31.8198" y="9.43506" width="6" height="3" transform="rotate(45 31.8198 9.43506)" fill="#00CDC1"/>
<rect x="28.2842" y="12.9707" width="6" height="3" transform="rotate(45 28.2842 12.9707)" fill="#00CDC1"/>
<rect x="24.7485" y="16.5059" width="6" height="3" transform="rotate(45 24.7485 16.5059)" fill="#00CDC1"/>
<rect x="21.2129" y="20.0415" width="6" height="3" transform="rotate(45 21.2129 20.0415)" fill="#00CDC1"/>
<rect x="17.6777" y="23.5771" width="6" height="3" transform="rotate(45 17.6777 23.5771)" fill="#00CDC1"/>
<rect x="14.1421" y="27.1128" width="6" height="3" transform="rotate(45 14.1421 27.1128)" fill="#00CDC1"/>
<rect x="22.6274" y="7.31348" width="6" height="3" transform="rotate(45 22.6274 7.31348)" fill="#00CDC1"/>
<rect x="19.0918" y="10.8491" width="6" height="3" transform="rotate(45 19.0918 10.8491)" fill="#00CDC1"/>
<rect x="15.5562" y="14.3848" width="6" height="3" transform="rotate(45 15.5562 14.3848)" fill="#00CDC1"/>
<rect x="12.0205" y="17.9204" width="6" height="3" transform="rotate(45 12.0205 17.9204)" fill="#00CDC1"/>
<rect x="8.48535" y="21.4561" width="6" height="3" transform="rotate(45 8.48535 21.4561)" fill="#00CDC1"/>
<rect x="37.4766" y="15.0918" width="6" height="3" transform="rotate(45 37.4766 15.0918)" fill="#00CDC1"/>
<rect x="33.9409" y="18.6274" width="6" height="3" transform="rotate(45 33.9409 18.6274)" fill="#00CDC1"/>
<rect x="30.4053" y="22.1631" width="6" height="3" transform="rotate(45 30.4053 22.1631)" fill="#00CDC1"/>
<rect x="26.8701" y="25.6982" width="6" height="3" transform="rotate(45 26.8701 25.6982)" fill="#00CDC1"/>
<rect x="23.3345" y="29.2339" width="6" height="3" transform="rotate(45 23.3345 29.2339)" fill="#00CDC1"/>
<rect x="19.7988" y="32.7695" width="6" height="3" transform="rotate(45 19.7988 32.7695)" fill="#00CDC1"/>
<path d="M35.7119 49.9261L44.4916 53.4293L37.0679 59.2812L35.7119 49.9261Z" fill="#00CDC1"/>
</svg>
