<svg width="49" height="84" viewBox="0 0 49 84" fill="none" xmlns="http://www.w3.org/2000/svg">
<path d="M5.24264 57.0418V49.385L19.799 34.8286C20.58 34.0476 21.8464 34.0476 22.6274 34.8286L46.669 58.8702C47.4501 59.6513 47.4501 60.9176 46.669 61.6987L29.6985 78.6692C28.9174 79.4503 27.6511 79.4503 26.8701 78.6692L5.24264 57.0418Z" stroke="#00CDC1" stroke-width="2"/>
<path d="M4.94975 48.2636L9.8995 53.2134L4.94975 58.1631V48.2636Z" fill="#00CDC1"/>
<rect x="18.3848" y="65.9414" width="22" height="2" transform="rotate(-45 18.3848 65.9414)" fill="#00CDC1"/>
<rect x="15.5562" y="47.5566" width="11" height="2" transform="rotate(-45 15.5562 47.5566)" fill="#00CDC1"/>
<rect x="12.7277" y="58.8701" width="20" height="5" transform="rotate(-45 12.7277 58.8701)" stroke="#00CDC1" stroke-width="2"/>
<rect x="23.3346" y="69.4771" width="20" height="5" transform="rotate(-45 23.3346 69.4771)" stroke="#00CDC1" stroke-width="2"/>
<path d="M42 31C42 32.1046 41.1046 33 40 33C38.8954 33 38 32.1046 38 31C38 29.8954 38.8954 29 40 29C41.1046 29 42 29.8954 42 31Z" fill="#00CDC1"/>
</svg>
