<svg width="120" height="42" viewBox="0 0 120 42" fill="none" xmlns="http://www.w3.org/2000/svg">
<g clip-path="url(#clip0)">
<path d="M20.4586 28.6146C16.2274 28.2366 13.1076 24.4794 13.4832 20.2285C13.8588 15.9699 17.5918 12.8299 21.8154 13.2002C22.9269 13.3005 23.9617 13.6323 24.8738 14.1492V11.9813C23.977 11.6032 23.0035 11.3486 21.984 11.2638C16.6873 10.7932 12.0115 14.7278 11.5439 20.0588C11.0763 25.3821 14.9933 30.0882 20.29 30.5588C21.915 30.7054 23.4711 30.4353 24.8738 29.8336V27.6657C23.5784 28.3986 22.053 28.7535 20.4586 28.6146Z" fill="#4D4D4D"/>
<path d="M13.4756 20.2208C13.1 24.4794 16.2274 28.2366 20.451 28.6069C22.0453 28.7458 23.5707 28.3909 24.8662 27.658V25.8064C23.6857 26.7168 22.1757 27.2105 20.5889 27.0639C17.2086 26.763 14.7097 23.7465 15.0086 20.3442C15.3076 16.942 18.297 14.4192 21.6774 14.7201C22.8809 14.8281 23.977 15.2832 24.8738 15.9776V14.126C23.9617 13.6091 22.9269 13.2774 21.8154 13.1771C17.5842 12.8222 13.8512 15.9699 13.4756 20.2208Z" fill="white"/>
<path d="M15.0086 20.3597C14.7097 23.7619 17.2086 26.7708 20.589 27.0794C22.1757 27.2182 23.6857 26.7322 24.8662 25.8218V22.6047C24.1763 24.1631 22.5589 25.1892 20.7729 25.0272C18.5193 24.8266 16.8406 22.8207 17.0399 20.5602C17.2392 18.2766 19.2399 16.5948 21.4935 16.7954C23.0189 16.9342 24.276 17.8986 24.8585 19.2179V16.0007C23.9617 15.3064 22.8655 14.8512 21.6621 14.7432C18.297 14.4346 15.3076 16.9574 15.0086 20.3597Z" fill="#4D4D4D"/>
<path d="M21.5088 16.7877C19.2552 16.5871 17.2545 18.2689 17.0552 20.5525C16.8559 22.813 18.5346 24.8189 20.7882 25.0195C22.5743 25.1815 24.184 24.1554 24.8815 22.597V19.2101C24.2836 17.8909 23.0342 16.9265 21.5088 16.7877ZM23.6857 21.1312C23.5631 22.5507 22.306 23.5999 20.9109 23.4765C19.5005 23.3531 18.458 22.0955 18.5883 20.676C18.7109 19.2564 19.9604 18.2072 21.3631 18.3306C22.7659 18.4618 23.816 19.7193 23.6857 21.1312Z" fill="white"/>
<path d="M21.3631 18.3384C19.9527 18.2149 18.7109 19.2641 18.5883 20.6837C18.4656 22.1032 19.5081 23.353 20.9109 23.4842C22.3136 23.6076 23.5631 22.5584 23.6857 21.1389C23.816 19.7193 22.7659 18.4618 21.3631 18.3384ZM21.0412 21.9566C20.4663 21.9026 20.037 21.3935 20.083 20.8071C20.1367 20.2285 20.6426 19.7965 21.2252 19.8428C21.8 19.8968 22.2293 20.406 22.1756 20.9923C22.1297 21.5786 21.6237 22.0107 21.0412 21.9566Z" fill="#4D4D4D"/>
<path d="M9.80454 20.5119L9.80133 21.1908L25.9061 21.2678L25.9093 20.5889L9.80454 20.5119Z" fill="white"/>
<path d="M20.902 8.88694L20.7882 32.3557L21.4627 32.359L21.5766 8.89026L20.902 8.88694Z" fill="white"/>
<path d="M32.6924 17.6365C32.6618 18.0145 32.5698 18.3694 32.4318 18.6934C32.2862 19.0175 32.0945 19.2952 31.8416 19.5344C31.5963 19.7735 31.2897 19.9587 30.9294 20.0898C30.5691 20.221 30.1476 20.2904 29.6723 20.2904C29.1357 20.2904 28.6605 20.1978 28.2542 20.0204C27.848 19.8429 27.503 19.5884 27.2271 19.2566C26.9511 18.9326 26.7442 18.5314 26.6062 18.0685C26.4682 17.6056 26.3992 17.0964 26.3992 16.5332C26.3992 15.9546 26.4759 15.43 26.6292 14.9748C26.7825 14.5119 26.9971 14.1185 27.2884 13.7945C27.572 13.4704 27.917 13.2158 28.3232 13.0461C28.7295 12.8764 29.1817 12.7838 29.6953 12.7838C30.1476 12.7838 30.5385 12.8378 30.8758 12.9535C31.213 13.0693 31.489 13.2313 31.7189 13.4473C31.9489 13.6633 32.1329 13.9179 32.2708 14.2188C32.4088 14.5197 32.5161 14.8591 32.5774 15.2294L31.1057 15.4223C31.0291 15.0057 30.8911 14.674 30.6841 14.4348C30.4772 14.1956 30.1476 14.0722 29.6953 14.0722C29.1281 14.0722 28.6912 14.2882 28.3999 14.7202C28.1086 15.1523 27.9553 15.7618 27.9553 16.5487C27.9553 17.3433 28.1163 17.9528 28.4305 18.3771C28.7448 18.8014 29.1664 19.0175 29.6953 19.0175C30.1552 19.0175 30.4925 18.9017 30.7071 18.6626C30.9217 18.4234 31.0597 18.0839 31.1134 17.6442H32.6924V17.6365Z" fill="#D94D15"/>
<path d="M33.7196 12.9611H35.199V18.8244H38.5564L38.3954 20.1051H33.7119V12.9611H33.7196Z" fill="#D94D15"/>
<path d="M42.2894 20.2825C41.7605 20.2825 41.2852 20.1977 40.8636 20.0202C40.4497 19.8505 40.0894 19.5959 39.7981 19.2719C39.5069 18.9478 39.2846 18.5544 39.1236 18.0915C38.9703 17.6286 38.8936 17.1117 38.8936 16.5331C38.8936 15.9544 38.9703 15.4298 39.1236 14.9747C39.2769 14.5118 39.5069 14.1183 39.7981 13.7943C40.0894 13.4702 40.4497 13.2156 40.8636 13.0459C41.2775 12.8762 41.7528 12.7836 42.274 12.7836C42.8029 12.7836 43.2782 12.8685 43.6998 13.0459C44.1137 13.2234 44.474 13.4702 44.7576 13.7943C45.0489 14.1183 45.2635 14.5118 45.4168 14.9747C45.5701 15.4375 45.6468 15.9544 45.6468 16.5331C45.6468 17.1117 45.5701 17.6363 45.4245 18.0915C45.2788 18.5544 45.0565 18.9478 44.7653 19.2719C44.474 19.5959 44.1214 19.8505 43.7074 20.0202C43.3012 20.1977 42.8259 20.2825 42.2894 20.2825ZM42.2817 19.0018C42.9026 19.0018 43.3702 18.7858 43.6768 18.3615C43.9834 17.9372 44.1367 17.3277 44.1367 16.5331C44.1367 15.7461 43.9834 15.1367 43.6768 14.7046C43.3702 14.2726 42.9103 14.0566 42.2817 14.0566C41.6608 14.0566 41.1932 14.2726 40.8866 14.7046C40.58 15.1367 40.4267 15.7461 40.4267 16.5331C40.4267 17.3277 40.58 17.9372 40.8866 18.3615C41.1932 18.7935 41.6531 19.0018 42.2817 19.0018Z" fill="#D94D15"/>
<path d="M46.7429 12.9611H48.2223V17.212C48.2223 17.8215 48.3296 18.2689 48.5442 18.5621C48.7589 18.8553 49.1115 19.0018 49.6097 19.0018C50.108 19.0018 50.4606 18.8553 50.6675 18.5621C50.8745 18.2689 50.9818 17.8215 50.9818 17.212V12.9611H52.4612V17.212C52.4612 17.752 52.3922 18.2149 52.2619 18.6007C52.1316 18.9864 51.94 19.3027 51.6947 19.5573C51.4494 19.8042 51.1504 19.9893 50.7978 20.1051C50.4452 20.2208 50.0466 20.2825 49.602 20.2825C49.1498 20.2825 48.7512 20.2208 48.3909 20.1051C48.0383 19.9816 47.7394 19.7965 47.4941 19.5496C47.2488 19.3027 47.0648 18.9787 46.9345 18.5852C46.8119 18.1918 46.7429 17.7212 46.7429 17.1811V12.9611Z" fill="#D94D15"/>
<path d="M53.772 12.9611H56.4242C57.5126 12.9611 58.3558 13.2542 58.9614 13.8483C59.5669 14.4423 59.8735 15.3218 59.8735 16.4868C59.8735 17.0808 59.7892 17.5977 59.6206 18.0452C59.4519 18.4927 59.2067 18.8707 58.8924 19.1793C58.5704 19.4879 58.1872 19.7193 57.7273 19.8659C57.2673 20.0202 56.7538 20.0974 56.1789 20.0974H53.772V12.9611ZM56.2095 18.8321C56.5928 18.8321 56.9224 18.7781 57.1907 18.6701C57.459 18.5621 57.6813 18.4001 57.8499 18.1918C58.0185 17.9835 58.1412 17.7366 58.2255 17.4589C58.3022 17.1734 58.3481 16.8571 58.3481 16.5022C58.3481 16.155 58.3098 15.8387 58.2408 15.5533C58.1718 15.2678 58.0569 15.0287 57.9112 14.8358C57.7579 14.6429 57.5586 14.4886 57.321 14.3883C57.0757 14.2803 56.7844 14.2263 56.4318 14.2263H55.259V18.8321H56.2095Z" fill="#D94D15"/>
<path d="M67.1709 17.6363C67.1402 18.0143 67.0482 18.3692 66.9103 18.6932C66.7646 19.0173 66.573 19.295 66.32 19.5342C66.0747 19.7733 65.7681 19.9585 65.4079 20.0896C65.0476 20.2208 64.626 20.2902 64.1507 20.2902C63.6142 20.2902 63.1389 20.1977 62.7327 20.0202C62.3264 19.8428 61.9815 19.5882 61.7055 19.2564C61.4296 18.9324 61.2226 18.5312 61.0846 18.0683C60.9467 17.6054 60.8777 17.0963 60.8777 16.5331C60.8777 15.9544 60.9543 15.4298 61.1076 14.9747C61.2609 14.5118 61.4756 14.1183 61.7668 13.7943C62.0505 13.4702 62.3954 13.2156 62.8017 13.0459C63.2079 12.8762 63.6602 12.7836 64.1737 12.7836C64.626 12.7836 65.0169 12.8376 65.3542 12.9533C65.6915 13.0691 65.9674 13.2311 66.1974 13.4471C66.4273 13.6631 66.6113 13.9177 66.7493 14.2186C66.8873 14.5195 66.9946 14.8589 67.0559 15.2292L65.5842 15.4221C65.5075 15.0055 65.3695 14.6738 65.1626 14.4346C64.9556 14.1954 64.626 14.072 64.1737 14.072C63.6065 14.072 63.1696 14.288 62.8783 14.7201C62.587 15.1521 62.4337 15.7616 62.4337 16.5485C62.4337 17.3431 62.5947 17.9526 62.909 18.3769C63.2232 18.8012 63.6448 19.0173 64.1737 19.0173C64.6337 19.0173 64.9709 18.9015 65.1856 18.6624C65.4002 18.4232 65.5382 18.0838 65.5918 17.644H67.1709V17.6363Z" fill="#D94D15"/>
<path d="M71.3561 20.2825C70.8272 20.2825 70.352 20.1977 69.938 20.0202C69.5164 19.8505 69.1638 19.5959 68.8726 19.2719C68.5813 18.9478 68.359 18.5544 68.198 18.0915C68.0447 17.6286 67.968 17.1117 67.968 16.5331C67.968 15.9544 68.0447 15.4298 68.198 14.9747C68.3513 14.5118 68.5813 14.1183 68.8726 13.7943C69.1638 13.4702 69.5241 13.2156 69.938 13.0459C70.352 12.8762 70.8272 12.7836 71.3484 12.7836C71.8773 12.7836 72.3526 12.8685 72.7742 13.0459C73.1881 13.2234 73.5484 13.4702 73.832 13.7943C74.1233 14.1183 74.3379 14.5118 74.4912 14.9747C74.6445 15.4375 74.7212 15.9544 74.7212 16.5331C74.7212 17.1117 74.6445 17.6363 74.4989 18.0915C74.3532 18.5544 74.1309 18.9478 73.8397 19.2719C73.5484 19.5959 73.1958 19.8505 72.7818 20.0202C72.3679 20.1977 71.8927 20.2825 71.3561 20.2825ZM71.3408 19.0018C71.9617 19.0018 72.4292 18.7858 72.7359 18.3615C73.0425 17.9372 73.1958 17.3277 73.1958 16.5331C73.1958 15.7461 73.0425 15.1367 72.7359 14.7046C72.4292 14.2726 71.9693 14.0566 71.3408 14.0566C70.7199 14.0566 70.2523 14.2726 69.9457 14.7046C69.6391 15.1367 69.4858 15.7461 69.4858 16.5331C69.4858 17.3277 69.6391 17.9372 69.9457 18.3615C70.26 18.7935 70.7199 19.0018 71.3408 19.0018Z" fill="#D94D15"/>
<path d="M75.9476 12.9611H77.726L79.4966 18.2921L81.3133 12.9611H83.0457V20.1051H81.6812V15.345L80.0639 20.1051H78.9141L77.2814 15.3527V20.1051H75.9476V12.9611Z" fill="#D94D15"/>
<path d="M84.5021 12.9611H87.0393C87.5835 12.9611 88.0358 13.0228 88.3884 13.1462C88.741 13.2697 89.0246 13.4317 89.2316 13.64C89.4385 13.8406 89.5842 14.0797 89.6685 14.3497C89.7528 14.6198 89.7911 14.9052 89.7911 15.1984C89.7911 15.5147 89.7528 15.8156 89.6685 16.101C89.5842 16.3865 89.4385 16.6411 89.2316 16.8571C89.0246 17.0731 88.741 17.2428 88.396 17.374C88.0511 17.4974 87.6065 17.5669 87.0776 17.5669H85.9661V20.1205H84.5021V12.9611ZM87.024 16.3093C87.2846 16.3093 87.4992 16.2862 87.6678 16.2322C87.8365 16.1782 87.9744 16.1087 88.0741 16.0085C88.1737 15.9082 88.2427 15.8001 88.2811 15.6613C88.3194 15.5224 88.3347 15.3758 88.3347 15.2138C88.3347 15.0441 88.3117 14.8975 88.2734 14.7741C88.2351 14.6506 88.1661 14.5426 88.0664 14.45C87.9668 14.3652 87.8365 14.2957 87.6602 14.2494C87.4915 14.2032 87.2769 14.18 87.0163 14.18H85.9585V16.3016H87.024V16.3093Z" fill="#D94D15"/>
<path d="M90.7263 12.9611H92.2057V17.212C92.2057 17.8215 92.313 18.2689 92.5276 18.5621C92.7423 18.8553 93.0949 19.0018 93.5931 19.0018C94.0913 19.0018 94.444 18.8553 94.6509 18.5621C94.8579 18.2689 94.9652 17.8215 94.9652 17.212V12.9611H96.4446V17.212C96.4446 17.752 96.3756 18.2149 96.2453 18.6007C96.115 18.9864 95.9233 19.3027 95.6781 19.5573C95.4328 19.8119 95.1338 19.9893 94.7812 20.1051C94.4286 20.2208 94.03 20.2825 93.5854 20.2825C93.1332 20.2825 92.7346 20.2208 92.3743 20.1051C92.0217 19.9816 91.7228 19.7965 91.4775 19.5496C91.2322 19.3027 91.0482 18.9787 90.9179 18.5852C90.7953 18.1918 90.7263 17.7212 90.7263 17.1811V12.9611Z" fill="#D94D15"/>
<path d="M99.3651 14.2494H97.2264V12.9611H102.991V14.2494H100.852V20.1051H99.3574V14.2494H99.3651Z" fill="#D94D15"/>
<path d="M103.918 12.9611H105.398V20.1051H103.918V12.9611Z" fill="#D94D15"/>
<path d="M106.854 12.9611H108.188L111.108 17.644V12.9611H112.549V20.1051H111.223L108.287 15.4607V20.1051H106.846V12.9611H106.854Z" fill="#D94D15"/>
<path d="M117.271 16.1936H119.992V19.2179C119.624 19.5573 119.195 19.8196 118.689 20.0048C118.183 20.1899 117.662 20.2825 117.126 20.2825C116.558 20.2825 116.068 20.1899 115.646 20.0125C115.225 19.835 114.872 19.5805 114.596 19.2487C114.32 18.9247 114.105 18.5235 113.967 18.0606C113.829 17.5977 113.76 17.0885 113.76 16.5254C113.76 15.9467 113.837 15.4221 113.99 14.9669C114.144 14.504 114.358 14.1106 114.642 13.7866C114.926 13.4625 115.263 13.2079 115.669 13.0382C116.075 12.8685 116.528 12.7759 117.018 12.7759C117.478 12.7759 117.869 12.8299 118.199 12.9456C118.528 13.0614 118.804 13.2157 119.034 13.4162C119.264 13.6168 119.448 13.8483 119.578 14.1183C119.716 14.3883 119.808 14.6738 119.87 14.9824L118.398 15.1752C118.36 14.9978 118.314 14.8358 118.252 14.6969C118.199 14.558 118.114 14.4423 118.007 14.3497C117.9 14.2495 117.769 14.18 117.608 14.126C117.447 14.0797 117.248 14.0489 117.011 14.0489C116.436 14.0489 116.006 14.2649 115.715 14.6969C115.431 15.1289 115.286 15.7384 115.286 16.5254C115.286 17.32 115.431 17.9295 115.715 18.3615C116.006 18.7935 116.474 19.0096 117.126 19.0096C117.44 19.0096 117.708 18.9787 117.938 18.917C118.168 18.8553 118.39 18.755 118.597 18.6238V17.4357H117.248V16.1936H117.271Z" fill="#D94D15"/>
<path d="M26.6292 21.8101H28.1086V28.9541H26.6292V21.8101Z" fill="#1C1A1E"/>
<path d="M29.5573 21.8101H30.8911L33.8115 26.493V21.8101H35.2603V28.9541H33.9342L30.9984 24.3097V28.9541H29.5573V21.8101Z" fill="#1C1A1E"/>
<path d="M37.7668 26.6242C37.7975 27.0639 37.9431 27.388 38.1884 27.5885C38.4337 27.7891 38.8017 27.8894 39.2846 27.8894C39.5145 27.8894 39.7138 27.8663 39.8748 27.8123C40.0358 27.766 40.1661 27.6965 40.2657 27.6117C40.3654 27.5268 40.4344 27.4265 40.4804 27.3185C40.5263 27.2028 40.5417 27.0794 40.5417 26.9482C40.5417 26.763 40.4727 26.5856 40.3347 26.4236C40.1967 26.2616 39.9438 26.1381 39.5682 26.0687L38.6407 25.899C38.2727 25.8295 37.9508 25.7447 37.6749 25.6367C37.3989 25.5287 37.1613 25.3898 36.9773 25.2201C36.7857 25.0503 36.6477 24.842 36.5481 24.5952C36.4484 24.3483 36.4024 24.0551 36.4024 23.7157C36.4024 23.3762 36.4714 23.0753 36.6094 22.813C36.7474 22.5507 36.9313 22.3347 37.1766 22.165C37.4219 21.9952 37.7055 21.8564 38.0505 21.7715C38.3877 21.6789 38.7633 21.6326 39.1619 21.6326C39.6755 21.6326 40.1124 21.6943 40.4574 21.8101C40.8023 21.9335 41.0782 22.0878 41.2929 22.2884C41.5075 22.489 41.6608 22.7127 41.7681 22.975C41.8678 23.2373 41.9368 23.5073 41.9751 23.7851L40.5723 23.9625C40.4957 23.5691 40.3577 23.2836 40.1507 23.1139C39.9438 22.9442 39.6218 22.8516 39.2002 22.8516C38.9473 22.8516 38.7403 22.8747 38.5794 22.9133C38.4184 22.9596 38.2881 23.0136 38.1884 23.083C38.0888 23.1525 38.0198 23.2373 37.9815 23.3299C37.9431 23.4225 37.9201 23.5228 37.9201 23.6231C37.9201 23.8931 37.9968 24.0937 38.1424 24.2248C38.2881 24.356 38.5487 24.464 38.9013 24.5334L39.8748 24.7263C40.6413 24.8806 41.2086 25.1275 41.5688 25.4747C41.9291 25.8218 42.1054 26.3156 42.1054 26.9636C42.1054 27.2799 42.0441 27.5654 41.9291 27.8277C41.8141 28.09 41.6378 28.3215 41.4155 28.522C41.1856 28.7226 40.9019 28.8692 40.557 28.9849C40.2121 29.0929 39.8058 29.147 39.3459 29.147C38.3801 29.147 37.6365 28.9387 37.123 28.522C36.6094 28.1054 36.3334 27.4728 36.2951 26.6319H37.7668V26.6242Z" fill="#1C1A1E"/>
<path d="M43.1249 21.8101H44.6043V28.9541H43.1249V21.8101Z" fill="#1C1A1E"/>
<path d="M46.053 21.8101H48.7052C49.7937 21.8101 50.6368 22.1032 51.2424 22.6973C51.848 23.2913 52.1546 24.1708 52.1546 25.3358C52.1546 25.9298 52.0703 26.4467 51.9016 26.8942C51.733 27.3417 51.4877 27.7197 51.1734 28.0283C50.8591 28.3369 50.4682 28.5683 50.0083 28.7149C49.5484 28.8692 49.0348 28.9464 48.4599 28.9464H46.053V21.8101ZM48.4906 27.6888C48.8738 27.6888 49.2034 27.6348 49.4717 27.5268C49.74 27.4188 49.9623 27.2568 50.1309 27.0485C50.2996 26.8402 50.4222 26.5933 50.5065 26.3156C50.5832 26.0301 50.6292 25.7138 50.6292 25.3589C50.6292 25.0118 50.5909 24.6954 50.5219 24.41C50.4529 24.1245 50.3379 23.8854 50.1923 23.6925C50.039 23.4996 49.8397 23.3453 49.602 23.245C49.3567 23.137 49.0655 23.083 48.7129 23.083H47.5401V27.6888H48.4906Z" fill="#1C1A1E"/>
<path d="M53.3887 21.8101H58.2331V23.083H54.8757V24.6414H58.0415V25.9221H54.8757V27.6811H58.4478L58.2945 28.9541H53.3887V21.8101Z" fill="#1C1A1E"/>
<path d="M59.4902 21.8101H62.0045C62.564 21.8101 63.0239 21.8718 63.3842 22.0029C63.7445 22.1341 64.0281 22.3038 64.2351 22.5121C64.442 22.7204 64.58 22.9596 64.6643 23.2142C64.741 23.4688 64.787 23.7234 64.787 23.9702C64.787 24.4331 64.7026 24.8189 64.5417 25.1275C64.373 25.4438 64.0971 25.7061 63.7062 25.9144L65.1472 28.9464H63.5452L62.3494 26.2616H60.9543V28.9464H59.4902V21.8101ZM62.1041 25.0349C62.3341 25.0349 62.5257 25.0118 62.679 24.9578C62.8323 24.9115 62.955 24.8343 63.0393 24.7495C63.1313 24.6569 63.1926 24.5489 63.2232 24.4254C63.2539 24.302 63.2692 24.1554 63.2692 24.0088C63.2692 23.8854 63.2462 23.7619 63.2079 23.6462C63.1696 23.5305 63.1006 23.4225 63.0009 23.3376C62.9013 23.245 62.771 23.1756 62.6024 23.1293C62.4337 23.083 62.2191 23.0522 61.9585 23.0522H60.9313V25.0426H62.1041V25.0349Z" fill="#1C1A1E"/>
<path fill-rule="evenodd" clip-rule="evenodd" d="M19.2092 38.5977C18.55 38.6363 16.3654 39.2535 15.9668 39.3924C15.5605 39.5389 14.9013 39.7935 14.518 39.9787C14.0428 40.2024 13.6442 40.5033 13.1766 40.7193L12.755 40.6422C12.686 40.5573 12.5864 40.5033 12.6094 40.3722C12.7014 39.8861 16.511 38.6749 18.1591 38.4589C13.8742 37.3788 10.3251 34.7171 7.98723 31.1837C5.46535 27.3725 4.35388 22.5507 5.25839 17.6132C6.16289 12.6756 8.90706 8.56356 12.6171 5.90963C13.3453 5.38501 14.1118 4.92212 14.9013 4.52094C14.886 4.51323 14.8707 4.51323 14.8553 4.50551C15.5912 1.705 16.718 2.50735 19.4545 1.9133C19.3702 2.99339 17.2009 4.93755 15.2462 4.6058C14.3724 5.03013 13.5369 5.53159 12.7474 6.1025C9.09103 8.72557 6.37752 12.7913 5.48834 17.6672C4.59917 22.543 5.68764 27.3108 8.17886 31.068C10.6701 34.8328 14.5487 37.5948 19.2399 38.4666L19.2092 38.5977ZM13.0463 4.67524C15.0853 3.80345 14.3571 3.03196 14.5104 0.864071C13.6519 1.05694 12.3028 3.18626 13.0463 4.67524ZM11.015 6.57311C12.8164 5.277 11.9348 4.67524 11.6129 2.53049C10.8157 2.90852 9.9572 5.28472 11.015 6.57311ZM12.6247 6.95885C14.0198 7.77664 16.1584 6.57311 16.3884 5.7399C14.2881 5.76304 13.5829 5.00698 12.6247 6.95885ZM10.0875 9.37362C11.5592 10.0525 13.5676 8.64842 13.7209 7.79978C11.6282 8.03123 10.854 7.3446 10.0875 9.37362ZM8.79208 8.687C10.6701 7.33688 9.75024 6.71198 9.41297 4.47465C8.58512 4.86811 7.69595 7.3446 8.79208 8.687ZM7.22836 11.0015C8.50847 9.06503 7.43533 8.81043 6.33153 6.84313C5.69531 7.50661 5.72597 10.1374 7.22836 11.0015ZM7.7726 12.5599C9.52028 12.9533 11.3753 10.9552 11.3446 9.99853C9.13702 10.7392 8.1252 10.176 7.7726 12.5599ZM5.57266 13.802C7.02907 11.6109 5.80262 11.3178 4.56085 9.08046C3.82498 9.83652 3.87097 12.8222 5.57266 13.802ZM6.36219 15.6227C8.1482 15.8156 9.76557 13.6245 9.63526 12.6756C7.51198 13.6554 6.45417 13.2079 6.36219 15.6227ZM4.59917 16.7568C2.66752 16.0779 2.06963 13.0305 2.66752 12.1201C4.36921 14.1723 5.67998 14.234 4.59917 16.7568ZM4.14692 19.8505C4.84446 17.0654 3.48004 17.2197 1.38742 15.3835C0.919836 16.4173 2.04663 19.4724 4.14692 19.8505ZM5.62632 19.8119C7.85692 19.7039 9.43597 16.6951 9.08336 15.5533C6.6688 17.1734 5.28138 16.8339 5.62632 19.8119ZM4.38454 23.4225C4.62217 20.3751 3.21942 20.7763 0.705208 19.2333C0.390931 20.406 2.11562 23.3993 4.38454 23.4225ZM5.1664 26.1844C4.11626 23.3145 3.01246 24.2711 0.0843201 23.9162C0.283617 25.112 3.08911 27.1179 5.1664 26.1844ZM5.81029 23.8699C8.01789 23.4456 9.16768 20.2131 8.65411 19.1253C6.47717 21.0926 5.04376 20.946 5.81029 23.8699ZM6.52316 29.0235C4.89812 26.439 4.01661 27.6117 1.08081 27.8894C1.53306 29.0158 4.69882 30.3736 6.52316 29.0235ZM7.30502 28.1363C9.16768 27.0562 9.19834 23.7851 8.40115 22.9673C7.0444 25.4129 5.70297 25.737 7.30502 28.1363ZM8.00256 32.0786C6.37752 29.5018 5.49601 30.6668 2.56021 30.9445C3.00479 32.0709 6.17055 33.4287 8.00256 32.0786ZM10.0798 32.3178C11.5286 30.5279 10.3251 27.2414 9.21367 26.7245C8.78442 29.7024 7.56564 30.5356 10.0798 32.3178ZM10.4784 34.4394C8.11754 32.1943 7.51198 33.637 4.54551 34.7094C5.31204 35.7586 8.93772 36.3295 10.4784 34.4394ZM13.1 36.4838C10.4095 34.7866 10.1028 36.291 7.45832 37.888C8.38582 38.752 11.9808 38.5977 13.1 36.4838ZM14.0198 35.7972C14.9703 33.4364 12.6477 30.3736 11.314 30.1962C11.8199 33.4596 10.8081 34.7326 14.0198 35.7972Z" fill="#D94D15"/>
<path d="M23.7164 35.4578H24.9122L27.1658 41.5062H25.8167L25.3338 40.1098H23.2335L22.7506 41.5062H21.4628L23.7164 35.4578ZM25.0118 39.0683L24.2836 36.9004L23.5631 39.0683H25.0118Z" fill="#575756"/>
<path d="M27.2118 35.4578H28.6222L29.588 39.6547L30.5692 35.4886H31.8952L32.9224 39.6547L33.8346 35.4578H35.1837L33.551 41.5062H32.3322L31.213 37.0393L30.1246 41.5062H28.9365L27.2118 35.4578Z" fill="#575756"/>
<path d="M37.5216 35.4578H38.7174L40.9709 41.5062H39.6295L39.1466 40.1098H37.0463L36.5634 41.5062H35.268L37.5216 35.4578ZM38.817 39.0683L38.0888 36.9004L37.3683 39.0683H38.817Z" fill="#575756"/>
<path d="M42.0901 35.4578H44.221C44.6886 35.4578 45.0795 35.5118 45.3862 35.6198C45.6928 35.7278 45.9304 35.8744 46.1067 36.0518C46.283 36.2292 46.398 36.4298 46.467 36.6458C46.536 36.8619 46.5666 37.0779 46.5666 37.2862C46.5666 37.6719 46.4976 38.0037 46.3597 38.266C46.2217 38.5283 45.9841 38.752 45.6544 38.9372L46.8732 41.5062H45.5165L44.5047 39.2381H43.3242V41.5062H42.0901V35.4578ZM44.3054 38.1888C44.5047 38.1888 44.6656 38.1657 44.7959 38.1271C44.9262 38.0885 45.0259 38.0268 45.1025 37.9497C45.1792 37.8725 45.2329 37.7799 45.2559 37.6719C45.2865 37.5639 45.2942 37.4482 45.2942 37.317C45.2942 37.209 45.2788 37.1087 45.2405 37.0085C45.2099 36.9082 45.1485 36.8233 45.0719 36.7461C44.9876 36.669 44.8803 36.6073 44.7346 36.5687C44.589 36.5301 44.4127 36.507 44.1904 36.507H43.3242V38.1888H44.3054Z" fill="#575756"/>
<path d="M48.0077 35.4578H50.2536C51.1734 35.4578 51.8863 35.7123 52.3999 36.2138C52.9135 36.7153 53.1664 37.4636 53.1664 38.4511C53.1664 38.9526 53.0974 39.3924 52.9518 39.7704C52.8061 40.1484 52.5992 40.4647 52.3309 40.727C52.0626 40.9893 51.733 41.1822 51.3497 41.3134C50.9665 41.4445 50.5219 41.5062 50.039 41.5062H48V35.4578H48.0077ZM50.062 40.4339C50.3839 40.4339 50.6675 40.3876 50.8975 40.295C51.1274 40.2024 51.3114 40.0713 51.457 39.8938C51.6027 39.7164 51.7023 39.5081 51.7713 39.2689C51.8403 39.0298 51.871 38.7597 51.871 38.4589C51.871 38.1657 51.8403 37.8957 51.779 37.6565C51.7177 37.4173 51.6257 37.2168 51.4954 37.0547C51.3651 36.8927 51.1964 36.7616 50.9971 36.6767C50.7902 36.5841 50.5449 36.5378 50.2459 36.5378H49.2494V40.4339H50.062Z" fill="#575756"/>
<path d="M56.9301 41.0511C57.1294 40.8736 57.3516 40.673 57.6046 40.4493C57.8576 40.2179 58.1182 39.9941 58.3711 39.7704C58.6547 39.5235 58.9077 39.2921 59.1223 39.0838C59.337 38.8755 59.5209 38.6749 59.6589 38.4743C59.8045 38.2737 59.9119 38.0808 59.9808 37.8802C60.0575 37.6796 60.0882 37.4636 60.0882 37.2322C60.0882 36.8079 59.9808 36.4916 59.7585 36.2832C59.5363 36.0749 59.2296 35.9669 58.8234 35.9669C58.5858 35.9669 58.3788 35.9901 58.2102 36.0441C58.0415 36.0981 57.9035 36.1752 57.7962 36.2678C57.6813 36.3604 57.5893 36.4838 57.5203 36.6227C57.4513 36.7616 57.39 36.9159 57.3287 37.0856L56.8841 36.993C56.9301 36.8156 56.999 36.6381 57.0834 36.4607C57.1753 36.2832 57.2903 36.1212 57.4436 35.9747C57.5969 35.8358 57.7809 35.7201 58.0109 35.6275C58.2408 35.5349 58.5168 35.4886 58.8387 35.4886C59.1223 35.4886 59.3676 35.5272 59.5899 35.6121C59.8122 35.6969 59.9962 35.8126 60.1418 35.9592C60.2874 36.1058 60.4024 36.2832 60.4791 36.4916C60.5557 36.6921 60.5941 36.9159 60.5941 37.155C60.5941 37.4173 60.5557 37.6719 60.4791 37.9034C60.4024 38.1348 60.2798 38.3663 60.1188 38.59C59.9578 38.8215 59.7585 39.0529 59.5056 39.2998C59.2603 39.5389 58.969 39.809 58.6317 40.0944C58.4554 40.241 58.2791 40.3953 58.0875 40.565C57.8959 40.7348 57.7196 40.8891 57.5509 41.0356H60.6477L60.5481 41.5062H56.9071V41.0511H56.9301Z" fill="#D94D15"/>
<path d="M60.847 41.8457H56.5928V40.8968L57.3823 40.187C57.6353 39.9555 57.8959 39.7318 58.1565 39.5004C58.4324 39.2612 58.6854 39.0298 58.9 38.8292C59.0993 38.6363 59.268 38.4434 59.3983 38.266C59.5209 38.0963 59.6129 37.9188 59.6819 37.7491C59.7432 37.5871 59.7739 37.4096 59.7739 37.2168C59.7739 36.8927 59.6972 36.6536 59.5516 36.5147C59.3983 36.3681 59.1606 36.291 58.8464 36.291C58.6394 36.291 58.4708 36.3141 58.3405 36.3527C58.2178 36.3913 58.1182 36.4453 58.0415 36.5147C57.9649 36.5841 57.9035 36.6613 57.8499 36.7616C57.7886 36.885 57.7272 37.0316 57.6812 37.1859L57.5893 37.4713L56.5008 37.2476L56.5928 36.9004C56.6464 36.6999 56.7231 36.4993 56.8227 36.2987C56.93 36.0827 57.0757 35.8898 57.2597 35.7201C57.4436 35.5503 57.6659 35.4115 57.9342 35.3035C58.2025 35.1954 58.5168 35.1414 58.8847 35.1414C59.2066 35.1414 59.4979 35.1877 59.7509 35.288C60.0115 35.3883 60.2415 35.5272 60.4254 35.7123C60.6094 35.8975 60.7474 36.1135 60.8393 36.3604C60.9313 36.5996 60.9773 36.8696 60.9773 37.1473C60.9773 37.4482 60.9313 37.7337 60.8393 38.0037C60.7474 38.266 60.617 38.5283 60.4407 38.7829C60.2721 39.0298 60.0498 39.2844 59.7892 39.5389C59.5362 39.7858 59.2373 40.0558 58.9 40.349C58.7697 40.457 58.6394 40.5727 58.5014 40.6885H61.1076L60.847 41.8457Z" fill="#D94D15"/>
<path d="M64.0128 41.6605C63.3536 41.6605 62.8477 41.4137 62.4797 40.9199C62.1118 40.4262 61.9355 39.647 61.9355 38.59C61.9355 38.0577 61.9815 37.6025 62.0811 37.209C62.1808 36.8233 62.3187 36.4993 62.5027 36.2447C62.6867 35.9901 62.909 35.8049 63.1696 35.6815C63.4302 35.558 63.7215 35.4963 64.0434 35.4963C64.3654 35.4963 64.6567 35.558 64.9173 35.6815C65.1702 35.8049 65.3849 35.9901 65.5612 36.2447C65.7375 36.4993 65.8754 36.8233 65.9674 37.209C66.0594 37.5948 66.1131 38.0577 66.1131 38.59C66.1131 39.1223 66.0671 39.5775 65.9674 39.9633C65.8754 40.349 65.7375 40.6653 65.5535 40.9199C65.3772 41.1745 65.1549 41.3597 64.8943 41.4754C64.6413 41.5988 64.3424 41.6605 64.0128 41.6605ZM64.0281 41.1977C64.3117 41.1977 64.557 41.1359 64.7486 41.0202C64.9479 40.9045 65.1012 40.7348 65.2315 40.511C65.3542 40.2873 65.4462 40.0173 65.4998 39.6932C65.5535 39.3692 65.5765 38.9989 65.5765 38.59C65.5765 38.1811 65.5535 37.8185 65.4998 37.4945C65.4462 37.1705 65.3619 36.8927 65.2315 36.669C65.1089 36.4453 64.9479 36.2678 64.7486 36.1521C64.5493 36.0287 64.3117 35.9669 64.0281 35.9669C63.7445 35.9669 63.4992 36.0287 63.2999 36.1521C63.1006 36.2755 62.9396 36.4453 62.817 36.669C62.6943 36.8927 62.6024 37.1705 62.5487 37.4945C62.495 37.8185 62.4721 38.1811 62.4721 38.59C62.4721 38.9989 62.495 39.3692 62.5487 39.6932C62.6024 40.0173 62.6867 40.295 62.817 40.511C62.9396 40.7348 63.1006 40.9045 63.2999 41.0202C63.4992 41.1436 63.7445 41.1977 64.0281 41.1977Z" fill="#D94D15"/>
<path d="M64.0128 42C63.2463 42 62.6407 41.7068 62.2114 41.1205C61.7975 40.565 61.5982 39.7318 61.5982 38.5823C61.5982 38.0268 61.6519 37.5331 61.7592 37.1165C61.8665 36.6844 62.0275 36.3218 62.2421 36.0364C62.4644 35.7355 62.7327 35.5118 63.0393 35.3652C63.3459 35.2263 63.6832 35.1492 64.0511 35.1492C64.4267 35.1492 64.764 35.2186 65.0629 35.3652C65.3695 35.5118 65.6302 35.7355 65.8448 36.0441C66.0441 36.3295 66.1974 36.6921 66.3047 37.1242C66.4043 37.5408 66.458 38.0345 66.458 38.5823C66.458 39.1378 66.4043 39.6238 66.3047 40.0404C66.1974 40.4647 66.0441 40.8273 65.8371 41.1128C65.6225 41.4137 65.3542 41.6374 65.0476 41.784C64.741 41.9229 64.3884 42 64.0128 42ZM64.0281 36.2987C63.8058 36.2987 63.6219 36.345 63.4762 36.4298C63.3306 36.5224 63.2079 36.6459 63.1159 36.8233C63.0086 37.0162 62.932 37.2553 62.886 37.5408C62.84 37.8417 62.8093 38.1965 62.8093 38.5823C62.8093 38.9758 62.8323 39.3306 62.886 39.6315C62.932 39.917 63.0086 40.1561 63.1159 40.3413C63.2079 40.511 63.3306 40.6422 63.4762 40.727C63.6219 40.8119 63.8058 40.8582 64.0358 40.8582C64.2581 40.8582 64.442 40.8119 64.5877 40.727C64.7333 40.6422 64.8483 40.511 64.9479 40.3413C65.0553 40.1561 65.1319 39.917 65.1779 39.6315C65.2316 39.3229 65.2546 38.9758 65.2546 38.5823C65.2546 38.1965 65.2316 37.8494 65.1779 37.5408C65.1319 37.2553 65.0553 37.0162 64.9479 36.8233C64.856 36.6459 64.7333 36.5224 64.5877 36.4298C64.4344 36.345 64.2504 36.2987 64.0281 36.2987Z" fill="#D94D15"/>
<path d="M67.3395 41.0511C67.5388 40.8736 67.7611 40.673 68.014 40.4493C68.267 40.2179 68.5276 39.9941 68.7806 39.7704C69.0642 39.5235 69.3171 39.2921 69.5318 39.0838C69.7464 38.8755 69.9304 38.6749 70.0683 38.4743C70.214 38.2737 70.3213 38.0808 70.3903 37.8802C70.4593 37.6796 70.4976 37.4636 70.4976 37.2322C70.4976 36.8079 70.3903 36.4916 70.168 36.2832C69.9457 36.0749 69.6391 35.9669 69.2328 35.9669C68.9952 35.9669 68.7882 35.9901 68.6196 36.0441C68.451 36.0981 68.313 36.1752 68.2057 36.2678C68.0907 36.3604 67.9987 36.4838 67.9297 36.6227C67.8607 36.7616 67.7994 36.9159 67.7381 37.0856L67.2935 36.993C67.3395 36.8156 67.4085 36.6381 67.4928 36.4607C67.5848 36.2832 67.6998 36.1212 67.8531 35.9747C68.0064 35.8358 68.1903 35.7201 68.4203 35.6275C68.6503 35.5349 68.9262 35.4886 69.2481 35.4886C69.5318 35.4886 69.7771 35.5272 69.9994 35.6121C70.2216 35.6969 70.4056 35.8126 70.5513 35.9592C70.6969 36.1058 70.8119 36.2832 70.8885 36.4916C70.9652 36.6921 71.0035 36.9159 71.0035 37.155C71.0035 37.4173 70.9652 37.6719 70.8885 37.9034C70.8119 38.1348 70.6892 38.3663 70.5283 38.59C70.3673 38.8215 70.168 39.0529 69.915 39.2998C69.6697 39.5389 69.3785 39.809 69.0412 40.0944C68.8649 40.241 68.6886 40.3953 68.497 40.565C68.3053 40.7348 68.129 40.8891 67.9604 41.0356H71.0572L70.9805 41.5062H67.3395V41.0511Z" fill="#D94D15"/>
<path d="M71.2565 41.8457H67.0022V40.8968L67.7918 40.187C68.0447 39.9555 68.3053 39.7318 68.5659 39.5004C68.8496 39.2535 69.0949 39.0298 69.3095 38.8292C69.5088 38.6363 69.6774 38.4434 69.8077 38.266C69.9304 38.0963 70.0224 37.9188 70.0837 37.7491C70.145 37.5871 70.1757 37.4096 70.1757 37.2168C70.1757 36.8927 70.099 36.6536 69.9534 36.5147C69.8001 36.3681 69.5624 36.291 69.2482 36.291C69.0412 36.291 68.8726 36.3141 68.7422 36.3527C68.6196 36.3913 68.52 36.4453 68.4433 36.5147C68.3667 36.5841 68.3053 36.6613 68.2517 36.7616C68.1903 36.885 68.129 37.0316 68.083 37.1859L67.991 37.4713L66.9102 37.2476L66.9946 36.9004C67.0482 36.6999 67.1249 36.4993 67.2245 36.2987C67.3318 36.0827 67.4775 35.8898 67.6614 35.7201C67.8454 35.5503 68.0677 35.4115 68.336 35.3035C68.6043 35.1954 68.9185 35.1414 69.2865 35.1414C69.6084 35.1414 69.8997 35.1877 70.1527 35.288C70.4133 35.3883 70.6432 35.5272 70.8272 35.7123C71.0112 35.8975 71.1491 36.1135 71.2411 36.3604C71.3331 36.5996 71.3791 36.8619 71.3791 37.1473C71.3791 37.4482 71.3331 37.7337 71.2411 38.0037C71.1491 38.266 71.0188 38.5283 70.8425 38.7829C70.6739 39.0298 70.4516 39.2844 70.191 39.5389C69.938 39.7858 69.6391 40.0558 69.3018 40.349C69.1715 40.457 69.0412 40.5727 68.9032 40.6885H71.5094L71.2565 41.8457Z" fill="#D94D15"/>
<path d="M73.924 36.1752L72.4676 37.0625L72.2606 36.6844L73.924 35.6583H74.4299V41.5062H73.924V36.1752Z" fill="#D94D15"/>
<path d="M74.7672 41.8457H73.5867V36.777L72.3449 37.5331L71.8084 36.561L73.8243 35.3189H74.7672V41.8457Z" fill="#D94D15"/>
<path d="M21.5401 0.0771503H21.8314L23.5867 2.80823V0.0771503H23.8474V3.23255H23.5561L21.7931 0.493756V3.23255H21.5401V0.0771503Z" fill="#575756"/>
<path d="M25.9163 3.3097C25.717 3.3097 25.5254 3.27884 25.3491 3.2094C25.1728 3.13997 25.0272 3.03968 24.8969 2.90081C24.7742 2.76194 24.6746 2.59221 24.5979 2.38391C24.5289 2.17561 24.4983 1.93644 24.4983 1.66642C24.4983 1.3964 24.5289 1.15724 24.6056 0.948935C24.6746 0.740632 24.7742 0.570904 24.9045 0.42432C25.0348 0.285452 25.1805 0.177443 25.3568 0.108009C25.5254 0.0385746 25.7094 0 25.9163 0C26.1156 0 26.3073 0.0308597 26.4759 0.100294C26.6522 0.169728 26.7978 0.270022 26.9205 0.408891C27.0431 0.547759 27.1428 0.717487 27.2118 0.92579C27.2808 1.13409 27.3191 1.36554 27.3191 1.63556C27.3191 1.9133 27.2808 2.15246 27.2118 2.36076C27.1428 2.56907 27.0431 2.7388 26.9205 2.88538C26.7978 3.02425 26.6445 3.13226 26.4759 3.20169C26.3073 3.27884 26.1156 3.3097 25.9163 3.3097ZM25.9163 3.07825C26.1003 3.07825 26.2613 3.04739 26.4069 2.97796C26.5449 2.90852 26.6675 2.80823 26.7595 2.68479C26.8515 2.56135 26.9282 2.40705 26.9741 2.23733C27.0201 2.05988 27.0431 1.87472 27.0431 1.66642C27.0431 1.45812 27.0201 1.26525 26.9665 1.09552C26.9205 0.918075 26.8438 0.771492 26.7519 0.648053C26.6599 0.524614 26.5372 0.42432 26.3992 0.354886C26.2613 0.285452 26.1003 0.254592 25.9163 0.254592C25.7247 0.254592 25.5637 0.285452 25.4181 0.354886C25.2725 0.42432 25.1575 0.524614 25.0655 0.648053C24.9735 0.771492 24.9045 0.92579 24.8509 1.09552C24.8049 1.27296 24.7819 1.45812 24.7819 1.66642C24.7819 1.87472 24.8049 2.0676 24.8509 2.23733C24.8969 2.41477 24.9658 2.56135 25.0655 2.68479C25.1575 2.80823 25.2801 2.90852 25.4181 2.97796C25.5561 3.03968 25.7247 3.07825 25.9163 3.07825Z" fill="#575756"/>
<path d="M27.9706 0.0771503H28.3156L29.45 2.91624L30.5998 0.0771503H30.9294V3.23255H30.6765V0.53233C30.6612 0.555475 30.6152 0.671199 30.5385 0.871787C30.5002 0.956651 30.4619 1.06466 30.4082 1.19581C30.3545 1.32697 30.2932 1.48898 30.2166 1.67414C30.1399 1.86701 30.0479 2.09074 29.9406 2.34534C29.8333 2.59993 29.7107 2.90081 29.5727 3.23255H29.3197L28.2236 0.54776V3.23255H27.9706V0.0771503Z" fill="#575756"/>
<path d="M31.696 0.0771503H31.9642V3.23255H31.696V0.0771503Z" fill="#575756"/>
<path d="M32.7231 0.0771503H33.0144L34.7697 2.80823V0.0771503H35.0303V3.23255H34.7391L32.976 0.493756V3.23255H32.7154V0.0771503H32.7231Z" fill="#575756"/>
<path d="M35.7969 0.0771503H36.0652V3.23255H35.7969V0.0771503Z" fill="#575756"/>
<path d="M36.8317 0.0771503H38.8017V0.316313H37.1V1.47355H38.7174V1.72814H37.1V2.98567H38.8783L38.817 3.23255H36.8317V0.0771503Z" fill="#575756"/>
<path d="M39.4532 0.0771503H40.4344C40.6567 0.0771503 40.8483 0.100295 40.9863 0.1543C41.1319 0.200589 41.2469 0.270023 41.3312 0.347172C41.4155 0.424322 41.4692 0.516901 41.4998 0.617194C41.5305 0.717488 41.5458 0.825497 41.5458 0.933506C41.5458 1.13409 41.4998 1.30382 41.4155 1.44269C41.3235 1.58156 41.1779 1.68957 40.9786 1.76672L41.6531 3.23255H41.3389L40.7103 1.82844C40.6643 1.83615 40.6107 1.83615 40.557 1.84387C40.511 1.85158 40.4574 1.85158 40.396 1.85158H39.7138V3.23255H39.4532V0.0771503ZM40.4727 1.62013C40.6337 1.62013 40.764 1.6047 40.8636 1.57384C40.9709 1.54298 41.0476 1.49669 41.1089 1.44269C41.1702 1.38097 41.2162 1.31154 41.2392 1.23439C41.2622 1.14952 41.2775 1.05694 41.2775 0.948936C41.2775 0.848642 41.2622 0.756063 41.2392 0.678914C41.2162 0.601765 41.1702 0.53233 41.1012 0.486041C41.0323 0.432036 40.9479 0.393462 40.8406 0.370317C40.7333 0.347172 40.5953 0.331743 40.4267 0.331743H39.7215V1.62013H40.4727Z" fill="#575756"/>
<path d="M42.9409 0.324028H41.8524V0.0771503H44.29V0.324028H43.2092V3.23255H42.9409V0.324028Z" fill="#575756"/>
<path d="M45.7924 0.0771503H46.0607V3.23255H45.7924V0.0771503Z" fill="#575756"/>
<path d="M46.7812 0.0771503H47.0725L48.8279 2.80823V0.0771503H49.0885V3.23255H48.7972L47.0342 0.493756V3.23255H46.7736V0.0771503H46.7812Z" fill="#575756"/>
<path d="M50.7825 0.0771503H51.8403C52.0626 0.0771503 52.2542 0.10801 52.4305 0.169729C52.6068 0.231449 52.7525 0.331743 52.8751 0.455181C52.9978 0.57862 53.0897 0.748348 53.1587 0.941221C53.2277 1.13409 53.2584 1.36554 53.2584 1.62785C53.2584 1.89787 53.2201 2.12932 53.1511 2.32991C53.0821 2.53049 52.9824 2.70022 52.8445 2.83138C52.7142 2.96253 52.5532 3.06282 52.3692 3.13226C52.1852 3.20169 51.9706 3.23255 51.7407 3.23255H50.7825V0.0771503ZM51.7637 2.99339C52.1852 2.99339 52.4919 2.87767 52.6835 2.6385C52.8828 2.40706 52.9748 2.0676 52.9748 1.63556C52.9748 1.21124 52.8828 0.879502 52.6988 0.648054C52.5149 0.416607 52.2312 0.300883 51.8326 0.300883H51.0508V2.98567H51.7637V2.99339Z" fill="#575756"/>
<path d="M53.864 0.0771503H55.8339V0.316313H54.1322V1.47355H55.7496V1.72814H54.1322V2.98567H55.9106L55.8493 3.23255H53.864V0.0771503Z" fill="#575756"/>
<path d="M56.4472 0.0771503H57.4283C57.6506 0.0771503 57.8422 0.100295 57.9802 0.1543C58.1259 0.200589 58.2408 0.270023 58.3251 0.347172C58.4095 0.424322 58.4631 0.516901 58.4938 0.617194C58.5244 0.717488 58.5398 0.825497 58.5398 0.933506C58.5398 1.13409 58.4938 1.30382 58.4095 1.44269C58.3251 1.58927 58.1795 1.69728 57.9725 1.77443L58.6471 3.24027H58.3328L57.7043 1.83615C57.6583 1.84387 57.6046 1.84387 57.551 1.85158C57.505 1.85158 57.4513 1.85158 57.39 1.85158H56.7078V3.23255H56.4472V0.0771503ZM57.4666 1.62013C57.6276 1.62013 57.7579 1.6047 57.8576 1.57384C57.9649 1.54298 58.0415 1.49669 58.1029 1.44269C58.1642 1.38097 58.2102 1.31154 58.2332 1.23439C58.2562 1.14952 58.2715 1.05694 58.2715 0.948936C58.2715 0.848642 58.2562 0.756063 58.2332 0.678914C58.2102 0.601765 58.1642 0.53233 58.0952 0.486041C58.0262 0.432036 57.9419 0.393462 57.8346 0.370317C57.7273 0.347172 57.5893 0.331743 57.4207 0.331743H56.7154V1.62013H57.4666Z" fill="#575756"/>
<path d="M60.1495 0.0771503H60.4178V1.72814L62.0658 0.0771503H62.3878L61.2226 1.25753L62.5027 3.23255H62.1808L61.0233 1.43498L60.4254 2.02902V3.23255H60.1572V0.0771503H60.1495Z" fill="#575756"/>
<path d="M63.9668 0.0771503H64.2811L65.5152 3.23255H65.2316L64.8483 2.26819H63.3766L63.001 3.23255H62.7173L63.9668 0.0771503ZM64.7563 2.02131L64.1124 0.370317L63.4762 2.02131H64.7563Z" fill="#575756"/>
<path d="M66.297 0.324028H65.2086V0.0771503H67.6461V0.324028H66.5653V3.23255H66.297V0.324028Z" fill="#575756"/>
<path d="M68.0831 0.0771503H70.053V0.316313H68.3513V1.47355H69.9687V1.72814H68.3513V2.98567H70.1297L70.0684 3.23255H68.0831V0.0771503Z" fill="#575756"/>
<path d="M71.954 1.67414H73.1038V2.89309C73.0272 2.97024 72.9428 3.03196 72.8509 3.08597C72.7589 3.13997 72.6592 3.17855 72.5596 3.21712C72.4599 3.24798 72.3526 3.27884 72.253 3.29427C72.1457 3.3097 72.046 3.31741 71.9464 3.31741C71.7241 3.31741 71.5248 3.27884 71.3485 3.2094C71.1722 3.13997 71.0189 3.03196 70.8962 2.89309C70.7736 2.75423 70.6739 2.5845 70.6126 2.37619C70.5436 2.16789 70.513 1.93644 70.513 1.67414C70.513 1.40411 70.5513 1.16495 70.6203 0.95665C70.6893 0.748347 70.7889 0.578619 70.9116 0.432035C71.0342 0.293167 71.1798 0.185158 71.3561 0.115724C71.5171 0.0385746 71.7011 0 71.8927 0C72.2223 0 72.4753 0.0771492 72.6592 0.223733C72.8432 0.378031 72.9658 0.586334 73.0425 0.856356L72.7895 0.91036C72.7589 0.810066 72.7205 0.717487 72.6746 0.632623C72.6286 0.547759 72.5749 0.478325 72.4983 0.416605C72.4293 0.354886 72.345 0.308597 72.2453 0.277737C72.1457 0.246877 72.0307 0.223733 71.8927 0.223733C71.7087 0.223733 71.5478 0.262307 71.4098 0.331741C71.2718 0.401176 71.1568 0.50147 71.0572 0.624908C70.9652 0.748347 70.8962 0.902645 70.8426 1.07237C70.7966 1.24982 70.7736 1.43497 70.7736 1.64328C70.7736 1.85158 70.7966 2.04445 70.8426 2.21418C70.8886 2.38391 70.9575 2.53821 71.0572 2.66165C71.1568 2.78508 71.2718 2.88538 71.4175 2.95481C71.5631 3.02425 71.7317 3.05511 71.931 3.05511C72.0997 3.05511 72.2606 3.03196 72.4216 2.98567C72.5826 2.93938 72.7205 2.86995 72.8432 2.77737V1.92101H71.9464V1.67414H71.954Z" fill="#575756"/>
<path d="M75.0431 3.3097C74.8438 3.3097 74.6522 3.27884 74.4759 3.2094C74.2996 3.13997 74.154 3.03968 74.0236 2.90081C73.901 2.76194 73.8014 2.59221 73.7247 2.38391C73.6557 2.17561 73.6174 1.93644 73.6174 1.66642C73.6174 1.3964 73.6557 1.15724 73.7247 0.948935C73.7937 0.740632 73.8933 0.570904 74.0236 0.42432C74.154 0.285452 74.2996 0.177443 74.4759 0.108009C74.6522 0.0385746 74.8438 0 75.0431 0C75.2424 0 75.4341 0.0308597 75.6027 0.100294C75.779 0.169728 75.9246 0.270022 76.0473 0.408891C76.1699 0.547759 76.2696 0.717487 76.3386 0.92579C76.4075 1.13409 76.4459 1.36554 76.4459 1.63556C76.4459 1.9133 76.4075 2.15246 76.3386 2.36076C76.2696 2.56907 76.1699 2.7388 76.0473 2.88538C75.9246 3.02425 75.7713 3.13226 75.6027 3.20169C75.4341 3.27884 75.2501 3.3097 75.0431 3.3097ZM75.0431 3.07825C75.2271 3.07825 75.3881 3.04739 75.5337 2.97796C75.6717 2.90852 75.7943 2.80823 75.8863 2.68479C75.9783 2.56135 76.0549 2.40705 76.1009 2.23733C76.1469 2.05988 76.1699 1.87472 76.1699 1.66642C76.1699 1.45812 76.1469 1.26525 76.0933 1.09552C76.0396 0.92579 75.9706 0.771492 75.8786 0.648053C75.7867 0.524614 75.664 0.42432 75.526 0.354886C75.3881 0.285452 75.2271 0.254592 75.0431 0.254592C74.8515 0.254592 74.6905 0.285452 74.5449 0.354886C74.3992 0.42432 74.2843 0.524614 74.1923 0.648053C74.1003 0.771492 74.0313 0.92579 73.9777 1.09552C73.9317 1.27296 73.9087 1.45812 73.9087 1.66642C73.9087 1.87472 73.9317 2.0676 73.9777 2.23733C74.0236 2.41477 74.0926 2.56135 74.1923 2.68479C74.2919 2.80823 74.4069 2.90852 74.5449 2.97796C74.6829 3.03968 74.8515 3.07825 75.0431 3.07825Z" fill="#575756"/>
<path d="M77.0591 0.0771503H78.0403C78.2625 0.0771503 78.4542 0.100295 78.5922 0.1543C78.7378 0.200589 78.8528 0.270023 78.9371 0.347172C79.0214 0.424322 79.0751 0.516901 79.1057 0.617194C79.1364 0.717488 79.1517 0.825497 79.1517 0.933506C79.1517 1.13409 79.1057 1.30382 79.0214 1.44269C78.9294 1.58156 78.7838 1.68957 78.5845 1.76672L79.259 3.23255H78.9524L78.3239 1.82844C78.2779 1.83615 78.2242 1.83615 78.1706 1.84387C78.1169 1.85158 78.0633 1.85158 78.0019 1.85158H77.3197V3.23255H77.0591V0.0771503ZM78.0786 1.62013C78.2396 1.62013 78.3699 1.6047 78.4695 1.57384C78.5768 1.54298 78.6535 1.49669 78.7148 1.44269C78.7761 1.38097 78.8221 1.31154 78.8451 1.23439C78.8681 1.14952 78.8834 1.05694 78.8834 0.948936C78.8834 0.848642 78.8681 0.756063 78.8451 0.678914C78.8221 0.601765 78.7761 0.53233 78.7071 0.486041C78.6381 0.432036 78.5538 0.393462 78.4465 0.370317C78.3392 0.347172 78.2012 0.331743 78.0326 0.331743H77.3274V1.62013H78.0786Z" fill="#575756"/>
<path d="M79.7803 0.0771503H80.0486V3.23255H79.7803V0.0771503Z" fill="#575756"/>
<path d="M80.7691 0.0771503H82.7391V0.316313H81.0374V1.47355H82.6547V1.72814H81.0374V2.98567H82.8157L82.7544 3.23255H80.7691V0.0771503Z" fill="#575756"/>
<path d="M21.5011 4.14291H23.5631V4.7061H22.1527V5.44673H23.4711V6.01763H22.1527V7.29831H21.5011V4.14291Z" fill="#575756"/>
<path d="M24.1917 4.14291H24.8432V7.29831H24.1917V4.14291Z" fill="#575756"/>
<path d="M25.6174 4.14291H26.269V6.73512H27.756L27.687 7.29831H25.6174V4.14291Z" fill="#575756"/>
<path d="M28.3156 4.14291H30.4542V4.7061H28.9671V5.39273H30.3622V5.95592H28.9671V6.73512H30.5461L30.4772 7.29831H28.3156V4.14291Z" fill="#575756"/>
<path d="M31.604 6.27223C31.6193 6.4651 31.6806 6.61168 31.7879 6.69655C31.8952 6.78141 32.0562 6.8277 32.2708 6.8277C32.3705 6.8277 32.4625 6.81999 32.5315 6.79684C32.6004 6.7737 32.6618 6.74284 32.7001 6.71198C32.7461 6.6734 32.7768 6.63483 32.7921 6.58082C32.8074 6.53453 32.8227 6.47281 32.8227 6.41881C32.8227 6.33395 32.7921 6.2568 32.7308 6.18736C32.6694 6.11793 32.5545 6.06392 32.3935 6.03306L31.9872 5.95591C31.8263 5.92505 31.6806 5.88648 31.558 5.84019C31.4353 5.7939 31.3357 5.73218 31.2514 5.65503C31.167 5.57788 31.1057 5.4853 31.0597 5.3773C31.0137 5.26929 30.9907 5.13813 30.9907 4.99155C30.9907 4.84497 31.0214 4.7061 31.0827 4.59037C31.144 4.47465 31.2284 4.38207 31.3357 4.30492C31.443 4.22777 31.5733 4.17377 31.7189 4.12748C31.8646 4.0889 32.0332 4.06576 32.2095 4.06576C32.4395 4.06576 32.6311 4.0889 32.7768 4.14291C32.9301 4.19691 33.0527 4.26635 33.1447 4.35121C33.2367 4.43608 33.3057 4.53637 33.3516 4.65209C33.3976 4.76782 33.4283 4.88354 33.4436 5.00698L32.8227 5.08413C32.7921 4.90669 32.7308 4.78325 32.6388 4.7061C32.5468 4.62895 32.4088 4.59037 32.2172 4.59037C32.1022 4.59037 32.0179 4.59809 31.9412 4.62123C31.8722 4.63666 31.8109 4.66752 31.7649 4.69838C31.7189 4.72924 31.6883 4.76782 31.673 4.80639C31.6576 4.84497 31.65 4.89126 31.65 4.93755C31.65 5.05327 31.6806 5.14585 31.7496 5.19985C31.8186 5.26157 31.9259 5.30786 32.0869 5.33872L32.5161 5.42359C32.8534 5.49302 33.1064 5.60103 33.2597 5.75533C33.4206 5.90963 33.4973 6.12564 33.4973 6.41109C33.4973 6.54996 33.4743 6.6734 33.4206 6.79684C33.367 6.91256 33.2903 7.01286 33.1907 7.10544C33.091 7.1903 32.9607 7.25974 32.8074 7.30603C32.6541 7.35231 32.4778 7.37546 32.2708 7.37546C31.8416 7.37546 31.5196 7.28288 31.2897 7.09772C31.0597 6.91256 30.9371 6.63483 30.9218 6.26451H31.604V6.27223Z" fill="#575756"/>
<path d="M34.1028 4.14291H34.7544V5.36187H35.9962V4.14291H36.6477V7.29831H35.9962V5.97134H34.7544V7.29831H34.1028V4.14291Z" fill="#575756"/>
<path d="M38.3264 4.14291H38.9473L40.1201 7.29831H39.4149L39.1696 6.57311H38.0735L37.8205 7.29831H37.146L38.3264 4.14291ZM39.001 6.02535L38.6177 4.89126L38.2421 6.02535H39.001Z" fill="#575756"/>
<path d="M40.6183 4.14291H41.7298C41.9751 4.14291 42.1744 4.17377 42.3354 4.22777C42.4963 4.28178 42.619 4.35893 42.711 4.45151C42.803 4.54409 42.8643 4.64438 42.9026 4.7601C42.9409 4.87583 42.9563 4.98384 42.9563 5.09184C42.9563 5.29243 42.9179 5.46216 42.8489 5.60103C42.7723 5.7399 42.6496 5.85562 42.481 5.9482L43.1172 7.28288H42.412L41.8831 6.1025H41.2699V7.28288H40.626V4.14291H40.6183ZM41.7758 5.57017C41.8755 5.57017 41.9598 5.56245 42.0288 5.53931C42.0977 5.51616 42.1514 5.48531 42.1897 5.44673C42.2281 5.40816 42.2587 5.36187 42.274 5.30015C42.2894 5.24614 42.297 5.18442 42.297 5.11499C42.297 5.06099 42.2894 5.00698 42.274 4.95298C42.2587 4.89897 42.2281 4.85268 42.1821 4.81411C42.1361 4.77553 42.0824 4.74467 42.0058 4.72153C41.9291 4.69838 41.8371 4.69067 41.7221 4.69067H41.2699V5.57017H41.7758Z" fill="#575756"/>
<path d="M43.6155 4.14291H44.267V7.29831H43.6155V4.14291Z" fill="#575756"/>
<path d="M45.0412 4.14291H45.6314L46.9192 6.21051V4.14291H47.5554V7.29831H46.9728L45.6774 5.24614V7.29831H45.0412V4.14291Z" fill="#575756"/>
<path d="M49.7784 5.57017H50.9818V6.90485C50.8208 7.05143 50.6292 7.17487 50.4069 7.25202C50.1846 7.33688 49.9547 7.37546 49.717 7.37546C49.4718 7.37546 49.2495 7.33688 49.0655 7.25973C48.8815 7.18258 48.7282 7.06686 48.6056 6.92028C48.4829 6.77369 48.3909 6.60397 48.3296 6.39566C48.2683 6.18736 48.2376 5.96363 48.2376 5.71675C48.2376 5.46216 48.2683 5.23071 48.3373 5.03012C48.4063 4.82954 48.4983 4.65209 48.6286 4.50551C48.7512 4.35893 48.9045 4.25092 49.0808 4.17377C49.2571 4.09662 49.4564 4.05804 49.6787 4.05804C49.878 4.05804 50.0543 4.08119 50.2 4.13519C50.3456 4.18148 50.4682 4.25092 50.5679 4.3435C50.6675 4.43608 50.7519 4.53637 50.8132 4.65209C50.8745 4.76782 50.9128 4.89897 50.9435 5.03012L50.2919 5.11499C50.2766 5.03784 50.2536 4.9684 50.2306 4.90669C50.2076 4.84497 50.1693 4.79096 50.1233 4.75239C50.0773 4.7061 50.016 4.67524 49.947 4.65209C49.8627 4.63666 49.7784 4.62895 49.6711 4.62895C49.4181 4.62895 49.2265 4.72153 49.1038 4.9144C48.9812 5.10727 48.9122 5.37729 48.9122 5.72447C48.9122 6.07164 48.9735 6.34166 49.1038 6.53453C49.2341 6.72741 49.4411 6.81998 49.7247 6.81998C49.8627 6.81998 49.9777 6.80455 50.085 6.78141C50.1923 6.75826 50.2843 6.71198 50.3763 6.65026V6.11793H49.7784V5.57017Z" fill="#575756"/>
<path d="M54.5155 7.10544C54.4235 7.18259 54.3085 7.2443 54.1782 7.29059C54.0479 7.33688 53.8946 7.36774 53.7183 7.36774C53.496 7.36774 53.312 7.3446 53.1664 7.29059C53.0208 7.23659 52.8981 7.16716 52.8138 7.08229C52.7218 6.99743 52.6605 6.89713 52.6222 6.78912C52.5838 6.68112 52.5685 6.56539 52.5685 6.44967C52.5685 6.33394 52.5838 6.24137 52.6222 6.14879C52.6605 6.06392 52.7065 5.97906 52.7678 5.90962C52.8291 5.84019 52.8981 5.77847 52.9748 5.71675C53.0514 5.66275 53.1357 5.60874 53.2277 5.55474C53.1511 5.46216 53.0744 5.36187 53.0131 5.23843C52.9518 5.1227 52.9134 4.99155 52.9134 4.8604C52.9134 4.75239 52.9364 4.65209 52.9748 4.55951C53.0131 4.46694 53.0668 4.38979 53.1434 4.32035C53.2124 4.25092 53.3044 4.20463 53.404 4.16605C53.5037 4.12748 53.6187 4.11205 53.7413 4.11205C53.8793 4.11205 53.9943 4.12748 54.0939 4.16605C54.1935 4.20463 54.2855 4.25092 54.3545 4.31264C54.4235 4.37436 54.4772 4.45151 54.5155 4.53637C54.5538 4.62123 54.5692 4.72153 54.5692 4.82182C54.5692 4.9144 54.5538 4.99926 54.5232 5.07641C54.4925 5.15356 54.4542 5.223 54.4005 5.29243C54.3469 5.36187 54.2855 5.41587 54.2165 5.46987C54.1476 5.52388 54.0709 5.57788 53.9943 5.62417L54.5615 6.29537C54.5998 6.20279 54.6228 6.1025 54.6381 6.0022C54.6535 5.90191 54.6611 5.80162 54.6611 5.70132H55.19C55.19 5.88648 55.167 6.07164 55.1134 6.24137C55.0597 6.41109 54.9907 6.56539 54.8911 6.71198L55.3817 7.29831H54.6765L54.5155 7.10544ZM53.496 5.90962C53.4117 5.96363 53.335 6.02535 53.2737 6.09478C53.2124 6.17193 53.1817 6.2568 53.1817 6.3648C53.1817 6.44195 53.1894 6.50367 53.2124 6.57311C53.2354 6.63483 53.2661 6.68883 53.312 6.73512C53.358 6.78141 53.4194 6.81998 53.4883 6.84313C53.565 6.86627 53.657 6.8817 53.7643 6.8817C53.8639 6.8817 53.9559 6.86627 54.0249 6.84313C54.0939 6.81998 54.1552 6.78912 54.2012 6.75055L53.496 5.90962ZM53.7106 5.33101C53.795 5.277 53.8716 5.21528 53.9329 5.13813C53.9943 5.06098 54.0249 4.9684 54.0249 4.85268C54.0249 4.75239 54.0019 4.68295 53.9559 4.62895C53.9099 4.57494 53.8409 4.5518 53.749 4.5518C53.657 4.5518 53.588 4.57494 53.5343 4.62895C53.4807 4.68295 53.4577 4.7601 53.4577 4.86811C53.4577 4.9144 53.4653 4.96069 53.4883 5.00698C53.5113 5.05327 53.5343 5.09956 53.5573 5.13813C53.5803 5.17671 53.611 5.21528 53.6417 5.24614C53.6723 5.28472 53.6953 5.31558 53.7106 5.33101Z" fill="#575756"/>
<path d="M59.6206 6.21051C59.6053 6.38023 59.5669 6.53453 59.5056 6.6734C59.4443 6.81998 59.3523 6.94342 59.245 7.04372C59.1377 7.15173 58.9997 7.22887 58.8387 7.29059C58.6778 7.35231 58.4938 7.37546 58.2868 7.37546C58.0492 7.37546 57.8422 7.33688 57.6583 7.25973C57.482 7.18258 57.3287 7.06686 57.206 6.92028C57.0834 6.77369 56.9914 6.60397 56.9301 6.39566C56.8687 6.18736 56.8381 5.96363 56.8381 5.71675C56.8381 5.46216 56.8687 5.23071 56.9377 5.03012C57.0067 4.82954 57.0987 4.65209 57.229 4.50551C57.3517 4.35893 57.505 4.25092 57.6889 4.17377C57.8652 4.09662 58.0722 4.05804 58.2945 4.05804C58.4938 4.05804 58.6701 4.08119 58.8157 4.13519C58.9614 4.18148 59.084 4.25863 59.1913 4.35121C59.291 4.44379 59.3753 4.55951 59.4366 4.69067C59.4979 4.82182 59.5439 4.9684 59.5746 5.13813L58.923 5.223C58.8924 5.03784 58.8311 4.89125 58.7391 4.78325C58.6394 4.68295 58.4938 4.62895 58.2945 4.62895C58.0415 4.62895 57.8499 4.72153 57.7196 4.9144C57.5893 5.10727 57.528 5.36958 57.528 5.71675C57.528 6.06392 57.5969 6.33394 57.7349 6.52682C57.8729 6.71198 58.0569 6.81227 58.2945 6.81227C58.4938 6.81227 58.6471 6.75826 58.7391 6.65797C58.8311 6.54996 58.8924 6.40338 58.9154 6.21051H59.6206Z" fill="#575756"/>
<path d="M61.5982 7.38317C61.3606 7.38317 61.1536 7.3446 60.9697 7.26745C60.7857 7.1903 60.6324 7.08229 60.5021 6.93571C60.3718 6.78913 60.2721 6.6194 60.2031 6.41109C60.1342 6.21051 60.1035 5.97906 60.1035 5.72447C60.1035 5.46987 60.1342 5.23843 60.2031 5.03784C60.2721 4.83725 60.3718 4.65981 60.5021 4.51322C60.6324 4.36664 60.7934 4.25863 60.9773 4.18148C61.1613 4.10433 61.3683 4.06576 61.5982 4.06576C61.8359 4.06576 62.0428 4.10433 62.2268 4.18148C62.4107 4.25863 62.5641 4.36664 62.6944 4.51322C62.8247 4.65981 62.9167 4.82954 62.9856 5.03784C63.0546 5.23843 63.0853 5.46987 63.0853 5.72447C63.0853 5.97906 63.0546 6.21051 62.9856 6.41109C62.9167 6.61168 62.8247 6.78913 62.6944 6.93571C62.5641 7.08229 62.4107 7.1903 62.2268 7.26745C62.0505 7.3446 61.8359 7.38317 61.5982 7.38317ZM61.5982 6.81227C61.8742 6.81227 62.0811 6.71969 62.2115 6.52682C62.3494 6.34166 62.4107 6.07164 62.4107 5.71675C62.4107 5.36958 62.3418 5.09956 62.2115 4.9144C62.0735 4.72924 61.8665 4.62895 61.5982 4.62895C61.3223 4.62895 61.1153 4.72153 60.985 4.9144C60.847 5.10727 60.7857 5.36958 60.7857 5.71675C60.7857 6.06392 60.8547 6.33395 60.985 6.52682C61.1153 6.71969 61.3223 6.81227 61.5982 6.81227Z" fill="#575756"/>
<path d="M63.7598 4.14291H64.4114V6.73512H65.8984L65.8295 7.29831H63.7598V4.14291Z" fill="#575756"/>
<path d="M66.4503 4.14291H67.1019V6.73512H68.589L68.52 7.29831H66.4503V4.14291Z" fill="#575756"/>
<path d="M70.1373 4.14291H70.7582L71.931 7.29831H71.2258L70.9805 6.57311H69.8844L69.6314 7.29831H68.9569L70.1373 4.14291ZM70.8119 6.02535L70.4286 4.89126L70.053 6.02535H70.8119Z" fill="#575756"/>
<path d="M72.4293 4.14291H73.5561C73.786 4.14291 73.9777 4.16605 74.131 4.21234C74.2843 4.25863 74.3992 4.32035 74.4912 4.38979C74.5755 4.46694 74.6369 4.55952 74.6752 4.65981C74.7059 4.7601 74.7289 4.87583 74.7289 4.99927C74.7289 5.1227 74.7059 5.23843 74.6522 5.34644C74.5985 5.45445 74.4989 5.54702 74.3533 5.62417C74.4452 5.67046 74.5219 5.72447 74.5832 5.77847C74.6445 5.83248 74.6905 5.8942 74.7212 5.95591C74.7519 6.01763 74.7748 6.07935 74.7902 6.14879C74.8055 6.21822 74.8132 6.27994 74.8132 6.34166C74.8132 6.47281 74.7902 6.59625 74.7518 6.71969C74.7135 6.83542 74.6445 6.93571 74.5526 7.02829C74.4606 7.11315 74.3379 7.18259 74.1923 7.22888C74.0466 7.28288 73.8627 7.30603 73.6404 7.30603H72.4369V4.14291H72.4293ZM73.6327 5.39273C73.809 5.39273 73.924 5.36187 73.9853 5.29243C74.0466 5.23071 74.085 5.13813 74.085 5.0147C74.085 4.88354 74.0466 4.79096 73.9623 4.73696C73.878 4.68295 73.74 4.65209 73.5407 4.65209H73.0655V5.38501H73.6327V5.39273ZM73.6097 6.78141C73.717 6.78141 73.809 6.7737 73.878 6.75055C73.947 6.72741 74.0083 6.69655 74.0543 6.65797C74.1003 6.6194 74.131 6.57311 74.1463 6.5191C74.1616 6.4651 74.1693 6.40338 74.1693 6.34166C74.1693 6.20279 74.131 6.1025 74.062 6.03306C73.9853 5.96363 73.8627 5.92506 73.6787 5.92506H73.0655V6.78141H73.6097Z" fill="#575756"/>
<path d="M76.7985 7.38317C76.5609 7.38317 76.3539 7.3446 76.1699 7.26745C75.986 7.1903 75.8326 7.08229 75.7023 6.93571C75.572 6.78913 75.4724 6.6194 75.4034 6.41109C75.3344 6.21051 75.3037 5.97906 75.3037 5.72447C75.3037 5.46987 75.3344 5.23843 75.4034 5.03784C75.4724 4.83725 75.572 4.65981 75.7023 4.51322C75.8326 4.36664 75.986 4.25863 76.1776 4.18148C76.3616 4.10433 76.5685 4.06576 76.7985 4.06576C77.0361 4.06576 77.2431 4.10433 77.427 4.18148C77.611 4.25863 77.7643 4.36664 77.8946 4.51322C78.0249 4.65981 78.1169 4.82954 78.1859 5.03784C78.2549 5.23843 78.2855 5.46987 78.2855 5.72447C78.2855 5.97906 78.2549 6.21051 78.1859 6.41109C78.1169 6.61168 78.0249 6.78913 77.8946 6.93571C77.7643 7.08229 77.611 7.1903 77.427 7.26745C77.2431 7.3446 77.0361 7.38317 76.7985 7.38317ZM76.7908 6.81227C77.0668 6.81227 77.2737 6.71969 77.404 6.52682C77.542 6.34166 77.6033 6.07164 77.6033 5.71675C77.6033 5.36958 77.5343 5.09956 77.404 4.9144C77.2661 4.72153 77.0668 4.62895 76.7908 4.62895C76.5149 4.62895 76.3079 4.72153 76.1776 4.9144C76.0396 5.10727 75.9783 5.36958 75.9783 5.71675C75.9783 6.06392 76.0473 6.33395 76.1776 6.52682C76.3156 6.71969 76.5225 6.81227 76.7908 6.81227Z" fill="#575756"/>
<path d="M78.9601 4.14291H80.0716C80.3168 4.14291 80.5161 4.17377 80.6771 4.22777C80.8381 4.28178 80.9607 4.35893 81.0527 4.45151C81.1447 4.54409 81.206 4.64438 81.2443 4.7601C81.2827 4.87583 81.298 4.98384 81.298 5.09184C81.298 5.29243 81.2597 5.46216 81.1907 5.60103C81.114 5.7399 80.9914 5.85562 80.8228 5.9482L81.459 7.28288H80.7538L80.2249 6.1025H79.6116V7.28288H78.9677V4.14291H78.9601ZM80.1099 5.57017C80.2095 5.57017 80.2938 5.56245 80.3628 5.53931C80.4318 5.51616 80.4855 5.48531 80.5238 5.44673C80.5621 5.40816 80.5928 5.36187 80.6081 5.30015C80.6235 5.24614 80.6311 5.18442 80.6311 5.11499C80.6311 5.06099 80.6235 5.00698 80.6081 4.95298C80.5928 4.89897 80.5621 4.85268 80.5161 4.81411C80.4701 4.77553 80.4165 4.74467 80.3398 4.72153C80.2632 4.69838 80.1712 4.69067 80.0562 4.69067H79.604V5.57017H80.1099Z" fill="#575756"/>
<path d="M82.946 4.14291H83.5669L84.7397 7.29831H84.0345L83.7815 6.57311H82.6854L82.4325 7.29831H81.7579L82.946 4.14291ZM83.6206 6.02535L83.2373 4.89126L82.8617 6.02535H83.6206Z" fill="#575756"/>
<path d="M85.5292 4.71381H84.5864V4.14291H87.1313V4.71381H86.1885V7.29831H85.5292V4.71381Z" fill="#575756"/>
<path d="M87.6755 4.14291H88.327V7.29831H87.6755V4.14291Z" fill="#575756"/>
<path d="M90.4963 7.38317C90.2587 7.38317 90.0517 7.3446 89.8678 7.26745C89.6838 7.1903 89.5305 7.08229 89.4002 6.93571C89.2699 6.78913 89.1702 6.6194 89.1012 6.41109C89.0322 6.21051 89.0016 5.97906 89.0016 5.72447C89.0016 5.46987 89.0322 5.23843 89.1012 5.03784C89.1702 4.83725 89.2699 4.65981 89.4002 4.51322C89.5305 4.36664 89.6838 4.25863 89.8754 4.18148C90.0594 4.10433 90.2664 4.06576 90.4963 4.06576C90.7339 4.06576 90.9409 4.10433 91.1249 4.18148C91.3088 4.25863 91.4621 4.36664 91.5925 4.51322C91.7228 4.65981 91.8147 4.82954 91.8837 5.03784C91.9527 5.23843 91.9834 5.46987 91.9834 5.72447C91.9834 5.97906 91.9527 6.21051 91.8837 6.41109C91.8147 6.61168 91.7228 6.78913 91.5925 6.93571C91.4621 7.08229 91.3088 7.1903 91.1249 7.26745C90.9409 7.3446 90.7339 7.38317 90.4963 7.38317ZM90.4887 6.81227C90.7646 6.81227 90.9716 6.71969 91.1019 6.52682C91.2398 6.34166 91.3012 6.07164 91.3012 5.71675C91.3012 5.36958 91.2322 5.09956 91.1019 4.9144C90.9639 4.72153 90.7646 4.62895 90.4887 4.62895C90.2127 4.62895 90.0057 4.72153 89.8754 4.9144C89.7375 5.10727 89.6761 5.36958 89.6761 5.71675C89.6761 6.06392 89.7451 6.33395 89.8754 6.52682C90.0134 6.71969 90.2204 6.81227 90.4887 6.81227Z" fill="#575756"/>
<path d="M92.6579 4.14291H93.2482L94.5359 6.21051V4.14291H95.1722V7.29831H94.5896L93.2942 5.24614V7.29831H92.6579V4.14291Z" fill="#575756"/>
</g>
<defs>
<clipPath id="clip0">
<rect width="120" height="42" fill="white"/>
</clipPath>
</defs>
</svg>
