<svg width="32" height="29" viewBox="0 0 32 29" fill="none" xmlns="http://www.w3.org/2000/svg">
<path d="M19.0374 19.2C18.2499 19.9724 17.3499 20.3034 16.2249 20.3034C15.2124 20.3034 14.1999 19.8621 13.4124 19.2L7.89994 13.7931C7.11244 13.0207 6.77494 12.1379 6.77494 11.0345C6.77494 9.93104 7.22494 9.04828 7.89994 8.27586C8.68744 7.50345 9.58744 7.17241 10.7124 7.17241C11.7249 7.17241 12.7374 7.61379 13.5249 8.27586L16.3374 11.0345L23.8749 3.53104C21.3999 1.43448 18.1374 0.110346 14.5374 0.110346C6.66244 0.220691 0.249939 6.51035 0.249939 14.2345C0.249939 21.9586 6.66244 28.3586 14.6499 28.3586C22.5249 28.3586 29.0499 22.069 29.0499 14.2345C29.0499 12.8 28.8249 11.3655 28.3749 10.0414L19.0374 19.2Z" fill="#BDECFF"/>
<path d="M14.65 28.469C6.66245 28.469 0.137451 22.069 0.137451 14.2345C0.137451 6.4 6.54995 9.53674e-07 14.65 9.53674e-07C18.1375 9.53674e-07 21.4 1.21379 24.1 3.42069L24.2125 3.53104L16.3375 11.2552L13.4125 8.38621C12.7375 7.72414 11.725 7.28276 10.7125 7.28276C9.69995 7.28276 8.79995 7.61379 8.01245 8.38621C7.33745 9.04828 6.88745 10.0414 6.88745 11.0345C6.88745 12.0276 7.22495 12.9103 8.01245 13.6828L13.525 19.0897C14.2 19.7517 15.2125 20.1931 16.225 20.1931C17.2375 20.1931 18.1375 19.8621 18.925 19.0897L28.4875 9.71035L28.6 9.93104C29.05 11.2552 29.275 12.6897 29.275 14.1241C29.1625 22.1793 22.6375 28.469 14.65 28.469ZM14.65 0.331036C6.77495 0.331036 0.474951 6.62069 0.474951 14.2345C0.474951 21.9586 6.88745 28.1379 14.65 28.1379C22.525 28.1379 28.825 21.8483 28.825 14.2345C28.825 12.9103 28.6 11.5862 28.2625 10.3724L19.15 19.3103C18.3625 20.0828 17.35 20.5241 16.225 20.5241C15.1 20.5241 14.0875 20.0828 13.3 19.3103L7.78745 13.9035C6.99995 13.131 6.54995 12.1379 6.54995 11.0345C6.54995 9.93104 6.99995 8.93793 7.78745 8.16552C8.57495 7.3931 9.58745 6.95172 10.7125 6.95172C11.8375 6.95172 12.85 7.3931 13.6375 8.16552L16.3375 10.8138L23.7625 3.53104C21.0625 1.54483 17.9125 0.331036 14.65 0.331036Z" fill="#333333"/>
<path d="M16.2249 17.7655C15.8874 17.7655 15.5499 17.6552 15.3249 17.4345L9.81244 12.0276C9.24994 11.4759 9.24994 10.7034 9.81244 10.2621C10.3749 9.71035 11.1624 9.71035 11.6124 10.2621L16.2249 14.7862L29.3874 1.87586C29.9499 1.32414 30.7374 1.32414 31.1874 1.87586C31.7499 2.42759 31.7499 3.2 31.1874 3.64138L17.1249 17.4345C16.8999 17.6552 16.5624 17.7655 16.2249 17.7655Z" fill="url(#paint0_linear)"/>
<path d="M16.2249 17.9862C15.7749 17.9862 15.4374 17.8759 15.2124 17.5448L9.69994 12.1379C9.47494 11.9172 9.24994 11.4759 9.24994 11.1448C9.24994 10.7034 9.36244 10.3724 9.69994 10.1517C9.92494 9.93104 10.3749 9.71035 10.7124 9.71035C11.1624 9.71035 11.4999 9.82069 11.7249 10.1517L16.2249 14.5655L29.2749 1.76552C29.4999 1.54483 29.9499 1.32414 30.2874 1.32414C30.6249 1.32414 31.0749 1.43448 31.2999 1.76552C31.8624 2.31724 31.8624 3.2 31.2999 3.86207L17.2374 17.5448C17.0124 17.7655 16.6749 17.9862 16.2249 17.9862ZM10.7124 9.93104C10.3749 9.93104 10.1499 10.0414 9.92494 10.2621C9.69994 10.4828 9.58744 10.7034 9.58744 11.0345C9.58744 11.3655 9.69994 11.5862 9.92494 11.8069L15.4374 17.2138C15.8874 17.6552 16.5624 17.6552 17.0124 17.2138L31.0749 3.53104C31.5249 3.08966 31.5249 2.42759 31.0749 1.98621C30.6249 1.54483 29.9499 1.54483 29.4999 1.98621L16.2249 14.8966L11.4999 10.2621C11.2749 10.0414 11.0499 9.93104 10.7124 9.93104Z" fill="#333333"/>
<defs>
<linearGradient id="paint0_linear" x1="9.3909" y1="9.62946" x2="31.5792" y2="9.62946" gradientUnits="userSpaceOnUse">
<stop stop-color="#FFC671"/>
<stop offset="0.5938" stop-color="#FF7541"/>
<stop offset="1" stop-color="#FF6F3D"/>
</linearGradient>
</defs>
</svg>
