<svg width="191" height="50" viewBox="0 0 191 50" fill="none" xmlns="http://www.w3.org/2000/svg">
<g clip-path="url(#clip0)">
<path d="M57.0979 0C58.5127 2.14286 60.5339 2.55102 60.5339 2.55102C59.3212 3.46939 59.4222 4.08163 59.3212 5.40816C58.0074 4.89796 56.9968 4.08163 56.1884 2.85714C55.7841 1.63265 56.1884 0.714286 57.0979 0Z" fill="url(#paint0_linear)"/>
<path d="M143.199 1.63265C144.614 3.77551 146.635 4.18367 146.635 4.18367C145.524 5.10204 145.524 5.61224 145.423 6.93878C144.109 6.42857 143.098 5.61224 142.29 4.38775C141.785 3.16326 142.29 2.34694 143.199 1.63265Z" fill="url(#paint1_linear)"/>
<path d="M0.404224 24.1837C2.52645 25.6122 4.54761 25.3061 4.54761 25.3061C3.8402 26.5306 4.04232 27.1429 4.44655 28.3673C3.03174 28.3673 1.71798 27.9592 0.505282 27.1429C-0.202125 26.2245 -0.202125 25.3061 0.404224 24.1837Z" fill="#BDECFF"/>
<path d="M26.3762 46.9388C28.7006 45.7143 29.3069 43.7755 29.3069 43.7755C30.1154 45 30.6207 45.102 31.9344 45.3061C31.227 46.5306 30.3175 47.551 29.0037 48.2653C27.8921 48.4694 26.9826 47.9592 26.3762 46.9388Z" fill="url(#paint2_linear)"/>
<path d="M69.2248 30.2041C71.7513 30.8163 73.4693 29.6939 73.4693 29.6939C73.2672 31.1225 73.6714 31.5306 74.4799 32.551C73.1661 33.0612 71.8524 33.1633 70.4375 32.8571C69.3259 32.3469 69.0227 31.4286 69.2248 30.2041Z" fill="#BDECFF"/>
<path d="M140.572 30.6122C141.886 32.8571 143.907 33.3673 143.907 33.3673C142.694 34.1837 142.694 34.7959 142.593 36.1225C141.38 35.5102 140.37 34.5918 139.561 33.3673C139.157 32.1429 139.561 31.2245 140.572 30.6122Z" fill="#BDECFF"/>
<path d="M185.745 12.7551C188.17 13.7755 189.989 12.9592 189.989 12.9592C189.484 14.3878 189.888 14.7959 190.495 16.0204C189.181 16.3265 187.766 16.2245 186.452 15.7143C185.543 14.898 185.442 13.8776 185.745 12.7551Z" fill="#BDECFF"/>
<path d="M102.372 12.7551C104.797 13.7755 106.616 12.9592 106.616 12.9592C106.111 14.3878 106.515 14.7959 107.122 16.0204C105.808 16.3265 104.393 16.2245 103.079 15.6122C102.17 14.898 101.968 13.8776 102.372 12.7551Z" fill="url(#paint3_linear)"/>
</g>
<defs>
<linearGradient id="paint0_linear" x1="56.022" y1="2.69357" x2="60.5778" y2="2.69357" gradientUnits="userSpaceOnUse">
<stop stop-color="#FFC671"/>
<stop offset="0.5938" stop-color="#FF7541"/>
<stop offset="1" stop-color="#FF6F3D"/>
</linearGradient>
<linearGradient id="paint1_linear" x1="142.085" y1="4.27531" x2="146.641" y2="4.27531" gradientUnits="userSpaceOnUse">
<stop stop-color="#FFC671"/>
<stop offset="0.5938" stop-color="#FF7541"/>
<stop offset="1" stop-color="#FF6F3D"/>
</linearGradient>
<linearGradient id="paint2_linear" x1="26.4132" y1="46.0287" x2="31.9565" y2="46.0287" gradientUnits="userSpaceOnUse">
<stop stop-color="#FFC671"/>
<stop offset="0.5938" stop-color="#FF7541"/>
<stop offset="1" stop-color="#FF6F3D"/>
</linearGradient>
<linearGradient id="paint3_linear" x1="102.182" y1="14.4172" x2="107.205" y2="14.4172" gradientUnits="userSpaceOnUse">
<stop stop-color="#FFC671"/>
<stop offset="0.5938" stop-color="#FF7541"/>
<stop offset="1" stop-color="#FF6F3D"/>
</linearGradient>
<clipPath id="clip0">
<rect width="191" height="50" fill="white"/>
</clipPath>
</defs>
</svg>
