<svg width="189" height="49" viewBox="0 0 189 49" fill="none" xmlns="http://www.w3.org/2000/svg">
<g clip-path="url(#clip0)">
<path d="M56.5 0C57.9 2.1 59.9 2.5 59.9 2.5C58.7 3.4 58.8 4 58.7 5.3C57.4 4.8 56.4 4 55.6 2.8C55.2 1.6 55.6 0.7 56.5 0Z" fill="url(#paint0_linear)"/>
<path d="M141.7 1.6C143.1 3.7 145.1 4.1 145.1 4.1C144 5 144 5.5 143.9 6.8C142.6 6.3 141.6 5.5 140.8 4.3C140.3 3.1 140.8 2.3 141.7 1.6Z" fill="url(#paint1_linear)"/>
<path d="M0.400014 23.7C2.50001 25.1 4.50001 24.8 4.50001 24.8C3.80001 26 4.00001 26.6 4.40001 27.8C3.00001 27.8 1.70001 27.4 0.500014 26.6C-0.199986 25.7 -0.199986 24.8 0.400014 23.7Z" fill="#BDECFF"/>
<path d="M26.1 46C28.4 44.8 29 42.9 29 42.9C29.8 44.1 30.3 44.2 31.6 44.4C30.9 45.6 30 46.6 28.7 47.3C27.6 47.5 26.7 47 26.1 46Z" fill="url(#paint2_linear)"/>
<path d="M68.5 29.6C71 30.2 72.7 29.1 72.7 29.1C72.5 30.5 72.9 30.9 73.7 31.9C72.4 32.4 71.1 32.5 69.7 32.2C68.6 31.7 68.3 30.8 68.5 29.6Z" fill="#BDECFF"/>
<path d="M139.1 30C140.4 32.2 142.4 32.7 142.4 32.7C141.2 33.5 141.2 34.1 141.1 35.4C139.9 34.8 138.9 33.9 138.1 32.7C137.7 31.5 138.1 30.6 139.1 30Z" fill="#BDECFF"/>
<path d="M183.8 12.5C186.2 13.5 188 12.7 188 12.7C187.5 14.1 187.9 14.5 188.5 15.7C187.2 16 185.8 15.9 184.5 15.4C183.6 14.6 183.5 13.6 183.8 12.5Z" fill="#BDECFF"/>
<path d="M101.3 12.5C103.7 13.5 105.5 12.7 105.5 12.7C105 14.1 105.4 14.5 106 15.7C104.7 16 103.3 15.9 102 15.3C101.1 14.6 100.9 13.6 101.3 12.5Z" fill="url(#paint3_linear)"/>
</g>
<defs>
<linearGradient id="paint0_linear" x1="55.4354" y1="2.6397" x2="59.9435" y2="2.6397" gradientUnits="userSpaceOnUse">
<stop stop-color="#FFC671"/>
<stop offset="0.5938" stop-color="#FF7541"/>
<stop offset="1" stop-color="#FF6F3D"/>
</linearGradient>
<linearGradient id="paint1_linear" x1="140.598" y1="4.1898" x2="145.106" y2="4.1898" gradientUnits="userSpaceOnUse">
<stop stop-color="#FFC671"/>
<stop offset="0.5938" stop-color="#FF7541"/>
<stop offset="1" stop-color="#FF6F3D"/>
</linearGradient>
<linearGradient id="paint2_linear" x1="26.1366" y1="45.1081" x2="31.6218" y2="45.1081" gradientUnits="userSpaceOnUse">
<stop stop-color="#FFC671"/>
<stop offset="0.5938" stop-color="#FF7541"/>
<stop offset="1" stop-color="#FF6F3D"/>
</linearGradient>
<linearGradient id="paint3_linear" x1="101.112" y1="14.1289" x2="106.082" y2="14.1289" gradientUnits="userSpaceOnUse">
<stop stop-color="#FFC671"/>
<stop offset="0.5938" stop-color="#FF7541"/>
<stop offset="1" stop-color="#FF6F3D"/>
</linearGradient>
<clipPath id="clip0">
<rect width="189" height="49" fill="white"/>
</clipPath>
</defs>
</svg>
