<svg width="190" height="50" viewBox="0 0 190 50" fill="none" xmlns="http://www.w3.org/2000/svg">
<g clip-path="url(#clip0_12284_95472)">
<path d="M57.0424 0.376953C58.4424 2.47695 60.4424 2.87695 60.4424 2.87695C59.2424 3.77695 59.3424 4.37695 59.2424 5.67695C57.9424 5.17695 56.9424 4.37695 56.1424 3.17695C55.7424 1.97695 56.1424 1.07695 57.0424 0.376953Z" fill="white"/>
<path d="M142.243 1.97705C143.643 4.07705 145.643 4.47705 145.643 4.47705C144.543 5.37705 144.543 5.87705 144.443 7.17705C143.143 6.67705 142.143 5.87705 141.343 4.67705C140.843 3.47705 141.343 2.67705 142.243 1.97705Z" fill="white"/>
<path d="M0.942616 24.0771C3.04262 25.4771 5.04262 25.1771 5.04262 25.1771C4.34262 26.3771 4.54262 26.9771 4.94262 28.1771C3.54262 28.1771 2.24262 27.7771 1.04262 26.9771C0.342616 26.0771 0.342616 25.1771 0.942616 24.0771Z" fill="#BDECFF"/>
<path d="M26.6426 46.3769C28.9426 45.1769 29.5426 43.2769 29.5426 43.2769C30.3426 44.4769 30.8426 44.5769 32.1426 44.7769C31.4426 45.9769 30.5426 46.9769 29.2426 47.6769C28.1426 47.8769 27.2426 47.3769 26.6426 46.3769Z" fill="white"/>
<path d="M69.0427 29.9771C71.5427 30.5771 73.2427 29.4771 73.2427 29.4771C73.0427 30.8771 73.4427 31.2771 74.2427 32.2771C72.9427 32.7771 71.6427 32.8771 70.2427 32.5771C69.1427 32.0771 68.8427 31.1771 69.0427 29.9771Z" fill="#BDECFF"/>
<path d="M139.643 30.377C140.943 32.577 142.943 33.077 142.943 33.077C141.743 33.877 141.743 34.477 141.643 35.777C140.443 35.177 139.443 34.277 138.643 33.077C138.243 31.877 138.643 30.977 139.643 30.377Z" fill="#BDECFF"/>
<path d="M184.342 12.877C186.742 13.877 188.542 13.077 188.542 13.077C188.042 14.477 188.442 14.877 189.042 16.077C187.742 16.377 186.342 16.277 185.042 15.777C184.142 14.977 184.042 13.977 184.342 12.877Z" fill="#BDECFF"/>
<path d="M101.842 12.877C104.242 13.877 106.042 13.077 106.042 13.077C105.542 14.477 105.942 14.877 106.542 16.077C105.242 16.377 103.842 16.277 102.542 15.677C101.642 14.977 101.442 13.977 101.842 12.877Z" fill="white"/>
</g>
<defs>
<clipPath id="clip0_12284_95472">
<rect width="189" height="49" fill="white" transform="translate(0.54248 0.376953)"/>
</clipPath>
</defs>
</svg>
