<svg width="34" height="34" viewBox="0 0 34 34" fill="none" xmlns="http://www.w3.org/2000/svg">
<path fill-rule="evenodd" clip-rule="evenodd" d="M17 33C25.8366 33 33 25.8366 33 17C33 8.16344 25.8366 1 17 1C8.16344 1 1 8.16344 1 17C1 25.8366 8.16344 33 17 33ZM34 17C34 26.3888 26.3888 34 17 34C7.61116 34 0 26.3888 0 17C0 7.61116 7.61116 0 17 0C26.3888 0 34 7.61116 34 17Z" fill="white"/>
<path d="M26.7971 12.9832H20.8922C20.8571 12.983 20.8225 12.9749 20.7909 12.9594C20.7594 12.9439 20.7318 12.9215 20.7101 12.8939C20.6884 12.8662 20.6733 12.8341 20.6658 12.7997C20.6583 12.7654 20.6587 12.7299 20.6669 12.6957C20.8745 11.8286 20.9634 10.9373 20.9311 10.0463C20.9579 9.52863 20.9579 9.00996 20.9311 8.49233C20.9003 7.95258 20.7171 7.43263 20.4027 6.99279C20.233 6.76212 20.0136 6.57255 19.7608 6.43806C19.508 6.30358 19.2282 6.22763 18.942 6.21582C17.5979 6.21582 17.3881 7.53666 17.256 8.6011C17.2029 9.8658 16.9403 11.1129 16.479 12.2917C16.1411 13.1143 15.4979 13.7742 14.6843 14.1331C14.1003 14.402 13.4914 14.6128 12.8662 14.7624C12.814 14.7731 12.7671 14.8012 12.7332 14.8422C12.6993 14.8832 12.6804 14.9346 12.6797 14.9878V23.7053C12.6797 23.7658 12.7031 23.8239 12.7452 23.8674C12.7872 23.9109 12.8445 23.9364 12.905 23.9384H15.3524C15.3886 23.9384 15.4243 23.9468 15.4567 23.963C15.4891 23.9792 15.5172 24.0027 15.5389 24.0316C15.7813 24.3574 16.0966 24.6219 16.4595 24.804C16.8224 24.9861 17.2229 25.0808 17.629 25.0805H25.1966C25.7276 25.0785 26.2363 24.8666 26.6118 24.4912C26.9873 24.1157 27.1991 23.607 27.2012 23.076C27.2025 22.8057 27.1385 22.5392 27.0147 22.299C26.991 22.2524 26.9842 22.199 26.9956 22.148C27.0069 22.097 27.0357 22.0515 27.0769 22.0193C27.5046 21.5839 27.7445 20.9981 27.745 20.3877V20.1546C27.7418 19.8849 27.6781 19.6194 27.5586 19.3776C27.5367 19.3313 27.5302 19.2792 27.54 19.2289C27.5497 19.1786 27.5753 19.1327 27.613 19.0979C27.8239 18.9327 27.9944 18.7215 28.1115 18.4806C28.2286 18.2396 28.2893 17.9751 28.2889 17.7071V17.4818C28.2865 17.212 28.2227 16.9464 28.1024 16.7049C28.0779 16.6591 28.0699 16.6063 28.0798 16.5553C28.0897 16.5043 28.1169 16.4584 28.1568 16.4251C28.3669 16.2591 28.5368 16.0478 28.6538 15.807C28.7708 15.5662 28.832 15.3021 28.8328 15.0344C28.838 14.7649 28.789 14.4971 28.6888 14.2469C28.5885 13.9967 28.439 13.7692 28.2492 13.5779C28.0593 13.3866 27.8329 13.2353 27.5835 13.1332C27.3341 13.031 27.0667 12.98 26.7971 12.9832Z" fill="white"/>
<path d="M9.31566 13.7681H8.91941C7.74366 13.7681 6.79053 14.7212 6.79053 15.897V22.6954C6.79053 23.8711 7.74366 24.8243 8.91941 24.8243H9.31566C10.4914 24.8243 11.4445 23.8711 11.4445 22.6954V15.897C11.4445 14.7212 10.4914 13.7681 9.31566 13.7681Z" fill="white"/>
</svg>
