<svg width="153" height="123" viewBox="0 0 153 123" fill="none" xmlns="http://www.w3.org/2000/svg">
<ellipse cx="76.5127" cy="61.5" rx="76" ry="61.5" fill="#FFE0C5"/>
<g clip-path="url(#clip0_12284_96041)">
<path d="M39.6304 71.1432C35.3807 70.7572 32.2128 66.9741 32.5991 62.7278C32.9854 58.4814 36.7715 55.316 41.0212 55.702C42.1802 55.7792 43.1847 56.1653 44.1119 56.6285V54.4667C43.1847 54.0807 42.2575 53.8491 41.1757 53.7719C35.8443 53.3087 31.131 57.2461 30.6674 62.5734C30.2038 67.9006 34.1444 72.6101 39.4759 73.0734C41.0985 73.2278 42.6438 72.9189 44.1119 72.3785V70.2167C42.7983 70.9116 41.253 71.2976 39.6304 71.1432Z" fill="#4D4D4D"/>
<path d="M32.5993 62.7275C32.213 66.9739 35.3809 70.7569 39.6306 71.143C41.2532 71.2974 42.7985 70.9114 44.1121 70.2165V68.3636C42.9531 69.29 41.4077 69.7533 39.7851 69.5989C36.3854 69.29 33.8356 66.279 34.1446 62.8819C34.4537 59.4849 37.4671 56.9371 40.8668 57.2459C42.1031 57.3231 43.1849 57.7864 44.1121 58.4812V56.6283C43.1849 56.0878 42.1804 55.779 41.0214 55.7018C36.6944 55.3158 32.9856 58.4812 32.5993 62.7275Z" fill="white"/>
<path d="M34.1445 62.8822C33.8355 66.2792 36.3853 69.2902 39.785 69.5991C41.4076 69.7535 42.8757 69.213 44.112 68.3638V65.1211C43.4166 66.6652 41.794 67.6689 40.0168 67.5145C37.7761 67.2829 36.0762 65.2755 36.2307 63.0366C36.4625 60.7204 38.4715 59.0991 40.7122 59.2535C42.2576 59.4079 43.4938 60.3344 44.112 61.6469V58.4042C43.1848 57.7094 42.103 57.2461 40.8667 57.1689C37.467 56.9373 34.4536 59.4851 34.1445 62.8822Z" fill="#4D4D4D"/>
<path d="M40.7121 59.3307C38.4714 59.0991 36.3852 60.7976 36.2306 63.1138C35.9988 65.3528 37.6987 67.3601 40.0167 67.5917C41.7938 67.7461 43.4165 66.7425 44.1119 65.1984V61.8013C43.4937 60.4116 42.1802 59.4079 40.7121 59.3307ZM42.8756 63.6542C42.721 65.0439 41.4848 66.1248 40.094 65.9704C38.7032 65.816 37.6214 64.5807 37.776 63.191C37.9305 61.8013 39.1668 60.7204 40.5576 60.8748C41.9484 60.952 43.0301 62.2645 42.8756 63.6542Z" fill="white"/>
<path d="M40.5578 60.8751C39.1669 60.7207 37.8534 61.8015 37.7761 63.1912C37.6989 64.5809 38.7033 65.8934 40.0942 65.9707C41.485 66.1251 42.7985 65.0442 42.8758 63.6545C43.0303 62.2648 41.9486 60.9523 40.5578 60.8751ZM40.2487 64.5037C39.6306 64.4265 39.2442 63.9633 39.2442 63.3457C39.3215 62.728 39.7851 62.342 40.4032 62.342C41.0214 62.4192 41.4077 62.8824 41.3304 63.5001C41.3304 64.1177 40.7896 64.5037 40.2487 64.5037Z" fill="#4D4D4D"/>
<path d="M28.9047 62.9756L28.9014 63.6704L45.1274 63.7474L45.1307 63.0526L28.9047 62.9756Z" fill="white"/>
<path d="M40.0761 51.4274L39.9614 74.8979L40.6568 74.9013L40.7715 51.4308L40.0761 51.4274Z" fill="white"/>
<path d="M51.993 60.1803C51.993 60.5663 51.8385 60.9524 51.7612 61.2612C51.6067 61.57 51.4521 61.8788 51.1431 62.1105C50.9113 62.3421 50.6022 62.4965 50.2159 62.6509C49.8295 62.8053 49.4432 62.8825 48.9796 62.8825C48.4387 62.8825 47.9751 62.8053 47.5888 62.5737C47.2024 62.3421 46.8161 62.1105 46.5843 61.8016C46.2752 61.4928 46.1207 61.1068 45.9662 60.6436C45.8116 60.1803 45.7344 59.6399 45.7344 59.0994C45.7344 58.4818 45.8116 58.0186 45.9662 57.5553C46.1207 57.0921 46.3525 56.7061 46.6616 56.3972C46.9706 56.0884 47.2797 55.7796 47.666 55.6252C48.0524 55.4708 48.516 55.3936 49.0569 55.3936C49.5205 55.3936 49.9068 55.4708 50.2159 55.548C50.5249 55.6252 50.834 55.8568 51.0658 56.0112C51.2976 56.2428 51.4521 56.4744 51.6067 56.7833C51.7612 57.0921 51.8385 57.4009 51.9157 57.7869L50.3704 57.9413C50.2931 57.5553 50.1386 57.1693 49.9841 56.9377C49.7523 56.7061 49.4432 56.5516 48.9796 56.5516C48.4387 56.5516 47.9751 56.7833 47.666 57.1693C47.357 57.6325 47.2024 58.2502 47.2024 59.0222C47.2024 59.7943 47.357 60.4119 47.666 60.8752C47.9751 61.3384 48.4387 61.4928 48.9796 61.4928C49.4432 61.4928 49.7523 61.4156 49.9841 61.1068C50.2159 60.798 50.3704 60.4891 50.3704 60.1031L51.993 60.1803Z" fill="#D94D15"/>
<path d="M52.9976 55.4707H54.4656V61.3383H57.8654L57.7108 62.6509H52.9976V55.4707Z" fill="#D94D15"/>
<path d="M61.6513 62.8053C61.1105 62.8053 60.6469 62.7281 60.1833 62.5737C59.7969 62.4193 59.4106 62.1877 59.1015 61.8016C58.7925 61.4156 58.5607 61.1068 58.4061 60.6436C58.2516 60.1803 58.1743 59.6399 58.1743 59.0994C58.1743 58.559 58.2516 58.0186 58.4061 57.5553C58.5607 57.0921 58.7925 56.7061 59.1015 56.3972C59.4106 56.0884 59.7197 55.7796 60.1833 55.6252C60.6469 55.4708 61.1105 55.3936 61.5741 55.3936C62.1149 55.3936 62.5785 55.4708 63.0421 55.6252C63.4285 55.7796 63.8148 56.0112 64.1239 56.3972C64.4329 56.7061 64.6647 57.0921 64.8193 57.5553C64.9738 58.0186 65.0511 58.559 65.0511 59.0994C65.0511 59.6399 64.9738 60.1803 64.8193 60.6436C64.6647 61.1068 64.4329 61.4928 64.1239 61.8016C63.8148 62.1105 63.5057 62.4193 63.0421 62.5737C62.6558 62.7281 62.1922 62.8053 61.6513 62.8053ZM61.6513 61.4928C62.2695 61.4928 62.7331 61.2612 63.0421 60.8752C63.3512 60.4891 63.5057 59.8715 63.5057 59.0222C63.5057 58.2502 63.3512 57.6325 63.0421 57.1693C62.7331 56.7061 62.2695 56.5516 61.6513 56.5516C61.0332 56.5516 60.5696 56.7833 60.2605 57.1693C59.9515 57.5553 59.7969 58.2502 59.7969 59.0222C59.7969 59.7943 59.9515 60.4119 60.2605 60.8752C60.4923 61.3384 60.9559 61.4928 61.6513 61.4928Z" fill="#D94D15"/>
<path d="M66.1328 55.4707H67.6009V59.717C67.6009 60.3347 67.6782 60.7979 67.91 61.1067C68.1418 61.4156 68.4508 61.57 68.9917 61.57C69.5326 61.57 69.8416 61.4156 70.0734 61.1067C70.3052 60.7979 70.3825 60.3347 70.3825 59.717V55.4707H71.8506V59.717C71.8506 60.2575 71.7733 60.7207 71.6188 61.1067C71.4642 61.4928 71.3097 61.8016 71.0779 62.0332C70.8461 62.2648 70.537 62.4964 70.1507 62.5736C69.7644 62.6509 69.378 62.7281 68.9144 62.7281C68.4508 62.7281 68.0645 62.6509 67.6782 62.5736C67.2918 62.4192 67.06 62.2648 66.7509 62.0332C66.4419 61.8016 66.2873 61.4928 66.2101 61.0295C66.2101 60.7207 66.1328 60.2575 66.1328 59.717V55.4707Z" fill="#D94D15"/>
<path d="M73.2412 55.4707H75.9456C77.0273 55.4707 77.8772 55.7795 78.4954 56.32C79.1135 56.8604 79.4226 57.7869 79.4226 58.945C79.4226 59.5626 79.3453 60.0258 79.1908 60.4891C79.0362 60.9523 78.8044 61.3383 78.4954 61.6472C78.1863 61.956 77.8 62.1876 77.3364 62.342C76.8728 62.4964 76.3319 62.5736 75.791 62.5736H73.3957C73.2412 62.5736 73.2412 55.4707 73.2412 55.4707ZM75.6365 61.3384C76.0228 61.3384 76.3319 61.2611 76.641 61.1839C76.95 61.1067 77.1046 60.8751 77.3364 60.7207C77.5682 60.5663 77.6454 60.2575 77.7227 59.9486C77.8 59.6398 77.8772 59.331 77.8772 59.0222C77.8772 58.6361 77.8 58.3273 77.8 58.0957C77.7227 57.7869 77.6454 57.5553 77.4909 57.4009C77.3364 57.1692 77.1046 57.0148 76.8728 56.9376C76.641 56.8604 76.3319 56.7832 75.9456 56.7832H74.7865V61.4156H75.6365V61.3384Z" fill="#D94D15"/>
<path d="M86.6859 60.1803C86.6859 60.5663 86.5313 60.9524 86.4541 61.2612C86.2995 61.57 86.145 61.8788 85.8359 62.1105C85.6041 62.3421 85.2951 62.4965 84.9087 62.6509C84.5224 62.8053 84.1361 62.8825 83.6724 62.8825C83.1316 62.8825 82.668 62.8053 82.2817 62.5737C81.8953 62.3421 81.509 62.1105 81.2772 61.8016C80.9681 61.4928 80.8136 61.1068 80.659 60.6436C80.5045 60.1803 80.4272 59.6399 80.4272 59.0994C80.4272 58.4818 80.5045 58.0186 80.659 57.5553C80.8136 57.0921 81.0454 56.7061 81.3544 56.3972C81.6635 56.0884 81.9726 55.7796 82.3589 55.6252C82.7453 55.4708 83.2089 55.3936 83.7497 55.3936C84.2133 55.3936 84.5997 55.4708 84.9087 55.548C85.2178 55.6252 85.5269 55.8568 85.7587 56.0112C85.9905 56.2428 86.145 56.4744 86.2995 56.7833C86.4541 57.0921 86.5313 57.4009 86.6086 57.7869L85.1405 57.9413C85.0633 57.5553 84.9087 57.1693 84.6769 56.9377C84.4451 56.7061 84.1361 56.5516 83.6724 56.5516C83.1316 56.5516 82.668 56.7833 82.3589 57.1693C82.0498 57.6325 81.8953 58.2502 81.8953 59.0222C81.8953 59.7943 82.0498 60.4119 82.3589 60.8752C82.668 61.3384 83.1316 61.4928 83.6724 61.4928C84.1361 61.4928 84.4451 61.4156 84.6769 61.1068C84.9087 60.798 85.0633 60.4891 85.0633 60.1031L86.6859 60.1803Z" fill="#D94D15"/>
<path d="M90.9354 62.8053C90.3945 62.8053 89.9309 62.7281 89.5446 62.5737C89.081 62.4193 88.7719 62.1877 88.4629 61.8016C88.1538 61.4156 87.922 61.1068 87.7674 60.6436C87.6129 60.1803 87.5356 59.6399 87.5356 59.0994C87.5356 58.559 87.6129 58.0186 87.7674 57.5553C87.922 57.0921 88.1538 56.7061 88.4629 56.3972C88.7719 56.0884 89.081 55.7796 89.5446 55.6252C90.0082 55.4708 90.4718 55.3936 90.9354 55.3936C91.4763 55.3936 91.9399 55.4708 92.4035 55.6252C92.7898 55.7796 93.1761 56.0112 93.4852 56.3972C93.7943 56.7061 94.0261 57.0921 94.1806 57.5553C94.3351 58.0186 94.4124 58.559 94.4124 59.0994C94.4124 59.6399 94.3351 60.1803 94.1806 60.6436C94.0261 61.1068 93.7943 61.4928 93.4852 61.8016C93.1761 62.1105 92.8671 62.4193 92.4035 62.5737C91.9399 62.7281 91.4763 62.8053 90.9354 62.8053ZM90.9354 61.4928C91.5535 61.4928 92.0171 61.2612 92.3262 60.8752C92.6353 60.4891 92.7898 59.8715 92.7898 59.0222C92.7898 58.2502 92.6353 57.6325 92.3262 57.1693C92.0171 56.7061 91.5535 56.5516 90.9354 56.5516C90.3173 56.5516 89.8537 56.7833 89.5446 57.1693C89.2355 57.5553 89.081 58.2502 89.081 59.0222C89.081 59.7943 89.2355 60.4119 89.5446 60.8752C89.8537 61.3384 90.3173 61.4928 90.9354 61.4928Z" fill="#D94D15"/>
<path d="M95.5718 55.4707H97.3489L99.1261 60.7979L100.98 55.4707H102.758V62.6509H101.367V57.8641L99.7442 62.6509H98.5852L96.9626 57.8641V62.6509H95.649C95.5718 62.6509 95.5718 55.4707 95.5718 55.4707Z" fill="#D94D15"/>
<path d="M104.148 55.4707H106.698C107.239 55.4707 107.702 55.5479 108.089 55.6251C108.475 55.7023 108.707 55.9339 108.939 56.0884C109.17 56.32 109.325 56.5516 109.402 56.7832C109.479 57.0148 109.557 57.3236 109.557 57.6325C109.557 57.9413 109.479 58.2501 109.402 58.5589C109.325 58.8678 109.17 59.0994 108.939 59.331C108.707 59.5626 108.475 59.717 108.089 59.8714C107.78 60.0259 107.316 60.1031 106.775 60.1031H105.693V62.6509H104.225V55.4707H104.148ZM106.698 58.7906C106.93 58.7906 107.161 58.7906 107.316 58.7134C107.47 58.6361 107.625 58.5589 107.702 58.4817C107.78 58.4045 107.857 58.2501 107.934 58.0957C108.011 57.9413 108.011 57.7869 108.011 57.6325C108.011 57.4781 108.011 57.3236 107.934 57.1692C107.857 57.0148 107.857 56.9376 107.702 56.8604C107.625 56.7832 107.47 56.706 107.316 56.6288C107.161 56.5516 106.93 56.5516 106.698 56.5516H105.616V58.7134L106.698 58.7906Z" fill="#D94D15"/>
<path d="M110.484 55.4707H111.952V59.717C111.952 60.3347 112.029 60.7979 112.261 61.1067C112.493 61.4156 112.802 61.57 113.343 61.57C113.884 61.57 114.193 61.4156 114.425 61.1067C114.657 60.7979 114.734 60.3347 114.734 59.717V55.4707H116.202V59.717C116.202 60.2575 116.125 60.7207 115.97 61.1067C115.816 61.4928 115.661 61.8016 115.429 62.0332C115.197 62.2648 114.888 62.4964 114.502 62.5736C114.116 62.6509 113.729 62.7281 113.266 62.7281C112.802 62.7281 112.416 62.6509 112.029 62.5736C111.643 62.4192 111.411 62.2648 111.102 62.0332C110.793 61.8016 110.639 61.4928 110.561 61.0295C110.407 60.6435 110.33 60.1803 110.33 59.6398V55.4707H110.484Z" fill="#D94D15"/>
<path d="M119.138 56.7832H116.975V55.4707H122.77V56.7832H120.606V62.6509H119.138V56.7832Z" fill="#D94D15"/>
<path d="M123.774 55.4707H125.242V62.6509H123.774V55.4707Z" fill="#D94D15"/>
<path d="M126.71 55.4707H128.024L130.96 60.1803V55.4707H132.428V62.6509H131.114L128.178 58.0185V62.6509H126.71V55.4707Z" fill="#D94D15"/>
<path d="M137.218 58.7135H140V61.7245C139.613 62.0333 139.227 62.3421 138.686 62.4966C138.145 62.651 137.682 62.8054 137.141 62.8054C136.6 62.8054 136.059 62.7282 135.673 62.4966C135.209 62.3421 134.9 62.0333 134.591 61.7245C134.282 61.4157 134.128 61.0296 133.973 60.5664C133.818 60.1032 133.741 59.5627 133.741 59.0223C133.741 58.4046 133.818 57.9414 133.973 57.4782C134.128 57.0149 134.359 56.6289 134.668 56.3201C134.977 56.0113 135.287 55.7024 135.673 55.548C136.059 55.3936 136.523 55.3164 137.064 55.3164C137.527 55.3164 137.914 55.3936 138.223 55.4708C138.532 55.548 138.841 55.7796 139.073 55.9341C139.304 56.0885 139.459 56.3973 139.613 56.6289C139.768 56.9377 139.845 57.1693 139.923 57.4782L138.454 57.7098C138.377 57.5554 138.377 57.401 138.3 57.2466C138.223 57.0921 138.145 57.0149 138.068 56.8605C137.991 56.7833 137.836 56.7061 137.682 56.6289C137.527 56.5517 137.295 56.5517 137.064 56.5517C136.446 56.5517 136.059 56.7833 135.75 57.1693C135.441 57.6326 135.287 58.2502 135.287 59.0223C135.287 59.7943 135.441 60.412 135.75 60.8752C136.059 61.3385 136.523 61.4929 137.141 61.4929C137.45 61.4929 137.759 61.4929 137.991 61.4157C138.223 61.3385 138.454 61.2613 138.686 61.1068V59.9488H137.218V58.7135Z" fill="#D94D15"/>
<path d="M45.8115 64.3491H47.2796V71.5293H45.8115V64.3491Z" fill="#1C1A1E"/>
<path d="M48.8247 64.3491H50.1382L53.0744 69.0587V64.3491H54.5425V71.5293H53.2289L50.2928 66.8969V71.5293H48.8247V64.3491Z" fill="#1C1A1E"/>
<path d="M57.0927 69.136C57.0927 69.5992 57.2472 69.9081 57.479 70.1397C57.7108 70.3713 58.0972 70.4485 58.5608 70.4485C58.7926 70.4485 59.0244 70.4485 59.1789 70.3713C59.3334 70.2941 59.488 70.2169 59.5652 70.1397C59.6425 70.0625 59.7198 69.9853 59.797 69.8309C59.8743 69.6764 59.8743 69.5992 59.8743 69.4448C59.8743 69.2904 59.797 69.0588 59.6425 68.9044C59.488 68.75 59.2562 68.5956 58.8698 68.5184L57.9426 68.3639C57.5563 68.2867 57.2472 68.2095 56.9382 68.1323C56.6291 68.0551 56.3973 67.9007 56.2428 67.7463C56.011 67.5919 55.9337 67.3603 55.7792 67.1286C55.7019 66.897 55.6246 66.5882 55.6246 66.2794C55.6246 65.9706 55.7019 65.6617 55.8564 65.3529C56.011 65.0441 56.1655 64.8897 56.3973 64.7353C56.6291 64.5809 56.9382 64.4264 57.2472 64.3492C57.5563 64.272 57.9426 64.1948 58.4062 64.1948C58.9471 64.1948 59.3334 64.272 59.7198 64.3492C60.1061 64.5036 60.3379 64.6581 60.5697 64.8125C60.8015 64.9669 60.956 65.1985 61.0333 65.5073C61.1106 65.7389 61.1878 66.0478 61.2651 66.2794L59.8743 66.4338C59.797 66.0478 59.6425 65.7389 59.488 65.5845C59.2562 65.4301 58.9471 65.3529 58.5608 65.3529C58.329 65.3529 58.0972 65.3529 57.9426 65.4301C57.7881 65.5073 57.6336 65.5073 57.5563 65.5845C57.479 65.6617 57.4018 65.7389 57.3245 65.8161C57.3245 65.8934 57.2472 66.0478 57.2472 66.125C57.2472 66.4338 57.3245 66.5882 57.479 66.7426C57.6336 66.897 57.8654 66.9742 58.2517 67.0514L59.1789 67.2059C59.9516 67.3603 60.4924 67.5919 60.8788 67.9779C61.2651 68.3639 61.4197 68.8272 61.4197 69.4448C61.4197 69.7536 61.3424 70.0625 61.2651 70.2941C61.1106 70.5257 60.956 70.7573 60.7242 70.9889C60.4924 71.2206 60.1834 71.375 59.8743 71.4522C59.488 71.5294 59.1016 71.6066 58.638 71.6066C57.6336 71.6066 56.9382 71.375 56.3973 70.9889C55.8564 70.6029 55.6246 69.9081 55.5474 69.0588L57.0927 69.136Z" fill="#1C1A1E"/>
<path d="M62.501 64.3491H63.9691V71.5293H62.501V64.3491Z" fill="#1C1A1E"/>
<path d="M65.4375 64.3491H68.1418C69.2236 64.3491 70.0735 64.6579 70.6917 65.1984C71.3098 65.7388 71.6189 66.6653 71.6189 67.8234C71.6189 68.441 71.5416 68.9043 71.3871 69.3675C71.2325 69.8307 71.0007 70.2168 70.6917 70.5256C70.3826 70.8344 69.9963 71.066 69.5327 71.2204C69.0691 71.3749 68.5282 71.4521 67.9873 71.4521H65.592C65.4375 71.4521 65.4375 64.3491 65.4375 64.3491ZM67.91 70.2168C68.2964 70.2168 68.6054 70.1396 68.9145 70.0624C69.1463 69.9852 69.3781 69.8307 69.6099 69.5991C69.8417 69.3675 69.919 69.1359 69.9963 68.8271C70.0735 68.5182 70.1508 68.2094 70.1508 67.9006C70.1508 67.5146 70.0735 67.2057 70.0735 66.9741C69.9963 66.6653 69.919 66.4337 69.7644 66.2793C69.6099 66.0477 69.3781 65.8932 69.1463 65.816C68.9145 65.7388 68.6054 65.6616 68.2191 65.6616H66.9056V70.294H67.91V70.2168Z" fill="#1C1A1E"/>
<path d="M72.855 64.3491H77.7228V65.5844H74.3231V67.1285H77.491V68.441H74.3231V70.2168H77.9546L77.8001 71.5293H72.855V64.3491Z" fill="#1C1A1E"/>
<path d="M78.959 64.3491H81.5088C82.0497 64.3491 82.5133 64.4263 82.8996 64.5807C83.2859 64.7352 83.5177 64.8896 83.7495 65.1212C83.9813 65.3528 84.0586 65.5844 84.2131 65.816C84.2904 66.0477 84.3677 66.3565 84.3677 66.5881C84.3677 67.0513 84.2904 67.4374 84.1359 67.7462C83.9813 68.055 83.6723 68.3638 83.2859 68.5182L84.754 71.5293H83.1314L81.8179 68.7499H80.4271V71.4521H78.959V64.3491ZM81.5861 67.5918C81.8179 67.5918 82.0497 67.5918 82.2042 67.5146C82.3587 67.4374 82.5133 67.3602 82.5905 67.2829C82.6678 67.2057 82.7451 67.0513 82.7451 66.9741C82.7451 66.8969 82.8223 66.6653 82.8223 66.5881C82.8223 66.4337 82.8223 66.3565 82.7451 66.2021C82.6678 66.0477 82.6678 65.9704 82.5133 65.8932C82.436 65.816 82.2815 65.7388 82.1269 65.6616C81.9724 65.5844 81.7406 65.5844 81.5088 65.5844H80.5043V67.5918H81.5861Z" fill="#1C1A1E"/>
<path d="M38.3939 81.1027C37.6985 81.1027 35.535 81.7204 35.1487 81.8748C34.7623 82.0292 34.0669 82.2608 33.6806 82.4924C33.217 82.7241 32.8307 83.0329 32.2898 83.2645L31.9035 83.1873C31.8262 83.1101 31.7489 83.0329 31.7489 82.9557C31.8262 82.4924 35.6895 81.2572 37.3121 81.0255C32.9852 79.9447 29.4309 77.3197 27.0356 73.7682C24.4858 69.9851 23.4041 65.1211 24.254 60.1799C25.104 55.2388 27.9628 51.1469 31.6717 48.4447C32.4443 47.9042 33.217 47.441 33.9897 47.0549C33.9897 47.0549 33.9897 47.0549 33.9124 47.0549C34.6851 44.2755 35.7668 45.0476 38.5484 44.4299C38.4711 45.5108 36.3077 47.441 34.2987 47.1322C33.4488 47.5954 32.5989 48.0586 31.7489 48.5991C28.0401 51.2241 25.3358 55.316 24.4086 60.1799C23.4814 65.0439 24.6404 69.8307 27.1129 73.6138C29.6627 77.3969 33.5261 80.1763 38.2393 81.0255L38.3939 81.1027ZM32.1353 47.2094C34.2215 46.3601 33.4488 45.588 33.6033 43.4263C32.7534 43.5807 31.3626 45.6652 32.1353 47.2094ZM30.1263 49.0623C31.9035 47.7498 31.0535 47.1322 30.7445 45.0476C29.8945 45.4336 29.0446 47.7498 30.1263 49.0623ZM31.7489 49.4483C33.1397 50.2976 35.3032 49.0623 35.535 48.213C33.3715 48.2902 32.6761 47.5182 31.7489 49.4483ZM29.1991 51.8417C30.6672 52.5366 32.6761 51.1469 32.8307 50.2976C30.7445 50.5292 29.9718 49.8344 29.1991 51.8417ZM27.8856 51.2241C29.74 49.8344 28.89 49.2167 28.5037 46.9777C27.6538 47.3638 26.7266 49.8344 27.8856 51.2241ZM26.263 53.5402C27.5765 51.6101 26.4948 51.3785 25.3358 49.3711C24.7176 49.9888 24.7949 52.6138 26.263 53.5402ZM26.8038 55.0844C28.581 55.4704 30.4354 53.463 30.4354 52.5366C28.1946 53.2314 27.1902 52.691 26.8038 55.0844ZM24.6404 56.3197C26.1084 54.1579 24.8722 53.8491 23.6359 51.6101C22.8632 52.3822 22.9405 55.316 24.6404 56.3197ZM25.413 58.1726C27.1902 58.4042 28.8128 56.1652 28.7355 55.2388C26.572 56.1652 25.4903 55.702 25.413 58.1726ZM23.6359 59.2535C21.7042 58.5586 21.0861 55.5476 21.7042 54.6211C23.4041 56.7057 24.7176 56.7829 23.6359 59.2535ZM23.1723 62.3417C23.8677 59.5623 22.4769 59.7167 20.3907 57.8638C19.9271 58.9447 21.0861 61.9557 23.1723 62.3417ZM24.6404 62.3417C26.8811 62.2645 28.5037 59.2535 28.1174 58.0954C25.7221 59.7167 24.3313 59.3307 24.6404 62.3417ZM23.4041 65.9704C23.6359 62.8822 22.2451 63.3454 19.6953 61.8013C19.3862 62.9594 21.1634 65.8932 23.4041 65.9704ZM24.1768 68.6726C23.095 65.816 22.0133 66.7424 19.0771 66.4336C19.3089 67.5917 22.0906 69.6763 24.1768 68.6726ZM24.8722 66.3564C27.1129 65.9704 28.2719 62.7277 27.731 61.6469C25.4903 63.577 24.0995 63.4226 24.8722 66.3564ZM25.5676 71.5292C23.945 68.9814 23.0178 70.1395 20.0816 70.3711C20.5452 71.5292 23.7132 72.9189 25.5676 71.5292ZM26.3402 70.6799C28.1946 69.5991 28.2719 66.3564 27.422 65.5072C26.1084 67.9005 24.7176 68.2866 26.3402 70.6799ZM27.0356 74.6174C25.413 72.0697 24.4858 73.2277 21.5497 73.4594C22.0133 74.6174 25.2585 75.9299 27.0356 74.6174ZM29.1218 74.8491C30.5899 73.0733 29.3536 69.7535 28.2719 69.213C27.8856 72.2241 26.6493 73.0733 29.1218 74.8491ZM29.5855 76.9336C27.1902 74.6947 26.572 76.1616 23.6359 77.1652C24.3313 78.2461 28.0401 78.8638 29.5855 76.9336ZM32.2125 79.0182C29.5082 77.3197 29.1991 78.7866 26.4948 80.4079C27.422 81.2572 31.0535 81.1027 32.2125 79.0182ZM33.1397 78.3233C34.0669 75.9299 31.7489 72.9189 30.4354 72.6873C30.899 76.0072 29.8945 77.2424 33.1397 78.3233Z" fill="#D94D15"/>
<path d="M42.8755 78.0146H44.1118L46.3525 84.0367H44.9617L44.4981 82.647H42.4119L41.9483 84.0367H40.6348L42.8755 78.0146ZM44.189 81.5661L43.4164 79.4044L42.721 81.5661H44.189Z" fill="#575756"/>
<path d="M46.4297 78.0146H47.8205L48.825 82.1838L49.8294 78.0146H51.143L52.1474 82.1838L53.0746 78.0146H54.4655L52.8428 84.0367H51.6066L50.4476 79.5588L49.3658 84.0367H48.2068L46.4297 78.0146Z" fill="#575756"/>
<path d="M56.8605 78.0146H58.0968L60.3375 84.0367H58.9467L58.4831 82.647H56.3969L55.9333 84.0367H54.5425L56.8605 78.0146ZM58.0968 81.5661L57.3241 79.4044L56.6287 81.5661H58.0968Z" fill="#575756"/>
<path d="M61.4194 78.0146H63.5829C64.0465 78.0146 64.4328 78.0919 64.7419 78.1691C65.051 78.2463 65.2828 78.4007 65.4373 78.6323C65.5918 78.8639 65.7464 79.0183 65.8236 79.2499C65.9009 79.4816 65.9009 79.7132 65.9009 79.8676C65.9009 80.2536 65.8236 80.5624 65.6691 80.8713C65.5146 81.1801 65.2828 81.3345 64.9737 81.5661L66.21 84.1139H64.8192L63.8147 81.8749H62.6557V84.1139H61.4194V78.0146ZM63.6602 80.7169C63.892 80.7169 64.0465 80.7169 64.1238 80.6396C64.2783 80.6396 64.3556 80.5624 64.4328 80.4852C64.5101 80.408 64.5874 80.3308 64.5874 80.1764C64.5874 80.0992 64.5874 79.9448 64.5874 79.7904C64.5874 79.7132 64.5874 79.5588 64.5101 79.4816C64.5101 79.4044 64.4328 79.3271 64.3556 79.2499C64.2783 79.1727 64.1238 79.0955 64.0465 79.0955C63.9692 79.0955 63.7374 79.0183 63.5056 79.0183H62.6557V80.7169H63.6602Z" fill="#575756"/>
<path d="M67.3688 78.0146H69.6095C70.5367 78.0146 71.2321 78.2463 71.773 78.7867C72.3139 79.3271 72.5457 80.022 72.5457 81.0257C72.5457 81.5661 72.4684 81.9521 72.3139 82.3382C72.1593 82.7242 71.9275 83.033 71.6957 83.2646C71.4639 83.4963 71.0776 83.7279 70.6913 83.8823C70.3049 84.0367 69.8413 84.1139 69.3777 84.1139H67.2915L67.3688 78.0146ZM69.455 82.9558C69.764 82.9558 70.0731 82.8786 70.3049 82.8014C70.5367 82.7242 70.6912 82.5698 70.8458 82.4154C71.0003 82.261 71.0776 82.0294 71.1549 81.7977C71.2321 81.5661 71.2321 81.2573 71.2321 81.0257C71.2321 80.7169 71.2321 80.4852 71.1549 80.2536C71.0776 80.022 71.0003 79.7904 70.8458 79.636C70.6912 79.4816 70.5367 79.3271 70.3049 79.2499C70.0731 79.1727 69.8413 79.0955 69.5322 79.0955H68.5278V82.9558C68.605 82.9558 69.455 82.9558 69.455 82.9558Z" fill="#575756"/>
<path d="M76.4093 83.5735C76.6411 83.4191 76.8729 83.1874 77.1047 82.9558C77.3365 82.7242 77.6456 82.4926 77.8774 82.261C78.1864 82.0294 78.4182 81.7977 78.65 81.5661C78.8818 81.3345 79.0364 81.1801 79.1909 80.9485C79.3454 80.7169 79.4227 80.5624 79.5 80.3308C79.5772 80.0992 79.5772 79.9448 79.5772 79.7132C79.5772 79.3271 79.5 78.9411 79.2682 78.7867C79.0364 78.6323 78.7273 78.4779 78.341 78.4779C78.1092 78.4779 77.8774 78.4779 77.7228 78.5551C77.5683 78.6323 77.4138 78.7095 77.3365 78.7867C77.182 78.8639 77.1047 79.0183 77.0274 79.1727C76.9502 79.3271 76.8729 79.4816 76.7956 79.636L76.332 79.5588C76.4093 79.4044 76.4866 79.1727 76.5638 79.0183C76.6411 78.8639 76.7956 78.7095 76.9502 78.5551C77.1047 78.4007 77.2592 78.3235 77.491 78.1691C77.7228 78.0919 78.0319 78.0146 78.341 78.0146C78.65 78.0146 78.8818 78.0146 79.1136 78.1691C79.3454 78.3235 79.5 78.4007 79.6545 78.5551C79.809 78.7095 79.8863 78.8639 79.9636 79.0955C80.0408 79.3271 80.1181 79.4816 80.1181 79.7904C80.1181 80.022 80.0408 80.3308 79.9636 80.5624C79.8863 80.7941 79.7318 81.0257 79.5772 81.2573C79.4227 81.4889 79.1909 81.7205 78.9591 81.9521C78.7273 82.1838 78.4182 82.4926 78.1092 82.7242C77.9546 82.8786 77.7228 83.033 77.5683 83.1874C77.4138 83.3419 77.182 83.4963 77.0274 83.6507H80.1181L80.0408 84.0367H76.332L76.4093 83.5735Z" fill="#D94D15"/>
<path d="M80.35 84.3454H76.0231V83.4189L76.7957 82.7241C77.0275 82.4924 77.3366 82.2608 77.5684 82.0292C77.8775 81.7976 78.1093 81.566 78.3411 81.3344C78.5729 81.1027 78.7274 80.9483 78.8819 80.7939C79.0365 80.6395 79.1137 80.4079 79.191 80.2535C79.2683 80.0991 79.2683 79.9447 79.2683 79.713C79.2683 79.4042 79.191 79.1726 79.0365 79.0182C78.8819 78.8638 78.6501 78.7866 78.3411 78.7866C78.1093 78.7866 77.9547 78.7866 77.8002 78.8638C77.6457 78.8638 77.5684 78.941 77.4911 79.0182C77.4139 79.0954 77.3366 79.1726 77.2593 79.2498C77.1821 79.4042 77.1048 79.4814 77.1048 79.6358L77.0275 79.9447L75.9458 79.713L76.0231 79.327C76.1003 79.0954 76.1776 78.941 76.2549 78.7094C76.3321 78.4777 76.4867 78.3233 76.7185 78.0917C76.9503 77.8601 77.1048 77.7829 77.4139 77.7057C77.7229 77.6285 78.032 77.5513 78.3411 77.5513C78.6501 77.5513 78.9592 77.6285 79.191 77.7057C79.4228 77.7829 79.6546 77.9373 79.8864 78.0917C80.041 78.2461 80.1955 78.4777 80.2728 78.7094C80.35 78.941 80.4273 79.2498 80.4273 79.4814C80.4273 79.7902 80.35 80.0991 80.2728 80.3307C80.1955 80.5623 80.041 80.8711 79.8864 81.1027C79.7319 81.3344 79.5001 81.6432 79.2683 81.8748C79.0365 82.1064 78.7274 82.4152 78.3411 82.6469C78.1865 82.7241 78.1093 82.8785 77.9547 82.9557H80.5818L80.35 84.3454Z" fill="#D94D15"/>
<path d="M83.5178 84.1916C82.8224 84.1916 82.3588 83.96 81.9725 83.4195C81.5862 82.8791 81.4316 82.107 81.4316 81.1034C81.4316 80.5629 81.5089 80.0997 81.5862 79.7137C81.6634 79.3276 81.818 79.0188 82.0498 78.71C82.2043 78.4784 82.4361 78.2468 82.7452 78.1695C82.977 78.0151 83.286 78.0151 83.5951 78.0151C83.9042 78.0151 84.2132 78.0923 84.445 78.1695C84.6768 78.324 84.9087 78.4784 85.0632 78.71C85.2177 78.9416 85.3723 79.3276 85.4495 79.7137C85.5268 80.0997 85.6041 80.5629 85.6041 81.1034C85.6041 81.6438 85.5268 82.107 85.4495 82.4931C85.3723 82.8791 85.2177 83.1879 85.0632 83.4195C84.9087 83.6512 84.6769 83.8828 84.3678 83.96C84.136 84.1144 83.8269 84.1916 83.5178 84.1916ZM83.5178 83.7284C83.8269 83.7284 84.0587 83.6512 84.2133 83.574C84.4451 83.4195 84.5996 83.2651 84.6769 83.0335C84.8314 82.8019 84.9087 82.5703 84.9087 82.1843C84.9859 81.8754 84.9859 81.4894 84.9859 81.1034C84.9859 80.7173 84.9859 80.3313 84.9087 80.0225C84.8314 79.7137 84.7541 79.4048 84.6769 79.1732C84.5223 78.9416 84.3678 78.7872 84.2133 78.6328C83.9815 78.4784 83.7496 78.4784 83.5178 78.4784C83.286 78.4784 82.977 78.5556 82.8224 78.6328C82.5906 78.7872 82.4361 78.9416 82.3588 79.1732C82.2043 79.4048 82.127 79.7137 82.127 80.0225C82.127 80.3313 82.0498 80.7173 82.0498 81.1034C82.0498 81.4894 82.0498 81.8754 82.127 82.1843C82.2043 82.4931 82.2816 82.8019 82.3588 83.0335C82.5134 83.2651 82.6679 83.4195 82.8224 83.574C82.977 83.6512 83.286 83.7284 83.5178 83.7284Z" fill="#D94D15"/>
<path d="M83.5178 84.5002C82.7452 84.5002 82.127 84.1914 81.7407 83.651C81.3544 83.1105 81.1226 82.2613 81.1226 81.1032C81.1226 80.5627 81.1998 80.0223 81.2771 79.6363C81.3544 79.173 81.5089 78.8642 81.7407 78.5554C81.9725 78.2466 82.2043 78.0149 82.5134 77.8605C82.8224 77.7061 83.1315 77.6289 83.5178 77.6289C83.9042 77.6289 84.2132 77.7061 84.5223 77.8605C84.8314 78.0149 85.0632 78.2466 85.295 78.5554C85.5268 78.8642 85.6813 79.173 85.7586 79.6363C85.8358 80.0223 85.9131 80.5627 85.9131 81.1032C85.9131 81.6436 85.8358 82.1068 85.7586 82.5701C85.6813 82.9561 85.5268 83.3421 85.295 83.651C85.0632 83.9598 84.8314 84.1914 84.5223 84.3458C84.2905 84.423 83.9042 84.5002 83.5178 84.5002ZM83.5178 78.787C83.286 78.787 83.1315 78.8642 82.977 78.9414C82.8224 79.0186 82.7452 79.173 82.5906 79.3274C82.5134 79.5591 82.4361 79.7907 82.3588 80.0223C82.3588 80.3311 82.2816 80.7171 82.2816 81.1032C82.2816 81.4892 82.2816 81.8752 82.3588 82.1841C82.4361 82.4929 82.5134 82.7245 82.5906 82.8789C82.6679 83.0333 82.8224 83.1877 82.977 83.2649C83.1315 83.3421 83.286 83.4193 83.5178 83.4193C83.7496 83.4193 83.9042 83.3421 84.0587 83.2649C84.2132 83.1877 84.2905 83.0333 84.445 82.8789C84.5223 82.7245 84.5996 82.4929 84.6768 82.1841C84.7541 81.8752 84.7541 81.5664 84.7541 81.1032C84.7541 80.7171 84.7541 80.3311 84.6768 80.0995C84.5996 79.7907 84.5223 79.5591 84.445 79.4046C84.3678 79.2502 84.2132 79.0958 84.0587 79.0186C83.9814 78.8642 83.7496 78.787 83.5178 78.787Z" fill="#D94D15"/>
<path d="M86.8405 83.5735C87.0723 83.4191 87.3041 83.1874 87.5359 82.9558C87.7677 82.7242 88.0767 82.4926 88.3085 82.261C88.6176 82.0294 88.8494 81.7977 89.0812 81.5661C89.313 81.3345 89.4675 81.1801 89.6221 80.9485C89.7766 80.7169 89.8539 80.5624 89.9311 80.3308C90.0084 80.0992 90.0084 79.9448 90.0084 79.7132C90.0084 79.3271 89.9311 78.9411 89.6993 78.7867C89.4675 78.6323 89.1585 78.4779 88.7721 78.4779C88.5403 78.4779 88.3085 78.4779 88.154 78.5551C87.9995 78.6323 87.8449 78.7095 87.7677 78.7867C87.6131 78.8639 87.5359 79.0183 87.4586 79.1727C87.3813 79.3271 87.3041 79.4816 87.2268 79.636L86.7632 79.5588C86.8405 79.4044 86.9177 79.1727 86.995 79.0183C87.0723 78.8639 87.2268 78.7095 87.3813 78.5551C87.5359 78.4007 87.6904 78.3235 87.9222 78.1691C88.154 78.0919 88.4631 78.0146 88.7721 78.0146C89.0812 78.0146 89.313 78.0146 89.5448 78.1691C89.7766 78.3235 89.9311 78.4007 90.0857 78.5551C90.2402 78.7095 90.3175 78.8639 90.3947 79.0955C90.472 79.3271 90.5493 79.4816 90.5493 79.7904C90.5493 80.022 90.472 80.3308 90.3947 80.5624C90.3175 80.7941 90.1629 81.0257 90.0084 81.2573C89.8539 81.4889 89.6221 81.7205 89.3903 81.9521C89.1585 82.1838 88.8494 82.4926 88.5403 82.7242C88.3858 82.8786 88.154 83.033 87.9995 83.1874C87.8449 83.3419 87.6131 83.4963 87.4586 83.6507H90.5493L90.472 84.1139H86.7632V83.5735H86.8405Z" fill="#D94D15"/>
<path d="M90.8583 84.3454H86.5314V83.4189L87.304 82.7241C87.5358 82.4924 87.8449 82.2608 88.0767 82.0292C88.3858 81.7976 88.6176 81.566 88.8494 81.3344C89.0812 81.1027 89.2357 80.9483 89.3902 80.7939C89.5448 80.6395 89.622 80.4079 89.6993 80.2535C89.7766 80.0991 89.7766 79.9447 89.7766 79.713C89.7766 79.4042 89.6993 79.1726 89.5448 79.0182C89.3902 78.8638 89.1584 78.7866 88.8494 78.7866C88.6176 78.7866 88.463 78.7866 88.3085 78.8638C88.154 78.8638 88.0767 78.941 87.9994 79.0182C87.9222 79.0954 87.8449 79.1726 87.7676 79.2498C87.6904 79.4042 87.6131 79.4814 87.6131 79.6358L87.5358 79.9447L86.4541 79.713L86.5314 79.327C86.6086 79.0954 86.6859 78.941 86.7632 78.7094C86.8404 78.4777 86.995 78.3233 87.2268 78.0917C87.4586 77.8601 87.6131 77.7829 87.9222 77.7057C88.2312 77.6285 88.5403 77.5513 88.8494 77.5513C89.1584 77.5513 89.4675 77.6285 89.6993 77.7057C89.9311 77.7829 90.1629 77.9373 90.3947 78.0917C90.5492 78.2461 90.7038 78.4777 90.781 78.7094C90.8583 78.941 90.9356 79.2498 90.9356 79.4814C90.9356 79.7902 90.8583 80.0991 90.781 80.3307C90.7038 80.5623 90.5492 80.8711 90.3947 81.1027C90.2402 81.3344 90.0084 81.6432 89.7766 81.8748C89.5448 82.1064 89.2357 82.4152 88.8494 82.6469C88.6948 82.7241 88.6176 82.8785 88.463 82.9557H91.0901L90.8583 84.3454Z" fill="#D94D15"/>
<path d="M91.9401 83.5735C92.1719 83.4191 92.4037 83.1874 92.6355 82.9558C92.8673 82.7242 93.1763 82.4926 93.4081 82.261C93.7172 82.0294 93.949 81.7977 94.1808 81.5661C94.4126 81.3345 94.5671 81.1801 94.7217 80.9485C94.8762 80.7169 94.9535 80.5624 95.0307 80.3308C95.108 80.0992 95.108 79.9448 95.108 79.7132C95.108 79.3271 95.0307 78.9411 94.7989 78.7867C94.5671 78.6323 94.2581 78.4779 93.8717 78.4779C93.6399 78.4779 93.4081 78.4779 93.2536 78.5551C93.0991 78.6323 92.9445 78.7095 92.8673 78.7867C92.7127 78.8639 92.6355 79.0183 92.5582 79.1727C92.4809 79.3271 92.4037 79.4816 92.3264 79.636L91.8628 79.5588C91.9401 79.4044 92.0173 79.1727 92.0946 79.0183C92.1719 78.8639 92.3264 78.7095 92.4809 78.5551C92.6355 78.4007 92.79 78.3235 93.0218 78.1691C93.2536 78.0919 93.5627 78.0146 93.8717 78.0146C94.1808 78.0146 94.4126 78.0146 94.6444 78.1691C94.8762 78.3235 95.0307 78.4007 95.1853 78.5551C95.3398 78.7095 95.4171 78.8639 95.4943 79.0955C95.5716 79.3271 95.6489 79.4816 95.6489 79.7904C95.6489 80.022 95.5716 80.3308 95.4943 80.5624C95.4171 80.7941 95.2625 81.0257 95.108 81.2573C94.9535 81.4889 94.7217 81.7205 94.4899 81.9521C94.2581 82.1838 93.949 82.4926 93.6399 82.7242C93.4854 82.8786 93.2536 83.033 93.0991 83.1874C92.9445 83.3419 92.7127 83.4963 92.5582 83.6507H95.6489L95.5716 84.1139H91.8628V83.5735H91.9401Z" fill="#D94D15"/>
<path d="M95.9579 84.3454H91.631V83.4189L92.4036 82.7241C92.6354 82.4924 92.9445 82.2608 93.1763 82.0292C93.4854 81.7976 93.7172 81.566 93.949 81.3344C94.1808 81.1027 94.3353 80.9483 94.4899 80.7939C94.6444 80.6395 94.7217 80.4079 94.7989 80.2535C94.8762 80.0991 94.8762 79.9447 94.8762 79.713C94.8762 79.4042 94.7989 79.1726 94.6444 79.0182C94.4899 78.8638 94.2581 78.7866 93.949 78.7866C93.7172 78.7866 93.5627 78.7866 93.4081 78.8638C93.2536 78.8638 93.1763 78.941 93.099 79.0182C93.0218 79.0954 92.9445 79.1726 92.8672 79.2498C92.79 79.4042 92.7127 79.4814 92.7127 79.6358L92.6354 79.9447L91.5537 79.713L91.631 79.327C91.7082 79.0954 91.7855 78.941 91.8628 78.7094C91.94 78.4777 92.0946 78.3233 92.3264 78.0917C92.5582 77.8601 92.7127 77.7829 93.0218 77.7057C93.3309 77.6285 93.6399 77.5513 93.949 77.5513C94.2581 77.5513 94.5671 77.6285 94.7989 77.7057C95.0307 77.7829 95.2625 77.9373 95.4943 78.0917C95.6489 78.2461 95.8034 78.4777 95.8807 78.7094C95.9579 78.941 96.0352 79.2498 96.0352 79.4814C96.0352 79.7902 95.9579 80.0991 95.8807 80.3307C95.8034 80.5623 95.6489 80.8711 95.4943 81.1027C95.3398 81.3344 95.108 81.6432 94.8762 81.8748C94.6444 82.1064 94.3353 82.4152 93.949 82.6469C93.7945 82.7241 93.7172 82.8785 93.5627 82.9557H96.1897L95.9579 84.3454Z" fill="#D94D15"/>
<path d="M40.7119 42.5771H41.021L42.7981 45.2794V42.5771H43.0299V45.7426H42.7209L40.9437 43.0404V45.7426H40.7119V42.5771Z" fill="#575756"/>
<path d="M45.1164 45.8199C44.8846 45.8199 44.7301 45.8199 44.5755 45.7426C44.421 45.6654 44.2665 45.5882 44.1119 45.4338C43.9574 45.2794 43.8801 45.125 43.8029 44.8934C43.7256 44.6618 43.7256 44.4301 43.7256 44.1985C43.7256 43.9669 43.7256 43.6581 43.8029 43.5037C43.8801 43.2721 43.9574 43.1176 44.1119 42.9632C44.2665 42.8088 44.421 42.7316 44.5755 42.6544C44.7301 42.5772 44.8846 42.5 45.1164 42.5C45.3482 42.5 45.5027 42.5 45.6573 42.5772C45.8118 42.6544 45.9663 42.7316 46.1209 42.886C46.2754 43.0404 46.3527 43.1949 46.4299 43.4265C46.5072 43.6581 46.5072 43.8897 46.5072 44.1213C46.5072 44.4301 46.5072 44.6618 46.4299 44.8162C46.3527 44.9706 46.2754 45.2022 46.1209 45.3566C45.9663 45.511 45.8118 45.5882 45.6573 45.6654C45.5027 45.8199 45.3482 45.8199 45.1164 45.8199ZM45.1164 45.5882C45.2709 45.5882 45.5027 45.5882 45.58 45.511C45.7345 45.4338 45.8118 45.3566 45.9663 45.2022C46.1209 45.0478 46.1209 44.8934 46.1981 44.739C46.2754 44.5846 46.2754 44.3529 46.2754 44.1985C46.2754 44.0441 46.2754 43.8125 46.1981 43.6581C46.1209 43.4265 46.0436 43.2721 45.9663 43.1176C45.8891 42.9632 45.7345 42.886 45.58 42.8088C45.4255 42.7316 45.2709 42.7316 45.1164 42.7316C44.8846 42.7316 44.7301 42.7316 44.5755 42.8088C44.421 42.886 44.3437 42.9632 44.1892 43.1176C44.0347 43.2721 44.0347 43.4265 43.9574 43.5809C43.8801 43.7353 43.8801 43.9669 43.8801 44.1213C43.8801 44.2757 43.8801 44.5074 43.9574 44.6618C44.0347 44.8162 44.1119 44.9706 44.1892 45.125C44.2665 45.2794 44.421 45.3566 44.5755 45.4338C44.7301 45.511 44.9619 45.5882 45.1164 45.5882Z" fill="#575756"/>
<path d="M47.2023 42.5771H47.5886L48.7476 45.4338L49.9066 42.5771H50.2157V45.7426H49.9066V43.0404C49.9066 43.0404 49.8293 43.1948 49.7521 43.3492C49.7521 43.4264 49.6748 43.5808 49.5975 43.658C49.5203 43.7352 49.443 43.9669 49.3657 44.1213C49.2885 44.3529 49.2112 44.5073 49.0567 44.8161C48.9021 45.1249 48.8249 45.3566 48.6703 45.7426H48.4385L47.3568 43.0404V45.7426H47.125C47.2023 45.7426 47.2023 42.5771 47.2023 42.5771Z" fill="#575756"/>
<path d="M50.9111 42.5771H51.1429V45.7426H50.9111V42.5771Z" fill="#575756"/>
<path d="M51.9932 42.5771H52.3022L54.0794 45.2794V42.5771H54.3112V45.7426H54.0021L52.225 42.9632V45.6654H51.9932V42.5771Z" fill="#575756"/>
<path d="M55.0835 42.5771H55.3153V45.7426H55.0835V42.5771Z" fill="#575756"/>
<path d="M56.0884 42.5771H58.0973V42.8088H56.3974V43.9669H58.0201V44.1985H56.3974V45.4338H58.1746L58.0973 45.6654H56.0884C56.0884 45.7426 56.0884 42.5771 56.0884 42.5771Z" fill="#575756"/>
<path d="M58.7925 42.5771H59.797C60.0288 42.5771 60.1833 42.5771 60.3378 42.6544C60.4924 42.7316 60.5696 42.8088 60.7242 42.8088C60.8787 42.8088 60.8787 42.9632 60.8787 43.0404C60.8787 43.1176 60.956 43.272 60.956 43.3492C60.956 43.5808 60.8787 43.7352 60.8014 43.8896C60.7242 44.0441 60.5696 44.1213 60.3378 44.1985L61.0332 45.6654H60.7242L60.106 44.2757C60.0288 44.2757 60.0288 44.2757 59.9515 44.2757C59.8742 44.2757 59.8742 44.2757 59.797 44.2757H59.1015V45.6654H58.8697V42.5771H58.7925ZM59.797 44.1213C59.9515 44.1213 60.106 44.1213 60.1833 44.0441C60.2606 44.0441 60.3378 43.9669 60.4151 43.8896C60.4924 43.8124 60.4924 43.7352 60.5696 43.658C60.5696 43.5808 60.5696 43.5036 60.5696 43.3492C60.5696 43.272 60.5696 43.1176 60.5696 43.0404C60.5696 42.9632 60.4924 42.886 60.4151 42.8088C60.3378 42.7316 60.2606 42.7316 60.1833 42.6544C60.106 42.5771 59.9515 42.8088 59.7197 42.8088H59.0243V44.1213H59.797Z" fill="#575756"/>
<path d="M62.2697 42.8088H61.188V42.5771H63.6605V42.8088H62.5788V45.7426H62.2697V42.8088Z" fill="#575756"/>
<path d="M65.1284 42.5771H65.3602V45.7426H65.1284V42.5771Z" fill="#575756"/>
<path d="M66.1328 42.5771H66.4419L68.219 45.2794V42.5771H68.4508V45.7426H68.1418L66.3646 43.0404V45.7426H66.1328V42.5771Z" fill="#575756"/>
<path d="M70.228 42.5771H71.3097C71.5415 42.5771 71.6961 42.5771 71.9279 42.6544C72.0824 42.7316 72.2369 42.8088 72.3915 42.9632C72.546 43.1176 72.6233 43.272 72.7005 43.4264C72.7778 43.658 72.7778 43.8124 72.7778 44.1213C72.7778 44.3529 72.7005 44.6617 72.7005 44.8161C72.7005 44.9705 72.546 45.2021 72.3915 45.2794C72.2369 45.4338 72.0824 45.511 71.9279 45.5882C71.7733 45.6654 71.5415 45.6654 71.3097 45.6654H70.3053C70.1507 45.7426 70.1507 42.5771 70.228 42.5771ZM71.1552 45.511C71.6188 45.511 71.8506 45.3566 72.0824 45.1249C72.3142 44.8933 72.3915 44.5845 72.3915 44.1213C72.3915 43.7352 72.3142 43.3492 72.0824 43.1176C71.8506 42.886 71.6188 42.8088 71.2325 42.8088H70.4598V45.511H71.1552Z" fill="#575756"/>
<path d="M73.3188 42.5771H75.3278V42.8088H73.6279V43.9669H75.2505V44.1985H73.6279V45.4338H75.4051L75.3278 45.6654H73.3188V42.5771Z" fill="#575756"/>
<path d="M75.8687 42.5771H76.8731C77.1049 42.5771 77.2595 42.5771 77.414 42.6544C77.5685 42.7316 77.6458 42.8088 77.7231 42.8088C77.8003 42.8088 77.8776 42.9632 77.8776 43.0404C77.8776 43.1176 77.9549 43.272 77.9549 43.3492C77.9549 43.5808 77.8776 43.7352 77.8003 43.8896C77.7231 44.0441 77.5685 44.1213 77.3367 44.1985L78.0321 45.6654H77.7231L77.1049 44.2757C77.0277 44.2757 77.0277 44.2757 76.9504 44.2757C76.8731 44.2757 76.8731 44.2757 76.7959 44.2757H76.1777V45.6654H75.9459C75.8687 45.7426 75.8687 42.5771 75.8687 42.5771ZM76.9504 44.1213C77.1049 44.1213 77.2595 44.1213 77.3367 44.0441C77.414 44.0441 77.4913 43.9669 77.5685 43.8896C77.6458 43.8124 77.6458 43.7352 77.7231 43.658C77.7231 43.658 77.7231 43.5808 77.7231 43.4264C77.7231 43.3492 77.7231 43.272 77.7231 43.1948C77.7231 43.1176 77.6458 43.0404 77.5685 42.9632C77.4913 42.886 77.414 42.886 77.3367 42.8088C77.2595 42.7316 77.1049 42.7316 76.9504 42.7316H76.1777V44.0441H76.9504V44.1213Z" fill="#575756"/>
<path d="M79.6548 42.5771H79.8866V44.1985L81.5865 42.5771H81.8955L80.7365 43.7352L82.05 45.7426H81.741L80.582 43.9669L79.9639 44.5845V45.8198H79.7321L79.6548 42.5771Z" fill="#575756"/>
<path d="M83.4405 42.5771H83.7496L84.9858 45.7426H84.6768L84.2904 44.7389H82.8224L82.436 45.7426H82.127L83.4405 42.5771ZM84.2904 44.5073L83.6723 42.886L83.0542 44.5073H84.2904Z" fill="#575756"/>
<path d="M85.8361 42.8088H84.7544V42.5771H87.2269V42.8088H86.1452V45.7426H85.9134V42.8088H85.8361Z" fill="#575756"/>
<path d="M87.6133 42.5771H89.6222V42.8088H87.9223V43.9669H89.545V44.1985H87.9223V45.4338H89.6995L89.6222 45.6654H87.6133V42.5771Z" fill="#575756"/>
<path d="M91.5535 44.1985H92.7125V45.4338C92.6353 45.4338 92.558 45.511 92.4035 45.5882C92.3262 45.6654 92.1717 45.6654 92.0944 45.7426C92.0171 45.7426 91.8626 45.8199 91.7853 45.8199C91.7081 45.8199 91.5535 45.8199 91.4763 45.8199C91.2445 45.8199 91.0127 45.7426 90.8581 45.7426C90.7036 45.6654 90.5491 45.5882 90.3945 45.4338C90.24 45.2794 90.1627 45.125 90.0854 44.8934C90.0854 44.6618 90.0854 44.4301 90.0854 44.1985C90.0854 43.8897 90.1627 43.6581 90.1627 43.5037C90.1627 43.3493 90.3173 43.1176 90.4718 42.9632C90.6263 42.8088 90.7036 42.7316 90.9354 42.6544C91.0899 42.5772 91.2445 42.5 91.4763 42.5C91.7853 42.5 92.0944 42.5772 92.2489 42.7316C92.4035 42.886 92.558 43.1176 92.6353 43.3493L92.4035 43.4265C92.4035 43.3493 92.3262 43.1949 92.2489 43.1176C92.1717 43.0404 92.1717 42.9632 92.0944 42.886C92.0171 42.8088 91.9399 42.8088 91.8626 42.7316C91.7853 42.7316 91.6308 42.6544 91.4763 42.6544C91.3217 42.6544 91.1672 42.7316 91.0127 42.7316C90.8581 42.7316 90.7809 42.886 90.6263 43.0404C90.549 43.1949 90.4718 43.3493 90.3945 43.5037C90.3173 43.6581 90.3173 43.8897 90.3173 44.0441C90.3173 44.1985 90.3173 44.4301 90.3945 44.5846C90.4718 44.739 90.549 44.8934 90.6263 45.0478C90.7036 45.2022 90.8581 45.2794 91.0127 45.3566C91.1672 45.4338 91.3217 45.5882 91.4763 45.5882C91.6308 45.5882 91.7853 45.5882 91.9399 45.511C92.0944 45.4338 92.2489 45.3566 92.4035 45.2794V44.4301H91.4763L91.5535 44.1985Z" fill="#575756"/>
<path d="M94.6443 45.8199C94.4125 45.8199 94.258 45.8199 94.1035 45.7426C93.9489 45.6654 93.7944 45.5882 93.6399 45.4338C93.4853 45.2794 93.4081 45.125 93.3308 44.8934C93.2535 44.6618 93.1763 44.4301 93.1763 44.1985C93.1763 43.9669 93.2535 43.6581 93.2535 43.5037C93.2535 43.3493 93.4081 43.1176 93.5626 42.9632C93.7171 42.8088 93.8717 42.7316 94.0262 42.6544C94.258 42.5772 94.4125 42.5 94.6443 42.5C94.8761 42.5 95.0307 42.5 95.1852 42.5772C95.3397 42.6544 95.4943 42.7316 95.6488 42.886C95.8033 43.0404 95.8806 43.1949 95.9579 43.4265C96.0351 43.6581 96.0351 43.8897 96.0351 44.1213C96.0351 44.4301 95.9579 44.6618 95.9579 44.8162C95.9579 44.9706 95.8033 45.2022 95.6488 45.3566C95.4943 45.511 95.3397 45.5882 95.1852 45.6654C95.0307 45.8199 94.8761 45.8199 94.6443 45.8199ZM94.6443 45.5882C94.7989 45.5882 94.9534 45.5882 95.1079 45.511C95.2625 45.4338 95.3397 45.3566 95.4943 45.2022C95.6488 45.0478 95.6488 44.8934 95.7261 44.739C95.8034 44.5846 95.8034 44.3529 95.8034 44.1985C95.8034 44.0441 95.8034 43.8125 95.7261 43.6581C95.6488 43.5037 95.5715 43.2721 95.4943 43.1176C95.417 42.9632 95.2625 42.886 95.1079 42.8088C94.9534 42.7316 94.7989 42.7316 94.6443 42.7316C94.4125 42.7316 94.258 42.7316 94.1035 42.8088C93.9489 42.886 93.8717 42.9632 93.7171 43.1176C93.5626 43.2721 93.5626 43.4265 93.4853 43.5809C93.4081 43.7353 93.4081 43.9669 93.4081 44.1213C93.4081 44.2757 93.4081 44.5074 93.4853 44.6618C93.5626 44.8162 93.6399 44.9706 93.7171 45.125C93.7944 45.2794 93.9489 45.3566 94.1035 45.4338C94.258 45.511 94.4898 45.5882 94.6443 45.5882Z" fill="#575756"/>
<path d="M96.6533 42.5771H97.6578C97.8896 42.5771 98.0441 42.5771 98.1987 42.6544C98.3532 42.7316 98.4305 42.8088 98.5077 42.8088C98.585 42.8088 98.6623 42.9632 98.6623 43.0404C98.6623 43.1176 98.7395 43.272 98.7395 43.3492C98.7395 43.5808 98.6623 43.7352 98.585 43.8896C98.5077 44.0441 98.3532 44.1213 98.1214 44.1985L98.8168 45.6654H98.585L97.9669 44.2757C97.8896 44.2757 97.8896 44.2757 97.8123 44.2757C97.7351 44.2757 97.7351 44.2757 97.6578 44.2757H96.9624V45.6654H96.7306C96.6533 45.7426 96.6533 42.5771 96.6533 42.5771ZM97.7351 44.1213C97.8896 44.1213 98.0441 44.1213 98.1214 44.0441C98.1987 44.0441 98.2759 43.9669 98.3532 43.8896C98.4305 43.8124 98.4305 43.7352 98.5077 43.658C98.5077 43.5808 98.585 43.5036 98.585 43.3492C98.585 43.272 98.585 43.1176 98.5077 43.0404C98.5077 42.9632 98.4305 42.886 98.3532 42.8088C98.2759 42.7316 98.1987 42.7316 98.1214 42.6544C98.0441 42.5771 97.8896 42.5771 97.7351 42.5771H97.0397V43.8896H97.7351V44.1213Z" fill="#575756"/>
<path d="M99.4351 42.5771H99.6669V45.7426H99.4351V42.5771Z" fill="#575756"/>
<path d="M100.439 42.5771H102.448V42.8088H100.749V43.9669H102.371V44.1985H100.749V45.4338H102.526L102.448 45.7426H100.439V42.5771Z" fill="#575756"/>
<path d="M40.6348 46.6689H42.721V47.2094H41.3302V47.9814H42.6437V48.5219H41.3302V49.8344H40.6348V46.6689Z" fill="#575756"/>
<path d="M43.4165 46.6689H44.1119V49.8344H43.4165V46.6689Z" fill="#575756"/>
<path d="M44.8072 46.6689H45.4254V49.2939H46.8935L46.8162 49.8344H44.73C44.8072 49.8344 44.8072 46.6689 44.8072 46.6689Z" fill="#575756"/>
<path d="M47.5117 46.6689H49.6752V47.2094H48.2071V47.9042H49.5979V48.4447H48.2071V49.2167H49.8297L49.7525 49.7572H47.589C47.5117 49.8344 47.5117 46.6689 47.5117 46.6689Z" fill="#575756"/>
<path d="M50.8341 48.7536C50.8341 48.9852 50.9113 49.0624 50.9886 49.2168C51.0659 49.294 51.2204 49.3712 51.4522 49.3712C51.5295 49.3712 51.684 49.3712 51.684 49.3712L51.8385 49.294C51.9158 49.2168 51.9158 49.2168 51.9158 49.1396C51.9158 49.0624 51.9158 49.0624 51.9158 48.9852C51.9158 48.908 51.9158 48.8308 51.8385 48.7536C51.7613 48.6764 51.684 48.5991 51.5295 48.5991L51.1431 48.5219C50.9886 48.5219 50.8341 48.4447 50.6795 48.3675C50.525 48.2903 50.4477 48.2903 50.3705 48.2131C50.2932 48.1359 50.3705 47.9815 50.2932 47.9043C50.2159 47.8271 50.2159 47.6727 50.2159 47.5183C50.2159 47.3639 50.2159 47.2094 50.2932 47.1322C50.3705 46.9778 50.4477 46.9006 50.525 46.8234C50.6023 46.7462 50.7568 46.669 50.9113 46.669C51.0659 46.5918 51.2204 46.5918 51.3749 46.5918C51.6067 46.5918 51.7613 46.5918 51.9158 46.669C52.0703 46.7462 52.2249 46.8234 52.3021 46.9006C52.3794 46.9778 52.4567 47.055 52.5339 47.2094C52.6112 47.3639 52.6112 47.4411 52.6112 47.5955L51.9931 47.6727C51.9931 47.5183 51.9158 47.3639 51.8385 47.2866C51.8385 47.1322 51.684 47.1322 51.4522 47.1322C51.2977 47.1322 51.2204 47.1322 51.1431 47.1322C51.0659 47.1322 50.9886 47.2094 50.9886 47.2094L50.9113 47.2866C50.9113 47.3639 50.9113 47.3639 50.9113 47.4411C50.9113 47.5955 50.9113 47.6727 50.9886 47.6727C51.0659 47.7499 51.1431 47.7499 51.2977 47.8271L51.7613 47.9043C52.0703 47.9815 52.3794 48.0587 52.5339 48.2131C52.6885 48.3675 52.7657 48.5991 52.7657 48.908C52.7657 49.0624 52.7657 49.1396 52.6885 49.294C52.6112 49.3712 52.5339 49.5256 52.4567 49.6028C52.3794 49.68 52.2249 49.7572 52.0703 49.8344C51.9158 49.9116 51.7613 49.9116 51.5295 49.9116C51.0659 49.9116 50.7568 49.8344 50.525 49.6028C50.2932 49.3712 50.1387 49.1396 50.1387 48.7536H50.8341Z" fill="#575756"/>
<path d="M53.3838 46.6689H54.0019V47.9042H55.3155V46.6689H55.9336V49.8344H55.3155V48.4447H54.0792V49.7572H53.4611V46.6689H53.3838Z" fill="#575756"/>
<path d="M57.6336 46.6689H58.2517L59.4108 49.8344H58.7154L58.4835 49.1395H57.4018L57.17 49.8344H56.4746L57.6336 46.6689ZM58.329 48.5219L57.9427 47.3638L57.5563 48.5219H58.329Z" fill="#575756"/>
<path d="M59.9517 46.6689H61.1107C61.3425 46.6689 61.5743 46.6689 61.7288 46.7462C61.8833 46.8234 62.0379 46.9006 62.1151 46.9778C62.1151 47.055 62.1924 47.1322 62.2697 47.2866C62.3469 47.441 62.2697 47.5182 62.2697 47.5954C62.2697 47.827 62.2697 47.9814 62.1924 48.1359C62.1151 48.2903 61.9606 48.3675 61.8061 48.4447L62.4242 49.7572H61.7288L61.1879 48.5991H60.5698V49.7572H59.9517V46.6689ZM61.1107 48.0587C61.1879 48.0587 61.2652 48.0587 61.3425 48.0587C61.4197 48.0587 61.497 47.9814 61.497 47.9814C61.497 47.9042 61.5743 47.9042 61.5743 47.827C61.5743 47.7498 61.5743 47.6726 61.5743 47.6726C61.5743 47.5954 61.5743 47.5954 61.5743 47.5182C61.5743 47.441 61.5743 47.3638 61.497 47.2866C61.4197 47.2094 61.4197 47.2094 61.3425 47.2094C61.2652 47.2094 61.1879 47.2094 61.0334 47.2094H60.5698V48.0587H61.1107Z" fill="#575756"/>
<path d="M62.9648 46.6689H63.583V49.8344H62.9648V46.6689Z" fill="#575756"/>
<path d="M64.4327 46.6689H65.0509L66.3644 48.7535V46.6689H66.9053V49.8344H66.2871L64.9736 47.7498V49.8344H64.3555C64.4327 49.8344 64.4327 46.6689 64.4327 46.6689Z" fill="#575756"/>
<path d="M69.1464 48.0588H70.3827V49.3713C70.2281 49.5257 69.9963 49.6801 69.7645 49.6801C69.5327 49.7573 69.3009 49.8345 69.0691 49.8345C68.8373 49.8345 68.6055 49.7573 68.451 49.7573C68.2965 49.6801 68.1419 49.5257 67.9874 49.4485C67.8329 49.3713 67.7556 49.1396 67.6783 48.908C67.6011 48.6764 67.6011 48.4448 67.6011 48.2132C67.6011 47.9816 67.6011 47.7499 67.6783 47.5183C67.7556 47.2867 67.8329 47.1323 67.9874 46.9779C68.1419 46.8235 68.2965 46.7463 68.451 46.6691C68.6055 46.5919 68.8373 46.5146 69.0691 46.5146C69.3009 46.5146 69.4555 46.5146 69.61 46.5919C69.7645 46.6691 69.8418 46.7463 69.9963 46.8235C70.1509 46.9007 70.1509 47.0551 70.2282 47.1323C70.3054 47.2095 70.3054 47.3639 70.3827 47.5183L69.7645 47.5955C69.7645 47.5183 69.6873 47.4411 69.6873 47.3639C69.6873 47.2867 69.61 47.2095 69.61 47.2095C69.5327 47.1323 69.5327 47.1323 69.4555 47.1323C69.3782 47.1323 69.3009 47.1323 69.1464 47.1323C68.9146 47.1323 68.6828 47.2095 68.6055 47.4411C68.451 47.6727 68.3737 47.9044 68.3737 48.2904C68.3737 48.5992 68.451 48.908 68.6055 49.1396C68.7601 49.3713 68.9146 49.4485 69.2237 49.4485C69.3782 49.4485 69.4555 49.4485 69.61 49.3713C69.7645 49.2941 69.8418 49.2941 69.9191 49.2169V48.5992H69.3009V48.0588H69.1464Z" fill="#575756"/>
<path d="M73.9367 49.6028C73.8594 49.68 73.7049 49.7572 73.6276 49.7572C73.5503 49.7572 73.3185 49.8344 73.164 49.8344C72.9322 49.8344 72.7777 49.8344 72.6231 49.7572C72.4686 49.68 72.3913 49.6028 72.2368 49.5256C72.1595 49.4484 72.0823 49.3712 72.005 49.2168C71.9277 49.0624 71.9277 48.9852 71.9277 48.908C71.9277 48.8308 71.9277 48.6764 72.005 48.5991C72.0823 48.5219 72.0823 48.4447 72.1595 48.3675C72.2368 48.2903 72.3141 48.2131 72.3913 48.1359C72.4686 48.0587 72.5459 48.0587 72.6231 47.9815C72.5459 47.9043 72.4686 47.7499 72.3913 47.6727C72.3913 47.5955 72.3141 47.5183 72.3141 47.3639C72.3141 47.2866 72.3141 47.1322 72.3913 47.055C72.4686 46.9778 72.4686 46.9006 72.5459 46.8234C72.6231 46.7462 72.7004 46.669 72.7777 46.669C72.8549 46.5918 73.0095 46.5918 73.0867 46.5918C73.2413 46.5918 73.3185 46.5918 73.4731 46.669C73.6276 46.7462 73.7049 46.7462 73.7049 46.8234C73.7049 46.9006 73.8594 46.9778 73.8594 47.055C73.9367 47.1322 73.9367 47.2094 73.9367 47.3639C73.9367 47.4411 73.9367 47.5183 73.8594 47.5955C73.7821 47.6727 73.8594 47.7499 73.8594 47.8271C73.7821 47.9043 73.7049 47.9043 73.6276 47.9815C73.5503 48.0587 73.4731 48.0587 73.3958 48.1359L73.9367 48.8308C74.0139 48.7536 74.0139 48.5991 74.0139 48.5219C74.0139 48.4447 74.0139 48.2903 74.0139 48.2131H74.6321C74.6321 48.3675 74.6321 48.5991 74.5548 48.7536C74.4775 48.908 74.4003 49.0624 74.323 49.2168L74.7866 49.8344H74.0912L73.9367 49.6028ZM72.9322 48.4447C72.8549 48.5219 72.7777 48.5991 72.7004 48.5991C72.6231 48.6764 72.6231 48.7536 72.6231 48.908C72.6231 48.9852 72.6231 49.0624 72.6231 49.1396C72.6231 49.2168 72.7004 49.2168 72.7004 49.294C72.7004 49.3712 72.7777 49.3712 72.8549 49.3712C72.9322 49.3712 73.0095 49.4484 73.164 49.4484C73.2413 49.4484 73.3958 49.4484 73.3958 49.3712C73.3958 49.294 73.5503 49.294 73.5503 49.294L72.9322 48.4447ZM73.164 47.8271C73.2413 47.7499 73.3185 47.6727 73.3958 47.5955C73.4731 47.5183 73.4731 47.4411 73.4731 47.2866C73.4731 47.2094 73.4731 47.1322 73.3958 47.055C73.3185 46.9778 73.2413 46.9778 73.164 46.9778C73.0867 46.9778 73.0095 46.9778 72.9322 47.055C72.8549 47.1322 72.8549 47.2094 72.8549 47.2866C72.8549 47.3639 72.8549 47.3639 72.8549 47.4411C72.8549 47.5183 72.9322 47.5183 72.9322 47.5955C72.9322 47.6727 73.0095 47.6727 73.0095 47.6727C73.0867 47.7499 73.164 47.8271 73.164 47.8271Z" fill="#575756"/>
<path d="M79.1138 48.7536C79.1138 48.908 79.0365 49.0624 78.9592 49.2169C78.882 49.3713 78.8047 49.4485 78.7274 49.6029C78.6502 49.6801 78.4956 49.7573 78.3411 49.8345C78.1866 49.9117 77.9548 49.9117 77.723 49.9117C77.4912 49.9117 77.2594 49.8345 77.1048 49.8345C76.9503 49.6801 76.7958 49.6029 76.6412 49.4485C76.4867 49.2941 76.4094 49.1396 76.3321 48.908C76.2549 48.6764 76.2549 48.4448 76.2549 48.2132C76.2549 47.9816 76.2549 47.7499 76.3321 47.5183C76.4094 47.2867 76.4867 47.1323 76.6412 46.9779C76.7958 46.8235 76.9503 46.7463 77.1048 46.6691C77.2594 46.5919 77.4912 46.5146 77.723 46.5146C77.9548 46.5146 78.1093 46.5146 78.2638 46.5919C78.4184 46.6691 78.4956 46.7463 78.6502 46.8235C78.7274 46.9007 78.8047 47.0551 78.882 47.1323C78.9592 47.2095 78.9592 47.4411 79.0365 47.5955L78.4184 47.6727C78.4184 47.5183 78.3411 47.3639 78.2638 47.2095C78.1093 47.2095 77.9548 47.1323 77.8002 47.1323C77.5684 47.1323 77.3366 47.2095 77.1821 47.4411C77.0276 47.6727 76.9503 47.9044 76.9503 48.2132C76.9503 48.522 77.0276 48.8308 77.1821 49.0624C77.3366 49.2169 77.4912 49.3713 77.723 49.3713C77.9548 49.3713 78.1093 49.2941 78.1866 49.2169C78.2638 49.1396 78.3411 48.9852 78.3411 48.7536H79.1138Z" fill="#575756"/>
<path d="M81.1229 49.9116C80.8911 49.9116 80.6593 49.8344 80.5047 49.8344C80.3502 49.7572 80.1957 49.68 80.0411 49.5256C79.8866 49.3712 79.8093 49.2168 79.7321 48.9852C79.6548 48.7536 79.6548 48.5219 79.6548 48.2903C79.6548 48.0587 79.6548 47.8271 79.7321 47.5955C79.8093 47.3639 79.8866 47.2094 80.0411 47.055C80.1957 46.9006 80.3502 46.8234 80.5047 46.7462C80.6593 46.669 80.8911 46.5918 81.1229 46.5918C81.3547 46.5918 81.5865 46.669 81.741 46.7462C81.8955 46.8234 82.0501 46.9006 82.2046 47.055C82.3591 47.2094 82.4364 47.3639 82.5137 47.5955C82.5909 47.8271 82.5909 48.0587 82.5909 48.2903C82.5909 48.5219 82.5909 48.7536 82.5137 48.9852C82.4364 49.2168 82.3591 49.294 82.2046 49.4484C82.0501 49.6028 81.8955 49.68 81.741 49.7572C81.5092 49.8344 81.3547 49.9116 81.1229 49.9116ZM81.1229 49.294C81.4319 49.294 81.5865 49.2168 81.741 48.9852C81.8955 48.8308 81.9728 48.5219 81.9728 48.1359C81.9728 47.8271 81.8955 47.5183 81.741 47.3639C81.5865 47.2094 81.3547 47.1322 81.1229 47.1322C80.8138 47.1322 80.6593 47.2094 80.5047 47.4411C80.3502 47.6727 80.2729 47.9043 80.2729 48.2131C80.2729 48.5219 80.3502 48.8308 80.5047 49.0624C80.6593 49.294 80.8138 49.294 81.1229 49.294Z" fill="#575756"/>
<path d="M83.2861 46.6689H83.9043V49.2939H85.4496L85.3723 49.8344H83.2861V46.6689Z" fill="#575756"/>
<path d="M85.9904 46.6689H86.6085V49.2939H88.0766L87.9993 49.8344H85.9131C85.9904 49.8344 85.9904 46.6689 85.9904 46.6689Z" fill="#575756"/>
<path d="M89.699 46.6689H90.3172L91.4762 49.8344H90.7808L90.549 49.1395H89.4672L89.2354 49.8344H88.54L89.699 46.6689ZM90.3944 48.5219L90.0081 47.3638L89.6218 48.5219H90.3944Z" fill="#575756"/>
<path d="M92.0172 46.6689H93.1762C93.408 46.6689 93.6398 46.6689 93.7943 46.7462C93.9489 46.8234 94.0261 46.8234 94.1807 46.9006C94.2579 46.9778 94.3352 47.055 94.3352 47.1322C94.3352 47.2094 94.4125 47.3638 94.4125 47.441C94.4125 47.5182 94.4125 47.6726 94.3352 47.7498C94.2579 47.827 94.1034 48.0587 93.9489 48.1359C94.0261 48.2131 94.1034 48.2131 94.1807 48.2903C94.2579 48.3675 94.2579 48.4447 94.3352 48.4447C94.4125 48.4447 94.4125 48.5991 94.4125 48.6763C94.4125 48.7535 94.4125 48.8307 94.4125 48.8307C94.4125 48.9851 94.4125 49.0623 94.3352 49.2167C94.2579 49.2939 94.2579 49.4484 94.1034 49.5256C94.0261 49.6028 93.8716 49.68 93.7171 49.7572C93.5625 49.8344 93.408 49.8344 93.1762 49.8344H91.9399L92.0172 46.6689ZM93.2535 47.9042C93.408 47.9042 93.5625 47.9042 93.6398 47.827C93.7171 47.7498 93.7171 47.6726 93.7171 47.5182C93.7171 47.3638 93.6398 47.2866 93.5625 47.2094C93.4853 47.1322 93.3307 47.1322 93.0989 47.1322H92.6353V47.9042H93.2535ZM93.1762 49.2939C93.2535 49.2939 93.408 49.2939 93.408 49.2939L93.5625 49.2167C93.6398 49.1395 93.6398 49.1395 93.6398 49.0623C93.6398 48.9851 93.6398 48.9851 93.6398 48.9079C93.6398 48.7535 93.5625 48.6763 93.5625 48.5991C93.4853 48.5219 93.3307 48.5219 93.1762 48.5219H92.5581V49.3712H93.1762V49.2939Z" fill="#575756"/>
<path d="M96.4217 49.9116C96.1899 49.9116 95.9581 49.8344 95.8035 49.8344C95.649 49.7572 95.4945 49.68 95.3399 49.5256C95.1854 49.3712 95.1081 49.2168 95.0309 48.9852C94.9536 48.7536 94.9536 48.5219 94.9536 48.2903C94.9536 48.0587 94.9536 47.8271 95.0309 47.5955C95.1081 47.3639 95.1854 47.2094 95.3399 47.055C95.4945 46.9006 95.649 46.8234 95.8035 46.7462C95.9581 46.669 96.1899 46.5918 96.4217 46.5918C96.6535 46.5918 96.8853 46.669 97.0398 46.7462C97.1944 46.8234 97.3489 46.9006 97.5034 47.055C97.658 47.2094 97.7352 47.3639 97.8125 47.5955C97.8898 47.8271 97.8898 48.0587 97.8898 48.2903C97.8898 48.5219 97.8898 48.7536 97.8125 48.9852C97.7352 49.2168 97.658 49.3712 97.5034 49.5256C97.3489 49.68 97.1944 49.7572 97.0398 49.8344C96.8853 49.8344 96.6535 49.9116 96.4217 49.9116ZM96.4217 49.294C96.7307 49.294 96.8853 49.2168 97.0398 48.9852C97.1944 48.8308 97.2716 48.5219 97.2716 48.1359C97.2716 47.8271 97.1944 47.5183 97.0398 47.3639C96.8853 47.1322 96.7307 47.055 96.4217 47.055C96.1126 47.055 95.9581 47.1322 95.8035 47.3639C95.649 47.5955 95.5717 47.8271 95.5717 48.1359C95.5717 48.4447 95.649 48.7536 95.8035 48.9852C95.9581 49.2168 96.1126 49.294 96.4217 49.294Z" fill="#575756"/>
<path d="M98.585 46.6689H99.6667C99.8985 46.6689 100.13 46.6689 100.285 46.7462C100.439 46.8234 100.594 46.9006 100.671 46.9778C100.748 47.055 100.826 47.2094 100.903 47.2866C100.98 47.3638 100.98 47.5182 100.98 47.5954C100.98 47.827 100.903 47.9814 100.903 48.1359C100.826 48.2903 100.671 48.3675 100.517 48.4447L101.135 49.7572H100.439L99.8985 48.5991H99.2804V49.7572H98.585V46.6689ZM99.744 48.0587C99.8212 48.0587 99.8985 48.0587 99.9758 48.0587C100.053 48.0587 100.13 47.9814 100.13 47.9814C100.208 47.9042 100.208 47.9042 100.208 47.827C100.208 47.7498 100.208 47.6726 100.208 47.6726C100.208 47.5954 100.208 47.5954 100.208 47.5182C100.208 47.441 100.13 47.441 100.13 47.3638C100.053 47.2866 100.053 47.2866 99.9758 47.2866C99.8985 47.2866 99.8212 47.2866 99.6667 47.2866H99.2031V48.1359C99.2031 48.0587 99.744 48.0587 99.744 48.0587Z" fill="#575756"/>
<path d="M102.603 46.6689H103.221L104.38 49.8344H103.685L103.453 49.1395H102.371L102.139 49.8344H101.444L102.603 46.6689ZM103.298 48.5219L102.912 47.3638L102.526 48.5219H103.298Z" fill="#575756"/>
<path d="M105.23 47.2094H104.303V46.6689H106.853V47.2094H105.925V49.7572H105.23C105.23 49.8344 105.23 47.2094 105.23 47.2094Z" fill="#575756"/>
<path d="M107.394 46.6689H108.012V49.8344H107.394V46.6689Z" fill="#575756"/>
<path d="M110.252 49.9116C110.02 49.9116 109.789 49.8344 109.634 49.8344C109.48 49.7572 109.325 49.68 109.171 49.5256C109.016 49.3712 108.939 49.2168 108.861 48.9852C108.784 48.7536 108.784 48.5219 108.784 48.2903C108.784 48.0587 108.784 47.8271 108.861 47.5955C108.939 47.3639 109.016 47.2094 109.171 47.055C109.325 46.9006 109.48 46.8234 109.634 46.7462C109.789 46.669 110.02 46.5918 110.252 46.5918C110.484 46.5918 110.716 46.669 110.87 46.7462C111.025 46.8234 111.179 46.9006 111.334 47.055C111.489 47.2094 111.566 47.3639 111.643 47.5955C111.72 47.8271 111.72 48.0587 111.72 48.2903C111.72 48.5219 111.72 48.7536 111.643 48.9852C111.566 49.2168 111.489 49.3712 111.334 49.5256C111.179 49.68 111.025 49.7572 110.87 49.8344C110.716 49.9116 110.484 49.9116 110.252 49.9116ZM110.252 49.294C110.561 49.294 110.716 49.2168 110.87 48.9852C111.025 48.8308 111.102 48.5219 111.102 48.1359C111.102 47.8271 111.025 47.5183 110.87 47.3639C110.716 47.1322 110.561 47.055 110.252 47.055C109.943 47.055 109.789 47.1322 109.634 47.3639C109.48 47.5955 109.402 47.8271 109.402 48.1359C109.402 48.4447 109.48 48.7536 109.634 48.9852C109.711 49.2168 109.943 49.294 110.252 49.294Z" fill="#575756"/>
<path d="M112.416 46.6689H113.034L114.347 48.7535V46.6689H114.965V49.8344H114.347L113.034 47.7498V49.8344H112.416V46.6689Z" fill="#575756"/>
</g>
<defs>
<clipPath id="clip0_12284_96041">
<rect width="121" height="42" fill="white" transform="translate(19 42.5)"/>
</clipPath>
</defs>
</svg>
