<svg width="246" height="67" viewBox="0 0 246 67" fill="none" xmlns="http://www.w3.org/2000/svg">
    <g filter="url(#filter0_d_217_18052)">
        <rect y="0.5" width="60" height="60" rx="5.54918" fill="white" shape-rendering="crispEdges"/>
        <rect x="0.50415" y="1.00415" width="58.9917" height="58.9917" rx="5.04503" stroke="#CCE0FF" stroke-width="1.0083" stroke-linejoin="round" shape-rendering="crispEdges"/>
        <path fill-rule="evenodd" clip-rule="evenodd" d="M30 48.7271C40.0326 48.7271 48.1656 40.5665 48.1656 30.4999C48.1656 20.4333 40.0326 12.2727 30 12.2727C19.9674 12.2727 11.8344 20.4333 11.8344 30.4999C11.8344 40.5665 19.9674 48.7271 30 48.7271ZM27.1074 18.9438C26.8614 18.5675 26.4055 18.3916 25.9876 18.5397C25.5115 18.7085 25.0458 18.907 24.5934 19.134C24.1963 19.3332 23.997 19.7884 24.0844 20.2323L24.3959 21.8139C24.4761 22.221 24.3105 22.6341 23.9962 22.8966C23.4994 23.3114 23.0408 23.7804 22.63 24.2995C22.3746 24.6221 21.9716 24.7931 21.5737 24.7125L20.0285 24.3993C19.5945 24.3113 19.1504 24.5172 18.9574 24.9248C18.8483 25.1551 18.7454 25.3903 18.6488 25.6301C18.5523 25.8699 18.4635 26.111 18.3824 26.3531C18.2389 26.7817 18.4122 27.2481 18.7808 27.4988L20.0928 28.3913C20.4307 28.6211 20.5989 29.0332 20.5581 29.4464C20.4924 30.1111 20.4951 30.7748 20.5621 31.4275C20.6046 31.8405 20.4377 32.2531 20.1006 32.4841L18.7912 33.3817C18.4236 33.6337 18.2518 34.1004 18.3965 34.5283C18.5613 35.0157 18.7552 35.4925 18.9769 35.9558C19.1715 36.3624 19.616 36.5664 20.0496 36.4769L21.5944 36.158C21.9919 36.0759 22.3955 36.2454 22.6518 36.5672C23.057 37.0758 23.515 37.5453 24.022 37.966C24.3371 38.2275 24.5041 38.6401 24.4254 39.0475L24.1194 40.6296C24.0335 41.074 24.2346 41.5286 24.6327 41.7263C24.8577 41.838 25.0873 41.9434 25.3216 42.0422C25.5558 42.1411 25.7913 42.2319 26.0278 42.315C26.7196 42.5579 27.6879 41.6883 28.4038 41.0453C28.7568 40.7283 28.9745 40.2796 28.9768 39.7992C28.9768 39.7966 28.9769 39.794 28.9769 39.7915L28.9768 37.1458C28.9768 37.1178 28.9779 37.09 28.98 37.0625C26.8656 36.5449 25.2936 34.5974 25.2936 32.2739V29.4646C25.2936 29.251 25.4627 29.0779 25.6712 29.0779H26.9808V26.3139C26.9808 25.9323 27.283 25.6229 27.6557 25.6229C28.0285 25.6229 28.3307 25.9323 28.3307 26.3139V29.0779H31.8739V26.3139C31.8739 25.9323 32.1761 25.6229 32.5488 25.6229C32.9215 25.6229 33.2237 25.9323 33.2237 26.3139V29.0779H34.5333C34.7419 29.0779 34.9109 29.251 34.9109 29.4646V32.2739C34.9109 34.6708 33.238 36.6677 31.0224 37.1073C31.0229 37.1201 31.0231 37.1329 31.0231 37.1458L31.0231 39.7801C31.0231 40.2698 31.2474 40.7267 31.611 41.0448C32.3396 41.6824 33.3246 42.5443 34.0123 42.3006C34.4884 42.1318 34.9541 41.9333 35.4065 41.7063C35.8037 41.5071 36.0029 41.0519 35.9155 40.608L35.604 39.0264C35.5239 38.6193 35.6894 38.2061 36.0037 37.9436C36.5005 37.5288 36.9591 37.0599 37.3699 36.5408C37.6253 36.2182 38.0283 36.0471 38.4262 36.1278L39.9714 36.441C40.4055 36.529 40.8495 36.3231 41.0425 35.9155C41.1516 35.6852 41.2546 35.45 41.3511 35.2102C41.4476 34.9704 41.5364 34.7293 41.6175 34.4872C41.7611 34.0586 41.5877 33.5922 41.2191 33.3415L39.9071 32.449C39.5692 32.2191 39.401 31.8071 39.4418 31.3939C39.5074 30.7291 39.5048 30.0655 39.4378 29.4128C39.3954 28.9998 39.5622 28.5872 39.8993 28.3562L41.2088 27.4586C41.5763 27.2066 41.7481 26.7399 41.6034 26.312C41.4386 25.8246 41.2447 25.3478 41.023 24.8845C40.8284 24.4779 40.3839 24.2739 39.9504 24.3634L38.4056 24.6823C38.008 24.7644 37.6044 24.5949 37.3481 24.2731C36.943 23.7645 36.4849 23.2949 35.9779 22.8742C35.6628 22.6128 35.4958 22.2002 35.5746 21.7928L35.8805 20.2107C35.9664 19.7663 35.7653 19.3117 35.3672 19.114C35.1422 19.0023 34.9126 18.8969 34.6784 18.7981C34.4441 18.6992 34.2086 18.6084 33.9722 18.5253C33.5536 18.3783 33.0981 18.5559 32.8532 18.9332L31.9815 20.2766C31.757 20.6225 31.3546 20.7947 30.951 20.7529C30.3018 20.6857 29.6536 20.6884 29.0161 20.7571C28.6127 20.8005 28.2097 20.6296 27.9841 20.2845L27.1074 18.9438Z" fill="#005AE0"/>
    </g>
    <circle cx="78.5" cy="30.5" r="2.5" fill="#A7F3D0"/>
    <circle cx="91.5" cy="30.5" r="2.5" fill="#6EE7B7"/>
    <rect x="103" y="13.5" width="34" height="34" rx="17" stroke="#D1FAE5" stroke-width="2"/>
    <rect x="107" y="17.5" width="26" height="26" rx="13" stroke="#6EE7B7" stroke-width="2"/>
    <path d="M119 35.5H121V31.5H125V29.5H121V25.5H119V29.5H115V31.5H119V35.5ZM120 40.5C118.617 40.5 117.317 40.2375 116.1 39.7125C114.883 39.1875 113.825 38.475 112.925 37.575C112.025 36.675 111.312 35.6167 110.788 34.4C110.263 33.1833 110 31.8833 110 30.5C110 29.1167 110.263 27.8167 110.788 26.6C111.312 25.3833 112.025 24.325 112.925 23.425C113.825 22.525 114.883 21.8125 116.1 21.2875C117.317 20.7625 118.617 20.5 120 20.5C121.383 20.5 122.683 20.7625 123.9 21.2875C125.117 21.8125 126.175 22.525 127.075 23.425C127.975 24.325 128.688 25.3833 129.212 26.6C129.738 27.8167 130 29.1167 130 30.5C130 31.8833 129.738 33.1833 129.212 34.4C128.688 35.6167 127.975 36.675 127.075 37.575C126.175 38.475 125.117 39.1875 123.9 39.7125C122.683 40.2375 121.383 40.5 120 40.5Z" fill="#00AA63"/>
    <circle cx="148.5" cy="30.5" r="2.5" fill="#6EE7B7"/>
    <circle cx="161.5" cy="30.5" r="2.5" fill="#A7F3D0"/>
    <g filter="url(#filter1_d_217_18052)">
        <rect x="180" y="0.5" width="60" height="60" rx="5.54918" fill="white" shape-rendering="crispEdges"/>
        <rect x="180.504" y="1.00415" width="58.9917" height="58.9917" rx="5.04503" stroke="#CCE0FF" stroke-width="1.0083" stroke-linejoin="round" shape-rendering="crispEdges"/>
        <path d="M198.16 42.5921C200.68 42.7135 202.259 40.4666 203.504 38.6144C203.929 37.9768 204.354 37.3391 204.81 36.6711L203.231 35.7602C203.443 34.7278 203.686 33.7258 203.99 32.7845L200.498 33.5133C200.802 31.6611 202.32 28.2299 206.055 27.653C209.577 20.8819 214.708 18.1187 217.441 17.5722L217.38 17.6937L217.441 17.6026C218.322 20.2442 218.504 26.0741 214.405 32.4809C215.771 35.9728 213.554 39.0091 212.097 40.1933L211.004 36.7926C210.336 37.5213 209.607 38.2197 208.787 38.9484L207.208 38.0375C206.874 38.7359 206.51 39.4342 206.176 40.1326C205.204 42.1366 204.02 44.6568 205.387 46.752C206.024 47.754 206.996 48.5131 208.18 48.6345L207.907 48.6042C214.921 49.424 222.056 46.1143 225.791 39.6164C230.832 30.902 227.826 19.7584 219.111 14.718C210.397 9.67757 199.253 12.6836 194.213 21.3981C190.508 27.8049 191.146 35.4869 195.184 41.1346C195.883 42.0455 197.006 42.5314 198.16 42.5921Z" fill="#005AE0"/>
        <path d="M211.216 28.6544C212.187 29.201 213.402 28.867 213.948 27.9257C214.495 26.954 214.161 25.7395 213.22 25.1929C212.278 24.6464 211.033 24.9804 210.487 25.9217C209.91 26.8933 210.244 28.1079 211.216 28.6544Z" fill="#005AE0"/>
    </g>
    <defs>
        <filter id="filter0_d_217_18052" x="0" y="0.5" width="66" height="66" filterUnits="userSpaceOnUse" color-interpolation-filters="sRGB">
            <feFlood flood-opacity="0" result="BackgroundImageFix"/>
            <feColorMatrix in="SourceAlpha" type="matrix" values="0 0 0 0 0 0 0 0 0 0 0 0 0 0 0 0 0 0 127 0" result="hardAlpha"/>
            <feOffset dx="6" dy="6"/>
            <feComposite in2="hardAlpha" operator="out"/>
            <feColorMatrix type="matrix" values="0 0 0 0 0.6 0 0 0 0 0.760784 0 0 0 0 1 0 0 0 1 0"/>
            <feBlend mode="normal" in2="BackgroundImageFix" result="effect1_dropShadow_217_18052"/>
            <feBlend mode="normal" in="SourceGraphic" in2="effect1_dropShadow_217_18052" result="shape"/>
        </filter>
        <filter id="filter1_d_217_18052" x="180" y="0.5" width="66" height="66" filterUnits="userSpaceOnUse" color-interpolation-filters="sRGB">
            <feFlood flood-opacity="0" result="BackgroundImageFix"/>
            <feColorMatrix in="SourceAlpha" type="matrix" values="0 0 0 0 0 0 0 0 0 0 0 0 0 0 0 0 0 0 127 0" result="hardAlpha"/>
            <feOffset dx="6" dy="6"/>
            <feComposite in2="hardAlpha" operator="out"/>
            <feColorMatrix type="matrix" values="0 0 0 0 0.6 0 0 0 0 0.760784 0 0 0 0 1 0 0 0 1 0"/>
            <feBlend mode="normal" in2="BackgroundImageFix" result="effect1_dropShadow_217_18052"/>
            <feBlend mode="normal" in="SourceGraphic" in2="effect1_dropShadow_217_18052" result="shape"/>
        </filter>
    </defs>
</svg>