<svg width="21" height="21" viewBox="0 0 21 21" fill="none" xmlns="http://www.w3.org/2000/svg">
    <path d="M4.0043 17.1341C5.38696 17.2008 6.25321 15.968 6.93621 14.9518C7.16943 14.602 7.40265 14.2522 7.65253 13.8857L6.78628 13.3859C6.90289 12.8195 7.03616 12.2698 7.20274 11.7534L5.28701 12.1532C5.4536 11.137 6.28652 9.25462 8.33553 8.9381C10.2679 5.22324 13.0832 3.70731 14.5825 3.40746L14.5492 3.47409L14.5825 3.42412C15.0656 4.87341 15.1655 8.07186 12.9166 11.5868C13.6663 13.5026 12.4502 15.1684 11.6506 15.8181L11.0509 13.9523C10.6844 14.3521 10.2846 14.7353 9.8348 15.1351L8.96855 14.6353C8.78531 15.0185 8.58541 15.4016 8.40216 15.7848C7.86909 16.8842 7.2194 18.2669 7.96904 19.4163C8.31887 19.9661 8.85194 20.3825 9.50163 20.4492L9.3517 20.4325C13.1998 20.8823 17.1146 19.0665 19.1636 15.5016C21.9289 10.7206 20.2797 4.60688 15.4987 1.84156C10.7177 -0.923766 4.60401 0.725432 1.83869 5.50644C-0.193658 9.0214 0.156173 13.236 2.37176 16.3345C2.75491 16.8343 3.37127 17.1008 4.0043 17.1341Z" fill="white"/>
    <path d="M11.1671 9.48747C11.7002 9.78733 12.3665 9.60408 12.6664 9.08767C12.9662 8.55459 12.783 7.88825 12.2666 7.5884C11.7502 7.28854 11.0672 7.47179 10.7673 7.9882C10.4508 8.52128 10.634 9.18762 11.1671 9.48747Z" fill="white"/>
</svg>