<svg width="19" height="20" viewBox="0 0 19 20" fill="none" xmlns="http://www.w3.org/2000/svg">
<path fill-rule="evenodd" clip-rule="evenodd" d="M13.5419 15.2439C16.094 14.9446 18.3162 13.4006 18.5955 11.9898C19.0356 9.76737 18.9993 6.56632 18.9993 6.56632C18.9993 2.22771 16.1042 0.955994 16.1042 0.955994C14.6446 0.297725 12.138 0.0209043 9.53392 0H9.46994C6.86585 0.0209043 4.36096 0.297725 2.90116 0.955994C2.90116 0.955994 0.00602226 2.22771 0.00602226 6.56632C0.00602226 6.82934 0.00463772 7.10599 0.00319636 7.39399C-0.000806598 8.19382 -0.00524772 9.08121 0.0183135 10.0074C0.123447 14.2504 0.810549 18.432 4.80586 19.4703C6.64801 19.9491 8.22963 20.0493 9.50342 19.9805C11.8134 19.8548 13.1101 19.1711 13.1101 19.1711L13.034 17.5254C13.034 17.5254 11.3832 18.0365 9.52931 17.9742C7.69254 17.9124 5.75349 17.7797 5.45642 15.5655C5.42898 15.371 5.41526 15.163 5.41526 14.9446C5.41526 14.9446 7.21834 15.3774 9.50342 15.4802C10.9007 15.5431 12.211 15.3998 13.5419 15.2439ZM15.584 12.1562V6.90284C15.584 5.82918 15.3056 4.97599 14.7465 4.34476C14.1697 3.71354 13.4144 3.38995 12.477 3.38995C11.3922 3.38995 10.5707 3.79931 10.0277 4.61813L9.49965 5.48717L8.97167 4.61813C8.42856 3.79931 7.60713 3.38995 6.52243 3.38995C5.58489 3.38995 4.82964 3.71354 4.25294 4.34476C3.69369 4.97599 3.41527 5.82918 3.41527 6.90284V12.1562H5.53496V7.05726C5.53496 5.98241 5.99555 5.43685 6.91684 5.43685C7.93548 5.43685 8.44612 6.08402 8.44612 7.36371V10.1546H10.5533V7.36371C10.5533 6.08402 11.0638 5.43685 12.0825 5.43685C13.0037 5.43685 13.4643 5.98241 13.4643 7.05726V12.1562H15.584Z" fill="#444444"/>
</svg>
