<svg width="20" height="20" viewBox="0 0 20 20" fill="none" xmlns="http://www.w3.org/2000/svg">
<path d="M17.7708 7.65913C17.1391 7.65913 16.5833 7.93652 16.1741 8.3687C14.6699 7.26609 12.6416 6.55652 10.3941 6.48087L11.5616 0.910435L15.2791 1.79391C15.2791 2.75739 16.0208 3.54435 16.9308 3.54435C17.8583 3.54435 18.6041 2.73652 18.6041 1.77217C18.6041 0.807826 17.8633 0 16.9316 0C16.2824 0 15.7224 0.414783 15.4433 0.981739L11.3375 0.0182609C11.1308 -0.04 10.9283 0.116522 10.8733 0.335652L9.59162 6.47652C7.36162 6.57478 5.35496 7.28348 3.8458 8.38696C3.43663 7.93652 2.85913 7.65913 2.22747 7.65913C-0.115865 7.65913 -0.883363 10.9887 1.26247 12.127C1.18663 12.4791 1.15247 12.8548 1.15247 13.2296C1.15247 16.9696 5.13163 20 10.0175 20C14.9241 20 18.9033 16.9696 18.9033 13.2296C18.9033 12.8548 18.8658 12.4617 18.7733 12.1087C20.8758 10.9661 20.1016 7.66087 17.7708 7.65913ZM4.66746 12.3635C4.66746 11.3817 5.40913 10.5913 6.34079 10.5913C7.25079 10.5913 7.99329 11.3765 7.99329 12.3635C7.99329 13.3278 7.25162 14.1139 6.34079 14.1139C5.41329 14.1183 4.66746 13.3278 4.66746 12.3635ZM13.6999 16.5357C12.1658 18.16 7.83662 18.16 6.30163 16.5357C6.13246 16.3791 6.13246 16.1026 6.30163 15.9243C6.44912 15.7678 6.71079 15.7678 6.85829 15.9243C8.02996 17.1965 11.9166 17.2183 13.1391 15.9243C13.2866 15.7678 13.5483 15.7678 13.6958 15.9243C13.8683 16.1035 13.8683 16.38 13.6999 16.5357ZM13.6658 14.1174C12.7558 14.1174 12.0141 13.3322 12.0141 12.3687C12.0141 11.387 12.7558 10.5965 13.6658 10.5965C14.5933 10.5965 15.3391 11.3817 15.3391 12.3687C15.3349 13.3278 14.5933 14.1174 13.6658 14.1174Z" fill="#444444"/>
</svg>
