<svg width="20" height="16" viewBox="0 0 20 16" fill="none" xmlns="http://www.w3.org/2000/svg">
<path d="M17.9944 4C17.9944 4.17143 17.9944 4.34286 17.9944 4.51429C17.9944 9.82857 13.8719 16 6.29526 16C3.95543 16 1.78273 15.3143 0 14.1714C0.334262 14.2286 0.668523 14.2286 1.00279 14.2286C2.95265 14.2286 4.67967 13.6 6.12813 12.5143C4.3454 12.4571 2.78551 11.3143 2.28412 9.71429C2.50696 9.77143 2.78552 9.77143 3.06407 9.77143C3.45404 9.77143 3.7883 9.71429 4.12256 9.65714C2.22841 9.31429 0.835655 7.65714 0.835655 5.71429V5.65714C1.39276 5.94286 2.00557 6.11429 2.67409 6.17143C1.55989 5.42857 0.835655 4.22857 0.835655 2.8C0.835655 2.05714 1.0585 1.37143 1.39276 0.742857C3.39833 3.2 6.46239 4.8 9.86072 4.97143C9.80501 4.68571 9.7493 4.34286 9.7493 4.05714C9.7493 1.82857 11.5877 0 13.8719 0C15.0418 0 16.1003 0.514286 16.8802 1.25714C17.8273 1.14286 18.7187 0.8 19.4986 0.342857C19.1643 1.31429 18.5515 2.05714 17.6602 2.57143C18.4958 2.45714 19.2758 2.28571 20 1.94286C19.4986 2.74286 18.8301 3.42857 17.9944 4Z" fill="#444444"/>
</svg>
