<svg width="194" height="52" viewBox="0 0 194 52" fill="none" xmlns="http://www.w3.org/2000/svg">
<path d="M9.16397 26.3528L-7.75256e-05 24.0342L6.58995 17.2572L9.16397 26.3528Z" fill="#FF6F3D"/>
<path d="M97.4908 40.4439L106.501 43.3037L99.5191 49.6766L97.4908 40.4439Z" fill="#95C038"/>
<circle cx="84" cy="29.2573" r="2" fill="white"/>
<circle cx="192" cy="49.2573" r="2" fill="white"/>
<circle cx="150" cy="20.2573" r="3" fill="#74DEFF"/>
<rect x="23.4142" y="22.8848" width="12" height="12" rx="3" transform="rotate(-45 23.4142 22.8848)" stroke="#6586B6" stroke-width="2"/>
<rect x="36.1422" y="35.6128" width="12" height="12" rx="3" transform="rotate(-45 36.1422 35.6128)" stroke="#6586B6" stroke-width="2"/>
<rect x="36.1422" y="10.1567" width="12" height="12" rx="3" transform="rotate(-45 36.1422 10.1567)" stroke="#6586B6" stroke-width="2"/>
<rect x="48.8703" y="22.8848" width="12" height="12" rx="3" transform="rotate(-45 48.8703 22.8848)" stroke="#6586B6" stroke-width="2"/>
</svg>
