<svg width="55" height="57" viewBox="0 0 55 57" fill="none" xmlns="http://www.w3.org/2000/svg">
<ellipse cx="29" cy="26.7573" rx="26" ry="26.5" fill="url(#paint0_linear)"/>
<circle cx="26" cy="30.2573" r="25.5" stroke="white"/>
<path d="M13.0338 33.1025C13.0338 30.7008 13.5402 28.9134 14.5529 27.7402C15.5711 26.5671 17.0929 25.9805 19.1183 25.9805C19.81 25.9805 20.3523 26.022 20.7452 26.105V28.1553C20.2527 28.0446 19.7657 27.9893 19.2843 27.9893C18.4044 27.9893 17.685 28.1221 17.1261 28.3877C16.5727 28.6533 16.1577 29.0462 15.881 29.5664C15.6043 30.0866 15.441 30.8254 15.3912 31.7827H15.4991C16.047 30.842 16.9241 30.3716 18.1305 30.3716C19.2151 30.3716 20.0646 30.7119 20.6788 31.3926C21.2931 32.0732 21.6002 33.014 21.6002 34.2148C21.6002 35.5098 21.235 36.5363 20.5045 37.2944C19.7741 38.047 18.7614 38.4233 17.4664 38.4233C16.5699 38.4233 15.7869 38.2158 15.1173 37.8008C14.4532 37.3857 13.9386 36.7798 13.5734 35.9829C13.2137 35.186 13.0338 34.2259 13.0338 33.1025ZM17.4166 36.373C17.9645 36.373 18.3851 36.1904 18.6783 35.8252C18.9716 35.4544 19.1183 34.9287 19.1183 34.248C19.1183 33.6559 18.9799 33.1911 18.7032 32.8535C18.4321 32.5104 18.0198 32.3389 17.4664 32.3389C16.9463 32.3389 16.5008 32.5076 16.13 32.8452C15.7648 33.1828 15.5822 33.5757 15.5822 34.0239C15.5822 34.6825 15.7537 35.2386 16.0968 35.6924C16.4454 36.1462 16.8854 36.373 17.4166 36.373ZM23.2893 37.0703C23.2893 36.6055 23.4138 36.2541 23.6628 36.0161C23.9118 35.7782 24.2743 35.6592 24.7502 35.6592C25.2095 35.6592 25.5637 35.7809 25.8127 36.0244C26.0673 36.2679 26.1945 36.6165 26.1945 37.0703C26.1945 37.5075 26.0673 37.8534 25.8127 38.1079C25.5581 38.3569 25.204 38.4814 24.7502 38.4814C24.2854 38.4814 23.9257 38.3597 23.6711 38.1162C23.4165 37.8672 23.2893 37.5186 23.2893 37.0703ZM36.7737 35.7422H35.3128V38.2573H32.8059V35.7422H27.6263V33.9575L32.9471 26.1216H35.3128V33.75H36.7737V35.7422ZM32.8059 33.75V31.6914C32.8059 31.3483 32.8198 30.8503 32.8475 30.1973C32.8751 29.5443 32.8973 29.1652 32.9139 29.0601H32.8475C32.6427 29.5138 32.3964 29.9565 32.1087 30.3882L29.8841 33.75H32.8059Z" fill="white"/>
<defs>
<linearGradient id="paint0_linear" x1="3.0001" y1="-1.81299" x2="56.0292" y2="52.2479" gradientUnits="userSpaceOnUse">
<stop stop-color="#FFC671"/>
<stop offset="0.59375" stop-color="#FF7541"/>
<stop offset="1" stop-color="#FF6F3D"/>
</linearGradient>
</defs>
</svg>
