<svg width="275" height="76" viewBox="0 0 275 76" fill="none" xmlns="http://www.w3.org/2000/svg">
<path fill-rule="evenodd" clip-rule="evenodd" d="M72.5544 0.941162L72.9483 2.75274C73.1183 3.53488 73.6945 4.15708 74.4338 4.46367C75.1736 4.77045 76.0227 4.73868 76.6964 4.30557L78.256 3.30292C78.7291 2.99896 79.3501 3.06549 79.7474 3.46313L84.5369 8.25257C84.9342 8.6499 85.001 9.27094 84.6971 9.74396L83.6944 11.3036C83.2613 11.9773 83.2295 12.8264 83.5363 13.5662C83.8429 14.3055 84.4651 14.8817 85.2473 15.0517L87.0588 15.4456C87.6082 15.5652 88 16.0513 88 16.6135V23.3865C88 23.9487 87.6082 24.4348 87.0588 24.5544L85.2473 24.9483C84.4651 25.1183 83.8429 25.6945 83.5363 26.4338C83.2295 27.1736 83.2613 28.0227 83.6944 28.6964L84.6971 30.256C85.001 30.7291 84.9342 31.3501 84.5369 31.7474L79.7474 36.5369C79.3501 36.9342 78.7291 37.001 78.256 36.6971L76.6964 35.6944C76.0227 35.2613 75.1736 35.2295 74.4338 35.5363C73.6945 35.8429 73.1183 36.4651 72.9483 37.2473L72.5544 39.0588C72.4351 39.6082 71.9487 40 71.3865 40H64.6135C64.0513 40 63.5649 39.6082 63.4456 39.0588L63.0517 37.2473C62.8817 36.4651 62.3055 35.8429 61.5662 35.5363C60.8264 35.2295 59.9773 35.2613 59.3036 35.6944L57.744 36.6971C57.2709 37.001 56.6499 36.9342 56.2526 36.5369L51.4631 31.7474C51.0658 31.3501 50.999 30.7291 51.3029 30.256L52.3056 28.6964C52.7387 28.0227 52.7705 27.1736 52.4637 26.4338C52.1571 25.6945 51.5349 25.1183 50.7527 24.9483L48.9412 24.5544C48.3918 24.4348 48 23.9487 48 23.3865V16.6135C48 16.0513 48.3918 15.5652 48.9412 15.4456L50.7527 15.0517C51.5349 14.8817 52.1571 14.3055 52.4637 13.5662C52.7705 12.8264 52.7387 11.9773 52.3056 11.3036L51.3029 9.74396C50.999 9.27094 51.0658 8.6499 51.4631 8.25257L56.2526 3.46313C56.6499 3.0658 57.2709 2.99896 57.744 3.30292L59.3036 4.30557C59.9773 4.73868 60.8264 4.77045 61.5662 4.46367C62.3055 4.15708 62.8817 3.53488 63.0517 2.75274L63.4456 0.941162C63.5649 0.391846 64.0513 0 64.6135 0H71.3865C71.9487 0 72.4351 0.391846 72.5544 0.941162ZM53.3361 9.20807L57.2081 5.33605L58.222 5.98791C59.5167 6.82025 61.0672 6.83571 62.3323 6.31113C63.5974 5.78652 64.6796 4.67962 65.0061 3.17759L65.2621 2H70.7379L70.9939 3.17759C71.3204 4.67962 72.4026 5.78652 73.6677 6.31113C74.9328 6.83571 76.4833 6.82025 77.778 5.98791L78.7919 5.33605L82.6639 9.20808L82.0121 10.222C81.1798 11.5167 81.1643 13.0672 81.6889 14.3323C82.2135 15.5974 83.3204 16.6796 84.8224 17.0061L86 17.2621V22.7379L84.8224 22.9939C83.3204 23.3204 82.2135 24.4026 81.6889 25.6677C81.1643 26.9328 81.1798 28.4833 82.0121 29.778L82.6639 30.7919L78.7919 34.6639L77.778 34.0121C76.4833 33.1798 74.9328 33.1643 73.6677 33.6889C72.4026 34.2135 71.3204 35.3204 70.9939 36.8224L70.7379 38H65.2621L65.0061 36.8224C64.6796 35.3204 63.5974 34.2135 62.3323 33.6889C61.0672 33.1643 59.5167 33.1798 58.222 34.0121L57.2081 34.6639L53.3361 30.7919L53.9879 29.778C54.8202 28.4833 54.8357 26.9328 54.3111 25.6677C53.7865 24.4026 52.6796 23.3204 51.1776 22.9939L50 22.7379V17.2621L51.1776 17.0061C52.6796 16.6796 53.7865 15.5974 54.3111 14.3323C54.8357 13.0672 54.8202 11.5167 53.9879 10.222L53.3361 9.20807ZM78.334 4.8781C78.3335 4.87767 78.3331 4.87724 78.3327 4.87681L78.3332 4.87735L78.334 4.8781ZM65.4 1.36571L65.3999 1.36602ZM77.1713 20C77.1713 14.9413 73.0587 10.8287 68 10.8287C62.9413 10.8287 58.8287 14.9413 58.8287 20C58.8287 25.0587 62.9413 29.1713 68 29.1713C73.0587 29.1713 77.1713 25.0587 77.1713 20ZM68 12.8287C71.9542 12.8287 75.1713 16.0458 75.1713 20C75.1713 23.9542 71.9542 27.1713 68 27.1713C64.0458 27.1713 60.8287 23.9542 60.8287 20C60.8287 16.0458 64.0458 12.8287 68 12.8287Z" fill="#6587B6"/>
<path d="M270.521 58.3115L269.636 52.9998L274.679 54.8894L270.521 58.3115Z" fill="white"/>
<path d="M108.221 37.4731L105.411 46.4987L99 39.5524L108.221 37.4731Z" fill="#FF6F3D"/>
<circle cx="26" cy="36" r="2" fill="white"/>
<circle cx="174" cy="56" r="2" fill="white"/>
<circle cx="3" cy="52" r="3" fill="#74DEFF"/>
<circle cx="216" cy="32" r="4" fill="#95C038"/>
<circle cx="139.502" cy="52.4546" r="13.5025" transform="rotate(90 139.502 52.4546)" stroke="#6586B6" stroke-width="2"/>
<rect x="150.129" y="60.3311" width="16.7112" height="4.50082" transform="rotate(45 150.129 60.3311)" fill="#6586B6"/>
<rect x="133.815" y="51.3294" width="11.2521" height="2.25041" fill="#6586B6"/>
<rect x="138.316" y="58.0806" width="11.2521" height="2.25041" transform="rotate(-90 138.316 58.0806)" fill="#6586B6"/>
</svg>
