<svg width="181" height="33" viewBox="0 0 181 33" fill="none" xmlns="http://www.w3.org/2000/svg">
<path fill-rule="evenodd" clip-rule="evenodd" d="M16.3665 32.5955L1.56073 25.7986C0.299499 25.2052 0.299499 24.2882 1.56073 23.7488L6.71534 21.3752L16.3117 25.7986C17.5729 26.392 19.6019 26.392 20.8083 25.7986L30.4046 21.3752L35.5592 23.7488C36.8204 24.3421 36.8204 25.2592 35.5592 25.7986L20.7534 32.5955C19.6019 33.1349 17.5729 33.1349 16.3665 32.5955Z" fill="url(#paint0_linear)"/>
<path fill-rule="evenodd" clip-rule="evenodd" d="M16.3665 24.2342L1.56073 17.4373C0.299499 16.8439 0.299499 15.9269 1.56073 15.3874L6.60567 13.0679L16.3665 17.5452C17.6278 18.1386 19.6567 18.1386 20.8631 17.5452L30.6239 13.0679L35.6689 15.3874C36.9301 15.9808 36.9301 16.8979 35.6689 17.4373L20.8631 24.2342C19.6019 24.8276 17.5729 24.8276 16.3665 24.2342Z" fill="url(#paint1_linear)"/>
<path fill-rule="evenodd" clip-rule="evenodd" d="M16.3665 16.0887L1.56073 9.29178C0.299499 8.6984 0.299499 7.78136 1.56073 7.24192L16.3665 0.445034C17.6278 -0.148345 19.6567 -0.148345 20.8631 0.445034L35.6689 7.24192C36.9301 7.8353 36.9301 8.75234 35.6689 9.29178L20.8631 16.0887C19.6019 16.6281 17.5729 16.6281 16.3665 16.0887Z" fill="url(#paint2_linear)"/>
<path d="M45.5809 16.4331C45.5809 13.6221 46.3957 11.5006 48.0798 10.1215C49.7095 8.6895 51.6652 8 53.8924 8C56.1197 8 58.0211 8.6895 59.6508 10.1215C61.2805 11.5536 62.0954 13.6221 62.0954 16.4862C62.0954 19.2972 61.2805 21.4188 59.6508 22.7978C58.0211 24.2298 56.0654 24.9193 53.8924 24.9193C51.6652 24.9193 49.7638 24.2298 48.0798 22.7978C46.3957 21.3657 45.5809 19.2442 45.5809 16.4331ZM49.1663 16.4331C49.1663 18.3956 49.5465 19.7746 50.2527 20.6762C51.0133 21.5779 51.8281 22.1613 52.6973 22.3735C52.9146 22.4265 53.0776 22.4796 53.2949 22.4796C53.4578 22.4796 53.6751 22.5326 53.8381 22.5326C54.0554 22.5326 54.2184 22.5326 54.4357 22.4796C54.653 22.4796 54.8159 22.4265 55.0332 22.3735C55.9024 22.1613 56.7173 21.5779 57.4235 20.6762C58.1297 19.7746 58.51 18.3425 58.51 16.4862C58.51 14.5768 58.1297 13.1978 57.4235 12.2961C56.7173 11.3945 55.9024 10.811 55.0332 10.5989C54.8159 10.5459 54.5986 10.4928 54.4357 10.4928C54.2184 10.4928 54.0554 10.4398 53.8381 10.4398C53.6208 10.4398 53.4578 10.4398 53.2949 10.4928C53.1319 10.4928 52.9146 10.5459 52.6973 10.5989C51.8281 10.811 51.0133 11.3945 50.2527 12.2961C49.5465 13.0917 49.1663 14.5238 49.1663 16.4331Z" fill="#666666"/>
<path d="M63.8881 8.15918H68.3426L74.2096 18.5548L75.0788 20.8354H75.1331L75.0788 17.8653V8.15918H78.5012V24.7072H74.0466L68.1797 13.8874L67.3105 12.031H67.2561L67.3105 14.9481V24.7072H63.8881V8.15918Z" fill="#666666"/>
<path d="M82.0322 8.15918H85.4546V21.8962H92.1908V24.7072H82.0322V8.15918Z" fill="#666666"/>
<path d="M90.0722 8.15918H94.0379L97.5146 13.9404L98.0578 15.1072H98.1665L98.7097 13.9404L102.241 8.15918H105.88L99.7419 17.9713V24.7072H96.3195V17.9183L90.0722 8.15918Z" fill="#666666"/>
<path d="M105.446 16.4331C105.446 13.6221 106.261 11.5006 107.945 10.1215C109.574 8.6895 111.53 8 113.757 8C115.985 8 117.886 8.6895 119.516 10.1215C121.145 11.5536 121.96 13.6221 121.96 16.4862C121.96 19.2972 121.145 21.4188 119.516 22.7978C117.886 24.2298 115.93 24.9193 113.757 24.9193C111.53 24.9193 109.629 24.2298 107.945 22.7978C106.315 21.3657 105.446 19.2442 105.446 16.4331ZM109.031 16.4331C109.031 18.3956 109.412 19.7746 110.118 20.6762C110.878 21.5779 111.639 22.1613 112.562 22.3735C112.78 22.4265 112.943 22.4796 113.16 22.4796C113.323 22.4796 113.54 22.5326 113.703 22.5326C113.92 22.5326 114.083 22.5326 114.301 22.4796C114.518 22.4796 114.681 22.4265 114.898 22.3735C115.767 22.1613 116.582 21.5779 117.288 20.6762C117.995 19.7746 118.375 18.3425 118.375 16.4862C118.375 14.5768 117.995 13.1978 117.288 12.2961C116.582 11.3945 115.767 10.811 114.898 10.5989C114.681 10.5459 114.464 10.4928 114.301 10.4928C114.083 10.4928 113.92 10.4398 113.703 10.4398C113.486 10.4398 113.323 10.4398 113.16 10.4928C112.997 10.4928 112.78 10.5459 112.562 10.5989C111.693 10.811 110.878 11.3945 110.118 12.2961C109.412 13.0917 109.031 14.5238 109.031 16.4331Z" fill="#333333"/>
<path d="M124.351 8.15918H133.803V10.9172H127.773V14.9481H133.531V17.7592H127.773V24.7072H124.351V8.15918Z" fill="#333333"/>
<path d="M136.356 8.15918H145.809V10.9172H139.779V14.9481H145.537V17.7592H139.779V24.7072H136.356V8.15918Z" fill="#333333"/>
<path d="M147.819 24.7072V8.15918H151.241V24.7072H147.819Z" fill="#333333"/>
<path d="M166.321 8.53027V11.3944C165.723 11.1822 165.126 11.0231 164.474 10.917C163.822 10.8109 163.061 10.7579 162.301 10.7579C160.508 10.7579 159.15 11.2883 158.172 12.4021C157.194 13.4629 156.706 14.8419 156.706 16.4861C156.706 18.0772 157.14 19.4032 158.064 20.464C158.987 21.5247 160.291 22.1082 161.975 22.1082C162.573 22.1082 163.17 22.0551 163.876 22.0021C164.583 21.896 165.289 21.7369 166.049 21.4187L166.267 24.2297C166.158 24.2827 165.995 24.3358 165.832 24.3888C165.615 24.4419 165.397 24.4949 165.126 24.5479C164.691 24.654 164.148 24.7071 163.496 24.8131C162.844 24.8662 162.192 24.9192 161.486 24.9192C161.377 24.9192 161.269 24.9192 161.214 24.9192C161.106 24.9192 160.997 24.9192 160.943 24.9192C158.987 24.8131 157.194 24.0706 155.565 22.7977C153.935 21.4717 153.12 19.4032 153.12 16.6452C153.12 13.9402 153.935 11.8187 155.51 10.3336C157.086 8.8485 159.259 8.10596 161.921 8.10596C162.627 8.10596 163.279 8.10596 163.822 8.159C164.42 8.21203 164.963 8.31811 165.56 8.42419C165.669 8.47723 165.832 8.47723 165.941 8.53027C166.049 8.47723 166.158 8.53027 166.321 8.53027Z" fill="#333333"/>
<path d="M169.037 8.15918H179.196V10.7581H172.514V14.8951H178.544V17.4409H172.514V22.1083H179.196V24.7072H169.037V8.15918Z" fill="#333333"/>
<defs>
<linearGradient id="paint0_linear" x1="18.602" y1="39.0381" x2="18.602" y2="14.2235" gradientUnits="userSpaceOnUse">
<stop stop-color="#FCC2B1"/>
<stop offset="0.8848" stop-color="#D9420B"/>
</linearGradient>
<linearGradient id="paint1_linear" x1="18.602" y1="28.2941" x2="18.602" y2="11.9742" gradientUnits="userSpaceOnUse">
<stop stop-color="#DEEDC9"/>
<stop offset="0.6606" stop-color="#8BBA25"/>
</linearGradient>
<linearGradient id="paint2_linear" x1="18.602" y1="21.6857" x2="18.602" y2="-0.52212" gradientUnits="userSpaceOnUse">
<stop stop-color="#C2EBFA"/>
<stop offset="1" stop-color="#26A8DE"/>
</linearGradient>
</defs>
</svg>
