<svg width="592" height="150" viewBox="0 0 592 150" fill="none" xmlns="http://www.w3.org/2000/svg">
<g clip-path="url(#clip0)">
<path d="M428.879 136.683C433.483 139.244 435.387 147.931 435.387 147.931H421.525L155.933 148C155.933 148 156.316 133.845 163.972 132.78C172.394 131.61 174.832 138.175 174.832 138.175C177.753 135.902 178.902 136.293 180.816 138.175C182.73 136.293 183.878 135.512 187.319 137.156C187.734 132.044 188.656 126.38 193.442 122.791C197.422 119.807 203.943 118.752 209.659 120.171C214.883 121.463 219.465 124.652 222.233 128.915C222.624 129.522 222.976 130.14 223.296 130.783C223.804 130.534 224.336 130.334 224.899 130.195C226.103 129.897 227.409 129.904 228.574 130.176C230.482 127.975 233.149 126.344 236.12 125.604C240.045 124.634 244.518 125.356 247.247 127.405C250.531 129.867 251.172 133.754 251.454 137.265C252.806 135.634 255.473 134.7 257.944 135.027C260.508 135.367 262.682 137.029 263.175 139.005L263.316 138.987C264.535 138.532 265.99 138.417 267.405 138.823C266.138 135.791 265.763 128.952 275.561 126.957C279.549 126.138 287.751 129.952 288.072 133.105C288.775 132.305 290.081 131.832 291.379 131.947C293.35 132.129 294.57 133.499 294.961 134.918C297.08 132.935 300.7 131.989 303.914 132.808C306.674 133.505 308.691 135.391 309.333 137.538C310.474 133.087 311.506 127.708 317.715 126.168C320.53 125.471 323.407 126.15 325.268 127.933C327.239 129.825 327.669 132.262 327.911 134.627C328.826 133.997 330.155 133.863 331.36 134.124C333.166 132.984 336.012 132.559 340.399 133.609C340.813 128.497 341.736 122.833 346.521 119.243C350.501 116.26 357.023 115.205 362.739 116.624C367.962 117.915 372.544 121.105 375.312 125.368C375.703 125.974 376.055 126.593 376.376 127.235C376.884 126.987 377.416 126.787 377.979 126.647C379.183 126.35 380.489 126.356 381.654 126.629C383.562 124.428 386.228 122.797 389.199 122.057C393.125 121.087 397.597 121.808 400.326 123.858C403.61 126.32 404.252 130.207 404.533 133.718C405.886 132.087 408.552 131.153 411.023 131.48C413.588 131.82 415.762 133.481 416.254 135.458C418.139 135.124 424.923 134.482 428.879 136.683Z" fill="#E9E9E9"/>
<path d="M189.487 137.897C193.811 137.897 197.316 137.496 197.316 137.001C197.316 136.506 193.811 136.104 189.487 136.104C185.163 136.104 181.658 136.506 181.658 137.001C181.658 137.496 185.163 137.897 189.487 137.897Z" fill="#D5EAF5"/>
<path d="M289.419 141.972C289.419 143.257 279.51 144.306 267.268 144.306C255.043 144.306 245.117 143.257 245.117 141.972C245.117 140.687 255.026 139.639 267.268 139.639C279.493 139.656 289.419 140.687 289.419 141.972Z" fill="#D5EAF5"/>
<path d="M300.85 141.752C307.275 141.752 312.484 141.283 312.484 140.704C312.484 140.125 307.275 139.655 300.85 139.655C294.425 139.655 289.217 140.125 289.217 140.704C289.217 141.283 294.425 141.752 300.85 141.752Z" fill="#D5EAF5"/>
<path d="M387.171 143.291C399.993 143.291 410.387 142.451 410.387 141.414C410.387 140.377 399.993 139.537 387.171 139.537C374.349 139.537 363.955 140.377 363.955 141.414C363.955 142.451 374.349 143.291 387.171 143.291Z" fill="#D5EAF5"/>
<path d="M274.739 131.809C274.739 134.571 272.5 136.809 269.739 136.809H237.402C234.641 136.809 232.402 134.571 232.402 131.809L232.402 66.6406C232.402 63.8792 234.641 61.6406 237.402 61.6406L269.739 61.6406C272.5 61.6406 274.739 63.8792 274.739 66.6406V131.809Z" fill="#AACBE8"/>
<path d="M271.697 131.004C271.697 133.213 269.907 135.004 267.697 135.004H237.398C235.189 135.004 233.398 133.213 233.398 131.004L233.398 67.0732C233.398 64.8641 235.189 63.0732 237.398 63.0732L267.697 63.0732C269.907 63.0732 271.697 64.8641 271.697 67.0732V131.004Z" fill="white"/>
<path d="M267.552 68.5527H237.855C236.751 68.5527 235.855 69.4482 235.855 70.5527V123.577C235.855 124.682 236.751 125.577 237.855 125.577H267.552C268.656 125.577 269.552 124.682 269.552 123.577V70.5527C269.552 69.4482 268.656 68.5527 267.552 68.5527Z" fill="#ECECEC"/>
<path fill-rule="evenodd" clip-rule="evenodd" d="M252.594 98.6682L249.588 97.0718C249.332 96.9324 249.332 96.7171 249.588 96.5906L250.634 96.0342L252.583 97.0726C252.727 97.1416 252.882 97.1771 253.039 97.1771C253.196 97.1771 253.351 97.1416 253.496 97.0726L255.444 96.0342L256.49 96.5914C256.746 96.7308 256.746 96.9461 256.49 97.0726L253.485 98.669C253.198 98.7955 252.881 98.7955 252.595 98.669L252.594 98.6682Z" fill="url(#paint0_linear)"/>
<path fill-rule="evenodd" clip-rule="evenodd" d="M252.594 96.7058L249.588 95.1094C249.332 94.97 249.332 94.7547 249.588 94.6281L250.612 94.083L252.594 95.1343C252.738 95.2033 252.894 95.2388 253.05 95.2388C253.207 95.2388 253.362 95.2033 253.507 95.1343L255.488 94.083L256.513 94.6281C256.769 94.7675 256.769 94.9828 256.513 95.1094L253.507 96.7058C253.362 96.7747 253.207 96.8103 253.05 96.8103C252.894 96.8103 252.738 96.7747 252.594 96.7058Z" fill="url(#paint1_linear)"/>
<path fill-rule="evenodd" clip-rule="evenodd" d="M252.593 94.7936L249.588 93.198C249.331 93.0586 249.331 92.8433 249.588 92.7167L252.593 91.1211C252.738 91.0521 252.893 91.0166 253.05 91.0166C253.207 91.0166 253.362 91.0521 253.506 91.1211L256.512 92.7175C256.768 92.8569 256.768 93.0722 256.512 93.1987L253.506 94.7951C253.212 94.9218 252.888 94.9218 252.593 94.7951V94.7936Z" fill="url(#paint2_linear)"/>
<path d="M241.258 103.323C241.242 103.112 241.271 102.901 241.344 102.704C241.417 102.508 241.532 102.331 241.68 102.188C241.949 101.935 242.3 101.799 242.661 101.807C243.02 101.799 243.368 101.936 243.633 102.188C243.778 102.336 243.89 102.515 243.961 102.712C244.033 102.91 244.062 103.122 244.046 103.333C244.062 103.542 244.033 103.753 243.961 103.949C243.89 104.145 243.778 104.322 243.633 104.468C243.367 104.719 243.02 104.855 242.661 104.849C242.301 104.854 241.951 104.718 241.68 104.468C241.533 104.322 241.419 104.143 241.345 103.945C241.272 103.747 241.242 103.534 241.258 103.323ZM241.863 103.323C241.843 103.591 241.908 103.859 242.046 104.085C242.147 104.233 242.293 104.34 242.459 104.391C242.492 104.401 242.526 104.407 242.561 104.41C242.588 104.41 242.625 104.419 242.652 104.419C242.687 104.42 242.721 104.417 242.754 104.41C242.789 104.408 242.823 104.402 242.856 104.391C243.019 104.34 243.162 104.232 243.259 104.085C243.396 103.861 243.46 103.597 243.442 103.332C243.461 103.067 243.397 102.802 243.259 102.578C243.162 102.432 243.019 102.324 242.856 102.273C242.823 102.263 242.789 102.257 242.754 102.254C242.717 102.254 242.69 102.245 242.652 102.245C242.622 102.243 242.591 102.246 242.561 102.254C242.526 102.257 242.492 102.263 242.459 102.273C242.294 102.326 242.149 102.433 242.046 102.578C241.902 102.795 241.837 103.059 241.863 103.322V103.323Z" fill="#333333"/>
<path d="M244.347 101.835H245.1L246.09 103.704L246.237 104.105H246.246L246.237 103.58V101.835H246.815V104.81H246.062L245.072 102.865L244.925 102.531H244.917L244.926 103.056V104.81H244.347V101.835Z" fill="#333333"/>
<path d="M247.55 101.835H248.137V104.305H249.274V104.81H247.55V101.835Z" fill="#333333"/>
<path d="M248.982 101.835H249.652L250.239 102.874L250.33 103.084H250.34L250.441 102.874L251.037 101.835H251.642L250.615 103.599V104.81H250.038V103.59L248.982 101.835Z" fill="#333333"/>
<path d="M251.783 103.323C251.767 103.112 251.796 102.901 251.87 102.704C251.943 102.508 252.057 102.331 252.205 102.188C252.474 101.935 252.825 101.799 253.187 101.807C253.545 101.799 253.893 101.936 254.159 102.188C254.303 102.336 254.415 102.515 254.487 102.712C254.558 102.91 254.587 103.122 254.572 103.333C254.587 103.542 254.558 103.753 254.487 103.949C254.415 104.145 254.303 104.322 254.159 104.468C253.892 104.719 253.545 104.855 253.187 104.849C252.826 104.855 252.475 104.719 252.205 104.468C252.06 104.321 251.947 104.142 251.874 103.944C251.801 103.746 251.77 103.534 251.783 103.323ZM252.388 103.323C252.369 103.591 252.433 103.859 252.572 104.085C252.671 104.235 252.817 104.343 252.984 104.391C253.017 104.401 253.052 104.407 253.086 104.41C253.113 104.41 253.15 104.419 253.178 104.419C253.212 104.421 253.246 104.418 253.279 104.41C253.314 104.408 253.348 104.402 253.381 104.391C253.545 104.34 253.687 104.232 253.785 104.085C253.921 103.861 253.985 103.597 253.968 103.332C253.987 103.067 253.922 102.802 253.785 102.578C253.687 102.432 253.545 102.324 253.381 102.273C253.348 102.263 253.314 102.257 253.279 102.254C253.243 102.254 253.215 102.245 253.178 102.245C253.147 102.243 253.116 102.246 253.086 102.254C253.052 102.257 253.017 102.263 252.984 102.273C252.819 102.326 252.675 102.433 252.572 102.578C252.431 102.797 252.367 103.06 252.388 103.322V103.323Z" fill="#333333"/>
<path d="M254.971 101.835H256.576V102.331H255.559V103.057H256.531V103.562H255.559V104.811H254.971V101.835Z" fill="#333333"/>
<path d="M256.984 101.835H258.589V102.331H257.572V103.057H258.544V103.562H257.572V104.811H256.984V101.835Z" fill="#333333"/>
<path d="M258.964 104.81V101.835H259.551V104.81H258.964Z" fill="#333333"/>
<path d="M262.339 101.902V102.418C262.237 102.379 262.133 102.35 262.027 102.332C261.909 102.312 261.789 102.303 261.669 102.304C261.539 102.295 261.409 102.317 261.289 102.368C261.168 102.419 261.06 102.498 260.972 102.599C260.804 102.802 260.715 103.065 260.725 103.334C260.715 103.593 260.796 103.848 260.953 104.048C261.035 104.146 261.137 104.224 261.251 104.275C261.366 104.326 261.49 104.35 261.614 104.344C261.715 104.344 261.815 104.334 261.935 104.325C262.06 104.307 262.184 104.272 262.301 104.22L262.337 104.726C262.314 104.737 262.289 104.746 262.264 104.754C262.227 104.764 262.191 104.773 262.145 104.783C262.071 104.802 261.98 104.811 261.87 104.83C261.76 104.84 261.649 104.849 261.53 104.849H261.439C261.105 104.826 260.787 104.692 260.531 104.468C260.386 104.329 260.274 104.156 260.203 103.965C260.131 103.773 260.102 103.567 260.118 103.362C260.107 103.153 260.136 102.945 260.206 102.75C260.275 102.554 260.383 102.376 260.522 102.227C260.818 101.949 261.207 101.805 261.604 101.826C261.724 101.826 261.834 101.826 261.925 101.836C262.027 101.845 262.118 101.864 262.219 101.883C262.237 101.893 262.265 101.893 262.283 101.902C262.292 101.898 262.301 101.895 262.311 101.895C262.32 101.895 262.33 101.898 262.338 101.902H262.339Z" fill="#333333"/>
<path d="M262.715 101.835H264.421V102.302H263.293V103.046H264.32V103.504H263.293V104.343H264.421V104.81H262.715V101.835Z" fill="#333333"/>
<path d="M257.528 65.3564H247.586V66.2864H257.528V65.3564Z" fill="#AACBE8"/>
<path d="M261.028 65.813C261.028 66.2357 260.69 66.5908 260.25 66.5908C259.811 66.5908 259.473 66.2526 259.473 65.813C259.473 65.3902 259.811 65.0352 260.25 65.0352C260.69 65.0352 261.028 65.3902 261.028 65.813Z" fill="#AACBE8"/>
<path d="M255.077 132.927H250.021C248.787 132.927 247.772 131.913 247.772 130.679C247.772 129.444 248.787 128.43 250.021 128.43H255.077C256.312 128.43 257.326 129.444 257.326 130.679C257.326 131.93 256.312 132.927 255.077 132.927Z" fill="#AACBE8"/>
<path d="M404.131 47.2139C382.081 55.8036 366.086 42.5131 364.462 41.0928C364.462 41.0928 346.691 55.8036 324.641 47.2139C324.641 47.2139 319.738 74.1669 330.763 99.5304C341.737 124.759 355.602 132.52 364.31 137.068C364.31 137.068 385.091 127.599 396.065 102.371C407.09 77.0245 404.131 47.2139 404.131 47.2139Z" fill="#D5EAF5"/>
<path d="M364.275 132.216C364.157 132.216 364.039 132.182 363.92 132.131C356.92 128.496 343.9 121.749 333.805 98.6175C324.049 76.2637 328.276 52.2191 328.327 51.9824C328.36 51.7626 328.513 51.5596 328.716 51.4413C328.918 51.3229 329.155 51.306 329.375 51.3905C348.296 58.7291 363.768 46.2333 363.92 46.1149C364.208 45.8782 364.63 45.8782 364.918 46.1318C366.423 47.4508 380.237 58.7967 399.328 51.4075C399.548 51.3229 399.801 51.3398 400.004 51.4751C400.207 51.5935 400.342 51.8133 400.376 52.05C400.41 52.3206 402.912 78.817 393.173 101.137C388.083 112.787 380.609 120.582 375.232 125.08C369.399 129.967 364.816 132.064 364.613 132.148C364.495 132.199 364.394 132.216 364.275 132.216ZM329.696 53.1829C329.037 57.7484 326.72 78.5465 335.226 98.0088C344.948 120.261 357.393 127.008 364.292 130.592C366.812 129.341 382.96 120.616 391.752 100.511C400.275 81.0152 399.26 58.2218 398.922 53.1998C380.812 59.7098 367.403 50.1393 364.394 47.7044C363.125 48.6513 359.541 51.12 354.35 52.98C348.567 55.0767 339.656 56.7507 329.696 53.1829Z" fill="white"/>
<path d="M364.36 50.9336C364.36 50.9336 350.156 62.6346 332.554 55.8034C332.554 55.8034 328.631 77.2272 337.441 97.3996C346.2 117.454 357.292 123.626 364.242 127.244C364.259 127.227 365.662 52.0496 364.36 50.9336Z" fill="white"/>
<path d="M351.682 137.069H293.363C289.812 137.069 286.938 134.194 286.938 130.643V81.5563C286.938 78.0054 289.812 75.1309 293.363 75.1309H351.682C355.233 75.1309 358.108 78.0054 358.108 81.5563V130.643C358.125 134.194 355.233 137.069 351.682 137.069Z" fill="#FF9A2E"/>
<path d="M343.209 137.069H287.004C283.453 137.069 280.578 134.194 280.578 130.643V81.5563C280.578 78.0054 283.453 75.1309 287.004 75.1309H343.209C346.76 75.1309 349.635 78.0054 349.635 81.5563V130.643C349.635 134.194 346.76 137.069 343.209 137.069Z" fill="#FFCB48"/>
<path d="M323.695 115.712L319.214 101.965C319.129 101.711 319.248 101.441 319.484 101.305C321.683 99.9866 323.12 97.7208 323.052 95.1337C322.951 91.363 319.586 88.2517 315.409 88.1164C310.878 87.9642 307.141 91.2446 307.141 95.3028C307.141 97.9575 308.73 100.274 311.098 101.525C311.334 101.644 311.453 101.914 311.368 102.151L306.498 115.763C306.414 116.016 306.617 116.287 306.921 116.287H323.221C323.56 116.27 323.796 115.983 323.695 115.712Z" fill="#FF9A2E"/>
<path d="M319.584 102.016C319.499 101.745 319.601 101.441 319.837 101.272C321.799 99.9866 323.101 97.7884 323.101 95.2859C323.101 94.5081 322.966 93.7472 322.729 93.037C320.615 86.713 311.095 87.8967 310.504 94.5419C310.487 94.7448 310.47 94.9646 310.47 95.1675C310.47 97.8561 311.975 100.206 314.207 101.441C314.376 101.525 314.46 101.728 314.393 101.897L309.692 116.253H323.321C323.574 116.253 323.76 116.016 323.676 115.763L319.584 102.016Z" fill="#3B2B5B"/>
<path d="M345.255 75.1139H338.068V59.287C338.068 48.8879 329.8 40.4334 319.62 40.4334C309.441 40.4334 301.173 48.8879 301.173 59.287V75.1139H293.986V59.287C293.986 44.9312 305.484 33.2471 319.62 33.2471C333.756 33.2471 345.255 44.9312 345.255 59.287V75.1139Z" fill="#AACBE8"/>
<path d="M297.571 67.5728C297.284 65.7635 297.115 63.9711 296.946 62.1619L296.743 59.4564C296.709 58.9999 296.726 58.5264 296.709 58.053C296.709 57.5795 296.675 57.106 296.726 56.6495C296.962 52.8957 298.214 49.1588 300.294 45.9799C302.424 42.8348 305.366 40.2139 308.765 38.5737C312.181 36.9674 316.002 36.3079 319.621 36.8152C316.019 37.3732 312.671 38.5399 309.729 40.3492C306.803 42.1585 304.335 44.5934 302.424 47.4003C300.564 50.241 299.296 53.4706 298.721 56.8693C298.586 57.7148 298.518 58.5771 298.417 59.4564L298.214 62.1619C298.028 63.9711 297.859 65.7804 297.571 67.5728Z" fill="#D5EAF5"/>
<path d="M239.961 132.571H203.353V108.949C203.353 108.222 203.928 107.63 204.655 107.63H217.878C218.554 107.63 219.112 108.154 219.18 108.83L219.298 110.217H239.099C239.572 110.217 239.961 110.606 239.961 111.079V132.571Z" fill="#FF9A2E"/>
<path d="M238.911 111.35H204.637V126.179H238.911V111.35Z" fill="white"/>
<path d="M238.929 137.068H204.265C203.657 137.068 203.149 136.595 203.116 135.969L201.898 117.268C201.847 116.574 202.405 115.983 203.082 116H222.307L225.52 113.717L240.468 113.835C241.161 113.835 241.702 114.444 241.634 115.137L240.062 135.986C240.028 136.595 239.521 137.068 238.929 137.068Z" fill="#FFCB48"/>
<path d="M327.28 86.0535C327.06 85.5801 327.753 85.411 328.125 85.2081C328.041 85.3095 327.939 85.4448 328.125 85.4448C328.396 85.4448 328.903 85.2081 329.005 84.9883C329.106 85.1066 329.174 85.2757 329.208 85.411C329.241 85.5463 327.331 86.1888 327.28 86.0535Z" fill="#30193B"/>
<path d="M328.109 85.4448C327.923 85.4448 327.838 85.3433 328.092 85.2249C328.311 85.1235 328.464 84.9882 328.497 84.9544C328.582 84.8699 328.582 84.6838 328.582 84.6838L328.785 84.6162C328.785 84.6162 328.971 84.9375 328.988 84.9713C328.886 85.1911 328.379 85.4279 328.109 85.4448Z" fill="#FF97A6"/>
<path d="M331.184 88.3189C330.897 87.8793 331.556 87.6087 331.894 87.3551C331.827 87.4735 331.742 87.6087 331.928 87.5918C332.182 87.5411 332.655 87.2367 332.723 87C332.841 87.1015 332.926 87.2705 332.993 87.3889C333.044 87.5242 331.269 88.4373 331.184 88.3189Z" fill="#30193B"/>
<path d="M331.912 87.5752C331.726 87.609 331.641 87.5245 331.861 87.3723C332.064 87.237 332.199 87.0679 332.233 87.0341C332.317 86.9327 332.267 86.7636 332.267 86.7636L332.453 86.6621C332.453 86.6621 332.689 86.9496 332.706 86.9834C332.639 87.2201 332.182 87.5414 331.912 87.5752Z" fill="#FF97A6"/>
<path d="M337.204 68.9761C337.204 68.9761 333.653 68.249 333.585 68.2659C333.349 68.5703 331.692 70.9375 331.692 70.9375C331.692 70.9375 327.397 71.4448 326.129 72.9666C324.691 74.6744 327.701 83.9237 328.344 84.5493C328.547 84.7522 328.783 84.6339 328.783 84.6339C329.02 84.1435 329.392 79.1553 329.426 78.2084C329.493 76.2808 329.392 75.0295 329.392 75.0295L333.805 74.8604C334.583 75.0972 337.204 68.9761 337.204 68.9761Z" fill="#3B2B5B"/>
<path d="M335.666 68.418H337.915C340.621 74.742 338.93 75.2154 338.034 75.8748C337.442 76.3145 333.722 77.2614 333.722 77.2614C333.722 77.2614 332.961 86.7135 332.673 86.7474C332.352 86.7812 332.065 86.9165 331.845 86.8319C331.811 86.815 329.021 76.4498 330.594 74.6574C330.999 74.2009 333.671 72.7129 333.739 72.3916C333.975 71.1403 335.666 68.418 335.666 68.418Z" fill="#30193B"/>
<path d="M338.946 70.6163C339.436 69.3481 340.332 66.8118 340.451 65.7972C340.518 65.3069 340.67 64.2754 339.977 63.8527C339.622 63.6498 336.764 62.5338 335.378 62.872C334.769 63.0241 333.67 64.7151 333.433 65.3914C332.909 66.9809 332.774 67.8263 332.774 69.3481C332.791 69.9399 338.489 71.783 338.946 70.6163Z" fill="#357A5F"/>
<path d="M337.204 62.2629C337.204 62.2629 337.12 63.0915 337.204 63.176C337.289 63.2606 337.61 63.3451 337.762 63.1084C337.914 62.8886 337.661 62.1953 337.661 62.1953L337.204 62.2629Z" fill="#FF97A6"/>
<path d="M337.17 62.8719C337.356 62.9226 337.61 62.7874 337.796 62.6183C337.779 62.4661 337.762 62.5168 337.728 62.3984L337.187 62.4661C337.187 62.5675 337.17 62.7197 337.17 62.8719Z" fill="#C95D77"/>
<path d="M338.167 61.8571C338.201 61.7388 338.15 61.2991 338.1 60.944C338.049 60.6397 337.761 60.4537 337.474 60.5044C337.017 60.5889 336.51 60.7242 336.392 60.8257C336.189 60.9948 336.24 61.316 336.256 61.5358C336.273 61.7726 336.409 62.1784 336.561 62.3475C336.713 62.4997 337.102 62.618 337.322 62.5842C337.947 62.4997 338.1 62.3137 338.167 61.8571Z" fill="#FF97A6"/>
<path d="M337.222 60.0642C337.171 60.0303 337.188 60.0303 337.12 60.0134C337.086 59.9965 337.052 60.0642 337.086 60.0811C337.154 60.1149 337.137 60.098 337.205 60.1149C337.222 60.098 337.238 60.0811 337.222 60.0642Z" fill="#FF5E4D"/>
<path d="M338.303 59.625C338.337 59.5067 338.387 59.3883 338.438 59.2869C338.455 59.2531 338.421 59.2192 338.387 59.2192C338.252 59.2192 338.134 59.2361 338.015 59.2869C338.032 59.2361 338.066 59.2023 338.083 59.1516C338.1 59.1178 338.049 59.067 338.015 59.084C337.796 59.1685 337.576 59.3207 337.424 59.5067C336.899 59.084 336.324 58.9318 335.665 59.0332C335.597 59.0332 335.597 59.1347 335.665 59.1516C336.257 59.3038 335.614 59.2531 335.445 59.2869C335.31 59.3207 335.208 59.3545 335.09 59.4221C334.786 59.5574 334.566 59.7772 334.329 59.997C334.279 60.0478 334.346 60.1154 334.414 60.0816C334.718 59.9294 335.006 59.8787 335.293 59.9632C335.394 59.9632 335.428 59.9801 335.378 59.9801C335.361 59.997 335.006 60.1492 334.989 60.1661C334.938 60.2 334.955 60.2676 335.006 60.2845C335.547 60.4367 335.682 60.8087 336.291 60.8087C336.544 60.8087 336.815 60.7241 337.052 60.6734C337.559 60.4874 337.779 60.6058 337.982 61.0792C338.049 61.2483 338.1 61.4174 338.168 61.6034C338.201 61.6879 338.269 61.7387 338.37 61.5189C338.523 61.0285 338.523 60.183 338.303 59.625Z" fill="#80540A"/>
<path d="M338.034 59.2868L338.101 59.1684C338.135 59.1346 338.101 59.0839 338.067 59.0839C337.983 59.1008 337.915 59.1515 337.848 59.1853C337.712 59.2699 337.577 59.3882 337.476 59.5235C337.476 59.5235 337.459 59.5404 337.459 59.5235C337.12 59.253 336.715 59.067 336.275 59.0501C336.174 59.0501 336.055 59.0501 335.954 59.0501C335.903 59.0501 335.852 59.0501 335.802 59.067L335.717 59.0839C335.7 59.0839 335.683 59.1008 335.683 59.1008C335.683 59.1177 335.683 59.1346 335.7 59.1346C335.717 59.1346 335.751 59.1515 335.768 59.1515C335.818 59.1684 335.869 59.1853 335.937 59.2022L335.954 59.2191C335.954 59.2191 335.988 59.253 335.971 59.2699C335.971 59.2868 335.954 59.2868 335.954 59.2868H335.937H335.92C335.886 59.2868 335.869 59.2868 335.835 59.2868H335.666C335.446 59.2868 335.26 59.3713 335.058 59.4728C334.872 59.5742 334.702 59.7095 334.55 59.8617L334.432 59.98C334.381 60.0308 334.364 60.0308 334.398 60.0646C334.415 60.0815 334.466 60.0308 334.517 60.0139C334.567 59.997 334.618 59.9631 334.669 59.9462C334.872 59.8786 335.108 59.8786 335.328 59.9293H335.396C335.413 59.9293 335.413 59.9293 335.43 59.9293C335.43 59.9293 335.43 59.9293 335.447 59.9293C335.447 59.9293 335.446 59.9293 335.463 59.9462C335.463 59.9631 335.463 59.9631 335.447 59.9631C335.43 59.9801 335.43 59.9631 335.43 59.98H335.413L335.43 59.9631C335.345 60.0139 335.277 60.0477 335.193 60.0815L335.075 60.1322C335.041 60.1491 335.007 60.1661 335.007 60.1999C335.007 60.2337 335.041 60.2506 335.075 60.2506C335.108 60.2675 335.159 60.2844 335.193 60.3013C335.277 60.3351 335.345 60.369 335.413 60.4197C335.548 60.5042 335.683 60.6057 335.835 60.6902C335.988 60.7579 336.14 60.7917 336.309 60.8086C336.14 60.8086 335.971 60.7917 335.818 60.7071C335.666 60.6395 335.531 60.538 335.396 60.4535C335.328 60.4197 335.261 60.369 335.176 60.352C335.142 60.3351 335.091 60.3182 335.058 60.3182C335.024 60.3182 334.956 60.2844 334.956 60.2168C334.956 60.1491 335.024 60.1322 335.041 60.1153L335.159 60.0646C335.227 60.0308 335.311 59.997 335.379 59.9631L335.396 59.9462H335.413C335.413 59.9462 335.413 59.9462 335.413 59.9631C335.413 59.9801 335.413 59.98 335.413 59.98C335.413 59.98 335.396 59.98 335.379 59.98H335.311C335.108 59.9293 334.888 59.9293 334.686 59.997C334.635 60.0139 334.584 60.0308 334.533 60.0477L334.466 60.0815C334.449 60.0984 334.398 60.1153 334.364 60.0984C334.331 60.0815 334.297 60.0477 334.314 59.997C334.33 59.9462 334.364 59.9462 334.381 59.9293L334.5 59.811C334.804 59.5066 335.21 59.2361 335.649 59.2191H335.818C335.852 59.2191 335.869 59.2191 335.903 59.2191H335.92C335.92 59.2191 335.92 59.2192 335.903 59.2361C335.886 59.2361 335.92 59.2699 335.903 59.253H335.886C335.835 59.2361 335.785 59.2191 335.734 59.2022C335.7 59.1853 335.683 59.1853 335.649 59.1853C335.616 59.1684 335.599 59.1177 335.599 59.0839C335.599 59.0501 335.649 59.0162 335.683 59.0162L335.768 58.9993C335.818 58.9993 335.869 58.9824 335.937 58.9824C336.038 58.9824 336.157 58.9824 336.258 58.9824C336.698 59.0162 337.12 59.2022 337.459 59.4897H337.442C337.543 59.3544 337.678 59.253 337.831 59.1684C337.898 59.1346 337.983 59.0839 338.067 59.067C338.118 59.067 338.135 59.1346 338.101 59.1684L338.034 59.2868Z" fill="#A87C1B"/>
<path d="M337.323 63.5649C337.323 63.5649 336.613 68.1811 334.601 70.3116C334.601 70.3116 336.291 71.2754 338.828 70.3116C341.364 69.3478 340.113 64.5625 340.113 64.5625C340.113 64.5625 339.386 63.5649 339.335 63.548C338.997 63.4127 337.661 63.0576 337.661 63.0576L337.323 63.5649Z" fill="#1F6864"/>
<path d="M337.02 63.3281L337.121 63.717L337.307 63.7508L337.662 63.4295C337.662 63.4464 337.341 63.0744 337.02 63.3281Z" fill="#3B2B5B"/>
<path d="M337.322 63.565C337.322 63.565 337.355 66.2705 337.305 67.1667C337.271 68.0628 337.051 68.2658 337.051 68.2658L336.239 68.587L335.665 67.8938C335.665 67.8938 336.848 63.9032 337.186 63.565C337.525 63.21 337.322 63.565 337.322 63.565Z" fill="#3B2B5B"/>
<path d="M337.188 62.6689C337.188 62.6689 337.137 62.9733 337.374 63.2438L337.019 63.5482C337.002 63.5482 336.664 63.3115 337.188 62.6689Z" fill="#1F6864"/>
<path d="M337.797 62.7021C337.797 62.7021 337.949 62.8543 337.323 63.2432L337.526 63.7167C337.526 63.7167 338.017 63.4123 337.983 63.1418C337.983 63.0234 337.915 62.8543 337.797 62.7021Z" fill="#357A5F"/>
<path d="M338.997 63.4629C338.997 63.4629 339.91 63.6151 340.468 64.3252C340.739 64.6634 340.84 65.1538 340.908 65.7794C341.009 66.7771 340.975 68.1467 340.84 68.8907C340.671 69.77 339.893 69.9221 339.048 69.584C339.048 69.584 339.927 66.236 339.437 64.6127C339.234 63.8687 338.997 63.4629 338.997 63.4629Z" fill="#1F6864"/>
<path d="M333.52 67.7747C333.655 66.9631 333.841 66.1853 334.094 65.4075C334.348 64.6466 334.652 63.8857 335.075 63.1924C334.703 63.9026 334.45 64.6804 334.264 65.4413C334.078 66.2191 333.925 67.0138 333.858 67.7916L333.52 67.7747Z" fill="#1F6864"/>
<path d="M336.985 71.6133L336.901 72.222L333.773 73.3042L331.27 72.9153L333.874 72.5095L336.985 71.6133Z" fill="#6B54B2"/>
<path d="M325.689 71.4447L333.755 72.5438L336.985 71.6138L325.825 70.2441L325.689 71.4447Z" fill="#AACBE8"/>
<path d="M325.605 72.053L333.772 73.3043L333.451 66.6759L325.183 65.915L325.605 72.053Z" fill="#7F65C1"/>
<path d="M334.076 73.1187L333.755 73.3047L333.45 66.6764L333.805 66.6426L334.076 73.1187Z" fill="#6B54B2"/>
<path d="M333.806 66.6421L325.842 65.915H325.183L333.451 66.6759L333.806 66.6421Z" fill="#6B54B2"/>
<path d="M335.768 71.1907C335.802 71.2415 335.785 71.3091 335.751 71.3429C335.633 71.4275 335.65 71.4782 335.43 71.6304C335.43 71.6304 334.686 71.9516 334.348 71.7995C334.348 71.7995 334.246 71.7656 334.178 71.6642C334.162 71.6304 334.534 71.4613 334.534 71.4613C334.534 71.4613 334.094 71.5796 334.111 71.4951C334.128 71.4106 334.652 71.1062 334.872 71.0724C334.872 71.0724 334.618 71.0893 334.618 71.0047C334.618 70.9202 335.092 70.8525 335.261 70.9202C335.261 70.9202 335.447 70.9371 335.531 70.9202C335.616 70.954 335.717 71.0893 335.768 71.1907Z" fill="#FF97A6"/>
<path d="M335.21 70.565C335.176 70.4297 339.065 68.7557 339.488 68.5866C339.894 68.4344 340.993 68.1639 340.807 69.0431C340.739 69.3813 340.114 70.1422 339.336 70.7679C338.017 71.85 335.785 73.4395 335.21 70.565Z" fill="#1F6864"/>
<path d="M335.21 70.5656C335.869 70.1936 336.529 69.8385 337.205 69.4834C337.882 69.1452 338.558 68.8071 339.234 68.4858L339.167 68.5534C339.319 68.0123 339.437 67.4712 339.522 66.9132C339.606 66.3553 339.657 65.7973 339.572 65.2393C339.657 65.5098 339.691 65.7973 339.708 66.0847C339.725 66.3722 339.708 66.6596 339.691 66.9471C339.64 67.522 339.539 68.08 339.403 68.638C339.403 68.6718 339.37 68.6887 339.353 68.7056C338.676 69.0438 338 69.3651 337.307 69.6863C336.613 69.9738 335.92 70.2782 335.21 70.5656Z" fill="#357A5F"/>
<path d="M368.592 141.245C368.474 140.687 369.438 140.687 369.996 140.501C369.827 140.619 369.658 140.772 369.928 140.839C370.317 140.941 371.163 140.805 371.416 140.518C371.518 140.738 371.552 141.025 371.552 141.228C371.552 141.499 368.694 141.752 368.592 141.245Z" fill="#30193B"/>
<path d="M369.926 140.856C369.655 140.789 369.824 140.619 369.993 140.518C370.349 140.4 370.636 140.315 370.704 140.281C370.873 140.197 370.923 140.045 370.923 140.045L371.092 140.011C371.092 140.011 371.397 140.484 371.414 140.535C371.16 140.805 370.315 140.958 369.926 140.856Z" fill="#FF97A6"/>
<path d="M389.251 141.465C389.285 140.856 388.49 140.924 387.983 140.738C388.135 140.839 388.287 140.992 388.033 141.059C387.678 141.144 386.883 140.992 386.681 140.704C386.579 140.89 386.545 141.161 386.545 141.347C386.511 141.6 389.217 141.922 389.251 141.465Z" fill="#30193B"/>
<path d="M388.033 141.059C388.286 141.009 388.134 140.856 387.982 140.738C387.661 140.62 387.39 140.535 387.339 140.501C387.187 140.417 387.153 140.265 387.153 140.265L386.984 140.214C386.984 140.214 386.697 140.637 386.663 140.687C386.883 140.975 387.661 141.144 388.033 141.059Z" fill="#FF97A6"/>
<path d="M371.785 99.6657C371.768 99.7671 368.995 103.132 368.437 105.736C366.746 113.616 370.906 140.011 370.906 140.011L371.819 139.706L375.184 109.27L386.022 140.315L387.324 140.23C387.324 140.23 385.955 126.179 384.822 118.13C384.162 113.379 383.418 106.159 379.174 99.615C377.906 99.3613 373.78 99.5473 371.785 99.6657Z" fill="#7F65C1"/>
<path d="M386.631 140.315L387.325 140.281C387.325 140.281 385.955 126.23 384.822 118.181C384.163 113.43 383.419 106.21 379.175 99.666C378.566 99.5307 377.281 99.4969 375.911 99.5138C375.269 99.5307 377.889 107.596 380.24 116.186C383.385 127.583 386.631 140.315 386.631 140.315Z" fill="#6B54B2"/>
<path d="M371.549 90.1129C370.805 92.5985 370.535 93.613 370.89 97.0118C370.991 98.0094 379.953 100.14 380.156 99.6158C380.223 99.4298 380.781 97.9418 381.086 97.1639C382.523 93.3932 383.013 92.311 382.692 90.7723C382.472 89.7071 382.455 88.4896 377.298 87.1031C375.675 86.6634 374.373 86.9509 373.798 87.2214C372.75 87.678 371.854 89.0814 371.549 90.1129Z" fill="#F9CB9D"/>
<path d="M376.74 86.9839C376.74 86.9839 375.32 89.1821 374.694 91.8707C374.034 94.6945 374.187 98.0256 374.288 98.5497C374.288 98.5497 372.073 98.1946 371.092 97.3492C370.94 97.2308 370.856 97.0448 370.839 96.8588C370.737 95.7428 370.45 91.2112 371.786 88.827C373.307 86.0878 376.74 86.9839 376.74 86.9839Z" fill="#FFE5B0"/>
<path d="M378.448 97.3155C378.753 96.3686 379.75 93.2911 379.75 93.2911C379.75 93.2911 380.748 87.4068 382.388 89.8755C383.521 91.5664 381.796 96.9266 380.038 99.8687C379.412 100.951 377.738 99.4798 378.448 97.3155Z" fill="#F9CB9D"/>
<path d="M377.214 97.3154C377.214 97.3154 369.723 97.6029 369.284 98.6682C368.861 99.7165 369.842 100.917 371.854 101.475C372.733 101.712 378.263 102.506 379.92 100.055C381.458 97.7551 377.214 97.3154 377.214 97.3154Z" fill="#F9CB9D"/>
<path d="M376.976 85.4795C376.976 85.4795 376.486 86.9675 376.604 87.1535C376.722 87.3395 377.196 87.6269 377.534 87.2888C377.872 86.9506 377.754 85.5809 377.754 85.5809L376.976 85.4795Z" fill="#FF97A6"/>
<path d="M376.688 86.4437C376.975 86.6128 377.617 86.5621 377.787 86.2915C377.837 86.021 377.787 86.1731 377.77 85.9364L376.857 85.835C376.806 86.021 376.755 86.1901 376.688 86.4437Z" fill="#C95D77"/>
<path d="M379.784 97.7891L379.615 98.6683L375.032 99.9196L371.464 99.1418L375.252 98.8036L379.784 97.7891Z" fill="#30193B"/>
<path d="M363.567 96.5047L375.066 98.855L379.783 97.7898L363.906 94.7969L363.567 96.5047Z" fill="#295A6E"/>
<path d="M363.414 97.3669L375.031 99.9201L375.183 90.4003L363.364 88.5234L363.414 97.3669Z" fill="#3B2B5B"/>
<path d="M375.505 99.7L375.032 99.9198L375.184 90.4L375.725 90.3662L375.505 99.7Z" fill="#30193B"/>
<path d="M375.707 90.3665L364.328 88.5742L363.364 88.5234L375.183 90.4003L375.707 90.3665Z" fill="#30193B"/>
<path d="M368.776 98.8883C368.607 98.6515 368.556 98.3134 368.607 98.1104C368.64 97.9752 368.725 97.9583 368.725 97.9583C368.725 97.9583 368.708 97.7723 368.843 97.7892C368.928 97.7892 369.063 98.1612 369.249 98.381C369.351 98.5163 369.503 98.6346 369.604 98.7192C369.604 98.7192 369.537 98.3641 369.655 98.3641C369.756 98.3641 369.824 98.7868 369.875 99.0066C369.875 99.1926 368.996 99.2095 368.776 98.8883Z" fill="#FF97A6"/>
<path d="M369.487 98.6351C369.318 98.2969 369.183 97.7558 369.098 97.7896C368.963 97.8403 368.997 98.0432 369.098 98.3307C369.183 98.6181 369.487 98.6351 369.487 98.6351Z" fill="#FF97A6"/>
<path d="M375.842 87.1533C375.217 87.7282 373.593 89.1823 371.192 89.0133C369.011 88.8611 366.61 89.1316 364.919 86.1725C363.955 84.4985 366.339 85.2595 366.339 85.2595L371.818 86.2571C371.818 86.2571 376.552 86.5276 375.842 87.1533Z" fill="#FFE5B0"/>
<path d="M367.204 88.3881C365.31 88.033 360.981 80.779 362.824 78.5301C363.517 77.7016 364.211 77.8707 364.211 77.8707L369.233 86.1223C369.25 86.1392 369.334 88.8108 367.204 88.3881Z" fill="#FFE5B0"/>
<path d="M363.735 78.2593C363.668 78.31 363.583 78.3269 363.515 78.2931C363.346 78.2086 362.941 77.9888 362.619 77.8366C362.619 77.8366 362.129 77.5829 362.129 77.2786C362.129 77.2786 362.197 77.1771 362.315 77.2955C362.315 77.2955 362.061 76.9404 362.163 76.822C362.247 76.7037 362.416 76.8051 362.416 76.8051C362.416 76.8051 362.788 77.1095 363.042 77.2109C363.245 77.2955 363.313 77.3124 363.397 77.2617C363.397 77.2617 363.228 76.9911 363.346 76.9573C363.465 76.9235 363.82 77.4308 363.82 77.6337C363.82 77.6337 363.887 77.8535 363.955 77.938C363.989 77.9888 363.871 78.1578 363.735 78.2593Z" fill="#FFA9BA"/>
<path d="M378.447 97.3162C378.599 96.6567 378.785 95.9972 378.988 95.3547C379.174 94.7122 379.394 94.0696 379.614 93.4271C379.851 92.7845 380.054 92.142 380.324 91.5164C380.459 91.212 380.595 90.8907 380.764 90.5864C380.848 90.4342 380.933 90.282 381.017 90.1467C381.102 90.0115 381.203 89.8424 381.339 89.7578C381.119 90.0114 381.017 90.3496 380.899 90.654C380.781 90.9753 380.662 91.2796 380.561 91.6009L379.918 93.5285C379.699 94.1711 379.462 94.8136 379.225 95.4393C378.988 96.0649 378.735 96.6905 378.447 97.3162Z" fill="#FCD9BB"/>
<path d="M376.048 81.8945C376.048 81.8945 375.727 84.0251 375.845 84.7353C375.946 85.4454 377.418 82.8583 377.418 82.8583L376.048 81.8945Z" fill="#FFCB48"/>
<path d="M378.245 85.8344C378.499 85.6315 378.922 84.4817 378.922 84.4817C379.04 83.6024 377.197 83.112 376.859 83.1628C376.487 83.2135 376.284 83.6193 376.132 83.9237C375.98 84.228 375.811 84.8198 375.861 85.158C375.912 85.4793 376.318 85.9189 376.605 86.0373C377.451 86.4431 377.789 86.3417 378.245 85.8344Z" fill="#FF97A6"/>
<path d="M380.003 82.4697C380.054 82.4697 380.934 83.0446 380.595 83.7717C380.257 84.4819 378.245 85.8853 378.245 85.8853C378.245 85.8853 379.107 84.1775 378.144 83.535C377.569 83.163 380.003 82.4697 380.003 82.4697Z" fill="#FFCB48"/>
<path d="M378.128 83.5353C378.128 83.5353 375.659 83.5691 375.084 81.4555C374.526 79.3249 375.997 78.4795 375.997 78.4795C375.997 78.4795 375.811 79.7477 376.251 80.2888C376.251 80.2888 376.539 79.5448 376.792 79.4264C376.792 79.4264 376.741 80.3902 377.232 80.8298C377.722 81.2695 380.157 81.0158 380.242 82.3178C380.309 83.6198 378.128 83.5353 378.128 83.5353Z" fill="#FFCB48"/>
<path d="M375.083 81.4381C375.049 81.3028 374.998 81.1676 374.964 81.0323C374.947 80.897 374.914 80.7618 374.914 80.6096C374.897 80.3221 374.914 80.0347 374.964 79.7641C375.032 79.4936 375.15 79.223 375.302 78.9694C375.472 78.7327 375.658 78.5129 375.911 78.3438C375.962 78.3099 376.046 78.3269 376.08 78.3776C376.097 78.3945 376.097 78.4283 376.097 78.4621V78.479C376.063 78.7665 376.046 79.0878 376.08 79.3752C376.114 79.6627 376.182 79.967 376.334 80.1699L376.097 80.2038C376.165 80.0347 376.232 79.8825 376.317 79.7134C376.368 79.6288 376.418 79.5612 376.469 79.4767C376.537 79.409 376.588 79.3245 376.706 79.2569C376.774 79.223 376.858 79.2569 376.892 79.3245C376.909 79.3414 376.909 79.3752 376.909 79.3921V79.409C376.892 79.7979 376.96 80.2376 377.162 80.5588C377.264 80.7279 377.399 80.7956 377.602 80.8632C377.788 80.9308 378.008 80.9647 378.211 81.0154C378.634 81.0999 379.056 81.1676 379.462 81.3536C379.665 81.4381 379.851 81.5565 380.003 81.7256C380.155 81.8947 380.223 82.1145 380.24 82.3174C380.206 82.1145 380.122 81.9116 379.952 81.7763C379.8 81.641 379.614 81.5396 379.411 81.4888C379.022 81.3536 378.6 81.3028 378.177 81.2352C377.974 81.2014 377.754 81.1845 377.534 81.1168C377.433 81.083 377.315 81.0492 377.213 80.9816C377.095 80.9139 377.027 80.8125 376.96 80.7279C376.706 80.3221 376.638 79.8656 376.638 79.4259L376.841 79.5612C376.807 79.5781 376.757 79.6289 376.706 79.6965C376.655 79.7641 376.621 79.8318 376.588 79.8994C376.503 80.0347 376.435 80.2038 376.368 80.339C376.334 80.4067 376.266 80.4405 376.182 80.4067C376.165 80.3898 376.131 80.3729 376.131 80.3559C375.911 80.0516 375.86 79.7134 375.827 79.3921C375.81 79.0709 375.827 78.7496 375.86 78.4283L376.046 78.5467C375.844 78.6819 375.641 78.8679 375.472 79.0709C375.319 79.2907 375.184 79.5274 375.116 79.781C375.049 80.0347 374.998 80.3052 374.998 80.5758C374.998 80.897 375.032 81.1676 375.083 81.4381Z" fill="#FFE5B0"/>
<path d="M296.065 140.433C295.963 139.875 296.758 140.028 297.214 139.909C297.079 139.994 296.944 140.112 297.147 140.18C297.451 140.281 298.144 140.197 298.347 139.977C298.415 140.146 298.432 140.383 298.432 140.535C298.415 140.738 296.132 140.822 296.065 140.433Z" fill="#3B2B5B"/>
<path d="M297.146 140.163C296.943 140.095 297.078 139.977 297.214 139.892C297.501 139.808 297.738 139.757 297.788 139.74C297.924 139.69 297.974 139.554 297.974 139.554L298.11 139.521C298.11 139.521 298.33 139.893 298.347 139.943C298.144 140.18 297.45 140.264 297.146 140.163Z" fill="#FF97A6"/>
<path d="M308.762 140.366C308.864 139.808 308.069 139.96 307.612 139.842C307.748 139.926 307.883 140.045 307.68 140.112C307.376 140.214 306.682 140.129 306.48 139.909C306.412 140.079 306.395 140.315 306.395 140.467C306.412 140.67 308.695 140.772 308.762 140.366Z" fill="#3B2B5B"/>
<path d="M307.681 140.112C307.884 140.045 307.749 139.926 307.613 139.842C307.326 139.757 307.089 139.706 307.038 139.69C306.903 139.639 306.852 139.504 306.852 139.504L306.717 139.47C306.717 139.47 306.497 139.842 306.48 139.892C306.683 140.129 307.377 140.197 307.681 140.112Z" fill="#FF97A6"/>
<path d="M299.446 113.632C299.446 113.7 298.533 115.019 297.89 116.777C296.876 119.516 297.451 136.544 297.856 139.469C297.907 139.858 298.854 139.469 298.871 138.979C299.006 135.901 302.473 119.973 302.473 119.973L306.598 139.672H307.562C307.562 139.672 306.328 113.717 305.871 112.99C304.975 112.77 300.866 113.514 299.446 113.632Z" fill="#3B2B5B"/>
<path d="M295.269 120.311C295.219 120.294 294.61 120.666 294.475 120.92C294.373 121.123 294.255 121.731 294.339 121.799C294.424 121.867 294.458 121.731 294.458 121.731C294.458 121.731 294.475 121.867 294.559 121.85C294.61 121.833 294.694 121.545 294.813 121.359C294.88 121.241 295.016 121.157 295.05 121.072C295.05 121.072 295.033 121.343 295.117 121.343C295.202 121.343 295.337 120.869 295.32 120.717C295.32 120.632 295.371 120.345 295.269 120.311Z" fill="#FF97A6"/>
<path d="M314.443 96.1823C314.595 95.8442 314.409 95.3707 314.122 95.4552C314.088 95.4722 313.953 95.5567 313.851 95.6412C313.767 95.7089 313.699 95.7596 313.699 95.7596C313.699 95.7596 313.885 95.506 313.784 95.4722C313.682 95.4383 313.581 95.5736 313.513 95.692C313.445 95.8103 313.023 96.3852 313.226 96.808C313.192 96.7911 313.327 96.8925 313.378 96.8756C313.648 96.8587 314.291 96.5543 314.443 96.1823Z" fill="#FF97A6"/>
<path d="M314.579 95.1847C314.579 95.1847 314.782 95.1678 314.359 95.5567L313.784 95.7258C313.767 95.7089 314.427 95.2016 314.579 95.1847Z" fill="#FF97A6"/>
<path d="M298.448 139.503C298.668 139.385 298.871 139.182 298.871 138.962C299.006 135.885 302.472 119.956 302.472 119.956L306.598 139.655H307.562C307.562 139.655 306.328 113.7 305.871 112.973C305.364 112.871 303.842 113.057 302.371 113.26C301.221 113.413 298.178 139.655 298.448 139.503Z" fill="#30193B"/>
<path d="M304.704 105.939C304.01 105.432 301.981 104.924 298.464 105.804C298.109 105.888 297.771 106.023 297.45 106.226C297.737 107.41 297.348 109.016 297.348 109.016C297.754 109.777 298.058 110.656 298.261 111.434C298.532 112.432 298.87 114.664 298.87 114.664C298.87 114.664 301.305 114.748 302.472 114.664C303.435 114.596 305.989 113.717 305.989 113.142C305.972 111.992 305.684 110.775 305.329 109.152C304.89 107.292 304.704 105.939 304.704 105.939Z" fill="#ED4235"/>
<path d="M311.332 96.977C310.774 97.6872 308.085 101.931 308.085 101.931C308.085 101.931 308.542 103.656 309.371 103.064C310.284 102.405 311.332 101.373 312.566 100.274C313.784 99.1921 313.547 96.1992 313.547 96.1992C313.547 96.1992 311.89 96.2669 311.332 96.977Z" fill="#ED4235"/>
<path d="M309.115 101.153C309.115 101.153 305.649 103.656 304.753 104.231C304.364 104.484 303.84 104.806 302.318 105.347C301.861 105.516 303.282 105.939 303.028 107.19C304.009 106.869 309.234 103.267 309.994 102.574C310.789 101.88 309.115 101.153 309.115 101.153Z" fill="#ED4235"/>
<path d="M297.467 106.227C296.605 107.055 296.469 107.478 296.114 108.205C295.387 109.676 294.66 114.022 294.575 114.783C294.406 116.22 296.96 113.21 296.96 113.21C296.96 113.21 296.909 112.043 297.67 110.2C297.856 109.761 298.448 108.56 298.448 108.56C298.448 108.56 297.856 107.376 297.467 106.227Z" fill="#FF5E4D"/>
<path d="M294.203 119.669C293.442 118.451 294.744 111.89 295.843 112.973C296.418 113.547 296.959 113.192 296.959 113.192L296.35 119.635C296.35 119.635 295.539 121.833 294.203 119.669Z" fill="#FF5E4D"/>
<path d="M300.645 105.415C300.645 105.415 300.172 105.466 299.918 105.517C299.462 105.584 298.971 105.686 298.447 105.821C298.092 105.905 297.754 106.041 297.433 106.244C297.72 107.427 297.331 109.034 297.331 109.034C297.737 109.794 298.041 110.674 298.244 111.452C298.515 112.449 298.853 114.681 298.853 114.681C298.853 114.681 300.273 114.715 300.764 114.715C301.169 114.715 301.778 114.698 301.778 114.698C301.778 114.698 302.015 113.244 301.863 110.826C301.694 108.188 300.645 105.415 300.645 105.415Z" fill="#FF5E4D"/>
<path d="M300.104 104.468C300.104 104.468 300.104 105.804 300.257 105.905C300.409 106.024 300.933 106.108 301.136 105.719C301.339 105.347 300.848 104.299 300.848 104.299L300.104 104.468Z" fill="#FF97A6"/>
<path d="M300.138 105.432C300.443 105.483 300.832 105.229 301.068 104.874C301.035 104.637 301.035 104.772 300.967 104.586L300.122 104.4C300.122 104.586 300.122 105.212 300.138 105.432Z" fill="#C95D77"/>
<path d="M301.22 106.124L301.068 106.581L300.848 106.615L300.442 106.226C300.442 106.226 300.848 105.803 301.22 106.124Z" fill="#3B2B5B"/>
<path d="M301 106.294C301 106.294 302.269 109.27 302.641 110.267C303.013 111.282 302.877 111.586 302.877 111.586L301.914 112.33L300.831 111.806C300.831 111.806 300.628 106.869 300.831 106.345C301.068 105.82 301 106.294 301 106.294Z" fill="#3B2B5B"/>
<path d="M301.153 105.178C301.153 105.178 301.254 105.448 300.798 106.006L301.221 106.395C301.221 106.395 301.728 105.972 301.153 105.178Z" fill="#FF5E4D"/>
<path d="M300.137 105.347C300.137 105.347 300.137 105.499 300.847 105.989L300.576 106.547C300.559 106.564 299.748 106.26 300.137 105.347Z" fill="#ED4235"/>
<path d="M301.305 103.69C301.305 103.673 301.085 102.269 301.034 102.1C300.966 101.914 300.882 101.644 300.696 101.458C300.341 101.103 299.478 101.137 299.157 101.593C298.988 101.847 298.887 102.54 298.346 102.32C298.346 102.32 298.041 102.05 298.227 102.455C298.447 102.946 298.768 103.03 298.768 103.03C298.768 103.03 299.123 104.603 299.157 104.62C299.191 104.637 301.389 104.146 301.305 103.69Z" fill="#295A6E"/>
<path d="M301.254 103.792C301.254 103.623 301.034 103.2 300.916 102.98C300.865 102.896 300.797 102.828 300.696 102.794C300.172 102.676 299.411 103.183 299.309 103.352C299.174 103.572 299.309 103.842 299.394 104.045C299.478 104.248 300.087 105.212 300.747 104.874C301.44 104.519 301.322 104.231 301.254 103.792Z" fill="#FF97A6"/>
<path d="M299.09 104.333C299.056 104.096 298.836 103.318 298.87 103.318C298.921 103.335 299.191 103.589 299.225 103.606C299.242 103.606 299.614 104.417 299.699 104.519C299.885 104.756 300.257 104.688 300.679 104.553C301.204 104.384 301.204 104.096 301.204 103.876C301.204 103.826 301.204 103.521 301.187 103.437C301.17 103.386 301.237 103.487 301.271 103.521C301.474 103.809 301.728 104.079 301.745 104.536C301.745 105.331 299.378 106.176 299.09 104.333Z" fill="#295A6E"/>
<path d="M298.176 102.27C298.21 102.439 298.294 102.591 298.413 102.692C298.531 102.811 298.666 102.895 298.818 102.963C298.835 102.963 298.852 102.98 298.852 102.997C298.988 103.47 299.106 103.944 299.224 104.417C299.292 104.654 299.326 104.89 299.495 105.06C299.647 105.229 299.884 105.347 300.12 105.415C299.884 105.398 299.63 105.313 299.427 105.144C299.224 104.975 299.14 104.704 299.072 104.468C298.937 103.994 298.818 103.521 298.717 103.03L298.751 103.081C298.599 102.997 298.463 102.878 298.345 102.743C298.227 102.625 298.159 102.439 298.176 102.27Z" fill="#366E7F"/>
<path d="M298.768 102.286C298.853 102.168 298.886 102.033 298.937 101.914C298.988 101.779 299.039 101.644 299.123 101.526C299.208 101.39 299.36 101.306 299.495 101.272C299.647 101.238 299.783 101.221 299.935 101.238C299.664 101.34 299.394 101.424 299.258 101.627C299.174 101.728 299.123 101.847 299.056 101.982C298.971 102.084 298.903 102.219 298.768 102.286Z" fill="#366E7F"/>
<path d="M196.962 115.459C196.962 115.459 197.756 116 199.938 116.102C199.938 116.102 201.595 112.466 202.542 112.669C204.435 113.075 202.795 115.003 202.795 115.003C202.795 115.003 201.257 117.252 199.515 117.116C197.266 116.947 196.421 116.237 196.421 116.119C196.37 115.459 196.962 115.459 196.962 115.459Z" fill="#90B8D6"/>
<path d="M203.201 113.328C203.201 113.328 202.998 112.753 203.032 112.534C203.083 112.229 203.37 111.756 203.404 111.874C203.438 111.976 203.353 112.517 203.421 112.601C203.539 112.736 203.742 113.43 203.201 113.328Z" fill="#FF97A6"/>
<path d="M192.415 136.849C192.347 136.696 191.958 136.561 191.671 136.477C191.755 136.527 191.857 136.612 191.705 136.646C191.502 136.696 191.045 136.646 190.91 136.493C190.859 136.612 190.842 136.764 190.842 136.865C190.842 137.001 192.533 137.085 192.415 136.849Z" fill="#3B2B5B"/>
<path d="M191.687 136.645C191.823 136.612 191.738 136.527 191.653 136.476C191.467 136.426 191.315 136.375 191.281 136.358C191.197 136.324 191.163 136.24 191.163 136.24L191.062 136.223C191.062 136.223 190.909 136.476 190.893 136.493C191.028 136.645 191.484 136.713 191.687 136.645Z" fill="#FF97A6"/>
<path d="M194.865 136.899C194.797 136.747 194.408 136.612 194.121 136.527C194.206 136.578 194.307 136.663 194.155 136.696C193.952 136.764 193.495 136.696 193.36 136.544C193.309 136.663 193.292 136.815 193.292 136.916C193.309 137.068 194.983 137.136 194.865 136.899Z" fill="#3B2B5B"/>
<path d="M194.154 136.714C194.289 136.68 194.205 136.595 194.12 136.545C193.934 136.494 193.782 136.443 193.748 136.426C193.664 136.392 193.63 136.308 193.63 136.308L193.528 136.291C193.528 136.291 193.376 136.545 193.359 136.562C193.495 136.697 193.951 136.764 194.154 136.714Z" fill="#FF97A6"/>
<path d="M192.379 120.193C192.379 120.244 192.125 121.309 191.313 122.256C189.436 124.454 191.026 136.341 191.026 136.341H191.178L193.85 124.049L194.272 127.87L193.495 136.443L193.63 136.409C193.63 136.409 196.64 129.426 196.707 127.532C197.029 119.906 195.879 120.819 195.777 120.21C195.388 120.396 193.139 120.548 192.379 120.193Z" fill="#FF97A6"/>
<path d="M197.179 115.729C196.503 115.357 195.167 114.698 194.22 115.78C193.73 116.338 193.257 118.891 193.257 118.891C193.257 118.891 193.29 118.908 193.257 118.891C192.496 119.432 191.549 119.923 191.177 120.971C190.433 123 190.467 125.621 190.467 125.621C191.43 126.044 192.377 126.281 193.223 126.399C193.781 126.467 194.254 126.551 194.728 126.551C196.216 126.517 196.571 126.416 196.824 126.348C197.315 121.681 196.419 120.548 196.334 119.99C196.571 119.635 198.465 116.457 197.179 115.729Z" fill="#6B54B2"/>
<path d="M197.317 115.645C195.947 114.867 194.966 114.834 194.189 115.73C193.698 116.288 193.242 118.875 193.242 118.875C193.242 118.875 193.276 118.892 193.242 118.875C193.242 118.875 193.817 119.382 194.206 119.551C194.73 119.788 195.66 119.991 196.285 119.974C196.573 119.636 198.619 116.372 197.317 115.645Z" fill="#90B8D6"/>
<path d="M196.302 115.188C195.322 114.867 194.78 115.053 194.189 115.729C193.698 116.287 193.242 118.874 193.242 118.874C193.242 118.874 193.276 118.891 193.242 118.874C193.242 118.874 193.309 118.976 193.597 119.23C194.239 119.771 195.136 119.838 195.136 119.838C195.136 119.838 195.524 119.585 196.032 118.401C196.488 117.37 196.454 115.239 196.302 115.188Z" fill="#AACBE8"/>
<path d="M196.437 114.326C196.437 114.326 195.93 115.324 195.947 115.459C195.964 115.594 196.099 115.831 196.319 115.611C196.539 115.391 196.758 114.445 196.758 114.445L196.437 114.326Z" fill="#FF97A6"/>
<path d="M196.59 113.937C196.59 113.937 196.117 114.951 196.083 115.103C196.049 115.239 196.252 115.441 196.455 115.222C196.675 115.002 196.894 114.055 196.894 114.055L196.59 113.937Z" fill="#C95D77"/>
<path d="M197.485 114.157C197.435 114.259 197.283 113.701 197.063 113.548C197.063 113.548 195.964 114.022 195.964 114.191C195.964 114.191 196.099 113.988 196.217 113.633C196.217 113.633 195.947 114.276 196.048 114.462C196.048 114.462 195.084 114.664 195.22 113.633C195.22 113.633 194.797 113.734 194.645 113.278C194.493 112.821 194.594 112.077 195.524 111.925C196.437 111.79 196.623 112.551 196.505 112.804C196.505 112.838 198.382 112.382 197.485 114.157Z" fill="#FF5E4D"/>
<path d="M197.47 114.427C197.503 114.343 197.487 114.005 197.47 113.717C197.453 113.48 197.233 113.311 197.013 113.328C196.658 113.362 196.252 113.43 196.151 113.514C195.982 113.633 195.999 113.886 195.999 114.055C195.999 114.241 196.066 114.563 196.185 114.715C196.286 114.85 196.59 114.952 196.759 114.952C197.233 114.918 197.368 114.782 197.47 114.427Z" fill="#FF97A6"/>
<path d="M195.135 119.839L193.207 118.892C193.207 118.892 193.241 118.909 193.207 118.892C192.429 119.433 191.465 119.923 191.076 120.971C190.316 123.001 190.349 125.621 190.349 125.621C191.33 126.044 192.294 126.281 193.173 126.399C193.359 126.416 193.714 126.467 193.714 126.467C193.714 126.467 194.526 124.776 194.796 122.443C195.067 119.957 195.135 119.839 195.135 119.839Z" fill="#7F65C1"/>
<path d="M195.523 111.941C195.658 111.941 195.793 111.925 195.912 111.958C196.03 111.992 196.165 112.043 196.25 112.127C196.351 112.212 196.402 112.33 196.436 112.449C196.47 112.567 196.47 112.702 196.436 112.804L196.385 112.922L196.504 112.905C196.69 112.871 196.893 112.855 197.079 112.855C197.265 112.871 197.467 112.922 197.569 113.057C197.687 113.193 197.687 113.396 197.653 113.599C197.62 113.785 197.552 113.987 197.484 114.173C197.586 114.004 197.67 113.818 197.738 113.615C197.755 113.514 197.789 113.413 197.772 113.311C197.772 113.21 197.738 113.091 197.67 113.007C197.603 112.922 197.518 112.855 197.417 112.804C197.315 112.77 197.214 112.736 197.112 112.736C196.909 112.719 196.707 112.736 196.504 112.787L196.571 112.871C196.622 112.719 196.605 112.567 196.571 112.432C196.521 112.297 196.436 112.178 196.335 112.094C196.216 112.009 196.081 111.958 195.946 111.941C195.777 111.908 195.641 111.924 195.523 111.941Z" fill="#F97D73"/>
<path d="M202.863 120.632L203.421 120.818L203.573 120.362L202.914 120.294L202.863 120.632Z" fill="#FF97A6"/>
<path d="M203.201 120.718C203.218 120.768 203.674 120.921 203.725 120.887C203.776 120.836 203.302 120.667 203.302 120.667L203.201 120.718Z" fill="#FF97A6"/>
<path d="M203.339 120.718C203.356 120.768 203.829 120.887 203.88 120.819C203.931 120.768 203.457 120.565 203.457 120.565L203.339 120.718Z" fill="#FF97A6"/>
<path d="M203.456 120.43C203.473 120.481 203.93 120.667 203.98 120.616C204.031 120.565 203.591 120.362 203.591 120.362L203.456 120.43Z" fill="#FF97A6"/>
<path d="M203.439 120.565C203.473 120.633 203.997 120.836 203.997 120.751C203.997 120.701 203.524 120.464 203.524 120.464L203.439 120.565Z" fill="#FF97A6"/>
<path d="M203.167 120.329C203.167 120.329 203.539 120.21 203.573 120.227C203.607 120.244 203.353 120.363 203.353 120.363L203.167 120.329Z" fill="#FF97A6"/>
<path d="M194.341 115.797C194.172 115.831 194.104 116.017 194.172 116.169C194.476 116.71 195.339 118.114 196.674 119.264C197.52 119.991 201.223 121.885 202.457 121.191C203.523 120.6 202.694 119.5 202.694 119.5L197.638 118.469C197.655 118.469 195.423 115.594 194.341 115.797Z" fill="#AACBE8"/>
<path d="M195 117.42C195.203 117.792 195.457 118.13 195.744 118.434C195.879 118.587 196.031 118.739 196.184 118.874C196.336 119.009 196.505 119.145 196.674 119.263C196.539 119.094 196.387 118.959 196.251 118.806C196.116 118.654 195.964 118.502 195.829 118.35C195.558 118.046 195.287 117.724 195 117.42Z" fill="#B2D4ED"/>
<path d="M197.214 117.944C197.028 117.708 196.825 117.471 196.622 117.234C196.419 116.997 196.199 116.778 195.963 116.575C195.726 116.372 195.489 116.169 195.219 116.017C195.083 115.949 194.948 115.865 194.796 115.831C194.644 115.78 194.475 115.763 194.339 115.797C194.492 115.78 194.644 115.831 194.779 115.881C194.914 115.932 195.05 116.017 195.168 116.101C195.422 116.27 195.658 116.456 195.878 116.659C196.098 116.862 196.335 117.065 196.538 117.285C196.774 117.522 196.994 117.741 197.214 117.944Z" fill="#B2D4ED"/>
<path d="M271.192 81.4375C271.192 81.4375 269.569 79.1717 267.523 80.8288C265.477 82.4859 265.409 84.0584 265.409 84.0584C265.409 84.0584 261.419 85.3097 260.151 89.0635C259.779 90.1626 258.46 95.7426 263.651 97.2137C265.443 97.7209 267.151 96.03 269.096 94.2715C271.04 92.5299 275.115 88.3195 275.115 88.3195C275.115 88.3195 274.473 80.2708 271.192 81.4375Z" fill="#FF8080"/>
<path d="M284.804 142.073C284.771 141.786 284.094 141.482 283.604 141.245C283.739 141.363 283.874 141.515 283.621 141.566C283.249 141.617 282.505 141.228 282.319 140.94C282.2 141.126 282.15 141.465 282.116 141.651C282.099 141.887 284.889 142.817 284.804 142.073Z" fill="#30193B"/>
<path d="M261.976 141.819C261.891 141.549 263.024 140.669 263.413 140.534C263.295 140.636 263.125 140.822 263.295 140.906C263.548 141.041 264.055 140.872 264.225 140.619C264.275 140.822 264.275 141.109 264.258 141.295C264.242 141.566 262.162 142.445 261.976 141.819Z" fill="#30193B"/>
<path d="M283.604 141.262C283.3 141.127 282.792 140.755 282.758 140.704C282.572 138.337 280.915 123.135 280.324 119.771C279.377 114.36 276.147 102.557 275.504 101.306C274.05 100.849 269.806 99.9701 267.726 99.3613C267.709 99.4628 265.139 101.83 263.82 104.586C261.774 108.881 263.634 135.513 263.854 140.332C263.803 140.349 263.668 140.4 263.364 140.602C263.245 140.704 262.84 141.076 263.009 141.16C263.262 141.296 264.057 140.924 264.243 140.653C264.226 140.586 264.209 140.535 264.192 140.501C264.175 140.484 268.436 128.191 269.874 120.278C271.074 113.666 270.516 110.048 270.516 110.048L273.086 120.362C273.086 120.362 282.386 140.941 282.37 140.958C282.556 141.245 283.299 141.651 283.671 141.583C283.891 141.532 283.756 141.38 283.604 141.262Z" fill="#FF97A6"/>
<path d="M267.726 99.3438C267.726 99.3438 264.242 101.998 263.397 104.23C261.08 110.419 262.89 119.939 262.94 121.698L266.001 121.511C266.001 121.511 276.84 120.937 280.255 118.552C280.255 118.552 278.362 106.344 275.724 100.341L267.726 99.3438Z" fill="#3B2B5B"/>
<path d="M276.45 97.8556C276.45 97.8556 282.791 97.9063 284.245 97.1285C284.363 97.0778 284.549 96.7903 284.617 96.6889C285.09 95.8942 285.8 94.1864 282.638 94.3554C279.071 94.5584 276.467 95.6574 276.467 95.6574C276.467 95.6574 276.585 96.0294 276.45 97.8556Z" fill="#F9CB9D"/>
<path d="M273.069 88.2685C273.069 88.2685 275.521 94.2881 277.212 96.3679C279.41 99.0734 279.274 94.9814 279.274 94.9814C279.274 94.9814 278.429 91.5996 277.414 90.0778C276.468 88.6743 273.272 86.6114 273.069 88.2685Z" fill="#F9CB9D"/>
<path d="M276.67 91.4817C276.907 94.0688 276.975 95.134 275.943 98.3806C275.639 99.3275 266.406 99.6319 266.322 99.0739C266.288 98.8709 266.034 97.3153 265.899 96.4868C265.24 92.4962 264.986 91.3295 265.595 89.8922C266.018 88.8777 266.288 87.6941 271.631 87.3728C273.305 87.2713 274.523 87.8124 275.047 88.1844C275.977 88.8608 276.569 90.3995 276.67 91.4817Z" fill="#F9CB9D"/>
<path d="M268.437 97.1794C268.318 96.1817 267.963 92.969 267.963 92.969C267.963 92.969 268.166 87.0001 266.052 89.0969C264.615 90.5341 265.224 96.131 266.357 99.3776C266.78 100.561 268.707 99.4452 268.437 97.1794Z" fill="#FFE5B0"/>
<path d="M269.655 97.4328C269.655 97.4328 276.96 99.2082 277.162 100.341C277.365 101.457 276.165 102.438 274.085 102.59C273.172 102.658 267.592 102.319 266.459 99.5802C265.411 97.027 269.655 97.4328 269.655 97.4328Z" fill="#FFE5B0"/>
<path d="M271.936 99.2428C269.315 99.4288 266.373 99.395 266.322 99.0907C266.288 98.8878 266.034 97.3321 265.899 96.5036C265.24 92.513 264.986 91.3463 265.595 89.9091C265.967 89.0129 266.22 87.9814 270.008 87.5249C270.245 87.4911 271.31 89.2834 271.97 92.1241C272.68 95.117 272.967 99.1752 271.936 99.2428Z" fill="#FFE5B0"/>
<path d="M267.269 98.3291L267.353 99.2253L271.817 100.916L275.453 100.46L271.699 99.7664L267.269 98.3291Z" fill="#D5EAF5"/>
<path d="M283.569 98.5824L271.885 99.8337L267.269 98.3288L283.417 96.8408L283.569 98.5824Z" fill="#AACBE8"/>
<path d="M283.653 99.4622L271.816 100.916L272.56 91.3797L284.532 90.6357L283.653 99.4622Z" fill="#AACBE8"/>
<path d="M271.362 100.628L271.818 100.916L272.562 91.3792L272.038 91.3115L271.362 100.628Z" fill="#D5EAF5"/>
<path d="M272.038 91.3117L283.57 90.6016L284.534 90.6354L272.562 91.3794L272.038 91.3117Z" fill="#D5EAF5"/>
<path d="M277.634 100.662C277.837 100.459 277.955 100.138 277.955 99.9352C277.955 99.7999 277.871 99.7661 277.871 99.7661C277.871 99.7661 277.921 99.597 277.786 99.5801C277.701 99.5801 277.499 99.9014 277.279 100.087C277.143 100.206 276.974 100.29 276.873 100.341C276.873 100.341 277.008 100.003 276.89 99.9859C276.788 99.9521 276.636 100.375 276.552 100.578C276.484 100.73 277.346 100.933 277.634 100.662Z" fill="#FF97A6"/>
<path d="M276.992 100.274C277.229 99.9868 277.466 99.4795 277.55 99.5133C277.669 99.581 277.601 99.7839 277.449 100.038C277.28 100.308 276.992 100.274 276.992 100.274Z" fill="#FF97A6"/>
<path d="M284.16 95.6241C283.991 95.5227 283.906 95.4043 283.754 95.269C283.737 95.2521 283.687 95.2014 283.636 95.1337C283.602 95.0999 283.534 95.0492 283.568 94.9985C283.585 94.9647 283.619 94.9647 283.636 94.9647C283.636 94.9647 283.636 94.9647 283.653 94.9647C283.67 94.9647 283.67 94.9647 283.687 94.9816C283.687 94.9816 283.704 94.9816 283.704 94.9985C283.72 95.0154 283.754 95.0154 283.771 95.0323C283.737 94.9985 283.72 94.9647 283.687 94.9139C283.67 94.8632 283.585 94.7787 283.602 94.7279C283.602 94.6941 283.619 94.6941 283.636 94.6772C283.653 94.6603 283.687 94.6772 283.687 94.6603C283.704 94.6434 283.687 94.6096 283.687 94.6096C283.687 94.5588 283.839 94.4743 284.025 94.6096C283.957 94.5081 284.008 94.4912 284.042 94.4912C284.16 94.525 284.397 94.6772 284.448 94.7787C284.549 94.9816 284.228 95.6917 284.16 95.6241Z" fill="#FF97A6"/>
<path d="M268.908 97.4167C268.689 96.9094 268.503 96.4022 268.334 95.878C268.164 95.3538 268.012 94.8296 267.877 94.3054C267.742 93.7643 267.64 93.2402 267.573 92.6822C267.505 92.1411 267.454 91.5831 267.505 91.042C267.556 91.5831 267.657 92.1242 267.759 92.6483C267.877 93.1725 267.995 93.7136 268.114 94.2378L268.503 95.8273C268.655 96.3514 268.79 96.8756 268.908 97.4167Z" fill="#F9CB9D"/>
<path d="M273.56 82.5364C273.289 82.1475 272.968 81.7755 272.545 81.5726C272.342 81.4711 272.105 81.4035 271.886 81.4035C271.666 81.4035 271.429 81.4542 271.209 81.5219L271.158 81.5388L271.125 81.4881C270.719 80.9808 270.144 80.5581 269.518 80.4059C269.197 80.3382 268.876 80.3552 268.571 80.4228L268.335 80.4904C268.267 80.5242 268.182 80.5581 268.115 80.5919C267.963 80.6595 267.844 80.761 267.709 80.8455C267.185 81.2513 266.711 81.7417 266.323 82.2659C265.934 82.79 265.612 83.4157 265.545 84.0413L265.528 84.1428L265.443 84.1766C264.868 84.3795 264.31 84.65 263.769 84.9544C263.245 85.2757 262.738 85.6308 262.264 86.0366C261.791 86.4424 261.385 86.9159 261.013 87.4062C260.641 87.8966 260.371 88.4715 260.134 89.0464C260.337 88.4546 260.573 87.8628 260.912 87.3386C261.25 86.7975 261.656 86.324 262.129 85.8844C262.586 85.4448 263.093 85.0559 263.634 84.7346C264.175 84.4133 264.733 84.1259 265.342 83.906L265.24 84.0413C265.325 83.2973 265.646 82.6717 266.052 82.0968C266.458 81.5388 266.965 81.0484 267.523 80.6257C267.675 80.5242 267.81 80.4228 267.98 80.3382C268.064 80.3044 268.132 80.2537 268.216 80.2199L268.47 80.1353C268.825 80.0508 269.197 80.0339 269.535 80.1353C270.228 80.3382 270.786 80.7948 271.226 81.3528L271.125 81.319C271.361 81.2344 271.615 81.2006 271.852 81.2175C272.105 81.2344 272.342 81.319 272.545 81.4373C273.018 81.7248 273.323 82.1137 273.56 82.5364Z" fill="#FC9D9D"/>
<path d="M270.482 85.8848C270.482 85.8848 269.89 87.3897 269.924 87.5926C269.958 87.7955 270.194 88.0999 270.465 87.7617C270.735 87.4235 270.938 86.02 270.938 86.02L270.482 85.8848Z" fill="#FF97A6"/>
<path d="M270.768 87.0345C270.818 86.7301 270.903 86.4596 270.903 86.4596L270.311 86.375C270.311 86.375 270.244 86.561 270.142 86.8316C270.244 87.0176 270.48 87.2205 270.768 87.0345Z" fill="#C95D77"/>
<path d="M272.055 85.9692C272.157 85.8171 272.225 85.1914 272.275 84.6672C272.309 84.2276 271.988 83.8556 271.548 83.8218C270.872 83.788 270.128 83.7711 269.908 83.8894C269.57 84.0585 269.502 84.5151 269.451 84.8532C269.401 85.1914 269.418 85.8002 269.587 86.1045C269.739 86.392 270.246 86.6794 270.551 86.7132C271.497 86.7978 271.785 86.5949 272.055 85.9692Z" fill="#FFA9BA"/>
<path d="M271.716 82.3676L272.104 82.6213C272.104 82.6213 272.105 83.9571 270.583 84.8194C269.061 85.6818 269.196 87.2205 269.196 87.2205C269.196 87.2205 267.235 85.3943 268.706 83.8387C270.177 82.3 271.716 82.3676 271.716 82.3676Z" fill="#FF8080"/>
<path d="M279.646 94.4237C279.613 94.8972 279.291 95.2691 278.919 95.2353C278.547 95.2184 278.277 94.8126 278.294 94.3392C278.328 93.8657 278.649 93.4937 279.021 93.5275C279.393 93.5444 279.68 93.9503 279.646 94.4237Z" fill="#D5EAF5"/>
</g>
<defs>
<linearGradient id="paint0_linear" x1="253.047" y1="100.181" x2="253.047" y2="94.3554" gradientUnits="userSpaceOnUse">
<stop stop-color="#FCC2B1"/>
<stop offset="0.885" stop-color="#D9420B"/>
</linearGradient>
<linearGradient id="paint1_linear" x1="253.05" y1="97.6584" x2="253.05" y2="93.8266" gradientUnits="userSpaceOnUse">
<stop stop-color="#DEEDC9"/>
<stop offset="0.661" stop-color="#8BBA25"/>
</linearGradient>
<linearGradient id="paint2_linear" x1="253.05" y1="96.1103" x2="253.05" y2="90.8926" gradientUnits="userSpaceOnUse">
<stop stop-color="#C2EBFA"/>
<stop offset="1" stop-color="#26A8DE"/>
</linearGradient>
<clipPath id="clip0">
<rect x="-1.61328" width="593.613" height="150" fill="white"/>
</clipPath>
</defs>
</svg>
