<svg width="734" height="143" viewBox="0 0 734 143" fill="none" xmlns="http://www.w3.org/2000/svg">
<path d="M512.791 132.049C512.824 132.076 523.056 148.309 512.791 141.2H217.212L216.801 123.675C228.707 120.191 235.538 122.704 236.507 123.675C238.576 125.765 240.274 127.808 240.529 130.421C241.489 129.724 242.885 129.577 244.149 129.865C246.046 128.605 249.035 128.136 253.641 129.295C254.076 123.648 255.045 117.39 260.07 113.424C264.249 110.128 271.096 108.963 277.098 110.53C282.583 111.957 287.394 115.481 290.301 120.191C290.711 120.861 291.081 121.544 291.418 122.254C291.951 121.979 292.51 121.758 293.101 121.604C294.365 121.276 295.736 121.283 296.96 121.584C298.963 119.152 301.763 117.35 304.883 116.533C309.005 115.461 313.701 116.258 316.566 118.523C320.015 121.243 320.688 125.537 320.984 129.416C322.404 127.614 325.204 126.582 327.798 126.944C330.491 127.319 332.774 129.154 333.291 131.338L333.439 131.318C334.72 130.816 336.247 130.689 337.733 131.137C336.403 127.788 336.009 120.231 346.297 118.027C350.484 117.122 359.097 121.336 359.434 124.82C360.173 123.936 361.544 123.413 362.907 123.54C364.976 123.741 366.257 125.255 366.667 126.823C368.892 124.632 372.694 123.587 376.068 124.492C378.966 125.262 381.085 127.346 381.758 129.717C382.957 124.8 384.041 118.858 390.56 117.156C393.516 116.385 396.537 117.136 398.491 119.105C400.56 121.196 401.012 123.889 401.266 126.502C402.227 125.805 403.623 125.657 404.887 125.945C406.784 124.686 409.772 124.217 414.379 125.376C414.814 119.728 415.783 113.471 420.807 109.505C424.987 106.209 431.834 105.043 437.836 106.611C443.321 108.038 448.132 111.562 451.039 116.272C451.449 116.942 451.819 117.625 452.155 118.335C452.689 118.06 453.247 117.839 453.838 117.685C455.103 117.357 456.474 117.364 457.697 117.665C459.701 115.233 462.5 113.431 465.62 112.614C469.742 111.542 474.439 112.339 477.304 114.603C480.753 117.323 481.426 121.618 481.721 125.497C483.142 123.694 485.942 122.663 488.536 123.025C491.229 123.4 493.512 125.235 494.029 127.419C496.008 127.051 511.445 130.803 512.791 132.049Z" fill="#E9E9E9"/>
<path d="M725.5 128.5C730.678 131.467 734 141.2 734 141.2H433.851L433.441 123.675C445.346 120.191 452.177 122.704 453.146 123.675C455.215 125.765 456.914 127.808 457.168 130.421C458.129 129.724 459.525 129.577 460.789 129.865C462.686 128.605 465.674 128.136 470.28 129.295C470.716 123.648 471.685 117.39 476.709 113.424C480.889 110.128 487.736 108.963 493.738 110.53C499.223 111.957 504.034 115.481 506.941 120.191C507.351 120.861 507.721 121.544 508.057 122.254C508.591 121.979 509.149 121.758 509.74 121.604C511.005 121.276 512.376 121.283 513.599 121.584C515.603 119.152 518.403 117.35 521.523 116.533C525.644 115.461 530.341 116.258 533.206 118.523C536.655 121.243 537.328 125.537 537.623 129.416C539.044 127.614 541.844 126.582 544.438 126.944C547.131 127.319 549.414 129.154 549.931 131.338L550.079 131.318C551.36 130.816 552.887 130.689 554.373 131.137C553.043 127.788 552.649 120.231 562.936 118.027C567.124 117.122 575.737 121.336 576.073 124.82C576.812 123.936 578.183 123.413 579.546 123.54C581.615 123.741 582.896 125.255 583.307 126.823C585.532 124.632 589.333 123.587 592.708 124.492C595.606 125.262 597.724 127.346 598.398 129.717C599.596 124.8 600.68 118.858 607.199 117.156C610.155 116.385 613.177 117.136 615.131 119.105C617.2 121.196 617.651 123.889 617.906 126.502C618.867 125.805 620.262 125.657 621.527 125.945C623.423 124.686 626.412 124.217 631.018 125.376C631.453 119.728 632.422 113.471 637.447 109.505C641.626 106.209 648.474 105.043 654.476 106.611C659.96 108.038 664.772 111.562 667.678 116.272C668.089 116.942 668.458 117.625 668.795 118.335C669.329 118.06 669.887 117.839 670.478 117.685C671.742 117.357 673.114 117.364 674.337 117.665C676.34 115.233 679.14 113.431 682.26 112.614C686.382 111.542 691.078 112.339 693.944 114.603C697.392 117.323 698.065 121.618 698.361 125.497C699.781 123.694 702.581 122.663 705.176 123.025C707.869 123.4 710.151 125.235 710.669 127.419C712.647 127.051 720.461 125.614 725.5 128.5Z" fill="#E9E9E9"/>
<path d="M296.153 132.049C296.186 132.076 306.417 148.309 296.153 141.2H0C0 141.2 2.77897 126.85 9.99998 126C18.5 125 22.9216 129.449 23.8905 130.421C24.8511 129.724 26.2469 129.577 27.5113 129.865C29.408 128.605 32.3966 128.136 37.0027 129.295C37.4379 123.648 38.4067 117.39 43.4316 113.424C47.6107 110.128 54.4583 108.963 60.4602 110.53C65.9449 111.957 70.7562 115.481 73.6628 120.191C74.0733 120.861 74.4428 121.544 74.7794 122.254C75.3131 121.979 75.8714 121.758 76.4625 121.604C77.727 121.276 79.0981 121.283 80.3215 121.584C82.3249 119.152 85.1247 117.35 88.2447 116.533C92.3664 115.461 97.0628 116.258 99.9283 118.523C103.377 121.243 104.05 125.537 104.346 129.416C105.766 127.614 108.566 126.582 111.16 126.944C113.853 127.319 116.136 129.154 116.653 131.338L116.801 131.318C118.082 130.816 119.609 130.689 121.095 131.137C119.765 127.788 119.371 120.231 129.659 118.027C133.846 117.122 142.459 121.336 142.795 124.82C143.534 123.936 144.906 123.413 146.269 123.54C148.338 123.741 149.618 125.255 150.029 126.823C152.254 124.632 156.055 123.587 159.43 124.492C162.328 125.262 164.447 127.346 165.12 129.717C166.319 124.8 167.402 118.858 173.922 117.156C176.877 116.385 179.899 117.136 181.853 119.105C183.922 121.196 184.374 123.889 184.628 126.502C185.589 125.805 186.985 125.657 188.249 125.945C190.146 124.686 193.134 124.217 197.74 125.376C198.176 119.728 199.144 113.471 204.169 109.505C208.348 106.209 215.196 105.043 221.198 106.611C226.683 108.038 231.494 111.562 234.4 116.272C234.811 116.942 235.18 117.625 235.517 118.335C236.051 118.06 236.609 117.839 237.2 117.685C238.465 117.357 239.836 117.364 241.059 117.665C243.063 115.233 245.862 113.431 248.982 112.614C253.104 111.542 257.8 112.339 260.666 114.603C264.114 117.323 264.788 121.618 265.083 125.497C266.504 123.694 269.303 122.663 271.898 123.025C274.591 123.4 276.874 125.235 277.391 127.419C279.37 127.051 294.807 130.803 296.153 132.049Z" fill="#E9E9E9"/>
<path d="M154.379 131.761C160.968 131.761 166.31 131.143 166.31 130.381C166.31 129.618 160.968 129 154.379 129C147.789 129 142.447 129.618 142.447 130.381C142.447 131.143 147.789 131.761 154.379 131.761Z" fill="#D5EAF5"/>
<path d="M123.684 132.972C123.684 134.257 113.883 135.306 101.772 135.306C89.679 135.306 79.8604 134.257 79.8604 132.972C79.8604 131.687 89.6622 130.639 101.772 130.639C113.866 130.656 123.684 131.687 123.684 132.972Z" fill="#D5EAF5"/>
<path d="M332.425 137.433C342.832 137.433 351.268 136.665 351.268 135.717C351.268 134.769 342.832 134 332.425 134C322.018 134 313.582 134.769 313.582 135.717C313.582 136.665 322.018 137.433 332.425 137.433Z" fill="#D5EAF5"/>
<path d="M609.53 133.291C625.825 133.291 639.035 132.212 639.035 130.88C639.035 129.548 625.825 128.469 609.53 128.469C593.235 128.469 580.025 129.548 580.025 130.88C580.025 132.212 593.235 133.291 609.53 133.291Z" fill="#D5EAF5"/>
<path d="M295.301 124.446C295.301 127.207 293.062 129.446 290.301 129.446H254.366C251.605 129.446 249.366 127.207 249.366 124.446L249.366 52C249.366 49.2386 251.605 47 254.366 47L290.301 47C293.062 47 295.301 49.2386 295.301 52V124.446Z" fill="#AACBE8"/>
<path d="M292.001 123.466C292.001 125.675 290.21 127.466 288.001 127.466H254.447C252.238 127.466 250.447 125.675 250.447 123.466L250.447 52.5713C250.447 50.3621 252.238 48.5713 254.447 48.5713L288.001 48.5713C290.21 48.5713 292.001 50.3621 292.001 52.5713V123.466Z" fill="white"/>
<path d="M287.673 54.5811H255.113C254.009 54.5811 253.113 55.4765 253.113 56.5811V115.126C253.113 116.231 254.009 117.126 255.113 117.126H287.673C288.778 117.126 289.673 116.231 289.673 115.126V56.5811C289.673 55.4765 288.778 54.5811 287.673 54.5811Z" fill="#ECECEC"/>
<path fill-rule="evenodd" clip-rule="evenodd" d="M271.273 87.6117L268.012 85.8608C267.734 85.7079 267.734 85.4717 268.012 85.3329L269.147 84.7227L271.261 85.8616C271.418 85.9373 271.586 85.9762 271.756 85.9762C271.926 85.9762 272.095 85.9373 272.252 85.8616L274.366 84.7227L275.501 85.3338C275.779 85.4867 275.779 85.7228 275.501 85.8616L272.24 87.6126C271.929 87.7513 271.585 87.7513 271.274 87.6126L271.273 87.6117Z" fill="url(#paint0_linear)"/>
<path fill-rule="evenodd" clip-rule="evenodd" d="M271.273 85.4597L268.012 83.7087C267.734 83.5558 267.734 83.3197 268.012 83.1809L269.123 82.583L271.273 83.7361C271.43 83.8117 271.599 83.8507 271.769 83.8507C271.939 83.8507 272.107 83.8117 272.264 83.7361L274.414 82.583L275.525 83.1809C275.803 83.3338 275.803 83.5699 275.525 83.7087L272.264 85.4597C272.107 85.5353 271.939 85.5743 271.769 85.5743C271.599 85.5743 271.43 85.5353 271.273 85.4597Z" fill="url(#paint1_linear)"/>
<path fill-rule="evenodd" clip-rule="evenodd" d="M271.273 83.3624L268.012 81.6123C267.734 81.4594 267.734 81.2232 268.012 81.0844L271.273 79.3343C271.43 79.2587 271.599 79.2197 271.769 79.2197C271.939 79.2197 272.107 79.2587 272.264 79.3343L275.525 81.0853C275.803 81.2382 275.803 81.4743 275.525 81.6131L272.264 83.3641C271.945 83.503 271.593 83.503 271.273 83.3641V83.3624Z" fill="url(#paint2_linear)"/>
<path d="M258.974 92.7173C258.957 92.4866 258.989 92.2547 259.068 92.039C259.148 91.8234 259.272 91.6297 259.432 91.4725C259.725 91.1952 260.105 91.046 260.497 91.0551C260.886 91.0465 261.264 91.1962 261.552 91.4735C261.709 91.635 261.83 91.8312 261.908 92.0481C261.985 92.265 262.017 92.4973 262 92.7286C262.017 92.9583 261.985 93.1891 261.908 93.4044C261.83 93.6197 261.709 93.814 261.552 93.9734C261.263 94.2491 260.886 94.3985 260.497 94.3918C260.106 94.3968 259.727 94.2477 259.433 93.9734C259.273 93.8134 259.149 93.6177 259.07 93.4003C258.99 93.183 258.958 92.9497 258.974 92.7173ZM259.631 92.7173C259.61 93.0118 259.679 93.3056 259.83 93.5541C259.94 93.7157 260.097 93.8336 260.278 93.8889C260.314 93.9001 260.351 93.907 260.388 93.9097C260.418 93.9097 260.458 93.9203 260.488 93.9203C260.525 93.9216 260.562 93.9181 260.598 93.9097C260.635 93.908 260.673 93.901 260.708 93.8889C260.886 93.833 261.04 93.715 261.146 93.5541C261.294 93.3083 261.364 93.0186 261.345 92.7276C261.365 92.4366 261.295 92.1464 261.146 91.9012C261.04 91.7403 260.886 91.6223 260.708 91.5664C260.672 91.5552 260.635 91.5483 260.598 91.5456C260.558 91.5456 260.528 91.535 260.488 91.535C260.454 91.5328 260.42 91.5363 260.388 91.5456C260.351 91.5483 260.314 91.5552 260.278 91.5664C260.099 91.6244 259.942 91.7417 259.83 91.9012C259.673 92.1389 259.603 92.4286 259.631 92.7171V92.7173Z" fill="#333333"/>
<path d="M262.326 91.0859H263.143L264.217 93.1361L264.377 93.5754H264.387L264.377 93.0001V91.0859H265.003V94.3494H264.187L263.112 92.2156L262.953 91.8494H262.944L262.954 92.4246V94.3494H262.326V91.0859Z" fill="#333333"/>
<path d="M265.801 91.0859H266.438V93.795H267.671V94.3494H265.801V91.0859Z" fill="#333333"/>
<path d="M267.355 91.0859H268.082L268.719 92.2261L268.818 92.4563H268.828L268.938 92.2261L269.585 91.0859H270.241L269.127 93.021V94.3494H268.5V93.0107L267.355 91.0859Z" fill="#333333"/>
<path d="M270.394 92.7173C270.377 92.4866 270.409 92.2547 270.488 92.039C270.567 91.8234 270.692 91.6297 270.852 91.4725C271.144 91.1952 271.525 91.046 271.917 91.0551C272.306 91.0465 272.684 91.1962 272.972 91.4735C273.129 91.635 273.25 91.8312 273.328 92.0481C273.405 92.265 273.437 92.4973 273.42 92.7286C273.437 92.9583 273.405 93.1891 273.328 93.4044C273.25 93.6197 273.129 93.814 272.972 93.9734C272.683 94.2491 272.306 94.3985 271.917 94.3918C271.525 94.3986 271.146 94.2493 270.853 93.9734C270.695 93.812 270.572 93.6159 270.493 93.399C270.414 93.1821 270.38 92.9495 270.394 92.7173ZM271.051 92.7173C271.03 93.0118 271.099 93.3056 271.25 93.5541C271.358 93.7178 271.516 93.8363 271.698 93.8889C271.734 93.9001 271.771 93.907 271.808 93.9097C271.838 93.9097 271.878 93.9203 271.908 93.9203C271.945 93.922 271.982 93.9185 272.018 93.9097C272.055 93.908 272.092 93.901 272.128 93.8889C272.306 93.833 272.46 93.715 272.566 93.5541C272.714 93.3083 272.784 93.0186 272.765 92.7276C272.785 92.4366 272.715 92.1464 272.566 91.9012C272.46 91.7403 272.306 91.6223 272.128 91.5664C272.092 91.5552 272.055 91.5483 272.018 91.5456C271.978 91.5456 271.948 91.535 271.908 91.535C271.874 91.5328 271.84 91.5363 271.808 91.5456C271.771 91.5482 271.734 91.5552 271.698 91.5664C271.518 91.6244 271.362 91.7417 271.25 91.9012C271.098 92.1411 271.027 92.429 271.051 92.7171V92.7173Z" fill="#333333"/>
<path d="M273.854 91.0859H275.595V91.6298H274.491V92.4258H275.546V92.9802H274.491V94.3505H273.854V91.0859Z" fill="#333333"/>
<path d="M276.037 91.0859H277.779V91.6298H276.675V92.4258H277.73V92.9802H276.675V94.3505H276.037V91.0859Z" fill="#333333"/>
<path d="M278.186 94.3494V91.0859H278.823V94.3494H278.186Z" fill="#333333"/>
<path d="M281.847 91.1591V91.724C281.737 91.6818 281.624 91.6505 281.508 91.6304C281.38 91.6087 281.25 91.5982 281.12 91.599C280.979 91.5892 280.838 91.6133 280.707 91.6694C280.576 91.7256 280.459 91.8124 280.364 91.9233C280.181 92.1456 280.085 92.4337 280.095 92.7287C280.084 93.0135 280.173 93.2926 280.344 93.5127C280.432 93.6203 280.543 93.7053 280.667 93.7614C280.791 93.8176 280.925 93.8434 281.06 93.837C281.17 93.837 281.279 93.8265 281.408 93.8162C281.545 93.7961 281.678 93.7575 281.806 93.7012L281.845 94.2556C281.819 94.2678 281.793 94.2783 281.766 94.287C281.726 94.2975 281.686 94.3078 281.636 94.3183C281.557 94.3392 281.457 94.3497 281.338 94.3706C281.218 94.3811 281.099 94.3914 280.97 94.3914H280.87C280.508 94.3655 280.164 94.2191 279.885 93.973C279.728 93.82 279.607 93.6313 279.529 93.4211C279.452 93.2108 279.42 92.9846 279.437 92.7596C279.425 92.5312 279.457 92.3026 279.533 92.0883C279.608 91.874 279.725 91.6787 279.875 91.5147C280.197 91.21 280.619 91.0521 281.05 91.0755C281.179 91.0755 281.299 91.0755 281.398 91.086C281.508 91.0966 281.607 91.1174 281.717 91.1383C281.736 91.1488 281.766 91.1488 281.786 91.1591C281.796 91.154 281.806 91.1513 281.816 91.1513C281.827 91.1513 281.837 91.154 281.846 91.1591H281.847Z" fill="#333333"/>
<path d="M282.256 91.0859H284.107V91.5984H282.883V92.4143H283.997V92.9165H282.883V93.8369H284.107V94.3494H282.256V91.0859Z" fill="#333333"/>
<path d="M276.627 51.0762H265.84V52.0962H276.627V51.0762Z" fill="#AACBE8"/>
<path d="M280.425 51.5768C280.425 52.0404 280.058 52.4299 279.581 52.4299C279.104 52.4299 278.737 52.0589 278.737 51.5768C278.737 51.1131 279.104 50.7236 279.581 50.7236C280.058 50.7236 280.425 51.1131 280.425 51.5768Z" fill="#AACBE8"/>
<path d="M273.967 125.188H268.482C267.143 125.188 266.042 124.075 266.042 122.722C266.042 121.368 267.143 120.255 268.482 120.255H273.967C275.307 120.255 276.408 121.368 276.408 122.722C276.408 124.094 275.307 125.188 273.967 125.188Z" fill="#AACBE8"/>
<path d="M530.652 124.446C530.652 127.207 528.413 129.446 525.652 129.446H489.717C486.956 129.446 484.717 127.207 484.717 124.446L484.717 52C484.717 49.2386 486.956 47 489.717 47L525.652 47C528.413 47 530.652 49.2386 530.652 52V124.446Z" fill="#AACBE8"/>
<path d="M527.352 123.466C527.352 125.675 525.561 127.466 523.352 127.466H489.798C487.589 127.466 485.798 125.675 485.798 123.466L485.798 52.5713C485.798 50.3621 487.589 48.5713 489.798 48.5713L523.352 48.5713C525.561 48.5713 527.352 50.3621 527.352 52.5713V123.466Z" fill="white"/>
<path d="M523.024 54.5811H490.464C489.36 54.5811 488.464 55.4765 488.464 56.5811V115.126C488.464 116.231 489.36 117.126 490.464 117.126H523.024C524.129 117.126 525.024 116.231 525.024 115.126V56.5811C525.024 55.4765 524.129 54.5811 523.024 54.5811Z" fill="#ECECEC"/>
<path fill-rule="evenodd" clip-rule="evenodd" d="M506.625 87.6117L503.364 85.8608C503.086 85.7079 503.086 85.4717 503.364 85.3329L504.5 84.7227L506.613 85.8616C506.77 85.9373 506.938 85.9762 507.108 85.9762C507.279 85.9762 507.447 85.9373 507.604 85.8616L509.718 84.7227L510.853 85.3338C511.131 85.4867 511.131 85.7228 510.853 85.8616L507.592 87.6126C507.281 87.7513 506.937 87.7513 506.626 87.6126L506.625 87.6117Z" fill="url(#paint3_linear)"/>
<path fill-rule="evenodd" clip-rule="evenodd" d="M506.625 85.4597L503.364 83.7087C503.086 83.5558 503.086 83.3197 503.364 83.1809L504.475 82.583L506.625 83.7361C506.782 83.8117 506.951 83.8507 507.121 83.8507C507.291 83.8507 507.459 83.8117 507.616 83.7361L509.766 82.583L510.877 83.1809C511.155 83.3338 511.155 83.5699 510.877 83.7087L507.616 85.4597C507.459 85.5353 507.291 85.5743 507.121 85.5743C506.951 85.5743 506.782 85.5353 506.625 85.4597Z" fill="url(#paint4_linear)"/>
<path fill-rule="evenodd" clip-rule="evenodd" d="M506.625 83.3624L503.364 81.6123C503.086 81.4594 503.086 81.2232 503.364 81.0844L506.625 79.3343C506.782 79.2587 506.95 79.2197 507.12 79.2197C507.29 79.2197 507.459 79.2587 507.615 79.3343L510.877 81.0853C511.155 81.2382 511.155 81.4743 510.877 81.6131L507.615 83.3641C507.296 83.503 506.944 83.503 506.625 83.3641V83.3624Z" fill="url(#paint5_linear)"/>
<path d="M494.326 92.7173C494.308 92.4866 494.34 92.2547 494.42 92.039C494.499 91.8234 494.624 91.6297 494.784 91.4725C495.076 91.1952 495.457 91.046 495.849 91.0551C496.238 91.0465 496.615 91.1962 496.904 91.4735C497.06 91.635 497.182 91.8312 497.259 92.0481C497.337 92.265 497.368 92.4973 497.351 92.7286C497.368 92.9583 497.337 93.1891 497.259 93.4044C497.182 93.6197 497.06 93.814 496.904 93.9734C496.614 94.2491 496.238 94.3985 495.849 94.3918C495.457 94.3968 495.078 94.2477 494.784 93.9734C494.624 93.8134 494.5 93.6177 494.421 93.4003C494.342 93.183 494.309 92.9497 494.326 92.7173ZM494.983 92.7173C494.961 93.0118 495.031 93.3056 495.181 93.5541C495.291 93.7157 495.449 93.8336 495.629 93.8889C495.665 93.9001 495.702 93.907 495.74 93.9097C495.769 93.9097 495.809 93.9203 495.839 93.9203C495.876 93.9216 495.913 93.9181 495.949 93.9097C495.987 93.908 496.024 93.901 496.06 93.8889C496.237 93.833 496.392 93.715 496.498 93.5541C496.646 93.3083 496.715 93.0186 496.696 92.7276C496.717 92.4366 496.647 92.1464 496.498 91.9012C496.392 91.7403 496.237 91.6223 496.06 91.5664C496.024 91.5552 495.987 91.5483 495.949 91.5456C495.91 91.5456 495.88 91.535 495.839 91.535C495.806 91.5328 495.772 91.5363 495.74 91.5456C495.702 91.5483 495.665 91.5552 495.629 91.5664C495.45 91.6244 495.293 91.7417 495.181 91.9012C495.025 92.1389 494.954 92.4286 494.983 92.7171V92.7173Z" fill="#333333"/>
<path d="M497.678 91.0859H498.494L499.569 93.1361L499.728 93.5754H499.738L499.728 93.0001V91.0859H500.355V94.3494H499.538L498.464 92.2156L498.305 91.8494H498.296L498.306 92.4246V94.3494H497.678V91.0859Z" fill="#333333"/>
<path d="M501.153 91.0859H501.79V93.795H503.023V94.3494H501.153V91.0859Z" fill="#333333"/>
<path d="M502.708 91.0859H503.434L504.071 92.2261L504.17 92.4563H504.18L504.29 92.2261L504.937 91.0859H505.593L504.479 93.021V94.3494H503.852V93.0107L502.708 91.0859Z" fill="#333333"/>
<path d="M505.746 92.7173C505.728 92.4866 505.76 92.2547 505.84 92.039C505.919 91.8234 506.043 91.6297 506.204 91.4725C506.496 91.1952 506.877 91.046 507.269 91.0551C507.658 91.0465 508.035 91.1962 508.324 91.4735C508.48 91.635 508.602 91.8312 508.679 92.0481C508.757 92.265 508.788 92.4973 508.771 92.7286C508.788 92.9583 508.757 93.1891 508.679 93.4044C508.602 93.6197 508.48 93.814 508.324 93.9734C508.034 94.2491 507.658 94.3985 507.269 94.3918C506.877 94.3986 506.497 94.2493 506.204 93.9734C506.046 93.812 505.923 93.6159 505.844 93.399C505.765 93.1821 505.732 92.9495 505.746 92.7173ZM506.403 92.7173C506.381 93.0118 506.451 93.3056 506.601 93.5541C506.709 93.7178 506.868 93.8363 507.049 93.8889C507.085 93.9001 507.122 93.907 507.16 93.9097C507.189 93.9097 507.229 93.9203 507.259 93.9203C507.296 93.922 507.333 93.9185 507.369 93.9097C507.407 93.908 507.444 93.901 507.48 93.8889C507.657 93.833 507.812 93.715 507.918 93.5541C508.066 93.3083 508.135 93.0186 508.116 92.7276C508.137 92.4366 508.067 92.1464 507.918 91.9012C507.812 91.7403 507.657 91.6223 507.48 91.5664C507.444 91.5552 507.407 91.5483 507.369 91.5456C507.33 91.5456 507.3 91.535 507.259 91.535C507.226 91.5328 507.192 91.5363 507.16 91.5456C507.122 91.5482 507.085 91.5552 507.049 91.5664C506.87 91.6244 506.713 91.7417 506.601 91.9012C506.449 92.1411 506.379 92.429 506.403 92.7171V92.7173Z" fill="#333333"/>
<path d="M509.205 91.0859H510.946V91.6298H509.843V92.4258H510.898V92.9802H509.843V94.3505H509.205V91.0859Z" fill="#333333"/>
<path d="M511.389 91.0859H513.131V91.6298H512.027V92.4258H513.082V92.9802H512.027V94.3505H511.389V91.0859Z" fill="#333333"/>
<path d="M513.537 94.3494V91.0859H514.174V94.3494H513.537Z" fill="#333333"/>
<path d="M517.199 91.1591V91.724C517.089 91.6818 516.976 91.6505 516.86 91.6304C516.732 91.6087 516.602 91.5982 516.472 91.599C516.331 91.5892 516.19 91.6133 516.059 91.6694C515.928 91.7256 515.811 91.8124 515.716 91.9233C515.533 92.1456 515.437 92.4337 515.448 92.7287C515.437 93.0135 515.525 93.2926 515.696 93.5127C515.784 93.6203 515.895 93.7053 516.019 93.7614C516.143 93.8176 516.277 93.8434 516.412 93.837C516.522 93.837 516.631 93.8265 516.76 93.8162C516.897 93.7961 517.03 93.7575 517.158 93.7012L517.197 94.2556C517.171 94.2678 517.145 94.2783 517.118 94.287C517.078 94.2975 517.038 94.3078 516.988 94.3183C516.909 94.3392 516.809 94.3497 516.69 94.3706C516.57 94.3811 516.451 94.3914 516.322 94.3914H516.222C515.86 94.3655 515.516 94.2191 515.237 93.973C515.08 93.82 514.959 93.6313 514.881 93.4211C514.804 93.2108 514.772 92.9846 514.789 92.7596C514.777 92.5312 514.809 92.3026 514.885 92.0883C514.96 91.874 515.077 91.6787 515.227 91.5147C515.549 91.21 515.971 91.0521 516.402 91.0755C516.531 91.0755 516.651 91.0755 516.75 91.086C516.861 91.0966 516.959 91.1174 517.069 91.1383C517.089 91.1488 517.118 91.1488 517.138 91.1591C517.148 91.154 517.158 91.1513 517.168 91.1513C517.179 91.1513 517.189 91.154 517.198 91.1591H517.199Z" fill="#333333"/>
<path d="M517.607 91.0859H519.458V91.5984H518.234V92.4143H519.349V92.9165H518.234V93.8369H519.458V94.3494H517.607V91.0859Z" fill="#333333"/>
<path d="M511.979 51.0762H501.191V52.0962H511.979V51.0762Z" fill="#AACBE8"/>
<path d="M515.776 51.5768C515.776 52.0404 515.409 52.4299 514.932 52.4299C514.455 52.4299 514.088 52.0589 514.088 51.5768C514.088 51.1131 514.455 50.7236 514.932 50.7236C515.409 50.7236 515.776 51.1131 515.776 51.5768Z" fill="#AACBE8"/>
<path d="M509.319 125.188H503.834C502.494 125.188 501.394 124.075 501.394 122.722C501.394 121.368 502.494 120.255 503.834 120.255H509.319C510.658 120.255 511.759 121.368 511.759 122.722C511.759 124.094 510.658 125.188 509.319 125.188Z" fill="#AACBE8"/>
<path d="M596.08 40.2138C574.268 48.8036 558.444 35.5131 556.839 34.0928C556.839 34.0928 539.259 48.8036 517.447 40.2138C517.447 40.2138 512.596 67.1668 523.502 92.5304C534.358 117.759 548.074 125.52 556.688 130.068C556.688 130.068 577.245 120.599 588.101 95.3711C599.007 70.0245 596.08 40.2138 596.08 40.2138Z" fill="#D5EAF5"/>
<path d="M556.654 125.216C556.537 125.216 556.42 125.182 556.302 125.131C549.378 121.496 536.498 114.749 526.512 91.6175C516.861 69.2637 521.043 45.2191 521.093 44.9824C521.126 44.7626 521.277 44.5596 521.477 44.4413C521.678 44.3229 521.912 44.306 522.13 44.3905C540.847 51.7291 556.152 39.2333 556.302 39.1149C556.587 38.8782 557.005 38.8782 557.289 39.1318C558.778 40.4508 572.444 51.7967 591.328 44.4075C591.546 44.3229 591.797 44.3398 591.997 44.4751C592.198 44.5935 592.332 44.8133 592.365 45.05C592.399 45.3206 594.874 71.817 585.24 94.1369C580.205 105.787 572.812 113.582 567.493 118.08C561.722 122.967 557.189 125.064 556.988 125.148C556.871 125.199 556.771 125.216 556.654 125.216ZM522.448 46.1829C521.795 50.7484 519.504 71.5465 527.917 91.0088C537.535 113.261 549.846 120.008 556.67 123.592C559.163 122.341 575.137 113.616 583.835 93.5113C592.265 74.0152 591.261 51.2218 590.927 46.1998C573.012 52.7098 559.748 43.1393 556.771 40.7044C555.516 41.6513 551.97 44.12 546.835 45.98C541.115 48.0767 532.3 49.7507 522.448 46.1829Z" fill="white"/>
<path d="M556.738 43.9336C556.738 43.9336 542.687 55.6346 525.275 48.8034C525.275 48.8034 521.394 70.2271 530.109 90.3996C538.773 110.454 549.746 116.626 556.621 120.244C556.637 120.227 558.026 45.0496 556.738 43.9336Z" fill="white"/>
<path d="M570.898 12.631C572.665 13.8248 573.241 15.8993 573.127 17.8563C566.367 18.189 559.588 18.3456 552.809 18.326C552.829 16.3885 551.369 14.8033 549.43 14.4902C550.697 11.1045 552.964 7.56234 557.015 6.97524C561.604 6.29024 565.176 10.3021 564.447 14.4315C564.389 14.7838 565.137 14.6664 565.215 14.3728C565.771 11.8286 568.825 11.2219 570.898 12.631Z" fill="#F4E8D3"/>
<path d="M573.126 17.837C573.241 15.88 572.665 13.8251 570.898 12.6117C568.825 11.2026 565.771 11.8093 565.215 14.3535C565.137 14.647 564.389 14.7644 564.447 14.4122C565.176 10.2828 561.604 6.2709 557.015 6.95579C552.963 7.56249 550.716 11.0852 549.43 14.4709C551.369 14.784 552.829 16.3497 552.809 18.3067C559.588 18.3263 566.367 18.1697 573.126 17.837ZM573.337 18.3458C566.443 18.6785 559.549 18.8351 552.655 18.8351C547.835 19.0504 543.016 19.0112 538.196 19.0308C535.776 19.0504 533.376 19.07 530.956 19.07C529.747 19.07 528.555 19.07 527.347 19.07C526.232 19.07 525.08 19.1482 523.986 18.9917C523.966 18.9917 523.966 18.9721 523.986 18.9721C524.139 18.9525 524.293 18.933 524.446 18.9134V18.8743C524.408 18.8743 524.37 18.8547 524.37 18.8155C524.139 17.3477 525.042 15.8213 526.444 15.1754C527.769 14.5492 529.382 14.7645 530.553 15.5864C530.764 13.6489 531.322 11.7506 532.397 10.0871C534.144 7.3864 537.37 5.5076 540.788 6.1143C543.822 6.6427 546.126 9.40209 545.474 12.2986C547.048 11.5549 548.834 12.7487 548.738 14.4122C550.179 10.7134 552.751 7.0145 557.226 6.4861C561.489 5.9773 565.041 9.04989 565.291 12.827C566.289 11.6919 567.96 11.1439 569.593 11.457C572.703 12.0833 574.048 15.058 573.894 17.7979C573.894 17.8957 573.817 17.9544 573.721 18.0132C573.759 18.1501 573.606 18.3458 573.337 18.3458Z" fill="#F4E8D3"/>
<path d="M284.382 18.631C286.149 19.8248 286.725 21.8993 286.61 23.8563C279.851 24.189 273.072 24.3456 266.293 24.326C266.313 22.3885 264.853 20.8033 262.914 20.4902C264.181 17.1045 266.447 13.5623 270.499 12.9752C275.088 12.2902 278.66 16.3021 277.931 20.4315C277.873 20.7838 278.621 20.6664 278.699 20.3728C279.255 17.8286 282.309 17.2219 284.382 18.631Z" fill="#F4E8D3"/>
<path d="M286.61 23.837C286.725 21.88 286.149 19.8251 284.382 18.6117C282.309 17.2026 279.255 17.8093 278.699 20.3535C278.621 20.647 277.872 20.7644 277.93 20.4122C278.659 16.2828 275.088 12.2709 270.499 12.9558C266.447 13.5625 264.2 17.0852 262.914 20.4709C264.853 20.784 266.313 22.3497 266.293 24.3067C273.071 24.3263 279.851 24.1697 286.61 23.837ZM286.821 24.3458C279.927 24.6785 273.033 24.8351 266.139 24.8351C261.319 25.0504 256.5 25.0112 251.68 25.0308C249.26 25.0504 246.86 25.07 244.44 25.07C243.231 25.07 242.039 25.07 240.83 25.07C239.716 25.07 238.564 25.1482 237.47 24.9917C237.45 24.9917 237.45 24.9721 237.47 24.9721C237.623 24.9525 237.777 24.933 237.93 24.9134V24.8743C237.892 24.8743 237.853 24.8547 237.853 24.8155C237.623 23.3477 238.526 21.8213 239.928 21.1754C241.252 20.5492 242.866 20.7645 244.037 21.5864C244.248 19.6489 244.805 17.7506 245.881 16.0871C247.627 13.3864 250.854 11.5076 254.272 12.1143C257.306 12.6427 259.61 15.4021 258.958 18.2986C260.532 17.5549 262.318 18.7487 262.222 20.4122C263.662 16.7134 266.235 13.0145 270.71 12.4861C274.973 11.9773 278.525 15.0499 278.775 18.827C279.773 17.6919 281.444 17.1439 283.077 17.457C286.187 18.0833 287.532 21.058 287.378 23.7979C287.378 23.8957 287.301 23.9544 287.205 24.0132C287.243 24.1501 287.09 24.3458 286.821 24.3458Z" fill="#F4E8D3"/>
<path d="M687.663 43.631C689.43 44.8248 690.006 46.8993 689.891 48.8563C683.132 49.189 676.352 49.3456 669.574 49.326C669.594 47.3885 668.134 45.8033 666.195 45.4902C667.462 42.1045 669.728 38.5623 673.78 37.9752C678.369 37.2902 681.941 41.3021 681.211 45.4315C681.154 45.7838 681.902 45.6664 681.98 45.3728C682.536 42.8286 685.59 42.2219 687.663 43.631Z" fill="#F4E8D3"/>
<path d="M689.891 48.837C690.006 46.88 689.43 44.8251 687.663 43.6117C685.59 42.2026 682.536 42.8093 681.98 45.3535C681.902 45.647 681.154 45.7644 681.212 45.4122C681.941 41.2828 678.369 37.2709 673.78 37.9558C669.728 38.5625 667.481 42.0852 666.195 45.4709C668.134 45.784 669.594 47.3497 669.574 49.3067C676.353 49.3263 683.132 49.1697 689.891 48.837ZM690.102 49.3458C683.208 49.6785 676.314 49.8351 669.42 49.8351C664.601 50.0504 659.781 50.0112 654.961 50.0308C652.541 50.0504 650.141 50.07 647.722 50.07C646.512 50.07 645.321 50.07 644.112 50.07C642.997 50.07 641.845 50.1482 640.751 49.9917C640.731 49.9917 640.731 49.9721 640.751 49.9721C640.904 49.9525 641.058 49.933 641.211 49.9134V49.8743C641.173 49.8743 641.135 49.8547 641.135 49.8155C640.904 48.3477 641.807 46.8213 643.209 46.1754C644.534 45.5492 646.147 45.7645 647.318 46.5864C647.529 44.6489 648.087 42.7506 649.162 41.0871C650.909 38.3864 654.135 36.5076 657.553 37.1143C660.587 37.6427 662.891 40.4021 662.239 43.2986C663.814 42.5549 665.599 43.7487 665.503 45.4122C666.944 41.7134 669.516 38.0145 673.991 37.4861C678.254 36.9773 681.806 40.0499 682.056 43.827C683.054 42.6919 684.725 42.1439 686.358 42.457C689.469 43.0833 690.813 46.058 690.659 48.7979C690.659 48.8957 690.582 48.9544 690.486 49.0132C690.524 49.1501 690.371 49.3458 690.102 49.3458Z" fill="#F4E8D3"/>
<path d="M119.537 6.63104C121.305 7.82484 121.881 9.89934 121.766 11.8563C115.006 12.189 108.227 12.3456 101.449 12.326C101.468 10.3885 100.008 8.80334 98.0693 8.49024C99.3361 5.10454 101.603 1.56234 105.654 0.975241C110.243 0.290241 113.815 4.30214 113.086 8.43154C113.028 8.78384 113.777 8.66644 113.854 8.37284C114.411 5.82864 117.464 5.22194 119.537 6.63104Z" fill="#F4E8D3"/>
<path d="M121.766 11.837C121.88 9.88 121.304 7.82509 119.537 6.61169C117.464 5.20259 114.41 5.80929 113.854 8.35349C113.776 8.64699 113.028 8.76439 113.086 8.41219C113.815 4.2828 110.243 0.270895 105.654 0.955795C101.602 1.56249 99.3555 5.0852 98.0691 8.47089C100.008 8.78399 101.468 10.3497 101.448 12.3067C108.227 12.3263 115.006 12.1697 121.766 11.837ZM121.976 12.3458C115.082 12.6785 108.188 12.8351 101.294 12.8351C96.4746 13.0504 91.6548 13.0112 86.8351 13.0308C84.4154 13.0504 82.0153 13.07 79.5957 13.07C78.3858 13.07 77.1946 13.07 75.9857 13.07C74.8711 13.07 73.7191 13.1482 72.6251 12.9917C72.6054 12.9917 72.6054 12.9721 72.6251 12.9721C72.7781 12.9525 72.9322 12.933 73.0853 12.9134V12.8743C73.047 12.8743 73.0087 12.8547 73.0087 12.8155C72.7781 11.3477 73.6809 9.82129 75.083 9.17539C76.4077 8.54919 78.0208 8.76449 79.1924 9.58639C79.4033 7.64889 79.9607 5.7506 81.0361 4.0871C82.7827 1.3864 86.0089 -0.492404 89.4275 0.114296C92.4614 0.642696 94.7653 3.40209 94.1128 6.29859C95.6876 5.55489 97.4735 6.7487 97.3773 8.41219C98.8177 4.7134 101.39 1.0145 105.865 0.486095C110.128 -0.0227045 113.68 3.04989 113.93 6.82699C114.928 5.69189 116.599 5.1439 118.232 5.457C121.343 6.08329 122.687 9.05799 122.533 11.7979C122.533 11.8957 122.456 11.9544 122.36 12.0132C122.398 12.1501 122.245 12.3458 121.976 12.3458Z" fill="#F4E8D3"/>
<path d="M412.797 130.069H355.106C351.594 130.069 348.75 127.194 348.75 123.643V74.5563C348.75 71.0054 351.594 68.1309 355.106 68.1309H412.797C416.309 68.1309 419.153 71.0054 419.153 74.5563V123.643C419.17 127.194 416.309 130.069 412.797 130.069Z" fill="#FF9A2E"/>
<path d="M404.415 130.069H348.815C345.303 130.069 342.459 127.194 342.459 123.643V74.5563C342.459 71.0054 345.303 68.1309 348.815 68.1309H404.415C407.927 68.1309 410.771 71.0054 410.771 74.5563V123.643C410.771 127.194 407.927 130.069 404.415 130.069Z" fill="#FFCB48"/>
<path d="M385.111 108.712L380.679 94.9649C380.595 94.7113 380.712 94.4407 380.946 94.3055C383.121 92.9866 384.543 90.7208 384.476 88.1337C384.375 84.363 381.047 81.2517 376.915 81.1164C372.432 80.9642 368.736 84.2446 368.736 88.3028C368.736 90.9575 370.308 93.274 372.65 94.5253C372.884 94.6437 373.001 94.9142 372.917 95.1509L368.1 108.763C368.017 109.016 368.217 109.287 368.518 109.287H384.643C384.977 109.27 385.212 108.983 385.111 108.712Z" fill="#FF9A2E"/>
<path d="M381.045 95.0157C380.961 94.7452 381.062 94.4408 381.296 94.2717C383.236 92.9866 384.524 90.7884 384.524 88.2859C384.524 87.5081 384.39 86.7472 384.156 86.037C382.065 79.713 372.648 80.8967 372.063 87.5419C372.046 87.7448 372.029 87.9646 372.029 88.1675C372.029 90.8561 373.518 93.2064 375.726 94.4408C375.893 94.5253 375.977 94.7283 375.91 94.8973L371.26 109.253H384.742C384.992 109.253 385.176 109.016 385.093 108.763L381.045 95.0157Z" fill="#3B2B5B"/>
<path d="M406.438 68.1139H399.329V52.287C399.329 41.8879 391.15 33.4334 381.08 33.4334C371.011 33.4334 362.832 41.8879 362.832 52.287V68.1139H355.723V52.287C355.723 37.9312 367.097 26.2471 381.08 26.2471C395.064 26.2471 406.438 37.9312 406.438 52.287V68.1139Z" fill="#AACBE8"/>
<path d="M359.268 60.5727C358.984 58.7635 358.817 56.9711 358.649 55.1618L358.449 52.4564C358.415 51.9999 358.432 51.5264 358.415 51.0529C358.415 50.5795 358.382 50.106 358.432 49.6495C358.666 45.8957 359.904 42.1588 361.961 38.9799C364.069 35.8348 366.979 33.2139 370.341 31.5737C373.72 29.9674 377.5 29.3079 381.08 29.8152C377.517 30.3732 374.205 31.5399 371.295 33.3492C368.401 35.1585 365.959 37.5934 364.069 40.4003C362.229 43.241 360.974 46.4706 360.406 49.8693C360.272 50.7148 360.205 51.5771 360.105 52.4564L359.904 55.1618C359.72 56.9711 359.553 58.7804 359.268 60.5727Z" fill="#D5EAF5"/>
<path d="M252.829 124.105H179.188V76.0687C179.188 74.5902 180.345 73.3867 181.808 73.3867H208.407C209.767 73.3867 210.89 74.4526 211.026 75.828L211.264 78.6476H251.095C252.047 78.6476 252.829 79.4384 252.829 80.4012V124.105Z" fill="#FF9A2E"/>
<path d="M250.718 80.9512H181.771V111.107H250.718V80.9512Z" fill="white"/>
<path d="M250.753 133.25H181.024C179.8 133.25 178.779 132.287 178.711 131.015L176.262 92.9855C176.16 91.5757 177.283 90.3723 178.643 90.4066H217.317L223.78 85.7646L253.849 86.0054C255.243 86.0054 256.332 87.2432 256.196 88.653L253.032 131.05C252.964 132.287 251.944 133.25 250.753 133.25Z" fill="#FFCB48"/>
<path d="M398.55 79.0535C398.332 78.5801 399.018 78.411 399.386 78.2081C399.302 78.3095 399.202 78.4448 399.386 78.4448C399.653 78.4448 400.155 78.2081 400.256 77.9883C400.356 78.1066 400.423 78.2757 400.456 78.411C400.49 78.5463 398.6 79.1888 398.55 79.0535Z" fill="#30193B"/>
<path d="M399.37 78.4448C399.186 78.4448 399.103 78.3433 399.354 78.2249C399.571 78.1235 399.722 77.9882 399.755 77.9544C399.839 77.8699 399.839 77.6838 399.839 77.6838L400.039 77.6162C400.039 77.6162 400.223 77.9375 400.24 77.9713C400.14 78.1911 399.638 78.4279 399.37 78.4448Z" fill="#FF97A6"/>
<path d="M402.411 81.3189C402.127 80.8793 402.779 80.6087 403.114 80.3551C403.047 80.4735 402.963 80.6087 403.147 80.5918C403.398 80.5411 403.867 80.2367 403.933 80C404.051 80.1015 404.134 80.2705 404.201 80.3889C404.251 80.5242 402.495 81.4373 402.411 81.3189Z" fill="#30193B"/>
<path d="M403.132 80.5752C402.948 80.609 402.864 80.5245 403.082 80.3723C403.282 80.237 403.416 80.0679 403.45 80.0341C403.533 79.9327 403.483 79.7636 403.483 79.7636L403.667 79.6621C403.667 79.6621 403.901 79.9496 403.918 79.9834C403.851 80.2201 403.399 80.5414 403.132 80.5752Z" fill="#FF97A6"/>
<path d="M408.367 61.9761C408.367 61.9761 404.854 61.249 404.787 61.2659C404.553 61.5703 402.914 63.9375 402.914 63.9375C402.914 63.9375 398.665 64.4448 397.411 65.9666C395.989 67.6744 398.967 76.9237 399.602 77.5493C399.803 77.7522 400.037 77.6339 400.037 77.6339C400.271 77.1435 400.639 72.1553 400.673 71.2084C400.74 69.2808 400.639 68.0295 400.639 68.0295L405.005 67.8604C405.774 68.0972 408.367 61.9761 408.367 61.9761Z" fill="#3B2B5B"/>
<path d="M406.846 61.418H409.07C411.747 67.742 410.074 68.2154 409.187 68.8748C408.602 69.3145 404.922 70.2614 404.922 70.2614C404.922 70.2614 404.169 79.7135 403.885 79.7474C403.567 79.7812 403.283 79.9165 403.065 79.8319C403.032 79.815 400.272 69.4498 401.828 67.6574C402.229 67.2009 404.872 65.7129 404.939 65.3916C405.173 64.1403 406.846 61.418 406.846 61.418Z" fill="#30193B"/>
<path d="M410.089 63.6163C410.574 62.3481 411.461 59.8118 411.578 58.7972C411.645 58.3069 411.795 57.2754 411.109 56.8527C410.758 56.6498 407.931 55.5338 406.56 55.872C405.958 56.0241 404.87 57.7151 404.636 58.3914C404.118 59.9809 403.984 60.8263 403.984 62.3481C404.001 62.9399 409.637 64.783 410.089 63.6163Z" fill="#357A5F"/>
<path d="M408.366 55.2629C408.366 55.2629 408.283 56.0915 408.366 56.176C408.45 56.2606 408.768 56.3451 408.919 56.1084C409.07 55.8886 408.819 55.1953 408.819 55.1953L408.366 55.2629Z" fill="#FF97A6"/>
<path d="M408.333 55.8719C408.517 55.9226 408.768 55.7874 408.952 55.6183C408.936 55.4661 408.919 55.5168 408.885 55.3984L408.349 55.4661C408.349 55.5675 408.333 55.7197 408.333 55.8719Z" fill="#C95D77"/>
<path d="M409.319 54.8571C409.353 54.7388 409.303 54.2991 409.252 53.944C409.202 53.6397 408.918 53.4537 408.633 53.5044C408.182 53.5889 407.68 53.7242 407.563 53.8257C407.362 53.9948 407.412 54.316 407.429 54.5358C407.446 54.7726 407.58 55.1784 407.73 55.3475C407.881 55.4997 408.265 55.618 408.483 55.5842C409.102 55.4997 409.252 55.3137 409.319 54.8571Z" fill="#FF97A6"/>
<path d="M408.384 53.0642C408.333 53.0303 408.35 53.0303 408.283 53.0134C408.25 52.9965 408.216 53.0642 408.25 53.0811C408.317 53.1149 408.3 53.098 408.367 53.1149C408.384 53.098 408.4 53.0811 408.384 53.0642Z" fill="#FF5E4D"/>
<path d="M409.453 52.625C409.487 52.5067 409.537 52.3883 409.587 52.2869C409.604 52.2531 409.57 52.2192 409.537 52.2192C409.403 52.2192 409.286 52.2361 409.169 52.2869C409.186 52.2361 409.219 52.2023 409.236 52.1516C409.252 52.1178 409.202 52.067 409.169 52.084C408.951 52.1685 408.734 52.3207 408.583 52.5067C408.065 52.084 407.496 51.9318 406.844 52.0332C406.777 52.0332 406.777 52.1347 406.844 52.1516C407.429 52.3038 406.794 52.2531 406.626 52.2869C406.493 52.3207 406.392 52.3545 406.275 52.4221C405.974 52.5574 405.757 52.7772 405.522 52.997C405.472 53.0478 405.539 53.1154 405.606 53.0816C405.907 52.9294 406.191 52.8787 406.476 52.9632C406.576 52.9632 406.61 52.9801 406.559 52.9801C406.543 52.997 406.191 53.1492 406.175 53.1661C406.125 53.2 406.141 53.2676 406.191 53.2845C406.727 53.4367 406.861 53.8087 407.463 53.8087C407.714 53.8087 407.981 53.7241 408.215 53.6734C408.717 53.4874 408.935 53.6058 409.135 54.0792C409.202 54.2483 409.252 54.4174 409.319 54.6034C409.353 54.6879 409.42 54.7387 409.52 54.5189C409.671 54.0285 409.671 53.183 409.453 52.625Z" fill="#80540A"/>
<path d="M409.187 52.2868L409.254 52.1684C409.288 52.1346 409.254 52.0839 409.221 52.0839C409.137 52.1008 409.07 52.1515 409.003 52.1853C408.869 52.2699 408.736 52.3882 408.635 52.5235C408.635 52.5235 408.619 52.5404 408.619 52.5235C408.284 52.253 407.883 52.067 407.448 52.0501C407.347 52.0501 407.23 52.0501 407.13 52.0501C407.08 52.0501 407.03 52.0501 406.979 52.067L406.896 52.0839C406.879 52.0839 406.862 52.1008 406.862 52.1008C406.862 52.1177 406.862 52.1346 406.879 52.1346C406.896 52.1346 406.929 52.1515 406.946 52.1515C406.996 52.1684 407.046 52.1853 407.113 52.2022L407.13 52.2191C407.13 52.2191 407.163 52.253 407.147 52.2699C407.147 52.2868 407.13 52.2868 407.13 52.2868H407.113H407.096C407.063 52.2868 407.046 52.2868 407.013 52.2868H406.846C406.628 52.2868 406.444 52.3713 406.243 52.4728C406.059 52.5742 405.892 52.7095 405.742 52.8617L405.624 52.98C405.574 53.0308 405.558 53.0308 405.591 53.0646C405.608 53.0815 405.658 53.0308 405.708 53.0139C405.758 52.997 405.808 52.9631 405.859 52.9462C406.059 52.8786 406.294 52.8786 406.511 52.9293H406.578C406.595 52.9293 406.595 52.9293 406.611 52.9293C406.611 52.9293 406.611 52.9293 406.628 52.9293C406.628 52.9293 406.628 52.9293 406.645 52.9462C406.645 52.9631 406.645 52.9631 406.628 52.9631C406.611 52.9801 406.611 52.9631 406.611 52.98H406.595L406.611 52.9631C406.528 53.0139 406.461 53.0477 406.377 53.0815L406.26 53.1322C406.227 53.1491 406.193 53.1661 406.193 53.1999C406.193 53.2337 406.227 53.2506 406.26 53.2506C406.294 53.2675 406.344 53.2844 406.377 53.3013C406.461 53.3351 406.528 53.369 406.595 53.4197C406.728 53.5042 406.862 53.6057 407.013 53.6902C407.163 53.7579 407.314 53.7917 407.481 53.8086C407.314 53.8086 407.147 53.7917 406.996 53.7071C406.846 53.6395 406.712 53.538 406.578 53.4535C406.511 53.4197 406.444 53.369 406.36 53.3521C406.327 53.3351 406.277 53.3182 406.243 53.3182C406.21 53.3182 406.143 53.2844 406.143 53.2168C406.143 53.1491 406.21 53.1322 406.227 53.1153L406.344 53.0646C406.411 53.0308 406.494 52.997 406.561 52.9631L406.578 52.9462H406.595C406.595 52.9462 406.595 52.9462 406.595 52.9631C406.595 52.9801 406.595 52.98 406.595 52.98C406.595 52.98 406.578 52.98 406.561 52.98H406.494C406.294 52.9293 406.076 52.9293 405.875 52.997C405.825 53.0139 405.775 53.0308 405.725 53.0477L405.658 53.0815C405.641 53.0984 405.591 53.1153 405.558 53.0984C405.524 53.0815 405.491 53.0477 405.507 52.997C405.524 52.9462 405.558 52.9462 405.574 52.9293L405.691 52.811C405.992 52.5066 406.394 52.2361 406.829 52.2191H406.996C407.03 52.2191 407.046 52.2191 407.08 52.2191H407.096C407.096 52.2191 407.096 52.2192 407.08 52.2361C407.063 52.2361 407.096 52.2699 407.08 52.253H407.063C407.013 52.2361 406.963 52.2191 406.912 52.2022C406.879 52.1853 406.862 52.1853 406.829 52.1853C406.795 52.1684 406.779 52.1177 406.779 52.0839C406.779 52.0501 406.829 52.0162 406.862 52.0162L406.946 51.9993C406.996 51.9993 407.046 51.9824 407.113 51.9824C407.214 51.9824 407.331 51.9824 407.431 51.9824C407.866 52.0162 408.284 52.2022 408.619 52.4897H408.602C408.702 52.3544 408.836 52.253 408.987 52.1684C409.053 52.1346 409.137 52.0839 409.221 52.067C409.271 52.067 409.288 52.1346 409.254 52.1684L409.187 52.2868Z" fill="#A87C1B"/>
<path d="M408.484 56.5649C408.484 56.5649 407.782 61.1811 405.791 63.3116C405.791 63.3116 407.464 64.2754 409.973 63.3116C412.482 62.3478 411.244 57.5625 411.244 57.5625C411.244 57.5625 410.525 56.5649 410.475 56.548C410.14 56.4127 408.819 56.0576 408.819 56.0576L408.484 56.5649Z" fill="#1F6864"/>
<path d="M408.184 56.3281L408.285 56.717L408.469 56.7508L408.821 56.4295C408.821 56.4464 408.502 56.0744 408.184 56.3281Z" fill="#3B2B5B"/>
<path d="M408.483 56.565C408.483 56.565 408.516 59.2705 408.466 60.1667C408.432 61.0628 408.215 61.2658 408.215 61.2658L407.412 61.587L406.843 60.8938C406.843 60.8938 408.014 56.9032 408.349 56.565C408.683 56.21 408.483 56.565 408.483 56.565Z" fill="#3B2B5B"/>
<path d="M408.351 55.6689C408.351 55.6689 408.301 55.9733 408.535 56.2438L408.184 56.5482C408.167 56.5482 407.832 56.3115 408.351 55.6689Z" fill="#1F6864"/>
<path d="M408.953 55.7021C408.953 55.7021 409.104 55.8543 408.484 56.2432L408.685 56.7167C408.685 56.7167 409.171 56.4123 409.138 56.1418C409.138 56.0234 409.071 55.8543 408.953 55.7021Z" fill="#357A5F"/>
<path d="M410.14 56.4629C410.14 56.4629 411.043 56.6151 411.595 57.3252C411.863 57.6634 411.963 58.1538 412.03 58.7794C412.131 59.7771 412.097 61.1467 411.963 61.8907C411.796 62.77 411.027 62.9221 410.19 62.584C410.19 62.584 411.06 59.236 410.575 57.6127C410.374 56.8687 410.14 56.4629 410.14 56.4629Z" fill="#1F6864"/>
<path d="M404.722 60.7747C404.855 59.9631 405.039 59.1853 405.29 58.4075C405.541 57.6466 405.842 56.8857 406.261 56.1924C405.893 56.9026 405.642 57.6804 405.458 58.4413C405.274 59.2191 405.123 60.0138 405.056 60.7916L404.722 60.7747Z" fill="#1F6864"/>
<path d="M408.15 64.6133L408.066 65.222L404.972 66.3042L402.496 65.9153L405.072 65.5095L408.15 64.6133Z" fill="#6B54B2"/>
<path d="M396.977 64.4447L404.955 65.5438L408.15 64.6138L397.11 63.2441L396.977 64.4447Z" fill="#AACBE8"/>
<path d="M396.893 65.053L404.972 66.3043L404.654 59.6759L396.475 58.915L396.893 65.053Z" fill="#7F65C1"/>
<path d="M405.273 66.1187L404.955 66.3047L404.653 59.6764L405.005 59.6426L405.273 66.1187Z" fill="#6B54B2"/>
<path d="M405.005 59.6421L397.127 58.915H396.475L404.654 59.6759L405.005 59.6421Z" fill="#6B54B2"/>
<path d="M406.946 64.1907C406.979 64.2415 406.963 64.3091 406.929 64.3429C406.812 64.4275 406.829 64.4782 406.611 64.6304C406.611 64.6304 405.875 64.9516 405.541 64.7995C405.541 64.7995 405.44 64.7656 405.374 64.6642C405.357 64.6304 405.725 64.4613 405.725 64.4613C405.725 64.4613 405.29 64.5796 405.307 64.4951C405.323 64.4106 405.842 64.1062 406.059 64.0724C406.059 64.0724 405.808 64.0893 405.808 64.0047C405.808 63.9202 406.277 63.8525 406.444 63.9202C406.444 63.9202 406.628 63.9371 406.712 63.9202C406.795 63.954 406.896 64.0893 406.946 64.1907Z" fill="#FF97A6"/>
<path d="M406.394 63.565C406.361 63.4297 410.208 61.7557 410.626 61.5866C411.028 61.4344 412.115 61.1639 411.931 62.0431C411.864 62.3813 411.245 63.1422 410.476 63.7679C409.171 64.85 406.963 66.4395 406.394 63.565Z" fill="#1F6864"/>
<path d="M406.394 63.5656C407.046 63.1936 407.699 62.8385 408.368 62.4834C409.037 62.1453 409.706 61.8071 410.375 61.4858L410.308 61.5534C410.459 61.0123 410.576 60.4712 410.659 59.9133C410.743 59.3553 410.793 58.7973 410.71 58.2393C410.793 58.5098 410.827 58.7973 410.843 59.0847C410.86 59.3722 410.843 59.6596 410.827 59.9471C410.776 60.522 410.676 61.08 410.542 61.638C410.542 61.6718 410.509 61.6887 410.492 61.7056C409.823 62.0438 409.154 62.3651 408.468 62.6863C407.782 62.9738 407.097 63.2782 406.394 63.5656Z" fill="#357A5F"/>
<path d="M585.918 130.662C585.768 129.945 586.992 129.945 587.702 129.706C587.487 129.858 587.272 130.054 587.616 130.141C588.11 130.271 589.184 130.097 589.507 129.728C589.636 130.01 589.679 130.38 589.679 130.64C589.679 130.988 586.047 131.314 585.918 130.662Z" fill="#30193B"/>
<path d="M587.612 130.162C587.268 130.075 587.483 129.858 587.698 129.728C588.149 129.576 588.515 129.467 588.601 129.424C588.816 129.315 588.88 129.12 588.88 129.12L589.095 129.076C589.095 129.076 589.482 129.684 589.503 129.75C589.181 130.097 588.106 130.293 587.612 130.162Z" fill="#FF97A6"/>
<path d="M612.173 130.944C612.216 130.162 611.206 130.249 610.561 130.01C610.754 130.141 610.948 130.336 610.625 130.423C610.174 130.532 609.164 130.336 608.906 129.967C608.777 130.206 608.734 130.553 608.734 130.792C608.691 131.118 612.13 131.531 612.173 130.944Z" fill="#30193B"/>
<path d="M610.624 130.423C610.947 130.358 610.753 130.162 610.56 130.01C610.152 129.858 609.808 129.75 609.743 129.706C609.55 129.598 609.507 129.402 609.507 129.402L609.292 129.337C609.292 129.337 608.927 129.88 608.884 129.945C609.163 130.314 610.152 130.532 610.624 130.423Z" fill="#FF97A6"/>
<path d="M589.975 77.2436C589.954 77.3739 586.43 81.6969 585.72 85.0424C583.571 95.1656 588.858 129.076 588.858 129.076L590.018 128.685L594.295 89.5827L608.069 129.467L609.724 129.359C609.724 129.359 607.983 111.306 606.544 100.966C605.706 94.8615 604.76 85.5855 599.366 77.1784C597.755 76.8525 592.511 77.0915 589.975 77.2436Z" fill="#7F65C1"/>
<path d="M608.843 129.467L609.724 129.424C609.724 129.424 607.984 111.372 606.544 101.031C605.706 94.9268 604.76 85.6507 599.367 77.2436C598.593 77.0698 596.96 77.0264 595.219 77.0481C594.402 77.0699 597.733 87.4321 600.72 98.4677C604.717 113.11 608.843 129.467 608.843 129.467Z" fill="#6B54B2"/>
<path d="M589.676 64.9701C588.73 68.1635 588.387 69.4669 588.838 73.8334C588.967 75.1151 600.356 77.8523 600.614 77.1788C600.7 76.9399 601.409 75.0282 601.796 74.0289C603.623 69.1845 604.246 67.7942 603.837 65.8173C603.558 64.4487 603.537 62.8846 596.982 61.1033C594.919 60.5385 593.265 60.9078 592.534 61.2553C591.202 61.8419 590.063 63.6449 589.676 64.9701Z" fill="#F9CB9D"/>
<path d="M596.273 60.9506C596.273 60.9506 594.468 63.7747 593.672 67.2288C592.834 70.8566 593.028 75.1362 593.157 75.8097C593.157 75.8097 590.342 75.3535 589.095 74.2673C588.902 74.1152 588.794 73.8763 588.773 73.6373C588.644 72.2035 588.279 66.3816 589.976 63.3185C591.91 59.7993 596.273 60.9506 596.273 60.9506Z" fill="#FFE5B0"/>
<path d="M598.444 74.2244C598.83 73.0078 600.098 69.0541 600.098 69.0541C600.098 69.0541 601.366 61.4943 603.451 64.6659C604.891 66.8383 602.699 73.7247 600.464 77.5046C599.669 78.895 597.541 77.005 598.444 74.2244Z" fill="#F9CB9D"/>
<path d="M596.875 74.2246C596.875 74.2246 587.355 74.5939 586.796 75.9625C586.259 77.3094 587.506 78.8518 590.063 79.5687C591.18 79.8728 598.207 80.8938 600.313 77.7438C602.269 74.7894 596.875 74.2246 596.875 74.2246Z" fill="#F9CB9D"/>
<path d="M596.572 59.0176C596.572 59.0176 595.949 60.9293 596.1 61.1682C596.25 61.4072 596.852 61.7765 597.282 61.342C597.711 60.9075 597.561 59.1479 597.561 59.1479L596.572 59.0176Z" fill="#FF97A6"/>
<path d="M596.206 60.2557C596.571 60.4729 597.388 60.4078 597.603 60.0602C597.667 59.7126 597.603 59.9081 597.581 59.604L596.421 59.4736C596.356 59.7126 596.292 59.9298 596.206 60.2557Z" fill="#C95D77"/>
<path d="M600.141 74.832L599.926 75.9617L594.102 77.5692L589.568 76.5699L594.382 76.1355L600.141 74.832Z" fill="#30193B"/>
<path d="M579.532 73.1814L594.145 76.201L600.141 74.8324L579.962 70.9873L579.532 73.1814Z" fill="#295A6E"/>
<path d="M579.337 74.2892L594.101 77.5695L594.294 65.3391L579.273 62.9277L579.337 74.2892Z" fill="#3B2B5B"/>
<path d="M594.703 77.2874L594.102 77.5698L594.295 65.3394L594.983 65.2959L594.703 77.2874Z" fill="#30193B"/>
<path d="M594.96 65.2956L580.498 62.9929L579.273 62.9277L594.294 65.3391L594.96 65.2956Z" fill="#30193B"/>
<path d="M586.151 76.2445C585.936 75.9404 585.871 75.5059 585.936 75.2452C585.979 75.0714 586.086 75.0497 586.086 75.0497C586.086 75.0497 586.065 74.8107 586.237 74.8325C586.344 74.8325 586.516 75.3104 586.753 75.5928C586.882 75.7666 587.075 75.9186 587.204 76.0273C587.204 76.0273 587.118 75.5711 587.268 75.5711C587.397 75.5711 587.483 76.1142 587.548 76.3966C587.548 76.6355 586.43 76.6572 586.151 76.2445Z" fill="#FF97A6"/>
<path d="M587.056 75.9192C586.841 75.4847 586.669 74.7896 586.561 74.833C586.389 74.8982 586.432 75.1589 586.561 75.5282C586.669 75.8975 587.056 75.9192 587.056 75.9192Z" fill="#FF97A6"/>
<path d="M595.132 61.1684C594.337 61.907 592.274 63.7752 589.222 63.558C586.45 63.3625 583.399 63.7101 581.25 59.9084C580.025 57.7578 583.055 58.7353 583.055 58.7353L590.017 60.017C590.017 60.017 596.034 60.3646 595.132 61.1684Z" fill="#FFE5B0"/>
<path d="M584.153 62.754C581.746 62.2979 576.245 52.9784 578.587 50.0891C579.468 49.0246 580.349 49.2419 580.349 49.2419L586.732 59.8431C586.753 59.8648 586.861 63.2971 584.153 62.754Z" fill="#FFE5B0"/>
<path d="M579.745 49.7415C579.659 49.8067 579.552 49.8284 579.466 49.785C579.251 49.6764 578.735 49.394 578.327 49.1984C578.327 49.1984 577.704 48.8726 577.704 48.4816C577.704 48.4816 577.79 48.3512 577.94 48.5033C577.94 48.5033 577.618 48.0471 577.747 47.895C577.854 47.7429 578.069 47.8733 578.069 47.8733C578.069 47.8733 578.542 48.2643 578.864 48.3947C579.122 48.5033 579.208 48.525 579.315 48.4598C579.315 48.4598 579.1 48.1122 579.251 48.0688C579.401 48.0253 579.853 48.6771 579.853 48.9377C579.853 48.9377 579.939 49.2202 580.025 49.3288C580.068 49.3939 579.917 49.6112 579.745 49.7415Z" fill="#FFA9BA"/>
<path d="M598.443 74.2242C598.636 73.377 598.873 72.5297 599.131 71.7042C599.367 70.8787 599.646 70.0532 599.926 69.2277C600.227 68.4022 600.484 67.5767 600.828 66.7729C601 66.3819 601.172 65.9692 601.387 65.5781C601.494 65.3826 601.602 65.1871 601.709 65.0133C601.817 64.8395 601.946 64.6223 602.118 64.5137C601.838 64.8395 601.709 65.274 601.559 65.665C601.408 66.0778 601.258 66.4688 601.129 66.8816L600.312 69.3581C600.033 70.1836 599.732 71.0091 599.431 71.8128C599.131 72.6166 598.808 73.4204 598.443 74.2242Z" fill="#FCD9BB"/>
<path d="M595.393 54.4121C595.393 54.4121 594.984 57.1493 595.135 58.0617C595.264 58.9741 597.133 55.6504 597.133 55.6504L595.393 54.4121Z" fill="#FFCB48"/>
<path d="M598.186 59.4741C598.509 59.2134 599.046 57.7362 599.046 57.7362C599.196 56.6065 596.854 55.9765 596.424 56.0417C595.951 56.1069 595.693 56.6283 595.5 57.0193C595.307 57.4103 595.092 58.1706 595.156 58.6051C595.221 59.0179 595.736 59.5827 596.102 59.7348C597.176 60.2561 597.606 60.1258 598.186 59.4741Z" fill="#FF97A6"/>
<path d="M600.42 55.1504C600.485 55.1504 601.602 55.889 601.173 56.8231C600.743 57.7355 598.185 59.5386 598.185 59.5386C598.185 59.5386 599.281 57.3445 598.056 56.519C597.326 56.0411 600.42 55.1504 600.42 55.1504Z" fill="#FFCB48"/>
<path d="M598.036 56.5188C598.036 56.5188 594.899 56.5623 594.168 53.8468C593.459 51.1096 595.329 50.0234 595.329 50.0234C595.329 50.0234 595.092 51.6527 595.651 52.3479C595.651 52.3479 596.016 51.392 596.339 51.24C596.339 51.24 596.274 52.4782 596.898 53.043C597.521 53.6079 600.615 53.282 600.723 54.9547C600.809 56.6274 598.036 56.5188 598.036 56.5188Z" fill="#FFCB48"/>
<path d="M594.167 53.8252C594.124 53.6514 594.059 53.4776 594.016 53.3038C593.995 53.13 593.952 52.9563 593.952 52.7607C593.93 52.3914 593.952 52.0221 594.016 51.6746C594.102 51.327 594.253 50.9794 594.446 50.6535C594.661 50.3494 594.897 50.067 595.22 49.8497C595.284 49.8063 595.392 49.828 595.435 49.8932C595.456 49.9149 595.456 49.9584 595.456 50.0018V50.0235C595.413 50.3928 595.392 50.8056 595.435 51.1749C595.478 51.5442 595.564 51.9352 595.757 52.1959L595.456 52.2394C595.542 52.0221 595.628 51.8266 595.736 51.6094C595.8 51.5007 595.864 51.4139 595.929 51.3052C596.015 51.2183 596.079 51.1097 596.23 51.0228C596.316 50.9794 596.423 51.0228 596.466 51.1097C596.488 51.1315 596.488 51.1749 596.488 51.1966V51.2184C596.466 51.718 596.552 52.2828 596.81 52.6956C596.939 52.9128 597.111 52.9997 597.369 53.0866C597.605 53.1735 597.885 53.2169 598.142 53.2821C598.68 53.3907 599.217 53.4776 599.733 53.7166C599.991 53.8252 600.227 53.9773 600.42 54.1945C600.614 54.4117 600.7 54.6941 600.721 54.9548C600.678 54.6941 600.571 54.4335 600.356 54.2597C600.162 54.0859 599.926 53.9555 599.668 53.8904C599.174 53.7166 598.637 53.6514 598.099 53.5645C597.842 53.5211 597.562 53.4993 597.283 53.4124C597.154 53.369 597.003 53.3255 596.874 53.2386C596.724 53.1518 596.638 53.0214 596.552 52.9128C596.23 52.3914 596.144 51.8049 596.144 51.2401L596.402 51.4139C596.359 51.4356 596.294 51.5008 596.23 51.5877C596.165 51.6746 596.122 51.7614 596.079 51.8483C595.972 52.0221 595.886 52.2394 595.8 52.4132C595.757 52.5 595.671 52.5435 595.564 52.5C595.542 52.4783 595.499 52.4566 595.499 52.4349C595.22 52.0439 595.155 51.6094 595.112 51.1966C595.091 50.7839 595.112 50.3711 595.155 49.9584L595.392 50.1104C595.134 50.2842 594.876 50.5232 594.661 50.7839C594.468 51.0663 594.296 51.3704 594.21 51.6963C594.124 52.0221 594.059 52.3697 594.059 52.7173C594.059 53.13 594.102 53.4776 594.167 53.8252Z" fill="#FFE5B0"/>
<path d="M319.487 133.265C319.324 132.362 320.596 132.608 321.327 132.417C321.11 132.554 320.894 132.745 321.219 132.855C321.706 133.019 322.815 132.882 323.14 132.526C323.248 132.8 323.275 133.183 323.275 133.429C323.248 133.757 319.595 133.894 319.487 133.265Z" fill="#3B2B5B"/>
<path d="M321.217 132.828C320.893 132.718 321.109 132.527 321.326 132.39C321.786 132.253 322.164 132.171 322.246 132.144C322.462 132.062 322.543 131.843 322.543 131.843L322.76 131.788C322.76 131.788 323.112 132.39 323.139 132.472C322.814 132.855 321.704 132.992 321.217 132.828Z" fill="#FF97A6"/>
<path d="M339.808 133.156C339.97 132.253 338.699 132.499 337.968 132.308C338.184 132.444 338.401 132.636 338.076 132.745C337.589 132.909 336.48 132.773 336.155 132.417C336.047 132.691 336.02 133.074 336.02 133.32C336.047 133.648 339.7 133.812 339.808 133.156Z" fill="#3B2B5B"/>
<path d="M338.078 132.746C338.402 132.636 338.186 132.445 337.969 132.308C337.509 132.171 337.13 132.089 337.049 132.062C336.833 131.98 336.752 131.761 336.752 131.761L336.535 131.706C336.535 131.706 336.183 132.308 336.156 132.39C336.481 132.773 337.59 132.882 338.078 132.746Z" fill="#FF97A6"/>
<path d="M324.899 89.9056C324.899 90.015 323.438 92.1488 322.409 94.9937C320.786 99.4254 321.706 126.973 322.355 131.705C322.436 132.334 323.952 131.705 323.979 130.912C324.195 125.933 329.743 100.164 329.743 100.164L336.346 132.033H337.888C337.888 132.033 335.913 90.0424 335.182 88.8661C333.748 88.5105 327.172 89.7141 324.899 89.9056Z" fill="#3B2B5B"/>
<path d="M318.215 100.712C318.134 100.684 317.16 101.286 316.943 101.697C316.781 102.025 316.592 103.01 316.727 103.119C316.862 103.229 316.916 103.01 316.916 103.01C316.916 103.01 316.943 103.229 317.079 103.201C317.16 103.174 317.295 102.709 317.485 102.408C317.593 102.216 317.809 102.08 317.863 101.943C317.863 101.943 317.836 102.381 317.972 102.381C318.107 102.381 318.323 101.615 318.296 101.368C318.296 101.232 318.378 100.767 318.215 100.712Z" fill="#FF97A6"/>
<path d="M346.284 64.6142C346.527 64.0671 346.23 63.3012 345.77 63.4379C345.716 63.4653 345.499 63.6021 345.337 63.7389C345.201 63.8483 345.093 63.9303 345.093 63.9303C345.093 63.9303 345.391 63.52 345.228 63.4653C345.066 63.4106 344.904 63.6294 344.796 63.8209C344.687 64.0124 344.011 64.9425 344.335 65.6264C344.281 65.599 344.498 65.7632 344.579 65.7358C345.012 65.7085 346.04 65.2161 346.284 64.6142Z" fill="#FF97A6"/>
<path d="M346.501 63.0002C346.501 63.0002 346.826 62.9728 346.149 63.602L345.229 63.8756C345.202 63.8482 346.257 63.0275 346.501 63.0002Z" fill="#FF97A6"/>
<path d="M323.301 131.76C323.652 131.569 323.977 131.241 323.977 130.885C324.194 125.906 329.741 100.137 329.741 100.137L336.344 132.007H337.886C337.886 132.007 335.911 90.0155 335.18 88.8392C334.368 88.675 331.933 88.976 329.579 89.3042C327.738 89.5504 322.868 132.007 323.301 131.76Z" fill="#30193B"/>
<path d="M333.312 77.6127C332.203 76.6655 328.956 75.7182 323.327 77.3601C322.759 77.518 322.218 77.7706 321.703 78.1495C322.163 80.3598 321.541 83.3595 321.541 83.3595C322.19 84.7804 322.678 86.4223 323.002 87.8748C323.435 89.7378 323.977 93.9057 323.977 93.9057C323.977 93.9057 327.873 94.0636 329.74 93.9057C331.283 93.7794 335.369 92.1375 335.369 91.064C335.342 88.9168 334.882 86.6434 334.314 83.6121C333.61 80.1388 333.312 77.6127 333.312 77.6127Z" fill="#ED4235"/>
<path d="M341.364 68.0313C340.471 69.1802 335.84 73 335.84 73C335.84 73 336.492 75.9575 337.818 75C339.28 73.9331 340.872 72.8094 342.847 71.0313C344.168 68.7361 345.32 65.5313 344.826 65.0313C343.073 64.7145 342.257 66.8823 341.364 68.0313Z" fill="#ED4235"/>
<path d="M340.373 69.7178C340.373 69.7178 334.825 73.7664 333.391 74.6965C332.769 75.1068 331.93 75.6266 329.494 76.502C328.764 76.7755 331.037 77.4594 330.631 79.4837C332.201 78.964 340.562 73.1372 341.78 72.0156C343.052 70.8941 340.373 69.7178 340.373 69.7178Z" fill="#ED4235"/>
<path d="M321.731 77.9238C320.351 79.2643 320.135 79.9481 319.566 81.1244C318.403 83.5044 317.239 90.5348 317.104 91.7658C316.833 94.0911 320.919 89.2217 320.919 89.2217C320.919 89.2217 320.838 87.3342 322.056 84.3524C322.353 83.6412 323.301 81.6989 323.301 81.6989C323.301 81.6989 322.353 79.784 321.731 77.9238Z" fill="#FF5E4D"/>
<path d="M316.508 99.6725C315.29 97.7029 317.373 87.0889 319.132 88.8397C320.052 89.7697 320.918 89.1953 320.918 89.1953L319.944 99.6178C319.944 99.6178 318.645 103.174 316.508 99.6725Z" fill="#FF5E4D"/>
<path d="M326.818 76.6338C326.818 76.6338 326.06 76.7286 325.654 76.8233C324.923 76.9496 324.139 77.139 323.3 77.3916C322.731 77.5495 322.19 77.8021 321.676 78.181C322.136 80.3913 321.514 83.391 321.514 83.391C322.163 84.8119 322.65 86.4538 322.975 87.9063C323.408 89.7693 323.949 93.9373 323.949 93.9373C323.949 93.9373 326.222 94.0004 327.007 94.0004C327.656 94.0004 328.631 93.9688 328.631 93.9688C328.631 93.9688 329.01 91.2534 328.766 86.738C328.495 81.8122 326.818 76.6338 326.818 76.6338Z" fill="#FF5E4D"/>
<path d="M325.952 75.0792C325.952 75.0792 325.952 77.2403 326.196 77.4045C326.439 77.5959 327.278 77.7327 327.603 77.1035C327.928 76.5017 327.143 74.8057 327.143 74.8057L325.952 75.0792Z" fill="#FF97A6"/>
<path d="M326.008 76.6384C326.495 76.7205 327.117 76.3102 327.496 75.7357C327.442 75.3527 327.442 75.5716 327.334 75.2706L325.98 74.9697C325.98 75.2706 325.98 76.2828 326.008 76.6384Z" fill="#C95D77"/>
<path d="M327.737 77.7604L327.493 78.499L327.142 78.5537L326.492 77.9245C326.492 77.9245 327.142 77.2406 327.737 77.7604Z" fill="#3B2B5B"/>
<path d="M327.387 78.0332C327.387 78.0332 329.416 82.8478 330.011 84.4618C330.607 86.1031 330.39 86.5955 330.39 86.5955L328.848 87.7992L327.116 86.9512C327.116 86.9512 326.791 78.9633 327.116 78.1152C327.495 77.2672 327.387 78.0332 327.387 78.0332Z" fill="#3B2B5B"/>
<path d="M327.63 76.2285C327.63 76.2285 327.792 76.6662 327.062 77.569L327.738 78.1981C327.738 78.1981 328.55 77.5142 327.63 76.2285Z" fill="#FF5E4D"/>
<path d="M326.004 76.502C326.004 76.502 326.004 76.7482 327.14 77.5415L326.707 78.4442C326.68 78.4716 325.381 77.9792 326.004 76.502Z" fill="#ED4235"/>
<path d="M327.873 73.8216C327.873 73.7942 327.521 71.5237 327.44 71.2501C327.332 70.9492 327.196 70.5115 326.899 70.2106C326.331 69.6361 324.95 69.6908 324.436 70.4294C324.166 70.8398 324.003 71.9614 323.137 71.6058C323.137 71.6058 322.65 71.168 322.948 71.8246C323.3 72.6179 323.814 72.7547 323.814 72.7547C323.814 72.7547 324.382 75.2988 324.436 75.3261C324.49 75.3535 328.008 74.5602 327.873 73.8216Z" fill="#295A6E"/>
<path d="M327.792 73.9854C327.792 73.7119 327.44 73.028 327.25 72.6723C327.169 72.5356 327.061 72.4261 326.899 72.3714C326.06 72.1799 324.842 73.0006 324.68 73.2742C324.463 73.6298 324.68 74.0675 324.815 74.3957C324.95 74.724 325.925 76.2833 326.98 75.7362C328.089 75.1617 327.9 74.6967 327.792 73.9854Z" fill="#FF97A6"/>
<path d="M324.329 74.8601C324.275 74.4771 323.923 73.2188 323.977 73.2188C324.059 73.2461 324.491 73.6564 324.546 73.6838C324.573 73.6838 325.168 74.9968 325.303 75.161C325.601 75.544 326.196 75.4345 326.873 75.2157C327.712 74.9421 327.712 74.4771 327.712 74.1215C327.712 74.0394 327.712 73.547 327.685 73.4102C327.658 73.3282 327.766 73.4923 327.82 73.547C328.145 74.0121 328.551 74.4498 328.578 75.1884C328.578 76.4741 324.789 77.8418 324.329 74.8601Z" fill="#295A6E"/>
<path d="M322.865 71.5234C322.92 71.797 323.055 72.0432 323.244 72.2073C323.434 72.3988 323.65 72.5356 323.894 72.645C323.921 72.645 323.948 72.6724 323.948 72.6998C324.164 73.4657 324.354 74.2317 324.543 74.9976C324.651 75.3806 324.706 75.7636 324.976 76.0372C325.22 76.3107 325.599 76.5022 325.977 76.6116C325.599 76.5843 325.193 76.4475 324.868 76.1739C324.543 75.9004 324.408 75.4627 324.3 75.0797C324.083 74.3137 323.894 73.5478 323.731 72.7545L323.785 72.8365C323.542 72.6998 323.325 72.5083 323.136 72.2894C322.947 72.0979 322.838 71.797 322.865 71.5234Z" fill="#366E7F"/>
<path d="M323.813 71.5505C323.949 71.359 324.003 71.1402 324.084 70.9487C324.165 70.7299 324.246 70.511 324.382 70.3195C324.517 70.1007 324.761 69.9639 324.977 69.9092C325.221 69.8545 325.437 69.8271 325.681 69.8545C325.248 70.0186 324.815 70.1554 324.598 70.4837C324.463 70.6478 324.382 70.8393 324.274 71.0581C324.138 71.2222 324.03 71.4411 323.813 71.5505Z" fill="#366E7F"/>
<path d="M165.629 83.9159C165.629 83.9159 167.369 85.113 172.142 85.3374C172.142 85.3374 175.769 77.2948 177.841 77.7437C181.985 78.6415 178.396 82.906 178.396 82.906C178.396 82.906 175.028 87.8812 171.217 87.5819C166.295 87.2078 164.445 85.6367 164.445 85.3748C164.334 83.9159 165.629 83.9159 165.629 83.9159Z" fill="#90B8D6"/>
<path d="M179.284 79.2025C179.284 79.2025 178.84 77.9307 178.914 77.4444C179.025 76.771 179.654 75.7236 179.728 75.9855C179.802 76.2099 179.617 77.4069 179.765 77.594C180.024 77.8932 180.468 79.427 179.284 79.2025Z" fill="#FF97A6"/>
<path d="M155.679 131.237C155.531 130.9 154.68 130.601 154.05 130.414C154.236 130.526 154.458 130.713 154.124 130.788C153.68 130.9 152.681 130.788 152.385 130.451C152.274 130.713 152.237 131.05 152.237 131.274C152.237 131.574 155.938 131.761 155.679 131.237Z" fill="#3B2B5B"/>
<path d="M154.087 130.788C154.383 130.713 154.198 130.526 154.013 130.414C153.606 130.301 153.273 130.189 153.199 130.152C153.014 130.077 152.94 129.89 152.94 129.89L152.718 129.853C152.718 129.853 152.385 130.414 152.348 130.451C152.644 130.788 153.643 130.937 154.087 130.788Z" fill="#FF97A6"/>
<path d="M161.041 131.349C160.893 131.013 160.042 130.713 159.413 130.526C159.598 130.639 159.82 130.826 159.487 130.9C159.043 131.05 158.044 130.9 157.748 130.564C157.637 130.826 157.6 131.162 157.6 131.387C157.637 131.723 161.3 131.873 161.041 131.349Z" fill="#3B2B5B"/>
<path d="M159.485 130.937C159.781 130.862 159.596 130.675 159.411 130.563C159.004 130.451 158.671 130.339 158.597 130.301C158.412 130.226 158.338 130.039 158.338 130.039L158.116 130.002C158.116 130.002 157.783 130.563 157.746 130.6C158.042 130.9 159.041 131.049 159.485 130.937Z" fill="#FF97A6"/>
<path d="M155.599 94.3896C155.599 94.5019 155.044 96.8586 153.268 98.9534C149.16 103.816 152.639 130.114 152.639 130.114H152.972L158.819 102.919L159.744 111.373L158.041 130.338L158.337 130.264C158.337 130.264 164.924 114.814 165.072 110.625C165.775 93.7537 163.259 95.7737 163.037 94.427C162.186 94.8385 157.264 95.1752 155.599 94.3896Z" fill="#FF97A6"/>
<path d="M166.106 84.5153C164.626 83.6923 161.703 82.2334 159.631 84.6275C158.557 85.8619 157.521 91.5105 157.521 91.5105C157.521 91.5105 157.595 91.5479 157.521 91.5105C155.856 92.7075 153.784 93.7924 152.97 96.1116C151.342 100.601 151.416 106.399 151.416 106.399C153.525 107.334 155.597 107.858 157.447 108.119C158.668 108.269 159.705 108.456 160.741 108.456C163.997 108.381 164.774 108.157 165.329 108.007C166.402 97.6827 164.441 95.1765 164.256 93.942C164.774 93.1564 168.919 86.1238 166.106 84.5153Z" fill="#6B54B2"/>
<path d="M166.407 84.3268C163.41 82.6061 161.264 82.5312 159.561 84.5139C158.488 85.7483 157.489 91.4717 157.489 91.4717C157.489 91.4717 157.563 91.5091 157.489 91.4717C157.489 91.4717 158.747 92.5939 159.598 92.9679C160.746 93.4917 162.781 93.9405 164.15 93.9031C164.779 93.155 169.257 85.9353 166.407 84.3268Z" fill="#90B8D6"/>
<path d="M164.187 83.3173C162.041 82.6066 160.857 83.018 159.561 84.5143C158.488 85.7488 157.489 91.4721 157.489 91.4721C157.489 91.4721 157.563 91.5096 157.489 91.4721C157.489 91.4721 157.637 91.6966 158.266 92.2577C159.673 93.4548 161.634 93.6044 161.634 93.6044C161.634 93.6044 162.485 93.0433 163.595 90.4247C164.594 88.1429 164.52 83.4295 164.187 83.3173Z" fill="#AACBE8"/>
<path d="M164.481 81.4102C164.481 81.4102 163.371 83.6172 163.408 83.9165C163.445 84.2157 163.741 84.7395 164.222 84.2532C164.703 83.7669 165.184 81.672 165.184 81.672L164.481 81.4102Z" fill="#FF97A6"/>
<path d="M164.816 80.5498C164.816 80.5498 163.78 82.7943 163.706 83.1309C163.632 83.4302 164.076 83.8791 164.52 83.3928C165.002 82.9065 165.483 80.8116 165.483 80.8116L164.816 80.5498Z" fill="#C95D77"/>
<path d="M166.775 81.0357C166.664 81.2601 166.331 80.0257 165.85 79.689C165.85 79.689 163.444 80.7364 163.444 81.1104C163.444 81.1104 163.741 80.6616 164 79.876C164 79.876 163.407 81.2975 163.629 81.709C163.629 81.709 161.52 82.1579 161.816 79.876C161.816 79.876 160.891 80.1005 160.558 79.0905C160.225 78.0805 160.447 76.4345 162.482 76.0978C164.481 75.7986 164.888 77.4819 164.629 78.0431C164.629 78.1179 168.736 77.1079 166.775 81.0357Z" fill="#FF5E4D"/>
<path d="M166.741 81.6342C166.815 81.4472 166.778 80.6991 166.741 80.0631C166.704 79.5394 166.223 79.1654 165.742 79.2028C164.965 79.2776 164.077 79.4272 163.855 79.6143C163.485 79.8761 163.522 80.4372 163.522 80.8113C163.522 81.2227 163.67 81.9335 163.929 82.2702C164.151 82.5694 164.817 82.7939 165.187 82.7939C166.223 82.719 166.519 82.4198 166.741 81.6342Z" fill="#FF97A6"/>
<path d="M161.631 93.6046L157.412 91.5098C157.412 91.5098 157.486 91.5472 157.412 91.5098C155.71 92.7068 153.601 93.7917 152.75 96.1109C151.085 100.6 151.159 106.398 151.159 106.398C153.305 107.333 155.414 107.857 157.338 108.119C157.745 108.156 158.523 108.268 158.523 108.268C158.523 108.268 160.299 104.528 160.891 99.3654C161.483 93.8665 161.631 93.6046 161.631 93.6046Z" fill="#7F65C1"/>
<path d="M162.48 76.135C162.777 76.135 163.073 76.0976 163.332 76.1724C163.591 76.2473 163.887 76.3594 164.072 76.5465C164.294 76.7335 164.405 76.9954 164.479 77.2572C164.553 77.5191 164.553 77.8184 164.479 78.0428L164.368 78.3046L164.627 78.2673C165.034 78.1924 165.478 78.155 165.885 78.155C166.292 78.1924 166.736 78.3046 166.958 78.6039C167.217 78.9032 167.217 79.3521 167.143 79.801C167.069 80.2125 166.921 80.6613 166.773 81.0728C166.995 80.6988 167.18 80.2873 167.328 79.8384C167.365 79.6139 167.439 79.3895 167.402 79.1651C167.402 78.9406 167.328 78.6787 167.18 78.4917C167.032 78.3047 166.847 78.155 166.625 78.0428C166.403 77.968 166.181 77.8932 165.959 77.8932C165.515 77.8557 165.071 77.8932 164.627 78.0054L164.775 78.1924C164.886 77.8558 164.849 77.5191 164.775 77.2198C164.664 76.9206 164.479 76.6587 164.257 76.4717C163.998 76.2847 163.702 76.1724 163.406 76.135C163.036 76.0602 162.739 76.0976 162.48 76.135Z" fill="#F97D73"/>
<path d="M178.544 95.3604L179.765 95.7719L180.098 94.762L178.655 94.6123L178.544 95.3604Z" fill="#FF97A6"/>
<path d="M179.283 95.5497C179.32 95.6619 180.319 95.9986 180.43 95.9238C180.541 95.8116 179.505 95.4375 179.505 95.4375L179.283 95.5497Z" fill="#FF97A6"/>
<path d="M179.586 95.5495C179.623 95.6618 180.659 95.9236 180.77 95.774C180.881 95.6618 179.845 95.2129 179.845 95.2129L179.586 95.5495Z" fill="#FF97A6"/>
<path d="M179.843 94.9143C179.88 95.0265 180.879 95.438 180.99 95.3257C181.101 95.2135 180.139 94.7646 180.139 94.7646L179.843 94.9143Z" fill="#FF97A6"/>
<path d="M179.806 95.2127C179.88 95.3624 181.027 95.8113 181.027 95.6242C181.027 95.512 179.991 94.9883 179.991 94.9883L179.806 95.2127Z" fill="#FF97A6"/>
<path d="M179.211 94.689C179.211 94.689 180.025 94.4272 180.099 94.4646C180.173 94.502 179.618 94.7639 179.618 94.7639L179.211 94.689Z" fill="#FF97A6"/>
<path d="M159.895 84.6643C159.524 84.7391 159.376 85.1506 159.524 85.4873C160.191 86.6843 162.078 89.7891 165.001 92.3329C166.851 93.9414 174.955 98.131 177.657 96.5973C179.988 95.2881 178.175 92.8566 178.175 92.8566L167.11 90.5747C167.147 90.5747 162.263 84.2154 159.895 84.6643Z" fill="#AACBE8"/>
<path d="M161.336 88.2549C161.78 89.0779 162.335 89.826 162.964 90.4994C163.26 90.836 163.593 91.1727 163.926 91.4719C164.259 91.7712 164.629 92.0704 164.999 92.3323C164.703 91.9582 164.37 91.659 164.074 91.3223C163.778 90.9857 163.445 90.649 163.149 90.3123C162.557 89.639 161.965 88.9282 161.336 88.2549Z" fill="#B2D4ED"/>
<path d="M166.181 89.4147C165.774 88.891 165.33 88.3673 164.886 87.8436C164.442 87.3199 163.961 86.8336 163.443 86.3847C162.925 85.9358 162.407 85.4869 161.815 85.1502C161.519 85.0006 161.223 84.8136 160.89 84.7387C160.557 84.6265 160.187 84.5891 159.891 84.6639C160.224 84.6265 160.557 84.7387 160.853 84.851C161.149 84.9632 161.445 85.1502 161.704 85.3373C162.259 85.7114 162.777 86.1228 163.258 86.5717C163.739 87.0206 164.257 87.4695 164.701 87.9558C165.219 88.4795 165.7 88.9658 166.181 89.4147Z" fill="#B2D4ED"/>
<path d="M105.654 72.4375C105.654 72.4375 104.048 70.1717 102.024 71.8288C100 73.4859 99.9332 75.0584 99.9332 75.0584C99.9332 75.0584 95.9857 76.3097 94.7312 80.0635C94.3632 81.1626 93.0585 86.7426 98.1936 88.2137C99.9666 88.7209 101.656 87.03 103.58 85.2715C105.503 83.5298 109.534 79.3195 109.534 79.3195C109.534 79.3195 108.899 71.2708 105.654 72.4375Z" fill="#FF8080"/>
<path d="M119.119 133.073C119.085 132.786 118.416 132.482 117.931 132.245C118.065 132.363 118.199 132.515 117.948 132.566C117.58 132.617 116.844 132.228 116.66 131.94C116.543 132.126 116.493 132.465 116.459 132.651C116.442 132.887 119.202 133.817 119.119 133.073Z" fill="#30193B"/>
<path d="M96.5367 132.819C96.453 132.549 97.5737 131.669 97.9585 131.534C97.8414 131.636 97.6741 131.822 97.8414 131.906C98.0923 132.041 98.5941 131.872 98.7613 131.619C98.8115 131.822 98.8115 132.109 98.7948 132.295C98.7781 132.566 96.7207 133.445 96.5367 132.819Z" fill="#30193B"/>
<path d="M117.932 132.262C117.631 132.127 117.129 131.755 117.095 131.704C116.911 129.337 115.272 114.135 114.687 110.771C113.75 105.36 110.555 93.5571 109.919 92.3059C108.481 91.8493 104.283 90.9701 102.225 90.3613C102.208 90.4628 99.666 92.8301 98.3613 95.5862C96.3374 99.8811 98.1773 126.513 98.3948 131.332C98.3446 131.349 98.2108 131.4 97.9097 131.602C97.7926 131.704 97.3911 132.076 97.5584 132.16C97.8093 132.296 98.5955 131.924 98.7795 131.653C98.7628 131.586 98.746 131.535 98.7293 131.501C98.7126 131.484 102.928 119.191 104.349 111.278C105.537 104.666 104.985 101.048 104.985 101.048L107.528 111.362C107.528 111.362 116.727 131.941 116.711 131.958C116.895 132.245 117.631 132.651 117.998 132.583C118.216 132.532 118.082 132.38 117.932 132.262Z" fill="#FF97A6"/>
<path d="M102.224 90.3438C102.224 90.3438 98.7788 92.9985 97.9425 95.2305C95.6509 101.419 97.4406 110.939 97.4908 112.698L100.518 112.512C100.518 112.512 111.24 111.937 114.619 109.552C114.619 109.552 112.746 97.3441 110.136 91.3414L102.224 90.3438Z" fill="#3B2B5B"/>
<path d="M110.854 88.8556C110.854 88.8556 117.127 88.9063 118.565 88.1285C118.683 88.0778 118.867 87.7903 118.933 87.6889C119.402 86.8942 120.104 85.1864 116.976 85.3554C113.447 85.5584 110.871 86.6574 110.871 86.6574C110.871 86.6574 110.988 87.0294 110.854 88.8556Z" fill="#F9CB9D"/>
<path d="M107.51 79.2685C107.51 79.2685 109.935 85.2881 111.608 87.3679C113.782 90.0734 113.648 85.9814 113.648 85.9814C113.648 85.9814 112.812 82.5996 111.809 81.0778C110.872 79.6743 107.71 77.6114 107.51 79.2685Z" fill="#F9CB9D"/>
<path d="M111.073 82.4817C111.307 85.0688 111.374 86.134 110.353 89.3806C110.052 90.3275 100.919 90.6318 100.836 90.0738C100.802 89.8709 100.551 88.3153 100.418 87.4868C99.7653 83.4962 99.5143 82.3295 100.117 80.8922C100.535 79.8777 100.802 78.6941 106.088 78.3728C107.744 78.2713 108.948 78.8124 109.467 79.1844C110.387 79.8608 110.972 81.3995 111.073 82.4817Z" fill="#F9CB9D"/>
<path d="M102.928 88.1794C102.811 87.1817 102.459 83.969 102.459 83.969C102.459 83.969 102.66 78.0001 100.569 80.0969C99.1475 81.5341 99.7497 87.131 100.87 90.3775C101.289 91.5612 103.195 90.4452 102.928 88.1794Z" fill="#FFE5B0"/>
<path d="M104.133 88.4328C104.133 88.4328 111.359 90.2082 111.559 91.3411C111.76 92.4571 110.573 93.4379 108.515 93.59C107.612 93.6577 102.092 93.3195 100.971 90.5802C99.9343 88.027 104.133 88.4328 104.133 88.4328Z" fill="#FFE5B0"/>
<path d="M106.389 90.2428C103.796 90.4288 100.886 90.395 100.836 90.0907C100.802 89.8878 100.551 88.3321 100.418 87.5036C99.7653 83.513 99.5143 82.3463 100.117 80.9091C100.484 80.0129 100.735 78.9814 104.482 78.5249C104.716 78.4911 105.77 80.2834 106.422 83.1241C107.125 86.117 107.409 90.1752 106.389 90.2428Z" fill="#FFE5B0"/>
<path d="M101.772 89.3291L101.856 90.2253L106.272 91.9162L109.868 91.4596L106.155 90.7664L101.772 89.3291Z" fill="#D5EAF5"/>
<path d="M117.897 89.5825L106.339 90.8337L101.772 89.3288L117.746 87.8408L117.897 89.5825Z" fill="#AACBE8"/>
<path d="M117.98 90.4623L106.271 91.9164L107.007 82.3797L118.85 81.6357L117.98 90.4623Z" fill="#AACBE8"/>
<path d="M105.821 91.6284L106.273 91.9159L107.009 82.3792L106.49 82.3115L105.821 91.6284Z" fill="#D5EAF5"/>
<path d="M106.49 82.3117L117.898 81.6016L118.851 81.6354L107.009 82.3794L106.49 82.3117Z" fill="#D5EAF5"/>
<path d="M112.025 91.6623C112.226 91.4593 112.343 91.1381 112.343 90.9352C112.343 90.7999 112.26 90.7661 112.26 90.7661C112.26 90.7661 112.31 90.597 112.176 90.5801C112.092 90.5801 111.892 90.9014 111.674 91.0874C111.54 91.2057 111.373 91.2902 111.273 91.341C111.273 91.341 111.407 91.0028 111.289 90.9859C111.189 90.9521 111.039 91.3748 110.955 91.5777C110.888 91.7299 111.741 91.9328 112.025 91.6623Z" fill="#FF97A6"/>
<path d="M111.392 91.2742C111.626 90.9868 111.861 90.4795 111.944 90.5133C112.062 90.581 111.995 90.7839 111.844 91.0375C111.676 91.308 111.392 91.2742 111.392 91.2742Z" fill="#FF97A6"/>
<path d="M118.481 86.6241C118.314 86.5227 118.23 86.4043 118.08 86.269C118.063 86.2521 118.013 86.2014 117.963 86.1338C117.929 86.0999 117.862 86.0492 117.896 85.9985C117.913 85.9647 117.946 85.9647 117.963 85.9647C117.963 85.9647 117.963 85.9647 117.979 85.9647C117.996 85.9647 117.996 85.9647 118.013 85.9816C118.013 85.9816 118.03 85.9816 118.03 85.9985C118.046 86.0154 118.08 86.0154 118.097 86.0323C118.063 85.9985 118.046 85.9647 118.013 85.9139C117.996 85.8632 117.913 85.7787 117.929 85.7279C117.929 85.6941 117.946 85.6941 117.963 85.6772C117.979 85.6603 118.013 85.6772 118.013 85.6603C118.03 85.6434 118.013 85.6096 118.013 85.6096C118.013 85.5588 118.163 85.4743 118.347 85.6096C118.281 85.5081 118.331 85.4912 118.364 85.4912C118.481 85.525 118.715 85.6772 118.766 85.7787C118.866 85.9816 118.548 86.6918 118.481 86.6241Z" fill="#FF97A6"/>
<path d="M103.394 88.4167C103.177 87.9094 102.993 87.4022 102.825 86.878C102.658 86.3538 102.508 85.8296 102.374 85.3054C102.24 84.7644 102.14 84.2402 102.073 83.6822C102.006 83.1411 101.956 82.5831 102.006 82.042C102.056 82.5831 102.156 83.1242 102.257 83.6483C102.374 84.1725 102.491 84.7136 102.608 85.2378L102.993 86.8273C103.143 87.3514 103.277 87.8756 103.394 88.4167Z" fill="#F9CB9D"/>
<path d="M107.996 73.5364C107.728 73.1475 107.41 72.7755 106.992 72.5726C106.792 72.4711 106.557 72.4035 106.34 72.4035C106.122 72.4035 105.888 72.4542 105.671 72.5219L105.621 72.5388L105.587 72.4881C105.186 71.9808 104.617 71.5581 103.998 71.4059C103.68 71.3382 103.363 71.3552 103.061 71.4228L102.827 71.4904C102.76 71.5242 102.677 71.5581 102.61 71.5919C102.459 71.6595 102.342 71.761 102.208 71.8455C101.69 72.2513 101.222 72.7417 100.837 73.2659C100.452 73.79 100.134 74.4157 100.067 75.0413L100.051 75.1428L99.967 75.1766C99.3983 75.3795 98.8464 75.65 98.3111 75.9544C97.7926 76.2757 97.2907 76.6308 96.8224 77.0366C96.3541 77.4424 95.9526 77.9159 95.5846 78.4062C95.2167 78.8966 94.949 79.4715 94.7148 80.0464C94.9156 79.4546 95.1497 78.8628 95.4843 78.3386C95.8188 77.7975 96.2203 77.324 96.6886 76.8844C97.1402 76.4448 97.642 76.0559 98.1773 75.7346C98.7125 75.4133 99.2645 75.1259 99.8667 74.906L99.7663 75.0413C99.85 74.2973 100.168 73.6717 100.569 73.0968C100.971 72.5388 101.472 72.0484 102.024 71.6257C102.175 71.5242 102.309 71.4228 102.476 71.3382C102.56 71.3044 102.627 71.2537 102.71 71.2199L102.961 71.1353C103.312 71.0508 103.68 71.0339 104.015 71.1353C104.701 71.3382 105.253 71.7948 105.688 72.3528L105.587 72.319C105.821 72.2344 106.072 72.2006 106.306 72.2175C106.557 72.2344 106.792 72.319 106.992 72.4373C107.461 72.7248 107.762 73.1137 107.996 73.5364Z" fill="#FC9D9D"/>
<path d="M104.951 76.8848C104.951 76.8848 104.365 78.3897 104.399 78.5926C104.432 78.7955 104.666 79.0998 104.934 78.7617C105.202 78.4235 105.402 77.02 105.402 77.02L104.951 76.8848Z" fill="#FF97A6"/>
<path d="M105.234 78.0344C105.284 77.7301 105.368 77.4595 105.368 77.4595L104.783 77.375C104.783 77.375 104.716 77.561 104.615 77.8315C104.716 78.0175 104.95 78.2204 105.234 78.0344Z" fill="#C95D77"/>
<path d="M106.507 76.9692C106.607 76.8171 106.674 76.1914 106.725 75.6672C106.758 75.2276 106.44 74.8556 106.005 74.8218C105.336 74.788 104.6 74.7711 104.383 74.8894C104.048 75.0585 103.981 75.5151 103.931 75.8532C103.881 76.1914 103.898 76.8002 104.065 77.1045C104.215 77.392 104.717 77.6794 105.018 77.7132C105.955 77.7978 106.239 77.5949 106.507 76.9692Z" fill="#FFA9BA"/>
<path d="M106.172 73.3676L106.557 73.6213C106.557 73.6213 106.557 74.9571 105.051 75.8194C103.546 76.6818 103.68 78.2205 103.68 78.2205C103.68 78.2205 101.739 76.3943 103.195 74.8387C104.65 73.3 106.172 73.3676 106.172 73.3676Z" fill="#FF8080"/>
<path d="M114.017 85.4237C113.983 85.8972 113.665 86.2692 113.297 86.2353C112.929 86.2184 112.662 85.8126 112.678 85.3392C112.712 84.8657 113.03 84.4937 113.398 84.5275C113.766 84.5444 114.05 84.9503 114.017 85.4237Z" fill="#D5EAF5"/>
<defs>
<linearGradient id="paint0_linear" x1="271.764" y1="89.2704" x2="271.764" y2="82.8814" gradientUnits="userSpaceOnUse">
<stop stop-color="#FCC2B1"/>
<stop offset="0.885" stop-color="#D9420B"/>
</linearGradient>
<linearGradient id="paint1_linear" x1="271.769" y1="86.5046" x2="271.769" y2="82.3018" gradientUnits="userSpaceOnUse">
<stop stop-color="#DEEDC9"/>
<stop offset="0.661" stop-color="#8BBA25"/>
</linearGradient>
<linearGradient id="paint2_linear" x1="271.769" y1="84.8066" x2="271.769" y2="79.0838" gradientUnits="userSpaceOnUse">
<stop stop-color="#C2EBFA"/>
<stop offset="1" stop-color="#26A8DE"/>
</linearGradient>
<linearGradient id="paint3_linear" x1="507.117" y1="89.2704" x2="507.117" y2="82.8814" gradientUnits="userSpaceOnUse">
<stop stop-color="#FCC2B1"/>
<stop offset="0.885" stop-color="#D9420B"/>
</linearGradient>
<linearGradient id="paint4_linear" x1="507.121" y1="86.5046" x2="507.121" y2="82.3018" gradientUnits="userSpaceOnUse">
<stop stop-color="#DEEDC9"/>
<stop offset="0.661" stop-color="#8BBA25"/>
</linearGradient>
<linearGradient id="paint5_linear" x1="507.12" y1="84.8066" x2="507.12" y2="79.0838" gradientUnits="userSpaceOnUse">
<stop stop-color="#C2EBFA"/>
<stop offset="1" stop-color="#26A8DE"/>
</linearGradient>
</defs>
</svg>
