<svg width="28" height="30" viewBox="0 0 28 30" fill="none" xmlns="http://www.w3.org/2000/svg">
<path d="M26.1907 10.2235C24.5741 8.32298 22.3109 7.19291 20.1554 7.19291C17.2994 7.19291 16.114 8.47708 14.174 8.47708C12.1264 8.47708 10.6176 7.19291 8.13879 7.19291C5.7139 7.19291 3.18125 8.57981 1.56466 10.9427C-0.698563 14.2815 -0.321359 20.5483 3.39679 25.8904C4.74395 27.791 6.46831 29.9484 8.78542 29.9998C10.8331 29.9998 11.4258 28.767 14.2279 28.7156C17.03 28.7156 17.515 29.9998 19.6166 29.9484C21.9337 29.9484 23.7658 27.5342 25.113 25.6336C26.0829 24.2467 26.4062 23.5789 27.1606 22.0379C21.772 20.1373 20.9098 12.946 26.1907 10.2235Z" fill="#444444"/>
<path d="M17.9998 4.82848C19.0237 3.59568 19.8319 1.79784 19.5625 0C17.892 0.102734 15.8983 1.13007 14.7666 2.46561C13.7428 3.64704 12.8806 5.44488 13.2039 7.19135C15.0361 7.24272 16.9221 6.16402 17.9998 4.82848Z" fill="#444444"/>
</svg>
