<svg width="352" height="320" viewBox="0 0 352 320" fill="none" xmlns="http://www.w3.org/2000/svg">
<path d="M291.505 36.3281L257.679 52.551L265.517 39.5422L291.505 36.3281Z" fill="#CECECE"/>
<path d="M352 0.00390625L235.782 16.3833L257.079 32.2024L352 0.00390625Z" fill="#EBEBEB"/>
<path d="M352 0.00390625L265.49 39.5875L289.493 55.8054L352 0.00390625Z" fill="#EBEBEB"/>
<path d="M265.489 39.5856L257.679 52.553L257.078 32.2015L351.999 0L265.489 39.5856Z" fill="#DCDBDB"/>
<path d="M60.5043 94.0977V94.1259C60.1181 94.1138 59.733 94.0977 59.3437 94.0977C49.6508 94.1254 40.363 97.892 33.5091 104.575C26.6552 111.258 22.7921 120.314 22.7637 129.765V173.509C22.7637 174.418 22.8103 175.311 22.8796 176.2H181.852V94.0977H60.5043Z" fill="#EBEBEB"/>
<path d="M85.0546 122.978H80.7871L78.498 94.125H85.0546V122.978Z" fill="#CCCCCC"/>
<path d="M87.3446 76.8125H80.7881V122.995H87.3446V76.8125Z" fill="#101F32"/>
<path d="M218.543 173.509V129.765C218.543 110.148 203.324 94.0977 184.724 94.0977C166.123 94.0977 150.904 110.148 150.904 129.765V173.509C150.904 174.418 150.948 175.311 151.008 176.2H218.433C218.501 175.311 218.543 174.411 218.543 173.509Z" fill="#CECDCC"/>
<path d="M83.2009 135.157C88.061 135.157 92.0009 131.315 92.0009 126.576C92.0009 121.838 88.061 117.996 83.2009 117.996C78.3408 117.996 74.4009 121.838 74.4009 126.576C74.4009 131.315 78.3408 135.157 83.2009 135.157Z" fill="#CCCCCC"/>
<g opacity="0.57">
<path opacity="0.57" d="M76.2707 94.0977H60.5043V94.1259C60.1181 94.1138 59.733 94.0977 59.3437 94.0977C49.6508 94.1254 40.363 97.892 33.5091 104.575C26.6552 111.258 22.7921 120.314 22.7637 129.765V173.509C22.7637 174.418 22.8103 175.311 22.8796 176.2H104.283C48.9059 141.154 55.3796 112.676 76.2707 94.0977Z" fill="#EBEBEB"/>
</g>
<g opacity="0.51">
<path opacity="0.51" d="M102.381 97.7188H162.6C162.6 97.7188 137.063 100.158 145.69 170.483C145.69 170.483 132.231 118.16 102.381 97.7188Z" fill="#CECDCC"/>
</g>
<path d="M84.237 133.309C89.0971 133.309 93.037 129.468 93.037 124.729C93.037 119.99 89.0971 116.148 84.237 116.148C79.3769 116.148 75.437 119.99 75.437 124.729C75.437 129.468 79.3769 133.309 84.237 133.309Z" fill="#101F32"/>
<g opacity="0.7">
<path opacity="0.7" d="M84.2376 116.148C82.834 116.148 81.4508 116.476 80.204 117.105C78.9571 117.733 77.8829 118.644 77.0713 119.76C78.7646 118.583 80.8314 118.028 82.9042 118.196C84.977 118.364 86.9216 119.244 88.3923 120.678C89.863 122.112 90.7645 124.008 90.9366 126.029C91.1087 128.05 90.5403 130.065 89.3323 131.716C90.8544 130.663 91.9936 129.166 92.585 127.44C93.1764 125.714 93.1894 123.85 92.6221 122.116C92.0548 120.383 90.9366 118.87 89.4293 117.797C87.922 116.724 86.1038 116.147 84.2376 116.148Z" fill="#101F32"/>
</g>
<path d="M87.3342 76.8402H60.5884L66.8001 69.5216L60.5884 62.2031H87.3342V76.8402Z" fill="#CECECE"/>
<path d="M104.336 175.988H85.0601V301.159H104.336V175.988Z" fill="#101F32"/>
<g opacity="0.31">
<path opacity="0.31" d="M104.335 200.984L85.0591 194.928V176.133H104.335V200.984Z" fill="#101F32"/>
</g>
<path d="M213.02 178.261V218.954C213.02 237.203 199.043 252.134 181.961 252.134C164.879 252.134 150.902 237.203 150.902 218.954V178.261C150.902 177.418 150.942 176.586 151.006 175.758H212.927C212.981 176.586 213.02 177.418 213.02 178.261Z" fill="#CECECE"/>
<g opacity="0.41">
<path opacity="0.41" d="M218.545 127.067C218.533 127.026 217.289 119.58 217.265 119.55L218.105 123.576L218.388 125.123L218.105 123.576L204.056 122.525C199.553 122.323 195.065 121.889 190.609 121.225C183.971 120.191 177.262 119.645 170.541 119.589C175.717 109.062 186.691 102.06 207.51 103.467C201.489 97.5235 193.294 94.1534 184.726 94.0977C166.125 94.0977 150.906 110.148 150.906 129.765V173.509C150.906 174.418 150.95 175.311 151.01 176.2H173.43C172.465 173.217 171.452 169.836 170.51 166.207H214.18C214.657 166.234 215.136 166.223 215.611 166.172C215.652 166.164 215.694 166.157 215.734 166.146C215.814 166.128 215.891 166.1 215.964 166.064C216.215 165.946 216.437 165.776 216.614 165.567C217.11 164.94 217.37 164.166 217.348 163.375L223.344 163.485" fill="#CECDCC"/>
</g>
<path d="M218.544 178.261V218.954C218.544 237.203 204.568 252.134 187.486 252.134C170.403 252.134 156.427 237.203 156.427 218.954V178.261C156.427 177.418 156.467 176.586 156.53 175.758H218.451C218.505 176.586 218.544 177.418 218.544 178.261Z" fill="#EBEBEB"/>
<path d="M214.069 183.496V214.827C214.124 220.813 212.361 226.681 209.002 231.692C205.952 236.146 201.225 240.456 194.053 241.708C194.053 241.708 212.86 197.46 214.069 183.496Z" fill="white"/>
<path d="M240.919 153.807H180.528C180.453 153.807 180.38 153.778 180.326 153.726C180.273 153.673 180.243 153.603 180.243 153.529C180.243 153.455 180.273 153.384 180.326 153.332C180.38 153.279 180.453 153.25 180.528 153.25H240.919C240.995 153.25 241.068 153.279 241.121 153.332C241.175 153.384 241.205 153.455 241.205 153.529C241.205 153.603 241.175 153.673 241.121 153.726C241.068 153.778 240.995 153.807 240.919 153.807Z" fill="#EDEDED"/>
<path d="M240.919 157.018H180.528C180.453 157.018 180.38 156.989 180.326 156.937C180.273 156.884 180.243 156.813 180.243 156.74C180.243 156.666 180.273 156.595 180.326 156.543C180.38 156.49 180.453 156.461 180.528 156.461H240.919C240.995 156.461 241.068 156.49 241.121 156.543C241.175 156.595 241.205 156.666 241.205 156.74C241.205 156.813 241.175 156.884 241.121 156.937C241.068 156.989 240.995 157.018 240.919 157.018Z" fill="#EDEDED"/>
<path d="M240.919 160.229H180.528C180.453 160.229 180.38 160.2 180.326 160.147C180.273 160.095 180.243 160.024 180.243 159.95C180.243 159.877 180.273 159.806 180.326 159.753C180.38 159.701 180.453 159.672 180.528 159.672H240.919C240.995 159.672 241.068 159.701 241.121 159.753C241.175 159.806 241.205 159.877 241.205 159.95C241.205 160.024 241.175 160.095 241.121 160.147C241.068 160.2 240.995 160.229 240.919 160.229Z" fill="#EDEDED"/>
<path d="M240.919 163.447H180.528C180.453 163.447 180.38 163.418 180.327 163.365C180.273 163.313 180.243 163.242 180.243 163.169C180.243 163.095 180.273 163.024 180.327 162.972C180.38 162.92 180.453 162.891 180.528 162.891H240.919C240.995 162.891 241.067 162.92 241.121 162.972C241.174 163.024 241.204 163.095 241.204 163.169C241.204 163.242 241.174 163.313 241.121 163.365C241.067 163.418 240.995 163.447 240.919 163.447Z" fill="#EDEDED"/>
<path d="M242.454 123.771L203.991 123.625L165.472 123.726L166.173 124.231L166.879 124.653L184.729 140.008L197.381 150.892L202.181 155.021C202.681 155.449 203.324 155.686 203.99 155.686C204.656 155.686 205.299 155.449 205.799 155.021L210.752 150.761L223.252 140.008L240.247 125.389L240.953 124.967L242.514 123.808L242.454 123.771Z" fill="#EA9939"/>
<g opacity="0.37">
<g opacity="0.37">
<path opacity="0.37" d="M242.514 123.552L220.888 134.848C215.693 137.561 209.891 138.979 203.997 138.974C198.104 138.969 192.304 137.542 187.114 134.821L165.476 123.473V166.653C165.475 167.254 165.67 167.839 166.034 168.324C166.397 168.81 166.91 169.169 167.497 169.351C167.602 169.387 167.709 169.413 167.819 169.431C167.951 169.456 168.084 169.473 168.219 169.479C168.84 169.529 169.594 169.487 170.058 169.487H238.077C238.491 169.487 239.174 169.519 239.768 169.487C239.963 169.486 240.157 169.465 240.347 169.425C240.453 169.408 240.557 169.381 240.658 169.345C241.24 169.16 241.747 168.8 242.106 168.316C242.465 167.833 242.658 167.251 242.657 166.654V123.823C242.656 123.77 242.643 123.718 242.618 123.671C242.593 123.625 242.558 123.584 242.514 123.552Z" fill="#BAB9B6"/>
</g>
</g>
<path d="M166.535 169.571C167.054 169.988 167.707 170.216 168.38 170.215H239.738C240.411 170.215 241.063 169.988 241.583 169.571L204.058 146.836L166.535 169.571Z" fill="white"/>
<path d="M165.514 123.672V167.443C165.513 167.862 165.608 168.276 165.792 168.655C165.976 169.034 166.244 169.369 166.577 169.634L198.564 150.206L165.514 123.672Z" fill="#F67607"/>
<path d="M166.682 169.921C167.612 170.43 169.045 170.384 169.902 170.317H237.92C238.783 170.382 240.209 170.317 241.193 169.822L203.792 147.379L166.682 169.921Z" fill="#F67607"/>
<path d="M242.525 123.551L204.069 146.85L241.593 169.585C241.926 169.319 242.194 168.985 242.377 168.606C242.561 168.227 242.656 167.813 242.655 167.393V123.821C242.656 123.77 242.644 123.718 242.622 123.672C242.599 123.625 242.566 123.583 242.525 123.551Z" fill="#F67607"/>
<path d="M165.482 123.626H204.069L242.655 123.48L223.363 139.045L208.759 150.863L206.149 152.975C205.566 153.451 204.83 153.713 204.069 153.713C203.308 153.713 202.572 153.451 201.989 152.975L199.38 150.863L184.776 139.045L166.555 124.494L165.482 123.626Z" fill="#FFFCEC"/>
<path d="M165.713 123.621H204.069L242.471 123.516L223.362 138.468L208.783 150.423L206.173 152.453C205.582 152.913 204.769 153.339 204.013 153.339C203.257 153.339 202.603 152.913 202.013 152.453L199.404 150.42L184.776 138.468L165.713 123.621Z" fill="#FF6F3D"/>
<g opacity="0.12">
<path opacity="0.12" d="M218.131 123.562C217.651 135.474 220.921 153.727 242.658 163.646V123.824C242.657 123.777 242.647 123.732 242.627 123.689C242.608 123.647 242.58 123.609 242.544 123.578L242.669 123.477L218.131 123.562Z" fill="#F67607"/>
</g>
<path d="M55.666 311.252C55.666 300.101 72.6448 291.062 93.595 291.062C114.545 291.062 131.524 300.101 131.524 311.252" fill="#101F32"/>
<g opacity="0.31">
<path opacity="0.31" d="M93.6111 291.062C91.6751 291.062 89.7771 291.138 87.917 291.29C106.162 292.751 120.151 301.132 120.151 311.252H131.539C131.541 300.101 114.562 291.062 93.6111 291.062Z" fill="#101F32"/>
</g>
<path d="M209.844 319.999H4.65882C3.42322 319.999 2.23824 319.521 1.36454 318.669C0.490839 317.817 0 316.661 0 315.457C0 314.252 0.490839 313.096 1.36454 312.245C2.23824 311.393 3.42322 310.914 4.65882 310.914H209.844C211.079 310.914 212.264 311.393 213.138 312.245C214.012 313.096 214.502 314.252 214.502 315.457C214.502 316.661 214.012 317.817 213.138 318.669C212.264 319.521 211.079 319.999 209.844 319.999Z" fill="#DCDBDB"/>
<path d="M260.871 319.999H228.488C227.253 319.999 226.068 319.521 225.194 318.669C224.32 317.817 223.83 316.661 223.83 315.457C223.83 314.252 224.32 313.096 225.194 312.245C226.068 311.393 227.253 310.914 228.488 310.914H260.871C262.107 310.914 263.292 311.393 264.166 312.245C265.039 313.096 265.53 314.252 265.53 315.457C265.53 316.661 265.039 317.817 264.166 318.669C263.292 319.521 262.107 319.999 260.871 319.999Z" fill="#DCDBDB"/>
<path d="M289.536 319.999H277.201C275.965 319.999 274.78 319.521 273.907 318.669C273.033 317.817 272.542 316.661 272.542 315.457C272.542 314.252 273.033 313.096 273.907 312.245C274.78 311.393 275.965 310.914 277.201 310.914H289.536C290.772 310.914 291.957 311.393 292.831 312.245C293.704 313.096 294.195 314.252 294.195 315.457C294.195 316.661 293.704 317.817 292.831 318.669C291.957 319.521 290.772 319.999 289.536 319.999Z" fill="#DCDBDB"/>
</svg>
