<svg width="100" height="92" viewBox="0 0 100 92" fill="none" xmlns="http://www.w3.org/2000/svg">
<path fill-rule="evenodd" clip-rule="evenodd" d="M43.7547 90.8722L2.62757 71.9235C-0.875856 70.2692 -0.875856 67.7126 2.62757 66.2088L16.9459 59.5918L43.6024 71.9235C47.1058 73.5777 52.7418 73.5777 56.0929 71.9235L82.7494 59.5918L97.0677 66.2088C100.571 67.863 100.571 70.4196 97.0677 71.9235L55.9405 90.8722C52.7418 92.376 47.1058 92.376 43.7547 90.8722Z" fill="#FF6F3D"/>
<path fill-rule="evenodd" clip-rule="evenodd" d="M43.7547 67.5596L2.62757 48.6109C-0.875856 46.9567 -0.875856 44.4001 2.62757 42.8962L16.6413 36.4296L43.7547 48.9117C47.2582 50.5659 52.8941 50.5659 56.2452 48.9117L83.3587 36.4296L97.3724 42.8962C100.876 44.5505 100.876 47.107 97.3724 48.6109L56.2452 67.5596C52.7418 69.2139 47.1058 69.2139 43.7547 67.5596Z" fill="url(#paint0_linear)"/>
<path fill-rule="evenodd" clip-rule="evenodd" d="M43.7547 67.5596L2.62757 48.6109C-0.875856 46.9567 -0.875856 44.4001 2.62757 42.8962L16.6413 36.4296L43.7547 48.9117C47.2582 50.5659 52.8941 50.5659 56.2452 48.9117L83.3587 36.4296L97.3724 42.8962C100.876 44.5505 100.876 47.107 97.3724 48.6109L56.2452 67.5596C52.7418 69.2139 47.1058 69.2139 43.7547 67.5596Z" fill="#95C038"/>
<path fill-rule="evenodd" clip-rule="evenodd" d="M43.7547 44.8527L2.62757 25.904C-0.875856 24.2498 -0.875856 21.6932 2.62757 20.1893L43.7547 1.24063C47.2582 -0.413616 52.8941 -0.413616 56.2452 1.24063L97.3724 20.1893C100.876 21.8436 100.876 24.4001 97.3724 25.904L56.2452 44.8527C52.7418 46.3566 47.1058 46.3566 43.7547 44.8527Z" fill="#5DC0E8"/>
<defs>
<linearGradient id="paint0_linear" x1="49.9645" y1="78.878" x2="49.9645" y2="33.3805" gradientUnits="userSpaceOnUse">
<stop stop-color="#DEEDC9"/>
<stop offset="0.6606" stop-color="#8BBA25"/>
</linearGradient>
</defs>
</svg>
