<svg width="32" height="28" viewBox="0 0 32 28" fill="none" xmlns="http://www.w3.org/2000/svg">
<path fill-rule="evenodd" clip-rule="evenodd" d="M14.0957 27.6569L1.55649 21.8899C0.488332 21.3864 0.488332 20.6083 1.55649 20.1506L5.92199 18.1367L14.0493 21.8899C15.1174 22.3934 16.8357 22.3934 17.8575 21.8899L25.9847 18.1367L30.3502 20.1506C31.4184 20.6541 31.4184 21.4322 30.3502 21.8899L17.811 27.6569C16.8357 28.1146 15.1174 28.1146 14.0957 27.6569Z" fill="#FF6F3D"/>
<path fill-rule="evenodd" clip-rule="evenodd" d="M14.0957 20.5604L1.55649 14.7933C0.488332 14.2899 0.488332 13.5118 1.55649 13.0541L5.82911 11.0859L14.0957 14.8849C15.1638 15.3883 16.8822 15.3883 17.9039 14.8849L26.1705 11.0859L30.4431 13.0541C31.5113 13.5575 31.5113 14.3356 30.4431 14.7933L17.9039 20.5604C16.8357 21.0639 15.1174 21.0639 14.0957 20.5604Z" fill="#95C038"/>
<path fill-rule="evenodd" clip-rule="evenodd" d="M14.0957 13.651L1.55649 7.88393C0.488332 7.38045 0.488332 6.60236 1.55649 6.14466L14.0957 0.377605C15.1638 -0.125868 16.8822 -0.125868 17.9039 0.377605L30.4431 6.14466C31.5113 6.64813 31.5113 7.42622 30.4431 7.88393L17.9039 13.651C16.8357 14.1087 15.1174 14.1087 14.0957 13.651Z" fill="#5DC0E8"/>
</svg>
