<svg width="514" height="94" viewBox="0 0 514 94" fill="none" xmlns="http://www.w3.org/2000/svg">
<path fill-rule="evenodd" clip-rule="evenodd" d="M44.6512 92.5694L2.6814 73.2666C-0.893801 71.5814 -0.893801 68.9771 2.6814 67.4451L17.2931 60.7045L44.4957 73.2666C48.0709 74.9518 53.8224 74.9518 57.2421 73.2666L84.4447 60.7045L99.0564 67.4451C102.632 69.1303 102.632 71.7346 99.0564 73.2666L57.0867 92.5694C53.8224 94.1014 48.0709 94.1014 44.6512 92.5694Z" fill="#FF6F3D"/>
<path fill-rule="evenodd" clip-rule="evenodd" d="M44.6512 68.8238L2.6814 49.521C-0.893801 47.8358 -0.893801 45.2315 2.6814 43.6995L16.9822 37.112L44.6512 49.8274C48.2264 51.5126 53.9778 51.5126 57.3976 49.8274L85.0665 37.112L99.3673 43.6995C102.943 45.3847 102.943 47.989 99.3673 49.521L57.3976 68.8238C53.8223 70.509 48.0709 70.509 44.6512 68.8238Z" fill="#95C038"/>
<path fill-rule="evenodd" clip-rule="evenodd" d="M44.6512 45.691L2.6814 26.3882C-0.893801 24.703 -0.893801 22.0986 2.6814 20.5667L44.6512 1.26387C48.2264 -0.421291 53.9778 -0.421291 57.3976 1.26387L99.3673 20.5667C102.943 22.2518 102.943 24.8562 99.3673 26.3882L57.3976 45.691C53.8223 47.2229 48.0709 47.2229 44.6512 45.691Z" fill="#5DC0E8"/>
<path d="M128 46.9248C128 38.9498 130.319 32.931 135.112 29.0188C139.75 24.9561 145.316 23 151.655 23C157.993 23 163.405 24.9561 168.043 29.0188C172.681 33.0815 175 38.9498 175 47.0752C175 55.0502 172.681 61.069 168.043 64.9812C163.405 69.0439 157.839 71 151.655 71C145.316 71 139.905 69.0439 135.112 64.9812C130.319 60.9185 128 54.8997 128 46.9248ZM138.204 46.9248C138.204 52.4922 139.286 56.4044 141.296 58.9624C143.461 61.5204 145.78 63.1755 148.253 63.7774C148.872 63.9279 149.336 64.0784 149.954 64.0784C150.418 64.0784 151.036 64.2288 151.5 64.2288C152.118 64.2288 152.582 64.2288 153.201 64.0784C153.819 64.0784 154.283 63.9279 154.901 63.7774C157.375 63.1755 159.694 61.5204 161.704 58.9624C163.714 56.4044 164.796 52.3417 164.796 47.0752C164.796 41.6583 163.714 37.7461 161.704 35.1881C159.694 32.6301 157.375 30.9749 154.901 30.373C154.283 30.2226 153.664 30.0721 153.201 30.0721C152.582 30.0721 152.118 29.9216 151.5 29.9216C150.882 29.9216 150.418 29.9216 149.954 30.0721C149.49 30.0721 148.872 30.2226 148.253 30.373C145.78 30.9749 143.461 32.6301 141.296 35.1881C139.286 37.4451 138.204 41.5078 138.204 46.9248Z" fill="#333333"/>
<path d="M182 23H194.803L211.665 53.1538L214.164 59.7692H214.32L214.164 51.1538V23H224V71H211.197L194.335 39.6154L191.836 34.2308H191.68L191.836 42.6923V71H182V23Z" fill="#333333"/>
<path d="M233 23H242.77V62.8462H262V71H233V23Z" fill="#333333"/>
<path d="M258 23H269.289L279.186 39.7692L280.732 43.1538H281.041L282.588 39.7692L292.639 23H303L285.526 51.4615V71H275.784V51.3077L258 23Z" fill="#333333"/>
<path d="M302 46.9248C302 38.9498 304.319 32.931 309.112 29.0188C313.75 24.9561 319.316 23 325.655 23C331.993 23 337.405 24.9561 342.043 29.0188C346.681 33.0815 349 38.9498 349 47.0752C349 55.0502 346.681 61.069 342.043 64.9812C337.405 69.0439 331.839 71 325.655 71C319.316 71 313.905 69.0439 309.112 64.9812C304.474 60.9185 302 54.8997 302 46.9248ZM312.204 46.9248C312.204 52.4922 313.286 56.4044 315.296 58.9624C317.461 61.5204 319.625 63.1755 322.253 63.7774C322.872 63.9279 323.336 64.0784 323.954 64.0784C324.418 64.0784 325.036 64.2288 325.5 64.2288C326.118 64.2288 326.582 64.2288 327.201 64.0784C327.819 64.0784 328.283 63.9279 328.901 63.7774C331.375 63.1755 333.694 61.5204 335.704 58.9624C337.714 56.4044 338.796 52.3417 338.796 47.0752C338.796 41.6583 337.714 37.7461 335.704 35.1881C333.694 32.6301 331.375 30.9749 328.901 30.373C328.283 30.2226 327.664 30.0721 327.201 30.0721C326.582 30.0721 326.118 29.9216 325.5 29.9216C324.882 29.9216 324.418 29.9216 323.954 30.0721C323.49 30.0721 322.872 30.2226 322.253 30.373C319.78 30.9749 317.461 32.6301 315.296 35.1881C313.286 37.4451 312.204 41.5078 312.204 46.9248Z" fill="#333333"/>
<path d="M356 23H383V30.8333H365.776V42.2821H382.224V50.266H365.776V70H356V23Z" fill="#333333"/>
<path d="M390 23H417V30.8333H399.776V42.2821H416.224V50.266H399.776V70H390V23Z" fill="#333333"/>
<path d="M424 70V23H434V70H424Z" fill="#333333"/>
<path d="M479 24.2114V32.388C477.28 31.7823 475.56 31.3281 473.683 31.0252C471.807 30.7224 469.617 30.571 467.428 30.571C462.267 30.571 458.358 32.0852 455.543 35.265C452.728 38.2934 451.321 42.2303 451.321 46.9243C451.321 51.4669 452.572 55.2524 455.23 58.2808C457.889 61.3091 461.642 62.9748 466.49 62.9748C468.21 62.9748 469.93 62.8233 471.963 62.6719C473.996 62.3691 476.029 61.9148 478.218 61.0063L478.844 69.0315C478.531 69.183 478.062 69.3344 477.593 69.4858C476.967 69.6372 476.342 69.7886 475.56 69.9401C474.309 70.2429 472.745 70.3943 470.868 70.6972C468.992 70.8486 467.115 71 465.082 71C464.77 71 464.457 71 464.3 71C463.988 71 463.675 71 463.519 71C457.889 70.6972 452.728 68.5773 448.037 64.9432C443.346 61.1577 441 55.2524 441 47.3785C441 39.6562 443.346 33.5994 447.881 29.3596C452.416 25.1199 458.671 23 466.333 23C468.366 23 470.243 23 471.807 23.1514C473.527 23.3028 475.091 23.6057 476.811 23.9085C477.123 24.0599 477.593 24.0599 477.905 24.2114C478.218 24.0599 478.531 24.2114 479 24.2114Z" fill="#333333"/>
<path d="M486 23H514V30.3814H495.583V42.1314H512.203V49.3622H495.583V62.6186H514V70H486V23Z" fill="#333333"/>
</svg>
