<svg width="640" height="340" viewBox="0 0 640 340" fill="none" xmlns="http://www.w3.org/2000/svg">
<g style="mix-blend-mode:luminosity">
<path d="M509.02 272.153L424.077 276.875C219.393 276.875 303.414 285.448 231.348 285.448C157.883 285.448 129.173 289.409 74.8231 289.016C23.4518 285.448 -20.8098 190.914 35.5811 142.01C99.7088 74.6668 108.914 4.1486e-06 219.661 0C304.495 -3.17788e-06 325.971 54.235 486.507 38.5354C597.671 27.6641 653.046 215.513 622.783 276.875C598.513 326.084 509.02 272.153 509.02 272.153Z" fill="#E9F7FF"/>
<path fill-rule="evenodd" clip-rule="evenodd" d="M157.553 193.043L222.294 279.967C224.566 283.018 232.003 287.134 232.003 287.134C232.003 287.134 196.555 286.063 147.681 293.199C98.8065 300.335 74.3223 286.872 74.3223 286.872C74.3223 286.872 77.5246 282.937 79.9019 279.888L147.681 192.964C149.962 190.037 155.346 190.081 157.553 193.043Z" fill="#E1C6C6"/>
<path fill-rule="evenodd" clip-rule="evenodd" d="M153.187 192.964C174.245 218.878 179.613 260.589 205.626 286.872C205.626 286.872 196.555 286.064 147.681 293.2C98.8065 300.336 74.3223 286.872 74.3223 286.872C74.3223 286.872 77.5246 282.937 79.9019 279.888L147.681 192.964C149.962 190.038 150.98 190.002 153.187 192.964Z" fill="#E6CECE"/>
<path d="M163.922 216.4C167.638 211.858 174.156 215.766 173.419 213.923C172.593 211.858 165.706 202.435 163.922 200.294L156.49 191.209C153.187 187.492 148.645 188.731 144.516 194.513L139.148 201.533C135.845 205.675 129.238 215.574 129.238 215.574C138.322 207.315 142.122 215.253 146.167 211.445C153.187 204.837 158.557 222.959 163.922 216.4Z" fill="white"/>
<path fill-rule="evenodd" clip-rule="evenodd" d="M413.752 211.288H363.88C363.421 210.25 363.166 209.102 363.166 207.893C363.166 203.876 365.984 200.517 369.752 199.687C371.123 193.631 376.537 189.109 383.007 189.109C387.75 189.109 391.926 191.54 394.357 195.223C395.637 194.5 397.116 194.087 398.691 194.087C403.565 194.087 407.516 198.039 407.516 202.914C407.516 203.439 407.47 203.954 407.381 204.455C407.55 204.441 407.721 204.433 407.893 204.433C411.168 204.433 413.823 207.089 413.823 210.365C413.823 210.679 413.799 210.988 413.752 211.288Z" fill="white"/>
<path fill-rule="evenodd" clip-rule="evenodd" d="M474.885 173.754L552.35 277.435C555.069 281.073 557.949 287.588 557.949 287.588C557.949 287.588 540.825 310.424 468.763 297.579C396.7 284.734 368.518 297.579 368.518 297.579C368.518 297.579 379.127 280.976 381.972 277.34L463.072 173.659C465.803 170.169 472.245 170.22 474.885 173.754Z" fill="#B59C9C"/>
<path fill-rule="evenodd" clip-rule="evenodd" d="M474.885 173.754C486.813 215.988 520.361 251.94 538.426 292.801C538.426 292.801 540.825 310.424 468.763 297.579C396.7 284.734 368.518 297.579 368.518 297.579C368.518 297.579 379.127 280.976 381.972 277.34L463.072 173.659C465.803 170.169 472.245 170.22 474.885 173.754Z" fill="#BCA7A7"/>
<path d="M458.323 201.534C455.317 204.763 454.194 193.274 447.174 192.448C447.174 192.448 447.782 190.324 449.402 188.356L463.15 171.073C465.697 167.98 471.392 168.07 473.785 171.24L488.236 190.384C488.99 191.382 493.712 196.849 493.021 197.877C487.226 197.877 482.827 188.312 477.316 194.513C470.71 201.947 469.471 189.558 458.323 201.534Z" fill="white"/>
<path fill-rule="evenodd" clip-rule="evenodd" d="M325.238 147.542L448.357 306.279C452.678 311.85 462.697 324.338 462.697 324.338C462.697 324.338 404.905 352.89 311.794 330.761C218.684 308.631 166.956 318.888 166.956 318.888C166.956 318.888 173.046 311.701 177.567 306.134L306.463 147.396C310.803 142.052 321.042 142.131 325.238 147.542Z" fill="#FAE0D2"/>
<path fill-rule="evenodd" clip-rule="evenodd" d="M321.238 145.256C370.652 208.965 394.735 294.865 438.439 332.545C438.439 332.545 386.354 349.315 306.463 332.545C226.572 315.775 163.389 321.484 163.389 321.484C211.006 265.294 260.036 202.431 306.463 145.256C310.803 139.911 317.042 139.845 321.238 145.256Z" fill="#FFE9DD"/>
<path d="M284.682 216.226C276.121 213.728 286.396 191.073 261.781 200.707C255.349 198.184 287.804 165.678 302.163 148.055C308.941 140.267 316.076 136.489 325.351 146.648C339.061 163.957 368.892 194.055 365.419 199.468C347.582 192.018 370.914 223.038 342.118 205.426C331.773 199.099 329.632 189.822 325.351 189.822C321.07 189.822 316.433 203.381 306.087 203.381C295.741 203.381 293.244 218.723 284.682 216.226Z" fill="white"/>
<path fill-rule="evenodd" clip-rule="evenodd" d="M265.361 249.56H205.655C205.105 248.317 204.8 246.942 204.8 245.495C204.8 240.686 208.174 236.665 212.684 235.671C214.326 228.421 220.807 223.008 228.553 223.008C234.231 223.008 239.231 225.917 242.141 230.327C243.674 229.462 245.444 228.968 247.33 228.968C253.164 228.968 257.894 233.698 257.894 239.534C257.894 240.164 257.839 240.78 257.734 241.379C257.936 241.362 258.14 241.353 258.346 241.353C262.267 241.353 265.446 244.532 265.446 248.454C265.446 248.83 265.417 249.2 265.361 249.56Z" fill="white"/>
<path fill-rule="evenodd" clip-rule="evenodd" d="M614.139 99.3613C613.199 84.5285 600.873 72.7891 585.806 72.7891C575.761 72.7891 566.935 78.0065 561.888 85.8795C560.638 85.4987 559.311 85.2938 557.937 85.2938C550.456 85.2938 544.393 91.3588 544.393 98.8404C544.393 99.0148 544.396 99.1885 544.402 99.3613H614.139Z" fill="#D0E7F9"/>
<path fill-rule="evenodd" clip-rule="evenodd" d="M60.6386 153.081H9.27539C9.3872 142.219 18.2261 133.447 29.1132 133.447C36.1162 133.447 42.2717 137.076 45.8023 142.557C47.0361 142.07 48.3804 141.802 49.7873 141.802C55.7847 141.802 60.6465 146.665 60.6465 152.663C60.6465 152.803 60.6439 152.943 60.6386 153.081Z" fill="#D0E7F9"/>
<path fill-rule="evenodd" clip-rule="evenodd" d="M147.78 305.521H2.49918C0.89868 302.258 0 298.589 0 294.709C0 281.137 11.001 270.134 24.5713 270.134C25.7887 270.134 26.9854 270.222 28.1554 270.393C32.2828 252.841 48.0399 239.775 66.8483 239.775C85.6061 239.775 101.329 252.771 105.508 270.252C114.023 271.953 120.961 278.022 123.887 286.025C126.007 285.102 128.347 284.59 130.806 284.59C140.385 284.59 148.151 292.357 148.151 301.938C148.151 303.166 148.023 304.365 147.78 305.521Z" fill="white"/>
<path fill-rule="evenodd" clip-rule="evenodd" d="M639.814 318.974H509.865C508.669 316.269 508.005 313.276 508.005 310.128C508.005 299.66 515.349 290.908 525.164 288.745C528.738 272.965 542.845 261.184 559.703 261.184C572.063 261.184 582.944 267.517 589.279 277.116C592.614 275.232 596.467 274.157 600.57 274.157C613.269 274.157 623.564 284.454 623.564 297.155C623.564 298.524 623.444 299.865 623.215 301.168C623.654 301.131 624.098 301.111 624.547 301.111C633.082 301.111 640 308.031 640 316.567C640 317.386 639.937 318.19 639.814 318.974Z" fill="white"/>
<path d="M372.626 96.0352C379.404 96.0352 381.901 104.599 381.901 104.599C381.901 104.599 384.399 96.0352 390.463 96.0352" stroke="#BADAF4" stroke-width="2" stroke-linecap="round" stroke-linejoin="round"/>
<path d="M391.89 78.9082C397.312 78.9082 399.31 85.3308 399.31 85.3308C399.31 85.3308 401.308 78.9082 406.159 78.9082" stroke="#BADAF4" stroke-width="2" stroke-linecap="round" stroke-linejoin="round"/>
<path d="M357.643 83.9023C361.167 83.9023 362.466 88.1833 362.466 88.1833C362.466 88.1833 363.764 83.9023 366.918 83.9023" stroke="#BADAF4" stroke-width="2" stroke-linecap="round" stroke-linejoin="round"/>
<path d="M559.376 174.836C562.901 174.836 564.199 179.117 564.199 179.117C564.199 179.117 565.498 174.836 568.651 174.836" stroke="#BADAF4" stroke-width="2" stroke-linecap="round" stroke-linejoin="round"/>
<path d="M174.871 95.7841L209.32 156.716M209.32 156.716L189.854 110.77M209.32 156.716L193.779 75.8027M209.32 156.716L224.815 75.8027M209.32 156.716L229.096 110.77M209.32 156.716L244.08 95.7841M209.32 156.716V91.1456" stroke="#CBE4F6"/>
<path d="M204.124 148.949H214.113V155.94C214.113 157.597 212.77 158.94 211.113 158.94H207.124C205.467 158.94 204.124 157.597 204.124 155.94V148.949Z" fill="#BCA7A7"/>
<rect x="203.411" y="148.234" width="11.4158" height="1.42698" fill="#CBE4F6"/>
<rect x="205.551" y="151.09" width="1.42698" height="5.70895" fill="#E1C6C6"/>
<rect x="208.405" y="151.09" width="1.42698" height="5.70895" fill="#E1C6C6"/>
<rect x="211.26" y="151.09" width="1.42698" height="5.70895" fill="#E1C6C6"/>
<ellipse cx="208.929" cy="82.5956" rx="37.9871" ry="37.994" fill="#D0E7F9"/>
<ellipse cx="208.929" cy="82.5956" rx="24.7742" ry="37.994" fill="#E9F7FF"/>
<ellipse cx="208.929" cy="82.5956" rx="9.90968" ry="37.994" fill="#D0E7F9"/>
</g>
</svg>
