<svg width="35" height="20" viewBox="0 0 35 20" fill="none" xmlns="http://www.w3.org/2000/svg">
<path d="M34.473 17.4608C34.473 17.4608 34.3548 17.3017 34.33 17.2577C33.7578 16.2419 32.6135 14.9553 30.897 13.4655L30.8255 13.3978C30.0387 12.7206 29.5381 12.2466 29.395 11.9757C29.0374 11.5017 28.9659 11.0277 29.109 10.6214C29.252 10.2828 29.8242 9.53792 30.7539 8.38673C31.2546 7.77728 31.6122 7.30326 31.8983 6.96468C33.9724 4.32371 34.9021 2.6985 34.6161 1.95362L34.473 1.75046C34.4015 1.61503 34.1869 1.54731 33.9009 1.4796C33.6148 1.41188 33.1856 1.41188 32.7565 1.41188H27.5355C27.464 1.41188 27.3209 1.41188 27.1779 1.41188C27.0349 1.41188 26.9633 1.4796 26.9633 1.4796L26.6716 1.74392C26.6716 1.74392 26.3613 2.34153 26.3105 2.46186C25.7383 3.8162 25.1753 4.73001 24.4601 5.94892C24.031 6.62609 23.6019 7.23555 23.2443 7.77728C22.8867 8.31902 22.529 8.6576 22.3145 8.92847C22.0284 9.19934 21.8138 9.40249 21.5993 9.53792C21.3847 9.67336 21.2417 9.74107 21.0986 9.74107C20.9556 9.74107 20.8841 9.67336 20.8125 9.67336C20.6695 9.53792 20.5265 9.40249 20.3834 9.26706C20.3119 9.06391 20.2404 8.86075 20.1689 8.58989C20.0973 8.31902 20.0973 8.11587 20.0973 7.91272C20.0973 7.70956 20.0973 7.4387 20.0973 7.10011C20.0973 6.76153 20.0973 6.49066 20.0973 6.35522C20.0973 5.94892 20.0973 5.4749 20.0973 4.93317C20.0973 4.45915 20.0973 4.05284 20.1689 3.71426C20.1689 3.44339 20.1689 3.10481 20.1689 2.76622C20.1689 2.42764 20.1688 2.15677 20.0973 2.02133C20.0258 1.81818 20.0258 1.68275 19.8828 1.4796C19.8113 1.27645 19.6682 1.14101 19.5252 1.07329C19.3821 1.00558 19.1676 0.870143 18.953 0.870143C18.3093 0.734709 17.5226 0.666992 16.5213 0.666992C14.3041 0.666992 12.8737 0.802426 12.23 1.07329C11.944 1.20873 11.7294 1.34416 11.5148 1.61503C11.3003 1.8859 11.3003 2.02133 11.4433 2.02133C12.1585 2.15677 12.6592 2.35992 12.9452 2.76622L13.0883 2.96937C13.1598 3.10481 13.2313 3.37567 13.3744 3.78198C13.4459 4.18828 13.5174 4.59458 13.5174 5.00088C13.5889 5.81349 13.5889 6.55837 13.5174 7.16783C13.4459 7.77728 13.3744 8.2513 13.3744 8.52217C13.3744 8.79304 13.2313 9.13162 13.1598 9.33477C13.0168 9.53793 12.9452 9.67336 12.9452 9.74107C12.8737 9.80879 12.8737 9.80879 12.8737 9.80879C12.7307 9.87651 12.5877 9.87651 12.3731 9.87651C12.23 9.87651 12.0155 9.80879 11.7294 9.60564C11.5148 9.47021 11.2288 9.19934 11.0142 8.92847C10.7281 8.6576 10.442 8.2513 10.1559 7.77728C9.79834 7.30326 9.51226 6.69381 9.15466 6.01664L8.86858 5.54262C8.65401 5.20403 8.43945 4.73001 8.15337 4.12056C7.86728 3.51111 7.58119 2.90165 7.29511 2.35992C7.22359 2.08905 7.08054 1.95362 6.86598 1.81818L6.79448 1.75046C6.72296 1.68275 6.65142 1.68275 6.50838 1.61503C6.36533 1.54731 6.22231 1.54731 6.07927 1.4796L1.14432 1.41188C0.64367 1.41188 0.28607 1.54731 0.143029 1.75046L0.0715033 1.8859C-1.74613e-05 1.95362 0 2.02133 0 2.15677C0 2.2922 0.0715077 2.42764 0.143029 2.63079C0.858237 4.256 1.64498 5.81349 2.50323 7.30326C3.36148 8.79304 4.07667 10.0119 4.72036 10.8923C5.36404 11.7726 6.00774 12.6529 6.65143 13.4655C7.29511 14.2781 7.72423 14.8199 7.93879 15.023C8.15335 15.2262 8.29641 15.4293 8.43945 15.5647L8.86858 15.971C9.15466 16.2419 9.58378 16.5805 10.1559 16.9191C10.7281 17.3254 11.3003 17.664 12.0155 18.0703C12.6592 18.4089 13.5174 18.7474 14.3757 18.9506C15.3054 19.1537 16.25 19.3337 17.3333 19.3337H18.3661C19.8105 19.3337 19.9571 18.8866 20.1716 18.6157C20.1716 18.6157 20.3119 18.3577 20.3119 18.1277C20.3119 18.0716 20.3119 18.138 20.3119 17.9348C20.3119 17.4608 20.3119 16.9868 20.4549 16.5805C20.5265 16.1742 20.6695 15.9033 20.741 15.7002C20.8841 15.497 20.9556 15.3616 21.0986 15.2262C21.2417 15.0907 21.3132 15.023 21.3847 14.9553C21.4562 14.9553 21.5277 14.8876 21.5277 14.8876C21.8138 14.8199 22.1715 14.8876 22.5291 15.1584C22.8867 15.4293 23.3158 15.7679 23.6019 16.1742C23.9595 16.5805 24.3886 16.9868 24.8177 17.5285C25.3184 18.0026 25.7475 18.4089 26.1051 18.612L26.4627 18.8152C26.6773 18.9506 27.0349 19.086 27.3925 19.2215C27.755 19.3337 28.1161 19.3337 28.4772 19.3337H32.8105C33.2396 19.3337 33.8293 19.1537 34.1154 19.0183C34.33 18.9167 34.473 18.7474 34.5445 18.5443C34.6161 18.3411 34.6526 18.0361 34.6161 17.8978C34.5795 17.7594 34.473 17.4608 34.473 17.4608Z" fill="#4A76A8"/>
</svg>
