<svg width="27" height="22" viewBox="0 0 27 22" fill="none" xmlns="http://www.w3.org/2000/svg">
<path d="M24.3256 5.66634C24.3256 5.89491 24.3256 6.12348 24.3256 6.35206C24.3256 13.4378 18.8288 21.6663 8.72669 21.6663C5.60692 21.6663 2.70998 20.7521 0.333008 19.2282C0.77869 19.3044 1.22437 19.3044 1.67005 19.3044C4.26987 19.3044 6.57256 18.4663 8.50385 17.0187C6.12688 16.9425 4.04703 15.4187 3.3785 13.2854C3.67562 13.3616 4.04703 13.3616 4.41843 13.3616C4.93839 13.3616 5.38408 13.2854 5.82976 13.2092C3.30422 12.7521 1.44721 10.5425 1.44721 7.95206V7.87586C2.19002 8.25682 3.0071 8.48539 3.89847 8.56158C2.41286 7.5711 1.44721 5.9711 1.44721 4.06634C1.44721 3.07587 1.74434 2.16158 2.19002 1.32348C4.86411 4.59967 8.94953 6.73301 13.4806 6.96158C13.4064 6.58063 13.3321 6.12348 13.3321 5.74253C13.3321 2.7711 15.7833 0.333008 18.8288 0.333008C20.3887 0.333008 21.8 1.01872 22.84 2.0092C24.1027 1.85682 25.2912 1.39967 26.3312 0.790151C25.8855 2.08539 25.0684 3.07587 23.8799 3.76158C24.9941 3.6092 26.034 3.38063 26.9997 2.92348C26.3312 3.99015 25.4398 4.90444 24.3256 5.66634Z" fill="#26A8DE"/>
</svg>
