<svg width="25" height="24" viewBox="0 0 25 24" fill="none" xmlns="http://www.w3.org/2000/svg">
<path d="M18.0463 0H7.28771C3.6012 0 0.666992 3.0094 0.666992 6.62069V17.3793C0.666992 21.0658 3.67643 24 7.28771 24H18.0463C21.7328 24 24.667 20.9906 24.667 17.3793V6.69592C24.667 3.0094 21.6576 0 18.0463 0ZM22.5604 17.4545C22.5604 19.9373 20.5291 21.9687 18.0463 21.9687H7.28771C4.80496 21.9687 2.77361 19.9373 2.77361 17.4545V6.69592C2.77361 4.21317 4.80496 2.18182 7.28771 2.18182H18.0463C20.5291 2.18182 22.5604 4.21317 22.5604 6.69592V17.4545Z" fill="url(#paint0_linear)"/>
<path d="M12.6294 5.86831C9.24382 5.86831 6.46009 8.652 6.46009 12.0376C6.46009 15.4232 9.24382 18.2069 12.6294 18.2069C16.015 18.2069 18.7987 15.4232 18.7987 12.0376C18.7987 8.652 16.015 5.86831 12.6294 5.86831ZM12.6294 16.1003C10.3723 16.1003 8.56668 14.2946 8.56668 12.0376C8.56668 9.78053 10.3723 7.97489 12.6294 7.97489C14.8865 7.97489 16.6921 9.78053 16.6921 12.0376C16.6921 14.2946 14.8865 16.1003 12.6294 16.1003Z" fill="url(#paint1_linear)"/>
<path d="M19.0996 4.06287C18.7234 4.06287 18.272 4.21334 17.9711 4.51428C17.6701 4.81522 17.5197 5.1914 17.5197 5.64281C17.5197 6.01899 17.6701 6.4704 17.9711 6.77135C18.272 7.07229 18.6482 7.22276 19.0996 7.22276C19.4758 7.22276 19.9272 7.07229 20.2282 6.77135C20.5291 6.4704 20.6796 6.09423 20.6796 5.64281C20.6796 5.26664 20.5291 4.81522 20.2282 4.51428C19.9272 4.21334 19.4758 4.06287 19.0996 4.06287Z" fill="url(#paint2_linear)"/>
<defs>
<linearGradient id="paint0_linear" x1="24.6891" y1="2.84221" x2="0.639131" y2="10.9307" gradientUnits="userSpaceOnUse">
<stop stop-color="#E0316D"/>
<stop offset="1" stop-color="#B034AE"/>
</linearGradient>
<linearGradient id="paint1_linear" x1="24.6891" y1="2.84221" x2="0.639131" y2="10.9307" gradientUnits="userSpaceOnUse">
<stop stop-color="#E0316D"/>
<stop offset="1" stop-color="#B034AE"/>
</linearGradient>
<linearGradient id="paint2_linear" x1="24.6891" y1="2.84221" x2="0.639131" y2="10.9307" gradientUnits="userSpaceOnUse">
<stop stop-color="#E0316D"/>
<stop offset="1" stop-color="#B034AE"/>
</linearGradient>
</defs>
</svg>
