<svg width="14" height="23" viewBox="0 0 14 23" fill="none" xmlns="http://www.w3.org/2000/svg">
<path d="M12.5 0H9.66667C6.08333 0 4.16667 2.32 4.16667 5.92V8.8H0.833333C0.583333 8.8 0 8.96 0 9.6V12.8C0 13.36 0.416667 13.6 0.833333 13.6H4.16667V22.52C4.16667 22.76 4.41667 23 4.66667 23H8.41667C8.66667 23 9.16667 22.84 9.16667 22.6V13.6H12.5C13.1667 13.6 13.3333 13.28 13.3333 12.8V9.6C13.3333 9.44 13.3333 8.8 12.5 8.8H9.16667V6.4C9.16667 5.28 9.5 4.8 10.75 4.8H12.5C13 4.8 13.3333 4.24 13.3333 4V0.8C13.3333 0.24 13 0 12.5 0Z" fill="#41479B"/>
</svg>
