<svg width="15" height="10" viewBox="0 0 15 10" fill="none" xmlns="http://www.w3.org/2000/svg">
<path d="M13.9426 4.79715C13.8124 4.60071 11.9538 0 7.00388 0C2.75644 0 0.244328 4.57429 0.0850757 4.76929C-0.0231502 4.90215 -0.0231502 5.09715 0.0850757 5.23071C0.244328 5.42571 2.75644 10 7.00388 10C11.2513 10 13.7634 5.42571 13.9226 5.23071C14.0226 5.10786 14.0316 4.93001 13.9426 4.79715ZM7.00388 9.28573C3.59891 9.28573 1.64988 5.92143 0.827436 5C1.64852 4.07787 3.5941 0.714307 7.00388 0.714307C10.9879 0.714307 12.4937 4.09287 13.1804 5C12.3875 5.89213 10.4378 9.28573 7.00388 9.28573Z" fill="#919192"/>
<path d="M7.00379 2.5C5.64127 2.5 4.5332 3.62125 4.5332 5C4.5332 6.37875 5.64127 7.5 7.00379 7.5C8.36632 7.5 9.47438 6.37875 9.47438 5C9.47438 3.62125 8.36632 2.5 7.00379 2.5ZM7.00379 6.87504C5.98221 6.87504 5.15084 6.03377 5.15084 5.00003C5.15084 3.96628 5.98221 3.12502 7.00379 3.12502C8.02537 3.12502 8.85674 3.96628 8.85674 5.00003C8.85674 6.03377 8.02537 6.87504 7.00379 6.87504Z" fill="#919192"/>
</svg>
