<svg width="359" height="33" viewBox="0 0 359 33" fill="none" xmlns="http://www.w3.org/2000/svg">
<g opacity="0.7">
<path d="M156.521 11.311L157.406 5.99927L152.364 7.88894L156.521 11.311Z" fill="white"/>
<path d="M304.67 5.28418L309 2.78418L311.5 7.11431L307.17 9.61431L304.67 5.28418Z" fill="white"/>
<path d="M116.493 20.0579L115.047 22.9903L117.389 25.2716L114.153 24.8025L112.707 27.7348L112.154 24.5126L108.918 24.0436L111.811 22.5212L111.258 19.299L113.6 21.5803L116.493 20.0579Z" fill="white"/>
<circle r="2" transform="matrix(-1 0 0 1 357 24.6562)" fill="white" fill-opacity="0.8"/>
<path d="M251.832 18.46C246.29 14.7378 250.265 7.43218 252.576 9.27852C254.887 11.1249 247.116 15.6475 244.552 13.0834C241.989 10.5193 244.975 3.24626 246.951 5.14274C248.928 7.03922 243.772 11.2254 240.913 9.27852C238.054 7.33165 239.59 3.24029 240.913 2" stroke="white" stroke-linecap="round"/>
<path d="M37.6579 22.0853C43.9439 24.3332 47.4604 16.7959 44.6024 16.0333C41.7445 15.2707 42.7212 24.2086 46.3068 24.7484C49.8924 25.2882 53.9703 18.5663 51.2706 18.1024C48.5709 17.6386 48.2649 24.2724 51.5293 25.4164C54.7937 26.5604 57.1734 22.8951 57.385 21.0935" stroke="white" stroke-linecap="round"/>
<circle r="1.5" transform="matrix(-1 0 0 1 186.5 24)" fill="white"/>
<circle r="1.5" transform="matrix(-1 0 0 1 1.5 24)" fill="white"/>
<circle r="1.5" transform="matrix(-1 0 0 1 85.5 2.18848)" fill="white"/>
</g>
</svg>
