<svg width="274" height="31" viewBox="0 0 274 31" fill="none" xmlns="http://www.w3.org/2000/svg">
<g clip-path="url(#clip0_17063_133901)">
<path d="M268.917 25.0111L261.174 21.1332L268.404 16.3661L268.917 25.0111Z" fill="white"/>
<circle r="3" transform="matrix(-1 0 0 1 204.41 5.02344)" stroke="white"/>
<circle r="3" transform="matrix(-1 0 0 1 3.28809 3.29297)" fill="white"/>
<path d="M134.478 20.9912C136.514 23.5666 138.478 24.4912 140.978 25.9912C137.978 26.4912 136.478 27.4912 133.478 28.4912C134.059 25.6208 134.478 25.4912 134.478 23.9912" stroke="white" stroke-linecap="round" stroke-linejoin="round"/>
<path d="M56.6383 21.0212C54.4979 17.2755 53.5763 12.57 53.6139 5.92569C56.6454 5.88378 59.1998 5.44972 61.4535 4.46628C63.6777 3.49566 65.5788 2.00308 67.3476 -0.119847C69.2852 1.97513 71.1747 3.46703 73.2935 4.44445C75.4356 5.4326 77.7795 5.87993 80.5912 5.92522C80.7691 12.2912 79.849 17.1003 77.7238 20.9696C75.5831 24.8671 72.1893 27.8665 67.3296 30.5416C62.2273 27.6599 58.7957 24.7967 56.6383 21.0212Z" stroke="white"/>
<path fill-rule="evenodd" clip-rule="evenodd" d="M73.2578 11.171C73.6939 11.5365 73.755 12.1911 73.3942 12.633L67.7423 19.5561C67.5552 19.7853 67.28 19.9222 66.9866 19.932C66.6932 19.9419 66.4097 19.8238 66.208 19.6076L62.9784 16.1461C62.5895 15.7293 62.6077 15.0721 63.019 14.678C63.4303 14.284 64.0789 14.3024 64.4677 14.7192L66.9015 17.3277L71.815 11.3092C72.1757 10.8673 72.8217 10.8054 73.2578 11.171Z" fill="white"/>
</g>
<defs>
<clipPath id="clip0_17063_133901">
<rect width="272.804" height="30" fill="white" transform="translate(0.288086 0.232422)"/>
</clipPath>
</defs>
</svg>
