<svg width="332" height="37" viewBox="0 0 332 37" fill="none" xmlns="http://www.w3.org/2000/svg">
<g opacity="0.7">
<path d="M196.521 15.311L197.406 9.99927L192.364 11.8889L196.521 15.311Z" fill="white"/>
<path d="M325 9.28418L329.33 6.78418L331.83 11.1143L327.5 13.6143L325 9.28418Z" fill="white"/>
<path d="M162.493 24.0579L161.047 26.9903L163.389 29.2716L160.153 28.8025L158.707 31.7348L158.154 28.5126L154.918 28.0436L157.811 26.5212L157.258 23.299L159.6 25.5803L162.493 24.0579Z" fill="white"/>
<path d="M282.443 22.46C276.901 18.7378 280.877 11.4322 283.188 13.2785C285.498 15.1249 277.728 19.6475 275.164 17.0834C272.6 14.5193 275.586 7.24626 277.562 9.14274C279.539 11.0392 274.384 15.2254 271.525 13.2785C268.665 11.3316 270.201 7.24029 271.525 6" stroke="white" stroke-linecap="round"/>
<path d="M96.6579 26.0853C102.944 28.3332 106.46 20.7959 103.602 20.0333C100.745 19.2707 101.721 28.2086 105.307 28.7484C108.892 29.2882 112.97 22.5663 110.271 22.1024C107.571 21.6386 107.265 28.2724 110.529 29.4164C113.794 30.5604 116.173 26.8951 116.385 25.0935" stroke="white" stroke-linecap="round"/>
<path d="M1.98009 23.9813C7.53419 20.2773 3.58271 12.9587 1.26575 14.7974C-1.05121 16.6362 6.70473 21.1843 9.27696 18.6286C11.8492 16.0729 8.88708 8.79014 6.90429 10.6801C4.92151 12.5701 10.0631 16.7732 12.9286 14.8357C15.7942 12.8982 14.2722 8.80182 12.9525 7.55719" stroke="white" stroke-linecap="round"/>
<circle r="1.5" transform="matrix(-1 0 0 1 226.5 28)" fill="white"/>
<circle r="1.5" transform="matrix(-1 0 0 1 51.5 28)" fill="white"/>
<circle r="1.5" transform="matrix(-1 0 0 1 135.5 2.18848)" fill="white"/>
</g>
</svg>
