<svg width="307" height="44" viewBox="0 0 307 44" fill="none" xmlns="http://www.w3.org/2000/svg">
<g opacity="0.7">
<path d="M196.71 5.312L197.594 0.000250936L192.552 1.88992L196.71 5.312Z" fill="white"/>
<path d="M163.681 34.0579L162.235 36.9903L164.577 39.2716L161.342 38.8025L159.896 41.7348L159.342 38.5126L156.106 38.0436L159 36.5212L158.446 33.299L160.788 35.5803L163.681 34.0579Z" fill="white"/>
<path d="M296.632 21.46C291.09 17.7378 295.065 10.4322 297.376 12.2785C299.687 14.1249 291.916 18.6475 289.352 16.0834C286.788 13.5193 289.774 6.24626 291.751 8.14274C293.728 10.0392 288.572 14.2254 285.713 12.2785C282.854 10.3316 284.389 6.24029 285.713 5" stroke="white" stroke-linecap="round"/>
<path d="M2.16856 30.9813C7.72266 27.2773 3.77119 19.9587 1.45423 21.7974C-0.862732 23.6362 6.89321 28.1843 9.46544 25.6286C12.0377 23.0729 9.07555 15.7901 7.09277 17.6801C5.10999 19.5701 10.2516 23.7732 13.1171 21.8357C15.9827 19.8982 14.4606 15.8018 13.1409 14.5572" stroke="white" stroke-linecap="round"/>
<circle r="1.5" transform="matrix(-1 0 0 1 236.688 35)" fill="white"/>
<circle r="1.5" transform="matrix(-1 0 0 1 51.6885 39)" fill="white"/>
<circle r="1.5" transform="matrix(-1 0 0 1 115.688 8.18848)" fill="white"/>
</g>
</svg>
