<svg width="180" height="90" viewBox="0 0 180 90" fill="none" xmlns="http://www.w3.org/2000/svg">
<g clip-path="url(#clip0_15003_129826)">
<rect width="180" height="90" fill="#D9F4FF"/>
<path fill-rule="evenodd" clip-rule="evenodd" d="M115.014 103.735C130.772 103.735 143.555 89.561 143.555 72.0939C143.555 54.6095 130.772 40.453 115.014 40.453C112.836 40.453 110.694 40.7289 108.658 41.2462C108.286 41.3324 107.932 41.4358 107.56 41.5393C107.189 41.6427 106.835 41.7634 106.463 41.8841C106.463 41.7807 106.463 41.66 106.48 41.5565C106.498 41.2117 106.498 40.8496 106.498 40.4875V40.453C106.498 40.0047 106.498 39.5563 106.48 39.1253C105.684 -3.49942 39.113 -9.74138 30.6677 31.0383C29.9772 30.7797 29.2867 30.5727 28.5785 30.3831C26.9143 29.952 25.1615 29.7278 23.3733 29.7278C15.5123 29.7278 8.58961 34.0903 4.42895 40.7461C2.1096 40.0736 -0.315987 39.7288 -2.83009 39.7288C-18.7823 39.7115 -31.7246 54.0405 -31.7246 71.7145C-31.7246 89.4058 -18.8 103.735 -2.8478 103.735H42.4769H115.014Z" fill="white" fill-opacity="0.5"/>
<path fill-rule="evenodd" clip-rule="evenodd" d="M218.898 93.7347C232.426 93.7347 243.399 81.5668 243.399 66.5716C243.399 51.5616 232.426 39.4086 218.898 39.4086C217.029 39.4086 215.189 39.6454 213.442 40.0895C213.122 40.1635 212.818 40.2523 212.499 40.3412C212.18 40.43 211.876 40.5336 211.557 40.6372C211.557 40.5484 211.557 40.4448 211.572 40.356C211.587 40.0599 211.587 39.749 211.587 39.4382V39.4086C211.587 39.0237 211.587 38.6388 211.572 38.2688C210.888 1.67635 153.738 -3.68226 146.488 31.3263C145.896 31.1042 145.303 30.9266 144.695 30.7638C143.266 30.3937 141.761 30.2013 140.226 30.2013C133.478 30.2013 127.535 33.9464 123.963 39.6602C121.972 39.0829 119.889 38.7869 117.731 38.7869C104.037 38.7721 92.9258 51.0732 92.9258 66.246C92.9258 81.4336 104.021 93.7347 117.716 93.7347H156.626H218.898Z" fill="#9ADAF3" fill-opacity="0.3"/>
<path fill-rule="evenodd" clip-rule="evenodd" d="M79.1395 93.7347C66.3171 93.7347 55.915 83.1619 55.915 70.1323C55.915 57.0899 66.3171 46.5299 79.1395 46.5299C80.9116 46.5299 82.6549 46.7357 84.3117 47.1216C84.6143 47.1859 84.9024 47.2631 85.205 47.3403C85.5076 47.4174 85.7957 47.5075 86.0982 47.5975C86.0982 47.5203 86.0983 47.4303 86.0838 47.3531C86.0694 47.0959 86.0694 46.8258 86.0694 46.5557V46.5299C86.0694 46.1955 86.0694 45.8611 86.0838 45.5395C86.7322 13.7438 140.903 9.08767 147.776 39.5071C148.338 39.3142 148.899 39.1598 149.476 39.0183C150.83 38.6968 152.256 38.5296 153.711 38.5296C160.108 38.5296 165.742 41.7837 169.127 46.7486C171.015 46.247 172.988 45.9897 175.034 45.9897C188.015 45.9769 198.547 56.6655 198.547 69.8494C198.547 83.0461 188.03 93.7347 175.049 93.7347H138.166H79.1395Z" fill="white" fill-opacity="0.7"/>
<path fill-rule="evenodd" clip-rule="evenodd" d="M-34.639 89.7348C-46.3932 89.7348 -55.9286 79.1619 -55.9286 66.1324C-55.9286 53.09 -46.3932 42.53 -34.639 42.53C-33.0146 42.53 -31.4165 42.7358 -29.8977 43.1216C-29.6204 43.186 -29.3562 43.2631 -29.0789 43.3403C-28.8015 43.4175 -28.5374 43.5075 -28.2601 43.5975C-28.2601 43.5204 -28.2601 43.4303 -28.2733 43.3532C-28.2865 43.0959 -28.2865 42.8258 -28.2865 42.5557V42.53C-28.2865 42.1955 -28.2865 41.8611 -28.2733 41.5396C-27.6789 9.74384 21.9792 5.08766 28.279 35.5071C28.794 35.3142 29.3091 35.1598 29.8374 35.0184C31.0788 34.6968 32.3863 34.5296 33.7202 34.5296C39.5841 34.5296 44.7481 37.7838 47.8517 42.7486C49.5818 42.247 51.3912 41.9897 53.2665 41.9897C65.166 41.9769 74.8203 52.6655 74.8203 65.8494C74.8203 79.0462 65.1792 89.7348 53.2798 89.7348H19.4699H-34.639Z" fill="#9ADAF3" fill-opacity="0.3"/>
<path d="M45.5062 54.5062L45.5077 54.0062L45.5062 54.5062ZM93.05 68.0053C93.0529 67.7292 92.8315 67.503 92.5553 67.5C92.2792 67.4971 92.053 67.7185 92.05 67.9947L93.05 68.0053ZM92.5124 71.5213L93.0124 71.5267L92.5124 71.5213ZM44 71.5V56.5062H43V71.5H44ZM45.5046 55.0062L80.6374 55.1147L80.6405 54.1147L45.5077 54.0062L45.5046 55.0062ZM90.5126 73H45.5V74H90.5126V73ZM92.05 67.9947L92.0125 71.516L93.0124 71.5267L93.05 68.0053L92.05 67.9947ZM43 71.5C43 72.8807 44.1193 74 45.5 74V73C44.6716 73 44 72.3284 44 71.5H43ZM90.5126 74C91.8829 74 92.9978 72.8969 93.0124 71.5267L92.0125 71.516C92.0037 72.3381 91.3347 73 90.5126 73V74ZM44 56.5062C44 55.6759 44.6744 55.0036 45.5046 55.0062L45.5077 54.0062C44.124 54.0019 43 55.1225 43 56.5062H44Z" fill="#333333"/>
<circle cx="51.5" cy="63.5" r="3" fill="url(#paint0_linear_15003_129826)" stroke="#333333"/>
<ellipse cx="82.4565" cy="61.8096" rx="1.26315" ry="1.28571" fill="#FF6F3D"/>
<ellipse cx="84.9838" cy="66.1904" rx="1.26315" ry="1.28571" fill="#333333"/>
<ellipse cx="77.4077" cy="61.8096" rx="1.26315" ry="1.28571" fill="#FF6F3D"/>
<ellipse cx="79.935" cy="66.1904" rx="1.26315" ry="1.28571" fill="#FF6F3D"/>
<ellipse cx="72.353" cy="61.8096" rx="1.26315" ry="1.28571" fill="#333333"/>
<ellipse cx="74.8803" cy="66.1904" rx="1.26315" ry="1.28571" fill="#FF6F3D"/>
<ellipse cx="67.3003" cy="61.8096" rx="1.26315" ry="1.28571" fill="#FF6F3D"/>
<ellipse cx="69.8276" cy="66.1904" rx="1.26315" ry="1.28571" fill="#333333"/>
<path d="M45.4975 35.5475L45.4968 35.0475L45.4975 35.5475ZM81 55C81.2761 55 81.5 54.7761 81.5 54.5C81.5 54.2239 81.2761 54 81 54V55ZM44 52.5V37.5475H43V52.5H44ZM45.4981 36.0475L83.0006 36L82.9994 35L45.4968 35.0475L45.4981 36.0475ZM81 54H45.5V55H81V54ZM43 52.5C43 53.8807 44.1193 55 45.5 55V54C44.6716 54 44 53.3284 44 52.5H43ZM44 37.5475C44 36.7198 44.6704 36.0485 45.4981 36.0475L45.4968 35.0475C44.1174 35.0492 43 36.168 43 37.5475H44Z" fill="#333333"/>
<circle cx="51.5" cy="44.5" r="3" fill="url(#paint1_linear_15003_129826)" stroke="#333333"/>
<ellipse cx="82.4565" cy="42.8095" rx="1.26315" ry="1.28571" fill="#FF6F3D"/>
<ellipse cx="77.4077" cy="42.8095" rx="1.26315" ry="1.28571" fill="#FF6F3D"/>
<ellipse cx="79.935" cy="47.1903" rx="1.26315" ry="1.28571" fill="#FF6F3D"/>
<ellipse cx="72.353" cy="42.8095" rx="1.26315" ry="1.28571" fill="#333333"/>
<ellipse cx="74.8803" cy="47.1903" rx="1.26315" ry="1.28571" fill="#FF6F3D"/>
<ellipse cx="67.3003" cy="42.8095" rx="1.26315" ry="1.28571" fill="#FF6F3D"/>
<ellipse cx="69.8276" cy="47.1903" rx="1.26315" ry="1.28571" fill="#333333"/>
<path d="M91.5 24V18.5C91.5 17.3954 90.6046 16.5 89.5 16.5H45.5C44.3954 16.5 43.5 17.3954 43.5 18.5L43.5 33.5475C43.5 34.653 44.397 35.5489 45.5025 35.5475L83.5 35.5" stroke="#333333" stroke-linecap="round"/>
<circle cx="51.5" cy="25.5" r="3" fill="url(#paint2_linear_15003_129826)" stroke="#333333"/>
<ellipse cx="82.4565" cy="23.7409" rx="1.26315" ry="1.27273" fill="#FF6F3D"/>
<ellipse cx="84.9838" cy="28.0773" rx="1.26315" ry="1.27273" fill="#333333"/>
<ellipse cx="77.4077" cy="23.7409" rx="1.26315" ry="1.27273" fill="#FF6F3D"/>
<ellipse cx="79.935" cy="28.0773" rx="1.26315" ry="1.27273" fill="#FF6F3D"/>
<ellipse cx="72.353" cy="23.7409" rx="1.26315" ry="1.27273" fill="#333333"/>
<ellipse cx="74.8803" cy="28.0773" rx="1.26315" ry="1.27273" fill="#FF6F3D"/>
<ellipse cx="67.3003" cy="23.7409" rx="1.26315" ry="1.27273" fill="#FF6F3D"/>
<ellipse cx="69.8276" cy="28.0773" rx="1.26315" ry="1.27273" fill="#333333"/>
<path fill-rule="evenodd" clip-rule="evenodd" d="M109 68C121.703 68 132 57.7025 132 45C132 32.2975 121.703 22 109 22C96.2975 22 86 32.2975 86 45C86 57.7025 96.2975 68 109 68ZM109 69C122.255 69 133 58.2548 133 45C133 31.7452 122.255 21 109 21C95.7452 21 85 31.7452 85 45C85 58.2548 95.7452 69 109 69Z" fill="#333333"/>
<path fill-rule="evenodd" clip-rule="evenodd" d="M117.132 61.5014C119.348 57.3295 120.749 51.4971 120.749 45C120.749 38.5029 119.348 32.6705 117.132 28.4986C114.892 24.2828 111.969 22 109 22C106.03 22 103.107 24.2828 100.867 28.4986C98.6511 32.6705 97.25 38.5029 97.25 45C97.25 51.4971 98.6511 57.3295 100.867 61.5014C103.107 65.7172 106.03 68 109 68C111.969 68 114.892 65.7172 117.132 61.5014ZM109 69C116.041 69 121.749 58.2548 121.749 45C121.749 31.7452 116.041 21 109 21C101.958 21 96.25 31.7452 96.25 45C96.25 58.2548 101.958 69 109 69Z" fill="#333333"/>
<path fill-rule="evenodd" clip-rule="evenodd" d="M109 34.5C116.386 34.5 122.887 32.5964 126.893 29.7145L127.477 30.5262C123.254 33.5642 116.529 35.5 109 35.5C101.471 35.5 94.7458 33.5642 90.5236 30.5262L91.1077 29.7145C95.1129 32.5964 101.614 34.5 109 34.5Z" fill="#333333"/>
<path fill-rule="evenodd" clip-rule="evenodd" d="M109 55.6203C116.386 55.6203 122.887 57.524 126.893 60.4059L127.477 59.5942C123.254 56.5562 116.529 54.6203 109 54.6203C101.471 54.6203 94.7458 56.5562 90.5236 59.5942L91.1077 60.4059C95.1129 57.524 101.614 55.6203 109 55.6203Z" fill="#333333"/>
<rect x="108" y="22" width="1" height="46" fill="#333333"/>
<rect x="86" y="46" width="1" height="47" transform="rotate(-90 86 46)" fill="#333333"/>
</g>
<rect x="0.5" y="0.5" width="179" height="89" stroke="#9ADAF3"/>
<defs>
<linearGradient id="paint0_linear_15003_129826" x1="49" y1="60.8047" x2="54" y2="66" gradientUnits="userSpaceOnUse">
<stop stop-color="#FF8E3D"/>
<stop offset="1" stop-color="#FF6F3D"/>
</linearGradient>
<linearGradient id="paint1_linear_15003_129826" x1="49" y1="41.8047" x2="54" y2="47" gradientUnits="userSpaceOnUse">
<stop stop-color="#FF8E3D"/>
<stop offset="1" stop-color="#FF6F3D"/>
</linearGradient>
<linearGradient id="paint2_linear_15003_129826" x1="49" y1="22.8047" x2="54" y2="28" gradientUnits="userSpaceOnUse">
<stop stop-color="#FF8E3D"/>
<stop offset="1" stop-color="#FF6F3D"/>
</linearGradient>
<clipPath id="clip0_15003_129826">
<rect width="180" height="90" fill="white"/>
</clipPath>
</defs>
</svg>
