<svg width="25" height="1195" viewBox="0 0 25 1195" fill="none" xmlns="http://www.w3.org/2000/svg">
<g clip-path="url(#clip0_14984_128662)">
<path fill-rule="evenodd" clip-rule="evenodd" d="M9 21H22V7.88965L17.0872 3H9L9 21ZM22 22C22.5523 22 23 21.5523 23 21V7.88965C23 7.62361 22.894 7.36854 22.7054 7.18087L17.7926 2.29122C17.6052 2.10471 17.3516 2 17.0872 2H9C8.44772 2 8 2.44772 8 3V21C8 21.5523 8.44772 22 9 22H22Z" fill="#333333"/>
<path fill-rule="evenodd" clip-rule="evenodd" d="M5.5 3C5.22386 3 5 3.22386 5 3.5V20.5C5 20.7761 5.22386 21 5.5 21H7C7.27614 21 7.5 21.2239 7.5 21.5C7.5 21.7761 7.27614 22 7 22H5.5C4.67157 22 4 21.3284 4 20.5V3.5C4 2.67157 4.67157 2 5.5 2H7C7.27614 2 7.5 2.22386 7.5 2.5C7.5 2.77614 7.27614 3 7 3H5.5Z" fill="#FF6F3D"/>
<path fill-rule="evenodd" clip-rule="evenodd" d="M1.5 3C1.22386 3 1 3.22386 1 3.5V20.5C1 20.7761 1.22386 21 1.5 21H3C3.27614 21 3.5 21.2239 3.5 21.5C3.5 21.7761 3.27614 22 3 22H1.5C0.671573 22 0 21.3284 0 20.5V3.5C0 2.67157 0.671573 2 1.5 2H3C3.27614 2 3.5 2.22386 3.5 2.5C3.5 2.77614 3.27614 3 3 3H1.5Z" fill="#FF6F3D"/>
<path fill-rule="evenodd" clip-rule="evenodd" d="M16.5 4C16.7761 4 17 4.22386 17 4.5V8H20.5C20.7761 8 21 8.22386 21 8.5C21 8.77614 20.7761 9 20.5 9H16.5C16.2239 9 16 8.77614 16 8.5V4.5C16 4.22386 16.2239 4 16.5 4Z" fill="#FF6F3D"/>
<path fill-rule="evenodd" clip-rule="evenodd" d="M12 11.5C12 11.2239 12.2239 11 12.5 11H18.5C18.7761 11 19 11.2239 19 11.5C19 11.7761 18.7761 12 18.5 12H12.5C12.2239 12 12 11.7761 12 11.5Z" fill="#333333"/>
<path fill-rule="evenodd" clip-rule="evenodd" d="M12 14.5C12 14.2239 12.2239 14 12.5 14H18.5C18.7761 14 19 14.2239 19 14.5C19 14.7761 18.7761 15 18.5 15H12.5C12.2239 15 12 14.7761 12 14.5Z" fill="#333333"/>
<path fill-rule="evenodd" clip-rule="evenodd" d="M12 17.5C12 17.2239 12.2239 17 12.5 17H18.5C18.7761 17 19 17.2239 19 17.5C19 17.7761 18.7761 18 18.5 18H12.5C12.2239 18 12 17.7761 12 17.5Z" fill="#333333"/>
</g>
<path fill-rule="evenodd" clip-rule="evenodd" d="M11.5 47C16.1944 47 20 43.1944 20 38.5C20 33.8056 16.1944 30 11.5 30C6.80558 30 3 33.8056 3 38.5C3 43.1944 6.80558 47 11.5 47ZM21 38.5C21 43.7467 16.7467 48 11.5 48C6.25329 48 2 43.7467 2 38.5C2 33.2533 6.25329 29 11.5 29C16.7467 29 21 33.2533 21 38.5Z" fill="#333333"/>
<path d="M14 29.5C14 30.8807 12.8807 32 11.5 32C10.1193 32 9 30.8807 9 29.5C9 28.1193 10.1193 27 11.5 27C12.8807 27 14 28.1193 14 29.5Z" fill="white"/>
<path fill-rule="evenodd" clip-rule="evenodd" d="M15 29.5C15 31.433 13.433 33 11.5 33C9.567 33 8 31.433 8 29.5C8 27.567 9.567 26 11.5 26C13.433 26 15 27.567 15 29.5ZM11.5 32C12.8807 32 14 30.8807 14 29.5C14 28.1193 12.8807 27 11.5 27C10.1193 27 9 28.1193 9 29.5C9 30.8807 10.1193 32 11.5 32Z" fill="#333333"/>
<path d="M8 45.5C8 46.8807 6.88071 48 5.5 48C4.11929 48 3 46.8807 3 45.5C3 44.1193 4.11929 43 5.5 43C6.88071 43 8 44.1193 8 45.5Z" fill="white"/>
<path fill-rule="evenodd" clip-rule="evenodd" d="M9 45.5C9 47.433 7.433 49 5.5 49C3.567 49 2 47.433 2 45.5C2 43.567 3.567 42 5.5 42C7.433 42 9 43.567 9 45.5ZM5.5 48C6.88071 48 8 46.8807 8 45.5C8 44.1193 6.88071 43 5.5 43C4.11929 43 3 44.1193 3 45.5C3 46.8807 4.11929 48 5.5 48Z" fill="#333333"/>
<path d="M20 45.5C20 46.8807 18.8807 48 17.5 48C16.1193 48 15 46.8807 15 45.5C15 44.1193 16.1193 43 17.5 43C18.8807 43 20 44.1193 20 45.5Z" fill="white"/>
<path fill-rule="evenodd" clip-rule="evenodd" d="M21 45.5C21 47.433 19.433 49 17.5 49C15.567 49 14 47.433 14 45.5C14 43.567 15.567 42 17.5 42C19.433 42 21 43.567 21 45.5ZM17.5 48C18.8807 48 20 46.8807 20 45.5C20 44.1193 18.8807 43 17.5 43C16.1193 43 15 44.1193 15 45.5C15 46.8807 16.1193 48 17.5 48Z" fill="#333333"/>
<path d="M22 35.5C22 36.8807 20.8807 38 19.5 38C18.1193 38 17 36.8807 17 35.5C17 34.1193 18.1193 33 19.5 33C20.8807 33 22 34.1193 22 35.5Z" fill="white"/>
<path fill-rule="evenodd" clip-rule="evenodd" d="M23 35.5C23 37.433 21.433 39 19.5 39C17.567 39 16 37.433 16 35.5C16 33.567 17.567 32 19.5 32C21.433 32 23 33.567 23 35.5ZM19.5 38C20.8807 38 22 36.8807 22 35.5C22 34.1193 20.8807 33 19.5 33C18.1193 33 17 34.1193 17 35.5C17 36.8807 18.1193 38 19.5 38Z" fill="#333333"/>
<path d="M6 35.5C6 36.8807 4.88071 38 3.5 38C2.11929 38 1 36.8807 1 35.5C1 34.1193 2.11929 33 3.5 33C4.88071 33 6 34.1193 6 35.5Z" fill="white"/>
<path fill-rule="evenodd" clip-rule="evenodd" d="M7 35.5C7 37.433 5.433 39 3.5 39C1.567 39 0 37.433 0 35.5C0 33.567 1.567 32 3.5 32C5.433 32 7 33.567 7 35.5ZM3.5 38C4.88071 38 6 36.8807 6 35.5C6 34.1193 4.88071 33 3.5 33C2.11929 33 1 34.1193 1 35.5C1 36.8807 2.11929 38 3.5 38Z" fill="#333333"/>
<rect x="5" y="72" width="14" height="1" rx="0.5" fill="#333333"/>
<rect x="8" y="73" width="3" height="1" rx="0.5" transform="rotate(-90 8 73)" fill="#333333"/>
<rect x="15" y="73" width="3" height="1" rx="0.5" transform="rotate(-90 15 73)" fill="#333333"/>
<path fill-rule="evenodd" clip-rule="evenodd" d="M21 56H3C2.44772 56 2 56.4477 2 57V67C2 67.5523 2.44772 68 3 68H21C21.5523 68 22 67.5523 22 67V57C22 56.4477 21.5523 56 21 56ZM3 55C1.89543 55 1 55.8954 1 57V67C1 68.1046 1.89543 69 3 69H21C22.1046 69 23 68.1046 23 67V57C23 55.8954 22.1046 55 21 55H3Z" fill="#FF6F3D"/>
<g clip-path="url(#clip1_14984_128662)">
<path fill-rule="evenodd" clip-rule="evenodd" d="M4.22183 98.4853C4.02656 98.6805 3.70998 98.6805 3.51472 98.4853C-1.17157 93.799 -1.17157 86.201 3.51472 81.5147C8.20101 76.8284 15.799 76.8284 20.4853 81.5147C25.1716 86.201 25.1716 93.799 20.4853 98.4853C18.3123 100.658 15.512 101.824 12.6676 101.982C11.2133 102.062 9.74695 101.879 8.34597 101.433C7.50226 101.164 6.6823 100.799 5.90312 100.339C5.66535 100.199 5.58644 99.892 5.72687 99.6542C5.8673 99.4164 6.17389 99.3375 6.41166 99.478C7.12537 99.8995 7.87652 100.233 8.64966 100.48C9.93364 100.889 11.2783 101.057 12.6123 100.983C15.2205 100.839 17.7858 99.7705 19.7782 97.7782C24.0739 93.4824 24.0739 86.5176 19.7782 82.2218C15.4824 77.9261 8.51759 77.9261 4.22182 82.2218C-0.0739422 86.5176 -0.0739412 93.4824 4.22183 97.7782C4.41709 97.9734 4.41709 98.29 4.22183 98.4853Z" fill="#333333"/>
<path d="M14.8523 90.3848C14.8583 89.9251 14.9835 89.4744 15.216 89.0746C15.4486 88.6748 15.781 88.3389 16.1824 88.0981C15.9274 87.7428 15.591 87.4504 15.2 87.2441C14.8089 87.0378 14.3739 86.9233 13.9296 86.9098C12.9818 86.8127 12.0629 87.4632 11.5799 87.4632C11.0875 87.4632 10.3439 86.9194 9.54309 86.9355C9.02512 86.9518 8.52031 87.0988 8.07785 87.3621C7.6354 87.6254 7.27039 87.996 7.01838 88.4378C5.92675 90.2819 6.74101 92.9922 7.7867 94.4828C8.30988 95.2127 8.92134 96.0281 9.72141 95.9992C10.5043 95.9675 10.7967 95.512 11.7418 95.512C12.6781 95.512 12.9524 95.9992 13.7687 95.9808C14.6088 95.9675 15.1381 95.2476 15.6429 94.5108C16.0188 93.9907 16.3081 93.4159 16.5 92.8076C16.0119 92.6062 15.5954 92.269 15.3024 91.8382C15.0094 91.4073 14.8528 90.9019 14.8523 90.3848Z" fill="#FF6F3D"/>
<path d="M14.2826 85.7111C14.9781 84.9544 15.3208 83.9818 15.2378 82.9999C14.1752 83.101 13.1936 83.5613 12.4886 84.2889C12.144 84.6444 11.88 85.0579 11.7118 85.5059C11.5436 85.9539 11.4745 86.4275 11.5084 86.8997C12.0399 86.9047 12.5657 86.8003 13.0463 86.5944C13.5268 86.3885 13.9495 86.0865 14.2826 85.7111Z" fill="#FF6F3D"/>
</g>
<g clip-path="url(#clip2_14984_128662)">
<path fill-rule="evenodd" clip-rule="evenodd" d="M20.4853 123.778C20.6805 123.973 20.6805 124.29 20.4853 124.485C15.799 129.172 8.20101 129.172 3.51472 124.485C-1.17157 119.799 -1.17157 112.201 3.51472 107.515C8.20101 102.828 15.799 102.828 20.4853 107.515C22.6583 109.688 23.824 112.488 23.9815 115.332C24.0621 116.787 23.8792 118.253 23.4327 119.654C23.1637 120.498 22.7992 121.318 22.339 122.097C22.1986 122.335 21.892 122.414 21.6542 122.273C21.4164 122.133 21.3375 121.826 21.478 121.588C21.8995 120.875 22.2335 120.123 22.4799 119.35C22.8891 118.066 23.057 116.722 22.9831 115.388C22.8386 112.779 21.7705 110.214 19.7782 108.222C15.4824 103.926 8.51759 103.926 4.22183 108.222C-0.0739422 112.518 -0.0739422 119.482 4.22183 123.778C8.51759 128.074 15.4824 128.074 19.7782 123.778C19.9734 123.583 20.29 123.583 20.4853 123.778Z" fill="#333333"/>
<path d="M6.75 112C6.60067 112 6.45132 112.056 6.33757 112.167C6.11007 112.39 6.11007 112.753 6.33757 112.975L7.86654 114.473C6.13063 115.721 5 117.729 5 120H19C19 117.729 17.8694 115.721 16.1335 114.473L17.6624 112.975C17.8899 112.751 17.8899 112.391 17.6624 112.167C17.4349 111.945 17.0651 111.945 16.8376 112.167L15.1081 113.862C14.1707 113.405 13.1179 113.143 12 113.143C10.8821 113.143 9.82928 113.405 8.89193 113.862L7.16244 112.167C7.04869 112.056 6.89933 112 6.75 112ZM9 117H10V118H9V117ZM14 117H15V118H14V117Z" fill="#FF6F3D"/>
</g>
<g clip-path="url(#clip3_14984_128662)">
<path fill-rule="evenodd" clip-rule="evenodd" d="M5.81889 132.293C5.68082 132.054 5.76276 131.748 6.0019 131.61C11.7414 128.296 19.0805 130.262 22.3942 136.002C25.7079 141.742 23.7414 149.081 18.0019 152.394C12.2624 155.708 4.92331 153.742 1.6096 148.002C0.0730498 145.341 -0.328139 142.334 0.255843 139.546C0.554427 138.12 1.1106 136.751 1.90454 135.513C2.38267 134.768 2.94702 134.07 3.59319 133.437C3.79037 133.244 4.10694 133.247 4.30026 133.444C4.49358 133.641 4.49046 133.958 4.29327 134.151C3.70139 134.731 3.18438 135.37 2.74624 136.053C2.01861 137.188 1.50849 138.443 1.23461 139.751C0.699114 142.308 1.06681 145.062 2.47562 147.502C5.51319 152.763 12.2407 154.566 17.5019 151.528C22.7631 148.491 24.5657 141.763 21.5282 136.502C18.4906 131.241 11.7631 129.438 6.5019 132.476C6.26276 132.614 5.95696 132.532 5.81889 132.293Z" fill="#333333"/>
<circle cx="8.00171" cy="142.05" r="1" fill="#FF6F3D"/>
<circle cx="12.0017" cy="142.05" r="1" fill="#FF6F3D"/>
<circle cx="16.0017" cy="142.05" r="1" fill="#FF6F3D"/>
</g>
<g clip-path="url(#clip4_14984_128662)">
<path fill-rule="evenodd" clip-rule="evenodd" d="M2.5 159.004C1.68677 159.004 1 159.708 1 160.552V170.552C1 171.365 1.6556 172.004 2.5 172.004H13.5C13.7761 172.004 14 172.228 14 172.504C14 172.78 13.7761 173.004 13.5 173.004H2.5C1.13526 173.004 0 171.948 0 170.552V160.552C0 159.187 1.10409 158.004 2.5 158.004H20.5C21.1176 158.004 21.754 158.143 22.241 158.563C22.7417 158.995 23 159.652 23 160.504C23 160.78 22.7761 161.004 22.5 161.004C22.2239 161.004 22 160.78 22 160.504C22 159.856 21.8106 159.513 21.5874 159.32C21.3506 159.115 20.987 159.004 20.5 159.004H2.5Z" fill="#333333"/>
<path fill-rule="evenodd" clip-rule="evenodd" d="M4 176.504C4 176.228 4.1599 176.004 4.35714 176.004H13.6429C13.8401 176.004 14 176.228 14 176.504C14 176.78 13.8401 177.004 13.6429 177.004H4.35714C4.1599 177.004 4 176.78 4 176.504Z" fill="#333333"/>
<path fill-rule="evenodd" clip-rule="evenodd" d="M8.5 176.956C8.22386 176.956 8 176.732 8 176.456L8 172.956L9 172.956L9 176.456C9 176.732 8.77614 176.956 8.5 176.956Z" fill="#333333"/>
<path fill-rule="evenodd" clip-rule="evenodd" d="M22 163.004H17C16.4477 163.004 16 163.452 16 164.004V175.004C16 175.556 16.4477 176.004 17 176.004H22C22.5523 176.004 23 175.556 23 175.004V164.004C23 163.452 22.5523 163.004 22 163.004ZM17 162.004C15.8954 162.004 15 162.899 15 164.004V175.004C15 176.109 15.8954 177.004 17 177.004H22C23.1046 177.004 24 176.109 24 175.004V164.004C24 162.899 23.1046 162.004 22 162.004H17Z" fill="#FF6F3D"/>
<path fill-rule="evenodd" clip-rule="evenodd" d="M18 174.504C18 174.228 18.2929 174.004 18.5 174.004H20.5C20.7071 174.004 21 174.228 21 174.504C21 174.78 20.7071 175.004 20.5 175.004H18.5C18.2929 175.004 18 174.78 18 174.504Z" fill="#FF6F3D"/>
</g>
<g clip-path="url(#clip5_14984_128662)">
<path fill-rule="evenodd" clip-rule="evenodd" d="M21.7112 187.823C21.9503 187.685 22.2561 187.767 22.3942 188.006C25.7079 193.745 23.7414 201.085 18.0019 204.398C12.2624 207.712 4.9233 205.745 1.6096 200.006C-1.70411 194.266 0.262394 186.927 6.00191 183.614C8.66329 182.077 11.6698 181.676 14.4581 182.26C15.8837 182.558 17.2528 183.115 18.4904 183.909C19.2358 184.387 19.9334 184.951 20.567 185.597C20.7603 185.794 20.7572 186.111 20.56 186.304C20.3628 186.498 20.0462 186.494 19.8529 186.297C19.2726 185.705 18.6335 185.188 17.9505 184.75C16.8162 184.023 15.5607 183.513 14.2531 183.239C11.6963 182.703 8.94204 183.071 6.50191 184.48C1.24069 187.517 -0.561942 194.245 2.47562 199.506C5.51319 204.767 12.2407 206.57 17.5019 203.532C22.7631 200.495 24.5657 193.767 21.5282 188.506C21.3901 188.267 21.472 187.961 21.7112 187.823Z" fill="#333333"/>
<path d="M16.4764 197.633C16.801 197.306 16.9632 196.929 16.9632 196.503C16.9632 196.077 16.808 195.707 16.4976 195.395C16.1872 195.068 15.8204 194.905 15.3971 194.905C14.9456 194.905 14.5646 195.061 14.2542 195.374C13.9579 195.686 13.8098 196.063 13.8098 196.503C13.8098 196.929 13.965 197.306 14.2754 197.633C14.5858 197.945 14.9597 198.102 15.3971 198.102C15.8062 198.102 16.166 197.945 16.4764 197.633ZM10.1907 191.388C10.1907 190.947 10.0355 190.571 9.72511 190.258C9.41471 189.945 9.05492 189.789 8.64575 189.789C8.19425 189.789 7.8133 189.945 7.50289 190.258C7.20659 190.571 7.05845 190.947 7.05845 191.388C7.05845 191.814 7.21365 192.191 7.52405 192.517C7.83446 192.83 8.20836 192.986 8.64575 192.986C9.05492 192.986 9.41471 192.83 9.72511 192.517C10.0355 192.191 10.1907 191.814 10.1907 191.388ZM18.0002 196.503C18.0002 197.185 17.7392 197.796 17.2172 198.336C16.6951 198.876 16.0884 199.146 15.3971 199.146C14.6916 199.146 14.0778 198.883 13.5558 198.358C13.0338 197.818 12.7727 197.199 12.7727 196.503C12.7727 195.779 13.0338 195.153 13.5558 194.628C14.0778 194.102 14.6916 193.839 15.3971 193.839C16.1025 193.839 16.7092 194.102 17.2172 194.628C17.7392 195.153 18.0002 195.779 18.0002 196.503ZM11.2489 191.388C11.2489 192.07 10.9879 192.681 10.4659 193.221C9.94381 193.761 9.3371 194.031 8.64575 194.031C7.94028 194.031 7.31947 193.768 6.78331 193.242C6.26127 192.702 6.00024 192.084 6.00024 191.388C6.00024 190.663 6.26127 190.038 6.78331 189.512C7.30536 188.986 7.92617 188.723 8.64575 188.723C9.35121 188.723 9.95792 188.986 10.4659 189.512C10.9879 190.038 11.2489 190.663 11.2489 191.388ZM15.9671 188.312C16.2045 188.495 16.2563 188.831 16.0844 189.077L8.79631 199.47C8.61338 199.731 8.24566 199.778 8.00316 199.571C7.79139 199.39 7.75121 199.079 7.9103 198.85L15.1684 188.436C15.3506 188.175 15.7142 188.118 15.9671 188.312Z" fill="#FF6F3D"/>
</g>
<g clip-path="url(#clip6_14984_128662)">
<path fill-rule="evenodd" clip-rule="evenodd" d="M7.74262 221.799C7.5123 221.659 7.42179 221.386 7.53846 221.181L8.59848 219.333C8.7198 219.121 9.0177 219.065 9.2572 219.209C9.48752 219.349 9.57802 219.622 9.46136 219.827L8.40133 221.675C8.28002 221.887 7.98212 221.943 7.74262 221.799Z" fill="#333333"/>
<path fill-rule="evenodd" clip-rule="evenodd" d="M16.3176 221.799C16.5479 221.659 16.6384 221.386 16.5217 221.181L15.4617 219.333C15.3404 219.121 15.0425 219.065 14.803 219.209C14.5727 219.349 14.4822 219.622 14.5988 219.827L15.6588 221.675C15.7802 221.887 16.0781 221.943 16.3176 221.799Z" fill="#333333"/>
<path fill-rule="evenodd" clip-rule="evenodd" d="M12 218.004C13.6569 218.004 15 216.661 15 215.004C15 213.347 13.6569 212.004 12 212.004C10.3431 212.004 9 213.347 9 215.004C9 216.661 10.3431 218.004 12 218.004ZM12 219.004C14.2091 219.004 16 217.213 16 215.004C16 212.795 14.2091 211.004 12 211.004C9.79086 211.004 8 212.795 8 215.004C8 217.213 9.79086 219.004 12 219.004Z" fill="#333333"/>
<path fill-rule="evenodd" clip-rule="evenodd" d="M8 226.008C8 227.665 6.65685 229.008 5 229.008C3.34315 229.008 2 227.665 2 226.008C2 224.351 3.34315 223.008 5 223.008C6.65685 223.008 8 224.351 8 226.008ZM9 226.008C9 228.217 7.20914 230.008 5 230.008C2.79086 230.008 1 228.217 1 226.008C1 223.799 2.79086 222.008 5 222.008C7.20914 222.008 9 223.799 9 226.008ZM22 226.008C22 227.665 20.6569 229.008 19 229.008C17.3431 229.008 16 227.665 16 226.008C16 224.351 17.3431 223.008 19 223.008C20.6569 223.008 22 224.351 22 226.008ZM23 226.008C23 228.217 21.2091 230.008 19 230.008C16.7909 230.008 15 228.217 15 226.008C15 223.799 16.7909 222.008 19 222.008C21.2091 222.008 23 223.799 23 226.008Z" fill="#333333"/>
</g>
<g clip-path="url(#clip7_14984_128662)">
<path fill-rule="evenodd" clip-rule="evenodd" d="M11.9197 243.847C13.5323 243.847 14.8395 242.54 14.8395 240.928C14.8395 239.315 13.5323 238.008 11.9197 238.008C10.3072 238.008 9 239.315 9 240.928C9 242.54 10.3072 243.847 11.9197 243.847ZM11.9197 244.847C14.0846 244.847 15.8395 243.092 15.8395 240.928C15.8395 238.763 14.0846 237.008 11.9197 237.008C9.75493 237.008 8 238.763 8 240.928C8 243.092 9.75493 244.847 11.9197 244.847Z" fill="#333333"/>
<path fill-rule="evenodd" clip-rule="evenodd" d="M19.4346 252.41C19.9152 252.072 20 251.816 20 251.656C20 250.897 19.3546 249.748 17.8672 248.724C16.4334 247.736 14.3979 247.008 12.0678 247.008C9.75295 247.008 7.68625 247.784 6.212 248.83C4.67848 249.918 4 251.126 4 251.885C4 252.026 4.07118 252.265 4.55903 252.585C5.04577 252.904 5.78246 253.183 6.69095 253.407C8.49357 253.852 10.6744 254.008 12.0678 254.008C13.4398 254.008 15.5789 253.799 17.3452 253.301C18.2338 253.051 18.9561 252.747 19.4346 252.41ZM12.0678 255.008C14.9542 255.008 21 254.141 21 251.656C21 249.171 17.1356 246.008 12.0678 246.008C7 246.008 3 249.4 3 251.885C3 254.37 9.18138 255.008 12.0678 255.008Z" fill="#FF6F3D"/>
</g>
<g clip-path="url(#clip8_14984_128662)">
<path fill-rule="evenodd" clip-rule="evenodd" d="M13.6603 271.348L10.1563 274.852C9.96864 275.039 9.65823 275.033 9.46297 274.838C9.2677 274.643 9.26152 274.332 9.44916 274.145L12.9532 270.641C13.1409 270.453 13.4513 270.459 13.6465 270.654C13.8418 270.85 13.848 271.16 13.6603 271.348Z" fill="#FF6F3D"/>
<path fill-rule="evenodd" clip-rule="evenodd" d="M19.7071 264.301C19.9799 264.574 20.0714 264.979 19.9424 265.342L14.2628 281.342C14.1276 281.724 13.7762 281.986 13.3724 282.007C12.9686 282.028 12.5919 281.803 12.4178 281.438L9.27292 274.844L2.56337 271.587C2.20074 271.411 1.97923 271.035 2.00154 270.632C2.02385 270.23 2.28562 269.88 2.66549 269.745L18.6655 264.066C19.029 263.937 19.4343 264.028 19.7071 264.301ZM10.0247 274.097L13.3205 281.008L19 265.008L3.00001 270.688L10.0247 274.097Z" fill="#333333"/>
</g>
<g clip-path="url(#clip9_14984_128662)">
<path fill-rule="evenodd" clip-rule="evenodd" d="M4.38661 297.411C4.49519 297.665 4.37739 297.958 4.12349 298.067L2.7104 298.671C2.6564 298.693 2.61358 298.713 2.58017 298.732C2.61619 298.755 2.66334 298.78 2.72407 298.807L10.959 302.323C11.209 302.438 11.5816 302.508 11.9886 302.508C12.3943 302.508 12.7786 302.438 13.0486 302.32L13.0527 302.318L21.2896 298.801C21.3436 298.78 21.3864 298.759 21.4198 298.74C21.3838 298.718 21.3366 298.692 21.2759 298.665C21.2753 298.665 21.2746 298.665 21.274 298.665L19.8765 298.067C19.6226 297.958 19.5048 297.665 19.6134 297.411C19.722 297.157 20.0158 297.039 20.2697 297.148L21.6749 297.749C22.0565 297.916 22.5 298.232 22.5 298.747C22.5 299.268 22.0486 299.574 21.6655 299.728L13.4495 303.236C13.4488 303.236 13.448 303.237 13.4473 303.237C13.017 303.425 12.4883 303.508 11.9886 303.508C11.4917 303.508 10.9683 303.426 10.5491 303.236L2.32506 299.724C1.94346 299.557 1.5 299.24 1.5 298.726C1.5 298.205 1.95124 297.898 2.33439 297.745L3.73028 297.148C3.98418 297.039 4.27803 297.157 4.38661 297.411Z" fill="#333333"/>
<path fill-rule="evenodd" clip-rule="evenodd" d="M4.38661 302.111C4.49519 302.365 4.37739 302.659 4.12349 302.767L2.7104 303.372C2.6564 303.393 2.61358 303.414 2.58017 303.433C2.61619 303.455 2.66334 303.481 2.72407 303.507L10.959 307.024C11.209 307.138 11.5816 307.208 11.9886 307.208C12.3943 307.208 12.7786 307.138 13.0486 307.02L13.0527 307.019L21.2896 303.501C21.3436 303.48 21.3864 303.459 21.4198 303.441C21.3838 303.418 21.3366 303.392 21.2759 303.366C21.2753 303.366 21.2746 303.365 21.274 303.365L19.8765 302.767C19.6226 302.659 19.5048 302.365 19.6134 302.111C19.722 301.857 20.0158 301.739 20.2697 301.848L21.6749 302.449C22.0565 302.616 22.5 302.933 22.5 303.447C22.5 303.968 22.0486 304.275 21.6655 304.428L13.4495 307.936C13.4488 307.937 13.448 307.937 13.4473 307.937C13.017 308.125 12.4883 308.208 11.9886 308.208C11.4917 308.208 10.9683 308.126 10.5491 307.936L2.32506 304.424C1.94346 304.257 1.5 303.941 1.5 303.426C1.5 302.905 1.95124 302.599 2.33439 302.445L3.73028 301.848C3.98418 301.739 4.27803 301.857 4.38661 302.111Z" fill="#333333"/>
<path fill-rule="evenodd" clip-rule="evenodd" d="M10.3399 298.699L2.10601 294.986C1.66868 294.784 1 294.327 1 293.508C1 292.679 1.67893 292.234 2.12474 292.043L10.3361 288.341C10.8517 288.104 11.459 288.008 12.0114 288.008C12.5583 288.008 13.1625 288.102 13.6708 288.344L21.894 292.052C22.3313 292.254 23 292.711 23 293.53C23 294.359 22.3211 294.804 21.8753 294.995L13.6483 298.704L13.6364 298.709C13.1295 298.922 12.5323 299.008 11.9886 299.008C11.4473 299.008 10.8498 298.923 10.3488 298.703L10.3399 298.699ZM13.249 289.251C12.5788 288.927 11.4516 288.927 10.751 289.251L2.52551 292.96C1.82483 293.254 1.82483 293.754 2.52551 294.078L10.751 297.787C11.4212 298.082 12.5484 298.082 13.249 297.787L21.4745 294.078C22.1752 293.784 22.1752 293.283 21.4745 292.96L13.249 289.251Z" fill="#333333"/>
</g>
<g clip-path="url(#clip10_14984_128662)">
<rect x="2" y="324.008" width="16" height="1" rx="0.5" fill="#333333"/>
<rect x="2" y="318.008" width="16" height="1" rx="0.5" fill="#333333"/>
<rect x="2" y="327.008" width="11" height="1" rx="0.5" fill="#FF6F3D"/>
<rect x="2" y="321.008" width="11" height="1" rx="0.5" fill="#FF6F3D"/>
<rect x="2" y="330" width="16" height="1" rx="0.5" fill="#333333"/>
</g>
<g clip-path="url(#clip11_14984_128662)">
<rect x="9.0166" y="357.008" width="5" height="1" fill="#333333"/>
<path fill-rule="evenodd" clip-rule="evenodd" d="M5 347.746C5 343.765 7.91822 341.008 11.5 341.008C15.0818 341.008 18 343.765 18 347.746C18 350.836 15.9803 352.477 15.1199 353.036C14.777 353.259 14.4694 353.589 14.2897 354.008H15.4925C15.5459 353.959 15.6037 353.914 15.6649 353.874C16.6408 353.24 19 351.335 19 347.746C19 343.221 15.6421 340.008 11.5 340.008C7.35786 340.008 4 343.221 4 347.746C4 350.158 5.21208 352.68 7.31476 353.893C7.3738 353.927 7.42988 353.965 7.48213 354.008H8.71035C8.51748 353.569 8.18034 353.238 7.81442 353.027C6.07594 352.024 5 349.869 5 347.746ZM8.96538 355.008H7.94311C8.19922 356.212 8.59689 358.134 8.81904 359.21C8.91496 359.675 9.32408 360.008 9.79875 360.008H13.1756C13.6469 360.008 14.0542 359.679 14.1533 359.218L15.0588 355.008H14.0359L13.1756 359.008H9.79875L9.79841 359.008C9.58893 357.993 9.22208 356.22 8.96538 355.008Z" fill="#333333"/>
<path d="M8 355.008H14.5L14 356.008H8.5L8 355.008Z" fill="#333333"/>
<rect width="3" height="1" rx="0.5" transform="matrix(-1 -8.74228e-08 -8.74228e-08 1 3 348.008)" fill="#FF6F3D"/>
<rect width="3" height="1" rx="0.5" transform="matrix(-1 -8.74228e-08 -8.74228e-08 1 23 348.008)" fill="#FF6F3D"/>
<rect x="18.9976" y="353.333" width="3" height="1" rx="0.5" transform="rotate(40.3988 18.9976 353.333)" fill="#FF6F3D"/>
<rect width="3" height="1" rx="0.5" transform="matrix(-0.766107 0.642713 0.642713 0.766107 4.39282 353.213)" fill="#FF6F3D"/>
<rect width="3" height="1" rx="0.5" transform="matrix(0.76625 -0.642543 -0.642543 -0.76625 19.6426 342.661)" fill="#FF6F3D"/>
<rect x="3.26392" y="342.731" width="3" height="1" rx="0.5" transform="rotate(-138.991 3.26392 342.731)" fill="#FF6F3D"/>
</g>
<path fill-rule="evenodd" clip-rule="evenodd" d="M12.0611 383.748C12.1043 383.827 12.1694 383.895 12.2538 383.943C12.4942 384.079 12.7992 383.994 12.9352 383.754C13.3688 382.988 14.11 382.269 15.0345 381.521C15.4932 381.149 15.9855 380.779 16.4955 380.396L16.4959 380.396C17.0032 380.014 17.5271 379.621 18.0369 379.21C20.0609 377.578 21.9999 375.573 22 372.599V372.599H21.5C22 372.599 22 372.599 22 372.598V372.598L22 372.596L22 372.592L21.9998 372.578C21.9996 372.567 21.9992 372.553 21.9986 372.535C21.9972 372.498 21.9946 372.447 21.9897 372.384C21.9797 372.257 21.9602 372.08 21.9215 371.869C21.8445 371.45 21.6898 370.884 21.3756 370.312C21.0599 369.738 20.5812 369.156 19.8607 368.72C19.1392 368.282 18.2032 368.008 16.9999 368.008C15.5405 368.008 14.3024 368.777 13.4622 369.49C13.0581 369.833 12.7317 370.175 12.5 370.44C12.2683 370.175 11.9419 369.833 11.5378 369.49C10.6976 368.777 9.45953 368.008 8.00007 368.008C6.79676 368.008 5.86077 368.282 5.13932 368.72C4.41882 369.156 3.94014 369.738 3.6244 370.312C3.31022 370.884 3.15546 371.45 3.07851 371.869C3.03984 372.08 3.02026 372.257 3.01033 372.384C3.00535 372.447 3.00277 372.498 3.00143 372.535C3.00077 372.553 3.00041 372.567 3.00022 372.578L3.00004 372.592L3.00001 372.596L3 372.598V372.598C3 372.599 3 372.599 3.5 372.599H3V372.599C3.00011 375.573 4.93914 377.578 6.9631 379.21C7.47287 379.621 7.99679 380.014 8.50407 380.396L8.5045 380.396C9.01448 380.779 9.50675 381.149 9.96554 381.521C10.8874 382.267 11.627 382.984 12.0611 383.748ZM12.5 382.608C13.0145 381.936 13.6873 381.325 14.4052 380.744C14.8784 380.36 15.3831 379.981 15.8879 379.602L15.8947 379.597C16.4043 379.214 16.9148 378.83 17.4093 378.431C19.4028 376.824 20.9994 375.08 21 372.6L21 372.599C21 372.599 21 372.599 21.5 372.599L21 372.599L20.9999 372.596L20.9992 372.571C20.9984 372.548 20.9966 372.511 20.9927 372.462C20.9851 372.365 20.9695 372.222 20.9379 372.05C20.8742 371.702 20.7477 371.246 20.4994 370.794C20.2526 370.346 19.8875 369.905 19.3424 369.575C18.7982 369.245 18.0467 369.008 16.9999 369.008C15.8881 369.008 14.8762 369.602 14.1092 370.253C13.7316 370.573 13.4283 370.895 13.2197 371.136C13.1157 371.256 13.036 371.356 12.9831 371.424C12.9567 371.458 12.937 371.485 12.9244 371.502L12.9108 371.52L12.9081 371.524L12.9081 371.524L12.908 371.524C12.7485 371.749 12.4366 371.803 12.2112 371.643C12.1608 371.608 12.119 371.565 12.0862 371.516L12.0755 371.502C12.0629 371.485 12.0432 371.458 12.0168 371.424C11.9639 371.356 11.8842 371.256 11.7802 371.136C11.5716 370.895 11.2684 370.573 10.8908 370.253C10.1238 369.602 9.11195 369.008 8.00007 369.008C6.95334 369.008 6.20181 369.245 5.65761 369.575C5.11247 369.905 4.74739 370.346 4.50061 370.794C4.25229 371.246 4.12579 371.702 4.06212 372.05C4.03047 372.222 4.01489 372.365 4.00725 372.462C4.00344 372.511 4.00162 372.548 4.00076 372.571L4.00006 372.596L4 372.599L4 372.599L3.5 372.599C4 372.599 4 372.599 4 372.599L4 372.6C4.00064 375.08 5.59716 376.824 7.59067 378.431C8.08521 378.83 8.59573 379.214 9.10532 379.597L9.1121 379.602C9.61687 379.981 10.1216 380.36 10.5948 380.744C11.3127 381.325 11.9855 381.936 12.5 382.608Z" fill="#333333"/>
<path fill-rule="evenodd" clip-rule="evenodd" d="M13.9021 393.465L12.6841 392.289C12.3011 391.919 11.6989 391.919 11.3159 392.289L10.0979 393.465C9.4974 394.045 8.68498 394.344 7.8569 394.291L6.17733 394.183C5.64922 394.149 5.18786 394.541 5.12922 395.074L4.94272 396.767C4.85077 397.602 4.41849 398.36 3.75031 398.859L2.39504 399.869C1.96891 400.187 1.86433 400.787 2.15746 401.233L3.08972 402.652C3.54935 403.352 3.69948 404.214 3.50384 405.03L3.10703 406.686C2.98226 407.207 3.28339 407.735 3.79113 407.886L5.40593 408.366C6.20208 408.603 6.86437 409.166 7.23281 409.919L7.98013 411.446C8.2151 411.926 8.78105 412.134 9.26583 411.919L10.8076 411.236C11.5677 410.899 12.4323 410.899 13.1924 411.236L14.7342 411.919C15.2189 412.134 15.7849 411.926 16.0199 411.446L16.7672 409.919C17.1356 409.166 17.7979 408.603 18.5941 408.366L20.2089 407.886C20.7166 407.735 21.0177 407.207 20.893 406.686L20.4962 405.03C20.3005 404.214 20.4507 403.352 20.9103 402.652L21.8425 401.233C22.1357 400.787 22.0311 400.187 21.605 399.869L20.2497 398.859C19.5815 398.36 19.1492 397.602 19.0573 396.767L18.8708 395.074C18.8121 394.541 18.3508 394.149 17.8227 394.183L16.1431 394.291C15.315 394.344 14.5026 394.045 13.9021 393.465ZM13.3682 391.563C12.6023 390.823 11.3977 390.823 10.6318 391.563L9.4138 392.739C9.01346 393.125 8.47185 393.325 7.9198 393.289L6.24022 393.181C5.18402 393.113 4.26129 393.897 4.144 394.962L3.95751 396.656C3.89621 397.213 3.60802 397.718 3.16257 398.05L1.8073 399.061C0.955038 399.696 0.745872 400.897 1.33213 401.789L2.26439 403.208C2.57081 403.675 2.67089 404.249 2.54047 404.794L2.14366 406.45C1.89412 407.491 2.49639 408.548 3.51186 408.85L5.12667 409.33C5.65743 409.487 6.09896 409.863 6.34459 410.364L7.0919 411.891C7.56186 412.852 8.69375 413.269 9.6633 412.839L11.2051 412.156C11.7118 411.931 12.2882 411.931 12.7949 412.156L14.3367 412.839C15.3062 413.269 16.4381 412.852 16.9081 411.891L17.6554 410.364C17.901 409.863 18.3426 409.487 18.8733 409.33L20.4881 408.85C21.5036 408.548 22.1059 407.491 21.8563 406.45L21.4595 404.794C21.3291 404.249 21.4292 403.675 21.7356 403.208L22.6679 401.789C23.2541 400.897 23.045 399.696 22.1927 399.061L20.8374 398.05C20.392 397.718 20.1038 397.213 20.0425 396.656L19.856 394.962C19.7387 393.897 18.816 393.113 17.7598 393.181L16.0802 393.289C15.5282 393.325 14.9865 393.125 14.5862 392.739L13.3682 391.563Z" fill="#333333"/>
<path fill-rule="evenodd" clip-rule="evenodd" d="M14.0024 399.743L12 396.008L9.99757 399.743L6 400.592L8.76 403.748L8.2918 408.008L12 406.223L15.7082 408.008L15.24 403.748L18 400.592L14.0024 399.743ZM15.9634 401.287L13.3227 400.727L12 398.26L10.6773 400.727L8.03659 401.287L9.85976 403.373L9.55048 406.186L12 405.008L14.4495 406.186L14.1402 403.373L15.9634 401.287Z" fill="#FF6F3D"/>
<g clip-path="url(#clip12_14984_128662)">
<path fill-rule="evenodd" clip-rule="evenodd" d="M20.8032 422.583C21.0323 422.451 21.3253 422.53 21.4576 422.759C24.6327 428.258 22.7485 435.29 17.249 438.466C11.7496 441.641 4.71748 439.756 1.54237 434.257C-1.63274 428.757 0.251516 421.725 5.75096 418.55C8.30103 417.078 11.1818 416.694 13.8534 417.253C15.2194 417.539 16.5312 418.072 17.7171 418.833C18.4313 419.291 19.0998 419.832 19.7068 420.451C19.8921 420.64 19.8891 420.943 19.7001 421.128C19.5112 421.314 19.2079 421.311 19.0226 421.122C18.4666 420.555 17.8542 420.059 17.1998 419.639C16.1129 418.942 14.91 418.453 13.657 418.191C11.2072 417.678 8.56812 418.03 6.23005 419.38C1.18889 422.291 -0.53834 428.737 2.37217 433.778C5.28269 438.819 11.7288 440.546 16.77 437.636C21.8111 434.725 23.5383 428.279 20.6278 423.238C20.4955 423.009 20.574 422.716 20.8032 422.583Z" fill="#333333"/>
<rect x="16" y="431.008" width="1" height="3" rx="0.5" fill="#FF6F3D"/>
<rect x="16" y="431.008" width="1" height="3" rx="0.5" fill="#FF6F3D"/>
<rect x="16" y="431.008" width="1" height="3" rx="0.5" fill="#FF6F3D"/>
<rect x="16" y="431.008" width="1" height="3" rx="0.5" fill="#FF6F3D"/>
<rect x="16" y="431.008" width="1" height="3" rx="0.5" fill="#FF6F3D"/>
<path fill-rule="evenodd" clip-rule="evenodd" d="M6 433.508C6 433.232 6.22386 433.008 6.5 433.008H16.5C16.7761 433.008 17 433.232 17 433.508C17 433.784 16.7761 434.008 16.5 434.008H6.5C6.22386 434.008 6 433.784 6 433.508Z" fill="#FF6F3D"/>
<rect x="6" y="431.008" width="1" height="3" rx="0.5" fill="#FF6F3D"/>
<rect x="6" y="431.008" width="1" height="3" rx="0.5" fill="#FF6F3D"/>
<rect x="6" y="431.008" width="1" height="3" rx="0.5" fill="#FF6F3D"/>
<rect x="6" y="431.008" width="1" height="3" rx="0.5" fill="#FF6F3D"/>
<rect x="6" y="431.008" width="1" height="3" rx="0.5" fill="#FF6F3D"/>
<path fill-rule="evenodd" clip-rule="evenodd" d="M14.8515 427.982L11.8268 430.875C11.6412 431.052 11.3403 431.052 11.1546 430.875L8.12993 427.982C7.94432 427.805 7.94432 427.517 8.12993 427.339C8.31554 427.162 8.61648 427.162 8.80209 427.339L11.0154 429.456V422.462C11.0154 422.211 11.2282 422.008 11.4907 422.008C11.7532 422.008 12.0078 422.211 12.0078 422.462V429.456L14.1794 427.339C14.365 427.162 14.6659 427.162 14.8515 427.339C15.0371 427.517 15.0371 427.805 14.8515 427.982Z" fill="#FF6F3D"/>
</g>
<path fill-rule="evenodd" clip-rule="evenodd" d="M6 463.008H19V449.898L14.0872 445.008H6L6 463.008ZM19 464.008C19.5523 464.008 20 463.56 20 463.008V449.898C20 449.632 19.894 449.376 19.7054 449.189L14.7926 444.299C14.6052 444.113 14.3516 444.008 14.0872 444.008H6C5.44772 444.008 5 444.456 5 445.008V463.008C5 463.56 5.44772 464.008 6 464.008H19Z" fill="#333333"/>
<path fill-rule="evenodd" clip-rule="evenodd" d="M9 453.508C9 453.232 9.22386 453.008 9.5 453.008H15.5C15.7761 453.008 16 453.232 16 453.508C16 453.784 15.7761 454.008 15.5 454.008H9.5C9.22386 454.008 9 453.784 9 453.508Z" fill="#FF6F3D"/>
<path fill-rule="evenodd" clip-rule="evenodd" d="M9 456.508C9 456.232 9.22386 456.008 9.5 456.008H15.5C15.7761 456.008 16 456.232 16 456.508C16 456.784 15.7761 457.008 15.5 457.008H9.5C9.22386 457.008 9 456.784 9 456.508Z" fill="#FF6F3D"/>
<path fill-rule="evenodd" clip-rule="evenodd" d="M9 459.508C9 459.232 9.22386 459.008 9.5 459.008H15.5C15.7761 459.008 16 459.232 16 459.508C16 459.784 15.7761 460.008 15.5 460.008H9.5C9.22386 460.008 9 459.784 9 459.508Z" fill="#FF6F3D"/>
<path fill-rule="evenodd" clip-rule="evenodd" d="M13.5 446.008C13.7761 446.008 14 446.232 14 446.508V450.008H17.5C17.7761 450.008 18 450.232 18 450.508C18 450.784 17.7761 451.008 17.5 451.008H13.5C13.2239 451.008 13 450.784 13 450.508V446.508C13 446.232 13.2239 446.008 13.5 446.008Z" fill="#333333"/>
<g clip-path="url(#clip13_14984_128662)">
<path d="M15 490.008C15.2761 490.008 15.5 490.232 15.5 490.508C15.5 490.784 15.2761 491.008 15 491.008L9 491.008C8.72386 491.008 8.5 490.784 8.5 490.508C8.5 490.232 8.72386 490.008 9 490.008L15 490.008Z" fill="#333333"/>
<path fill-rule="evenodd" clip-rule="evenodd" d="M15.5 490.508C15.5 490.232 15.2761 490.008 15 490.008L9 490.008C8.72386 490.008 8.5 490.232 8.5 490.508C8.5 490.784 8.72386 491.008 9 491.008L15 491.008C15.2761 491.008 15.5 490.784 15.5 490.508Z" fill="#333333"/>
<path d="M13.6 477C13.8209 477 14 477.224 14 477.5C14 477.776 13.8209 478 13.6 478L10.4 478C10.1791 478 10 477.776 10 477.5C10 477.224 10.1791 477 10.4 477L13.6 477Z" fill="#FF6F3D"/>
<path d="M13.6 474C13.8209 474 14 474.224 14 474.5C14 474.776 13.8209 475 13.6 475L10.4 475C10.1791 475 10 474.776 10 474.5C10 474.224 10.1791 474 10.4 474L13.6 474Z" fill="#FF6F3D"/>
<path fill-rule="evenodd" clip-rule="evenodd" d="M7.90909 473V479C7.90909 481.122 9.65718 483 12 483C14.3428 483 16.0909 481.122 16.0909 479V473C16.0909 470.878 14.3428 469 12 469C9.65718 469 7.90909 470.878 7.90909 473ZM7 473V479C7 481.761 9.23858 484 12 484C14.7614 484 17 481.761 17 479V473C17 470.239 14.7614 468 12 468C9.23858 468 7 470.239 7 473Z" fill="#333333"/>
<path fill-rule="evenodd" clip-rule="evenodd" d="M3.5 478.508C3.77614 478.508 4 478.732 4 479.008C4 483.426 7.58172 487.008 12 487.008C16.4183 487.008 20 483.426 20 479.008C20 478.732 20.2239 478.508 20.5 478.508C20.7761 478.508 21 478.732 21 479.008C21 483.978 16.9706 488.008 12 488.008C7.02944 488.008 3 483.978 3 479.008C3 478.732 3.22386 478.508 3.5 478.508Z" fill="#333333"/>
</g>
<path fill-rule="evenodd" clip-rule="evenodd" d="M5 495.008H19C20.1046 495.008 21 495.903 21 497.008V507.008C21 508.113 20.1046 509.008 19 509.008H5C3.89543 509.008 3 508.113 3 507.008V497.008C3 495.903 3.89543 495.008 5 495.008ZM5 496.008C4.44772 496.008 4 496.456 4 497.008V507.008C4 507.56 4.44772 508.008 5 508.008H19C19.5523 508.008 20 507.56 20 507.008V497.008C20 496.456 19.5523 496.008 19 496.008H5Z" fill="#333333"/>
<path fill-rule="evenodd" clip-rule="evenodd" d="M9.75688 510.057C10.0058 510.177 10.1107 510.476 9.99109 510.725L7.16719 516.774C7.04763 517.023 6.74892 517.127 6.5 517.008C6.25108 516.888 6.14622 516.59 6.26579 516.341L9.08969 510.292C9.20925 510.043 9.50797 509.938 9.75688 510.057Z" fill="#333333"/>
<path fill-rule="evenodd" clip-rule="evenodd" d="M14.2836 510.057C14.0347 510.177 13.9298 510.476 14.0494 510.725L16.8328 516.774C16.9524 517.023 17.2511 517.128 17.5 517.008C17.7489 516.888 17.8537 516.59 17.7342 516.341L14.9508 510.292C14.8312 510.043 14.5325 509.938 14.2836 510.057Z" fill="#333333"/>
<path fill-rule="evenodd" clip-rule="evenodd" d="M6.5 500.508C6.5 500.232 6.72386 500.008 7 500.008H17C17.2761 500.008 17.5 500.232 17.5 500.508C17.5 500.784 17.2761 501.008 17 501.008H7C6.72386 501.008 6.5 500.784 6.5 500.508Z" fill="#FF6F3D"/>
<path fill-rule="evenodd" clip-rule="evenodd" d="M6.5 503.508C6.5 503.232 6.72386 503.008 7 503.008H14C14.2761 503.008 14.5 503.232 14.5 503.508C14.5 503.784 14.2761 504.008 14 504.008H7C6.72386 504.008 6.5 503.784 6.5 503.508Z" fill="#FF6F3D"/>
<path fill-rule="evenodd" clip-rule="evenodd" d="M6.0357 526.008H17.9643C19.015 526.008 19.8903 526.805 19.978 527.841L20.9928 539.841C21.0914 541.007 20.1616 542.008 18.9792 542.008H5.02084C3.83835 542.008 2.90855 541.007 3.00718 539.841L4.02204 527.841C4.10968 526.805 4.98504 526.008 6.0357 526.008ZM6.0357 527.008C5.51037 527.008 5.07269 527.406 5.02887 527.925L4.01401 539.925C3.96469 540.508 4.42959 541.008 5.02084 541.008H18.9792C19.5704 541.008 20.0353 540.508 19.986 539.925L18.9711 527.925C18.9273 527.406 18.4896 527.008 17.9643 527.008H6.0357Z" fill="#333333"/>
<path fill-rule="evenodd" clip-rule="evenodd" d="M9 529.008H8C8 531.398 9.45319 533.008 12 533.008C14.5609 533.008 16 531.176 16 529.008H15C15 530.84 13.8141 532.008 12 532.008C10.0063 532.008 9 530.85 9 529.008Z" fill="#FF6F3D"/>
<path fill-rule="evenodd" clip-rule="evenodd" d="M9 525.008H8C8 522.83 9.80585 521.008 12 521.008C14.3275 521.008 16 522.697 16 525.008H15C15 523.236 13.7887 522.008 12 522.008C10.3466 522.008 9 523.373 9 525.008Z" fill="#FF6F3D"/>
<path fill-rule="evenodd" clip-rule="evenodd" d="M15 555.008C15 556.665 13.6569 558.008 12 558.008C10.3431 558.008 9 556.665 9 555.008C9 553.351 10.3431 552.008 12 552.008C13.6569 552.008 15 553.351 15 555.008ZM12 557.008C13.1046 557.008 14 556.113 14 555.008C14 553.903 13.1046 553.008 12 553.008C10.8954 553.008 10 553.903 10 555.008C10 556.113 10.8954 557.008 12 557.008Z" fill="#FF6F3D"/>
<path fill-rule="evenodd" clip-rule="evenodd" d="M15.2145 564.246C17.1667 561.768 19 558.515 19 555.113C19 551.177 15.8537 548.008 12 548.008C8.14629 548.008 5 551.177 5 555.113C5 558.515 6.83326 561.768 8.78555 564.246C9.74995 565.47 10.7164 566.472 11.4417 567.166C11.6502 567.366 11.8383 567.54 12 567.686C12.1617 567.54 12.3498 567.366 12.5583 567.166C13.2836 566.472 14.2501 565.47 15.2145 564.246ZM12 569.008C12 569.008 20 562.591 20 555.113C20 550.637 16.4183 547.008 12 547.008C7.58172 547.008 4 550.637 4 555.113C4 562.591 12 569.008 12 569.008Z" fill="#333333"/>
<path d="M9.50786 588.508H2.5C1.39543 588.508 0.5 587.613 0.5 586.508V575.556C0.5 574.451 1.39543 573.508 2.5 573.508H20.5C21.6046 573.508 22.5 574.391 22.5 575.508V580.384" stroke="#333333" stroke-linecap="round"/>
<path fill-rule="evenodd" clip-rule="evenodd" d="M4 592.508C4 592.232 4.1599 592.008 4.35714 592.008H11.6016C11.7988 592.008 12 592.232 12 592.508C12 592.784 11.7988 593.008 11.6016 593.008H4.35714C4.1599 593.008 4 592.784 4 592.508Z" fill="#333333"/>
<path fill-rule="evenodd" clip-rule="evenodd" d="M8.5 592.96C8.22386 592.96 8 592.736 8 592.46L8 588.549L9 588.549L9 592.46C9 592.736 8.77614 592.96 8.5 592.96Z" fill="#333333"/>
<circle cx="18" cy="582.542" r="2.3" stroke="#FF6F3D"/>
<path d="M23.5 589.657C23.5 589.797 23.4141 589.988 23.0656 590.217C22.7234 590.442 22.2193 590.638 21.6171 590.796C20.4189 591.111 18.9742 591.242 18.0452 591.242C17.1062 591.242 15.6352 591.145 14.4132 590.863C13.7982 590.722 13.2837 590.542 12.9348 590.329C12.5793 590.111 12.5 589.929 12.5 589.799C12.5 589.553 12.609 589.233 12.8735 588.87C13.1347 588.512 13.5267 588.142 14.0316 587.808C15.0415 587.139 16.4574 586.642 18.0452 586.642C19.6402 586.642 21.0348 587.108 22.0192 587.74C23.0369 588.394 23.5 589.142 23.5 589.657Z" stroke="#FF6F3D"/>
<path d="M3.5 603.008C3.5 602.18 4.17157 601.508 5 601.508H19C19.8284 601.508 20.5 602.18 20.5 603.008V613.508H3.5V603.008Z" stroke="#333333"/>
<rect x="1.5" y="615.508" width="21" height="2" rx="1" stroke="#333333"/>
<path d="M14 607.508L10 610.008L10 605.008L14 607.508Z" fill="#FF6F3D"/>
<path fill-rule="evenodd" clip-rule="evenodd" d="M20.8032 630.583C21.0323 630.451 21.3253 630.53 21.4576 630.759C24.6327 636.258 22.7485 643.29 17.249 646.466C11.7496 649.641 4.71748 647.756 1.54237 642.257C-1.63273 636.757 0.251516 629.725 5.75096 626.55C8.30103 625.078 11.1818 624.694 13.8534 625.253C15.2194 625.539 16.5312 626.072 17.7171 626.833C18.4313 627.291 19.0998 627.832 19.7068 628.451C19.8921 628.64 19.8891 628.943 19.7001 629.128C19.5112 629.314 19.2079 629.311 19.0226 629.122C18.4666 628.555 17.8542 628.059 17.1998 627.639C16.1129 626.942 14.91 626.453 13.657 626.191C11.2072 625.678 8.56812 626.03 6.23005 627.38C1.18889 630.291 -0.538342 636.737 2.37217 641.778C5.28269 646.819 11.7288 648.546 16.77 645.636C21.8111 642.725 23.5383 636.279 20.6278 631.238C20.4955 631.009 20.574 630.716 20.8032 630.583Z" fill="#333333"/>
<path d="M11.4085 629.008C13.65 629.02 15.6478 630.754 15.9585 632.965C16.2143 634.783 15.2702 636.638 13.6195 637.532C13.2541 637.731 12.9617 637.967 12.8825 638.39C12.8521 638.553 12.8582 638.722 12.8216 638.879C12.6815 639.562 12.0237 640.063 11.3476 640.003C10.5801 639.937 9.9954 639.381 9.98931 638.65C9.97713 637.091 10.6776 635.919 12.0359 635.146C12.511 634.874 12.8947 634.554 13.047 634.016C13.2845 633.17 12.7851 632.264 11.9141 631.968C11.1222 631.69 10.2147 632.101 9.8614 632.892C9.75785 633.122 9.64212 633.364 9.47766 633.551C9.02084 634.058 8.3021 634.143 7.71128 633.805C7.13263 633.46 6.85245 632.784 7.07781 632.149C7.693 630.44 8.89902 629.401 10.708 629.08C10.9395 629.038 11.1771 629.032 11.4085 629.008ZM15.0509 633.545C15.0509 633.412 15.0631 633.273 15.0509 633.14C14.7707 630.947 12.5353 629.461 10.4096 630.077C9.21575 630.422 8.40565 631.201 7.97319 632.361C7.85746 632.669 7.98537 632.953 8.25338 633.05C8.53356 633.152 8.80766 633.019 8.93557 632.723C8.95384 632.675 8.97211 632.627 8.99039 632.578C9.51421 631.31 10.9578 630.651 12.2369 631.104C13.5891 631.582 14.3322 633.007 13.9058 634.336C13.6683 635.079 13.1505 635.575 12.4683 635.949C11.4451 636.517 10.9273 637.405 10.8969 638.571C10.8908 638.843 11.0918 639.055 11.3476 639.079C11.6461 639.103 11.8653 638.94 11.9141 638.65C11.9384 638.493 11.9384 638.336 11.9689 638.179C12.1151 637.508 12.5414 637.067 13.1383 636.735C14.4053 636.046 15.0205 634.959 15.0509 633.545Z" fill="#FF6F3D"/>
<circle cx="11.5" cy="642.508" r="1" stroke="#FF6F3D"/>
<path d="M3.75266 666.377C2.17587 663.617 1.4841 660.148 1.50028 655.24C3.73124 655.199 5.62613 654.87 7.3055 654.137C8.95613 653.417 10.3697 652.319 11.6809 650.772C13.1081 652.297 14.5104 653.394 16.0832 654.12C17.6788 654.856 19.4185 655.195 21.4871 655.24C21.6053 659.942 20.915 663.488 19.3487 666.34C17.7671 669.22 15.2623 671.445 11.6634 673.436C7.87932 671.292 5.34628 669.166 3.75266 666.377Z" stroke="#333333" stroke-linecap="round" stroke-linejoin="round"/>
<path fill-rule="evenodd" clip-rule="evenodd" d="M14.762 659.167C15.0413 659.411 15.0804 659.847 14.8494 660.142L13.0397 662.449L11.2301 664.757C11.1102 664.91 10.934 665.001 10.7461 665.008C10.5583 665.014 10.3767 664.935 10.2476 664.791L8.17939 662.484C7.93039 662.206 7.94204 661.768 8.2054 661.505C8.46876 661.242 8.88411 661.254 9.13311 661.532L10.6916 663.271L13.8381 659.259C14.0691 658.964 14.4828 658.923 14.762 659.167Z" fill="#FF6F3D"/>
<g clip-path="url(#clip14_14984_128662)">
<path d="M2.5 691.508V696.508C2.5 697.06 2.94771 697.508 3.5 697.508H20.5C21.0523 697.508 21.5 697.06 21.5 696.508V691.508" stroke="#333333" stroke-linecap="round" stroke-linejoin="round"/>
<path d="M7.5 689.5H2.5C1.94772 689.5 1.5 689.052 1.5 688.5V682.5C1.5 681.948 1.94772 681.5 2.5 681.5L21.5 681.5C22.0523 681.5 22.5 681.948 22.5 682.5V688.5C22.5 689.052 22.0523 689.5 21.5 689.5H17.5" stroke="#333333" stroke-linecap="round"/>
<path d="M9.5 688.008C9.5 687.732 9.72386 687.508 10 687.508H15C15.2761 687.508 15.5 687.732 15.5 688.008V691.008C15.5 691.284 15.2761 691.508 15 691.508H10C9.72386 691.508 9.5 691.284 9.5 691.008V688.008Z" stroke="#FF6F3D"/>
<path d="M16.5 680V678.5C16.5 677.948 16.0523 677.5 15.5 677.5H9.5C8.94772 677.5 8.5 677.948 8.5 678.5V680" stroke="#333333"/>
</g>
<g clip-path="url(#clip15_14984_128662)">
<path d="M8.299 710.03C6.71057 709.687 5.70654 708.096 6.05642 706.476C6.4063 704.857 7.97761 703.822 9.56604 704.165C10.3488 704.334 10.9897 704.806 11.3965 705.436" stroke="#FF6F3D" stroke-linecap="round"/>
<path d="M8.9763 712.448C4.51852 712.448 1 715.233 1 717.273C1 718.386 2.61749 719.048 4.5 719.419" stroke="#FF6F3D" stroke-linecap="round"/>
<circle cx="14.9166" cy="710.698" r="3.19444" stroke="#333333"/>
<path d="M22.3333 720.085C22.3333 720.349 22.167 720.644 21.6882 720.958C21.2156 721.269 20.5314 721.532 19.7298 721.743C18.1329 722.163 16.2127 722.337 14.9763 722.337C13.73 722.337 11.7762 722.208 10.1482 721.833C9.33023 721.645 8.63203 721.403 8.15013 721.108C7.66157 720.809 7.5 720.527 7.5 720.273C7.5 719.904 7.66222 719.449 8.02344 718.953C8.38141 718.462 8.91355 717.962 9.59248 717.513C10.9502 716.614 12.8488 715.948 14.9763 715.948C17.1109 715.948 18.9811 716.571 20.3062 717.422C21.6645 718.295 22.3333 719.323 22.3333 720.085Z" stroke="#333333"/>
</g>
<g clip-path="url(#clip16_14984_128662)">
<path d="M21 734.508C21.2761 734.508 21.5 734.732 21.5 735.008V745.008C21.5 745.284 21.2761 745.508 21 745.508H3C2.72386 745.508 2.5 745.284 2.5 745.008L2.5 735.008C2.5 734.732 2.72386 734.508 3 734.508H7.47405H21Z" stroke="#333333"/>
<path fill-rule="evenodd" clip-rule="evenodd" d="M5.42857 743.008C5.19188 743.008 5 742.816 5 742.579V737.437C5 737.2 5.19188 737.008 5.42857 737.008C5.66526 737.008 5.85714 737.2 5.85714 737.437V742.579C5.85714 742.816 5.66526 743.008 5.42857 743.008Z" fill="#FF6F3D"/>
</g>
<g clip-path="url(#clip17_14984_128662)">
<path d="M8.5 763.508V757.508C8.5 756.956 8.94772 756.508 9.5 756.508H17.0858C17.351 756.508 17.6054 756.613 17.7929 756.801L22.2071 761.215C22.3946 761.403 22.5 761.657 22.5 761.922V774.508C22.5 775.06 22.0523 775.508 21.5 775.508H9.5" stroke="#333333" stroke-linecap="round"/>
<path d="M4.5 773.508V757.508C4.5 756.956 4.94772 756.508 5.5 756.508H5.75H6.5348" stroke="#333333" stroke-linecap="round"/>
<path d="M0.5 765.431V757.508C0.5 756.956 0.947715 756.508 1.5 756.508H1.75H2.5348" stroke="#333333" stroke-linecap="round"/>
<path d="M4.51978 772.938V774.52C4.51978 775.072 4.9675 775.52 5.51979 775.52L6.51324 775.52" stroke="#333333" stroke-linecap="round"/>
<path d="M2.57256 775.508H1.5C0.947715 775.508 0.5 775.06 0.5 774.508V757.508C0.5 756.956 0.947715 756.508 1.5 756.508H2.51636" stroke="#333333" stroke-linecap="round"/>
<path fill-rule="evenodd" clip-rule="evenodd" d="M16.5 758.008C16.7761 758.008 17 758.232 17 758.508V762.008H20.5C20.7761 762.008 21 762.232 21 762.508C21 762.784 20.7761 763.008 20.5 763.008H16.5C16.2239 763.008 16 762.784 16 762.508V758.508C16 758.232 16.2239 758.008 16.5 758.008Z" fill="#333333"/>
<mask id="path-122-inside-1_14984_128662" fill="white">
<path d="M7 766.008V772.508C7 772.784 7.22386 773.008 7.5 773.008C7.77614 773.008 7.99999 772.784 7.99999 772.508L8 770.006H9.001C10.105 770.006 11 769.111 11 768.007C11 766.903 10.105 766.008 9.00102 766.008L7 766.008Z"/>
<path d="M17.9995 772.508C17.9995 772.784 17.7756 773.008 17.4995 773.008C17.2234 773.008 16.9995 772.784 16.9995 772.508V766.008H20.4991C20.7755 766.008 20.9995 766.232 20.9995 766.508C20.9995 766.784 20.776 767.008 20.4999 767.009L17.9995 767.013V769.019L19.4992 769.011C19.7751 769.009 19.9995 769.232 19.9995 769.508C19.9995 769.783 19.7767 770.006 19.5018 770.006H17.9995L17.9995 772.508Z"/>
<path d="M11.9995 766.008V773.008H13.9995C15.1041 773.008 15.9995 772.113 15.9995 771.008V768.008C15.9995 766.903 15.1041 766.008 13.9995 766.008H11.9995Z"/>
</mask>
<path d="M7 766.008L7.00001 765.008L6 765.008V766.008H7ZM8 770.006V769.006H7L7 770.006L8 770.006ZM7.99999 772.508L8.99999 772.508L7.99999 772.508ZM9.00102 766.008L9.00101 767.008L9.00102 766.008ZM16.9995 766.008V765.008H15.9995V766.008H16.9995ZM17.9995 767.013L17.9978 766.013L16.9995 766.015V767.013H17.9995ZM17.9995 769.019H16.9995V770.024L18.0049 770.019L17.9995 769.019ZM17.9995 770.006V769.006H16.9995L16.9995 770.006L17.9995 770.006ZM19.4992 769.011L19.5045 770.011L19.4992 769.011ZM20.4999 767.009L20.5016 768.009L20.4999 767.009ZM17.9995 772.508L16.9995 772.508V772.508L17.9995 772.508ZM11.9995 773.008H10.9995V774.008H11.9995V773.008ZM11.9995 766.008V765.008H10.9995V766.008H11.9995ZM8 772.508V766.008H6V772.508H8ZM9.001 769.006H8V771.006H9.001V769.006ZM7 770.006L6.99999 772.508L8.99999 772.508L9 770.006L7 770.006ZM6.99999 767.008L9.00101 767.008L9.00102 765.008L7.00001 765.008L6.99999 767.008ZM7.5 772.008C7.77614 772.008 8 772.232 8 772.508H6C6 773.336 6.67157 774.008 7.5 774.008V772.008ZM7.5 774.008C8.32842 774.008 8.99999 773.336 8.99999 772.508L6.99999 772.508C6.99999 772.232 7.22385 772.008 7.5 772.008V774.008ZM12 768.007C12 766.351 10.6573 765.008 9.00102 765.008L9.00101 767.008C9.55274 767.008 10 767.455 10 768.007H12ZM10 768.007C10 768.559 9.55273 769.006 9.001 769.006V771.006C10.6573 771.006 12 769.663 12 768.007H10ZM17.9995 772.508V766.008H15.9995V772.508H17.9995ZM16.9995 767.008H20.4991V765.008H16.9995V767.008ZM20.4982 766.009L17.9978 766.013L18.0012 768.013L20.5016 768.009L20.4982 766.009ZM16.9995 767.013V769.019H18.9995V767.013H16.9995ZM18.0049 770.019L19.5045 770.011L19.4938 768.011L17.9942 768.019L18.0049 770.019ZM19.5018 769.006H17.9995V771.006H19.5018V769.006ZM16.9995 770.006L16.9995 772.508L18.9995 772.508L18.9995 770.006L16.9995 770.006ZM18.9995 769.508C18.9995 769.231 19.2244 769.006 19.5018 769.006V771.006C20.329 771.006 20.9995 770.335 20.9995 769.508H18.9995ZM19.5045 770.011C19.2261 770.012 18.9995 769.787 18.9995 769.508H20.9995C20.9995 768.678 20.3241 768.006 19.4938 768.011L19.5045 770.011ZM19.9995 766.508C19.9995 766.233 20.2227 766.009 20.4982 766.009L20.5016 768.009C21.3293 768.007 21.9995 767.336 21.9995 766.508H19.9995ZM20.4991 767.008C20.2232 767.008 19.9995 766.784 19.9995 766.508H21.9995C21.9995 765.68 21.3278 765.008 20.4991 765.008V767.008ZM17.4995 772.008C17.7757 772.008 17.9995 772.232 17.9995 772.508H15.9995C15.9995 773.336 16.6711 774.008 17.4995 774.008V772.008ZM17.4995 774.008C18.3279 774.008 18.9995 773.336 18.9995 772.508L16.9995 772.508C16.9995 772.232 17.2234 772.008 17.4995 772.008V774.008ZM12.9995 773.008V766.008H10.9995V773.008H12.9995ZM14.9995 768.008V771.008H16.9995V768.008H14.9995ZM13.9995 772.008H11.9995V774.008H13.9995V772.008ZM11.9995 767.008H13.9995V765.008H11.9995V767.008ZM16.9995 768.008C16.9995 766.351 15.6564 765.008 13.9995 765.008V767.008C14.5518 767.008 14.9995 767.456 14.9995 768.008H16.9995ZM14.9995 771.008C14.9995 771.56 14.5518 772.008 13.9995 772.008V774.008C15.6564 774.008 16.9995 772.665 16.9995 771.008H14.9995Z" fill="#B60000" mask="url(#path-122-inside-1_14984_128662)"/>
</g>
<g clip-path="url(#clip18_14984_128662)">
<path fill-rule="evenodd" clip-rule="evenodd" d="M3 783L17 783.008C18.1046 783.008 19 783.895 19 785V795.008C19 796.113 18.1046 797 17 797H3C1.89543 797 1 796.105 1 795V785C1 783.895 1.89543 783 3 783ZM3 784C2.44772 784 2 784.448 2 785V795C2 795.552 2.44772 796 3 796H17C17.5523 796 18 795.56 18 795.008V785C18 784.448 17.5523 784 17 784H3Z" fill="#333333"/>
<path d="M20 787.508C20.1537 787.508 20.3192 787.508 20.4893 787.507C21.598 787.505 22.5 788.402 22.5 789.511V798.5C22.5 799.605 21.6046 800.5 20.5 800.5H7.5C6.39543 800.5 5.5 799.605 5.5 798.5V798M17 787.508L7.5 787.5C6.39543 787.5 5.5 788.395 5.5 789.5V795" stroke="#333333"/>
</g>
<g clip-path="url(#clip19_14984_128662)">
<path d="M8.5 811.508V809.508C8.5 808.956 8.94772 808.508 9.5 808.508H17.0858C17.351 808.508 17.6054 808.613 17.7929 808.801L22.2071 813.215C22.3946 813.403 22.5 813.657 22.5 813.922V826.508C22.5 827.06 22.0523 827.508 21.5 827.508H19.5" stroke="#333333" stroke-linecap="round"/>
<path d="M4.5 812.508V809.508C4.5 808.956 4.94772 808.508 5.5 808.508H7" stroke="#333333" stroke-linecap="round"/>
<path d="M0.5 816.508V809.508C0.5 808.956 0.947715 808.508 1.5 808.508H3" stroke="#333333" stroke-linecap="round"/>
<path fill-rule="evenodd" clip-rule="evenodd" d="M16.5 810.008C16.7761 810.008 17 810.232 17 810.508V814.008H20.5C20.7761 814.008 21 814.232 21 814.508C21 814.784 20.7761 815.008 20.5 815.008H16.5C16.2239 815.008 16 814.784 16 814.508V810.508C16 810.232 16.2239 810.008 16.5 810.008Z" fill="#333333"/>
<path d="M4.5 817.008C4.5 816.732 4.72386 816.508 5 816.508H12C12.2761 816.508 12.5 816.732 12.5 817.008V828.503H5C4.72386 828.503 4.5 828.279 4.5 828.003V817.008Z" stroke="#FF6F3D"/>
<path d="M0.5 821.008C0.5 820.732 0.723858 820.508 1 820.508H4C4.27614 820.508 4.5 820.732 4.5 821.008V828.508H0.5V821.008Z" stroke="#FF6F3D"/>
<path d="M12.5 821.008C12.5 820.732 12.7239 820.508 13 820.508H16C16.2761 820.508 16.5 820.732 16.5 821.008V828.508H12.5V821.008Z" stroke="#FF6F3D"/>
<path d="M7.47266 826.533L7.47266 819.533" stroke="#FF6F3D" stroke-linecap="round"/>
<path d="M2.47266 826.533L2.47266 822.533" stroke="#FF6F3D" stroke-linecap="round"/>
<path d="M14.4727 826.533L14.4727 822.533" stroke="#FF6F3D" stroke-linecap="round"/>
<path d="M9.49744 826.504L9.49707 819.504" stroke="#FF6F3D" stroke-linecap="round"/>
<path d="M8.49744 816.504L8.49707 814.504" stroke="#FF6F3D" stroke-linecap="round"/>
</g>
<g clip-path="url(#clip20_14984_128662)">
<path d="M8.5 843.508V835.508C8.5 834.956 8.94772 834.508 9.5 834.508H17.0858C17.351 834.508 17.6054 834.613 17.7929 834.801L22.2071 839.215C22.3946 839.403 22.5 839.657 22.5 839.922V852.508C22.5 853.06 22.0523 853.508 21.5 853.508H16.5" stroke="#333333" stroke-linecap="round"/>
<path d="M4.5 843.508V835.508C4.5 834.956 4.94772 834.508 5.5 834.508H7" stroke="#333333" stroke-linecap="round"/>
<path d="M0.5 845.508V835.508C0.5 834.956 0.947715 834.508 1.5 834.508H3" stroke="#333333" stroke-linecap="round"/>
<path fill-rule="evenodd" clip-rule="evenodd" d="M16.5 836.008C16.7761 836.008 17 836.232 17 836.508V840.008H20.5C20.7761 840.008 21 840.232 21 840.508C21 840.784 20.7761 841.008 20.5 841.008H16.5C16.2239 841.008 16 840.784 16 840.508V836.508C16 836.232 16.2239 836.008 16.5 836.008Z" fill="#333333"/>
<path d="M9.5 846.508L6.5 853.508" stroke="#FF6F3D" stroke-linecap="round"/>
<path d="M11.5 853.508L15.5 850.008L11.5 846.508" stroke="#FF6F3D" stroke-linecap="round"/>
<path d="M4.5 853.508L0.5 850.008L4.5 846.508" stroke="#FF6F3D" stroke-linecap="round"/>
</g>
<g clip-path="url(#clip21_14984_128662)">
<path d="M22.5 879.008C22.5 879.284 22.2761 879.508 22 879.508H9C8.72386 879.508 8.5 879.284 8.5 879.008V861.008C8.5 860.732 8.72386 860.508 9 860.508H17.0872C17.2194 860.508 17.3462 860.56 17.4399 860.654L22.3527 865.543C22.447 865.637 22.5 865.765 22.5 865.898V879.008Z" stroke="#333333"/>
<path d="M7 860.508H5.5C4.94772 860.508 4.5 860.956 4.5 861.508V878.508C4.5 879.06 4.94772 879.508 5.5 879.508H7" stroke="#FF6F3D" stroke-linecap="round"/>
<path d="M3 860.508H1.5C0.947715 860.508 0.5 860.956 0.5 861.508V878.508C0.5 879.06 0.947715 879.508 1.5 879.508H3" stroke="#FF6F3D" stroke-linecap="round"/>
<path fill-rule="evenodd" clip-rule="evenodd" d="M16.5 862.008C16.7761 862.008 17 862.232 17 862.508V866.008H20.5C20.7761 866.008 21 866.232 21 866.508C21 866.784 20.7761 867.008 20.5 867.008H16.5C16.2239 867.008 16 866.784 16 866.508V862.508C16 862.232 16.2239 862.008 16.5 862.008Z" fill="#333333"/>
<path fill-rule="evenodd" clip-rule="evenodd" d="M16 869.508C16 869.232 15.7761 869.008 15.5 869.008C15.2239 869.008 15 869.232 15 869.508V872.076H12.5C12.2239 872.076 12 872.3 12 872.576C12 872.852 12.2239 873.076 12.5 873.076H15V875.553C15 875.829 15.2239 876.053 15.5 876.053C15.7761 876.053 16 875.829 16 875.553V873.076H18.5C18.7761 873.076 19 872.852 19 872.576C19 872.3 18.7761 872.076 18.5 872.076H16V869.508Z" fill="#FF6F3D"/>
</g>
<g clip-path="url(#clip22_14984_128662)">
<path d="M20 886.508H4C2.61929 886.508 1.5 887.627 1.5 889.008V899.008C1.5 900.389 2.61929 901.508 4 901.508H9.81898L14.0397 905.025C15.0167 905.839 16.5 905.145 16.5 903.873V901.508H20C21.3807 901.508 22.5 900.389 22.5 899.008V889.008C22.5 887.627 21.3807 886.508 20 886.508Z" stroke="#333333"/>
<path fill-rule="evenodd" clip-rule="evenodd" d="M6.5 892.508C6.5 892.232 6.72386 892.008 7 892.008H17C17.2761 892.008 17.5 892.232 17.5 892.508C17.5 892.784 17.2761 893.008 17 893.008H7C6.72386 893.008 6.5 892.784 6.5 892.508Z" fill="#FF6F3D"/>
<path fill-rule="evenodd" clip-rule="evenodd" d="M6.5 895.508C6.5 895.232 6.72386 895.008 7 895.008H14C14.2761 895.008 14.5 895.232 14.5 895.508C14.5 895.784 14.2761 896.008 14 896.008H7C6.72386 896.008 6.5 895.784 6.5 895.508Z" fill="#FF6F3D"/>
</g>
<g clip-path="url(#clip23_14984_128662)">
<path d="M8.5 919.508V913.508C8.5 912.956 8.94772 912.508 9.5 912.508H17.0858C17.351 912.508 17.6054 912.613 17.7929 912.801L22.2071 917.215C22.3946 917.403 22.5 917.657 22.5 917.922V930.508C22.5 931.06 22.0523 931.508 21.5 931.508H19.5" stroke="#333333" stroke-linecap="round"/>
<path d="M4.5 919.508V913.508C4.5 912.956 4.94772 912.508 5.5 912.508H7" stroke="#333333" stroke-linecap="round"/>
<path d="M0.5 919.508V913.508C0.5 912.956 0.947715 912.508 1.5 912.508H3" stroke="#333333" stroke-linecap="round"/>
<path fill-rule="evenodd" clip-rule="evenodd" d="M16.5 914.008C16.7761 914.008 17 914.232 17 914.508V918.008H20.5C20.7761 918.008 21 918.232 21 918.508C21 918.784 20.7761 919.008 20.5 919.008H16.5C16.2239 919.008 16 918.784 16 918.508V914.508C16 914.232 16.2239 914.008 16.5 914.008Z" fill="#333333"/>
<path fill-rule="evenodd" clip-rule="evenodd" d="M14.0004 930.508C14.0004 930.784 13.7766 931.008 13.5004 931.008C13.2243 931.008 13.0004 930.784 13.0004 930.508V924.508C13.0004 924.232 13.2243 924.008 13.5004 924.008C13.7766 924.008 14.0004 924.232 14.0004 924.508V925.008V925.013V927.008V927.019V928.006L14.0004 930.508ZM2.99219 930.646C2.91369 930.911 2.63543 931.062 2.37069 930.983C2.10594 930.905 1.95496 930.626 2.03345 930.362L3.74797 924.579C3.83975 924.27 4.11098 924.055 4.42236 924.028L4.42259 924.027C4.78906 923.992 5.12941 924.221 5.23408 924.574L6.95298 930.371C7.03148 930.636 6.8805 930.914 6.61575 930.993C6.351 931.071 6.07274 930.92 5.99425 930.655L5.49483 928.971L4.64173 928.971L4.22025 928.971L4.21569 928.971H3.48883L2.99219 930.646ZM3.78188 927.983L4.49183 925.588L5.19833 927.971H3.93501C3.88294 927.971 3.8318 927.975 3.78188 927.983ZM8.50043 931.008C8.77657 931.008 9.00043 930.784 9.00043 930.508L9.00044 928.006H11.0024C11.5536 928.006 12.0004 927.559 12.0004 927.008V925.008C12.0004 924.456 11.5527 924.008 11.0004 924.008H8.00044V930.508C8.00044 930.784 8.22429 931.008 8.50043 931.008ZM11.0004 925.008V927.013L9.00044 927.019V925.008H11.0004Z" fill="#FF6F3D"/>
<path fill-rule="evenodd" clip-rule="evenodd" d="M16.9898 922.407C16.9432 922.179 16.7416 922.008 16.5 922.008C16.4991 922.008 16.4982 922.008 16.4973 922.008L11.6854 922.008H10.6363H10.625H1.06793H1.0625H0.5C0.223858 922.008 0 922.232 0 922.508L6.93397e-06 932.505L0 932.508C0 932.635 0.0472049 932.751 0.125001 932.839C0.216619 932.942 0.350664 933.008 0.5 933.008H16.5C16.5173 933.008 16.5343 933.007 16.5511 933.005C16.8033 932.98 17 932.767 17 932.508V932.496V932.485V923.061V923.056V922.508C17 922.506 17 922.504 17 922.501C16.9996 922.469 16.9961 922.438 16.9898 922.407ZM16 923.008H1V923.056V923.061V932.008H1.0625H1.06793H10.625H10.6363H11.6854L16 932.008L16 923.008Z" fill="#FF6F3D"/>
</g>
<g clip-path="url(#clip24_14984_128662)">
<path d="M8.5 941.506V939.508C8.5 938.956 8.94772 938.508 9.5 938.508H17.0858C17.351 938.508 17.6054 938.613 17.7929 938.801L22.2071 943.215C22.3946 943.403 22.5 943.657 22.5 943.922V956.508C22.5 957.06 22.0523 957.508 21.5 957.508H9.5C8.94772 957.508 8.5 957.06 8.5 956.508V956.008" stroke="#333333" stroke-linecap="round"/>
<path fill-rule="evenodd" clip-rule="evenodd" d="M16.5 940.008C16.7761 940.008 17 940.232 17 940.508V944.008H20.5C20.7761 944.008 21 944.232 21 944.508C21 944.784 20.7761 945.008 20.5 945.008H16.5C16.2239 945.008 16 944.784 16 944.508V940.508C16 940.232 16.2239 940.008 16.5 940.008Z" fill="#333333"/>
<path fill-rule="evenodd" clip-rule="evenodd" d="M5 949.008C5 951.217 6.79086 953.008 9 953.008C11.2091 953.008 13 951.217 13 949.008C13 946.799 11.2091 945.008 9 945.008C6.79086 945.008 5 946.799 5 949.008ZM4 949.008C4 951.769 6.23858 954.008 9 954.008C11.7614 954.008 14 951.769 14 949.008C14 946.246 11.7614 944.008 9 944.008C6.23858 944.008 4 946.246 4 949.008ZM4.84086 954.846C5.03526 954.65 5.03387 954.334 4.83776 954.139C4.64164 953.945 4.32506 953.946 4.13066 954.142L1.14053 957.159C0.946127 957.355 0.947515 957.671 1.14363 957.866C1.33975 958.06 1.65633 958.059 1.85073 957.863L4.84086 954.846Z" fill="#FF6F3D"/>
<path d="M7 938.508H5.5C4.94772 938.508 4.5 938.956 4.5 939.508V943.483" stroke="#333333" stroke-linecap="round"/>
<path d="M0.5 954.094V948.008V939.508C0.5 938.956 0.947715 938.508 1.5 938.508H3" stroke="#333333" stroke-linecap="round"/>
<path d="M16 950.575H18.534" stroke="#333333" stroke-linecap="round"/>
<path d="M14 953.508H18.5353" stroke="#333333" stroke-linecap="round"/>
<path d="M15.9375 947.508H18.534" stroke="#333333" stroke-linecap="round"/>
</g>
<g clip-path="url(#clip25_14984_128662)">
<path fill-rule="evenodd" clip-rule="evenodd" d="M4.22183 982.493C4.02656 982.688 3.70998 982.688 3.51472 982.493C-1.17157 977.807 -1.17157 970.209 3.51472 965.523C8.20101 960.836 15.799 960.836 20.4853 965.523C25.1716 970.209 25.1716 977.807 20.4853 982.493C18.3123 984.666 15.512 985.832 12.6676 985.989C11.2133 986.07 9.74695 985.887 8.34597 985.441C7.50226 985.172 6.6823 984.807 5.90312 984.347C5.66535 984.207 5.58644 983.9 5.72687 983.662C5.8673 983.424 6.17389 983.345 6.41166 983.486C7.12537 983.907 7.87652 984.241 8.64966 984.488C9.93364 984.897 11.2783 985.065 12.6123 984.991C15.2205 984.847 17.7858 983.778 19.7782 981.786C24.0739 977.49 24.0739 970.526 19.7782 966.23C15.4824 961.934 8.51759 961.934 4.22182 966.23C-0.0739422 970.526 -0.0739412 977.49 4.22183 981.786C4.41709 981.981 4.41709 982.298 4.22183 982.493Z" fill="#333333"/>
<path d="M14.421 980.148C14.4169 979.541 14.4113 978.715 14.421 978.108C14.4312 977.41 14.2358 976.531 13.9947 976.133C14.304 976.077 14.4796 976.049 14.7488 975.986C16.5317 975.568 17.4577 974.419 17.5759 972.512C17.6364 971.541 17.467 970.651 16.8354 969.886C16.7897 969.833 16.7874 969.71 16.8091 969.632C16.9771 969 16.9282 968.383 16.7325 967.765C16.684 967.611 16.6037 967.563 16.4546 967.573C15.9311 967.603 15.4514 967.79 15.0285 968.079C14.6209 968.359 14.2414 968.42 13.7572 968.306C12.6908 968.061 11.6174 968.132 10.5533 968.384C10.4329 968.413 10.2708 968.374 10.1605 968.308C9.66098 968.009 9.16148 967.719 8.58535 967.603C8.13986 967.514 8.10108 967.537 7.9829 967.977C7.83425 968.531 7.81948 969.086 7.97136 969.644C7.99306 969.726 7.97044 969.856 7.91735 969.916C6.73692 971.261 7.1644 973.804 7.95982 974.778C8.67855 975.657 9.7166 975.943 10.7892 976.133C10.7308 976.401 10.5745 977.181 10.2066 977.324C9.31198 977.678 8.54288 977.418 8.03091 976.588C7.75715 976.145 7.40584 975.815 6.88234 975.719C6.86572 975.716 6.84864 975.707 6.8334 975.709C6.6926 975.747 6.55318 975.787 6.41284 975.825C6.49178 975.938 6.54764 976.088 6.65336 976.156C7.097 976.443 7.38553 976.852 7.57619 977.334C7.8758 978.091 8.45747 978.428 9.21319 978.494C9.58204 978.524 9.95459 978.499 10.3585 978.499C10.3585 978.968 10.3359 979.614 10.3124 980.148C11.3859 980.462 12.3105 980.455 12.3105 980.455C12.6511 980.455 13.9111 980.424 14.421 980.148Z" fill="#FF6F3D"/>
</g>
<g clip-path="url(#clip26_14984_128662)">
<path d="M9.5 996.508V991.508C9.5 990.956 9.94772 990.508 10.5 990.508H18.0858C18.351 990.508 18.6054 990.613 18.7929 990.801L23.2071 995.215C23.3946 995.403 23.5 995.657 23.5 995.922V1008.51C23.5 1009.06 23.0523 1009.51 22.5 1009.51H19.5" stroke="#333333" stroke-linecap="round"/>
<path d="M6.63335 1002.9C5.51622 1002.66 4.81009 1001.54 5.05616 1000.4C5.30223 999.266 6.40732 998.538 7.52445 998.78C8.07499 998.899 8.52572 999.231 8.81184 999.673" stroke="#FF6F3D" stroke-linecap="round"/>
<path d="M7.1097 1004.61C3.97456 1004.61 1.5 1006.56 1.5 1008C1.5 1008.78 2.63757 1009.25 3.96153 1009.51" stroke="#FF6F3D" stroke-linecap="round"/>
<circle cx="11.3686" cy="1003.34" r="2.09829" stroke="#333333"/>
<path d="M16.4363 1009.94C16.4363 1010.05 16.3686 1010.22 16.0494 1010.43C15.7366 1010.63 15.2732 1010.81 14.7159 1010.96C13.6076 1011.25 12.2702 1011.37 11.4105 1011.37C10.5408 1011.37 9.17869 1011.28 8.04817 1011.02C7.47895 1010.89 7.00595 1010.73 6.68706 1010.53C6.36152 1010.33 6.30078 1010.17 6.30078 1010.07C6.30078 1009.85 6.39775 1009.56 6.64044 1009.23C6.87986 1008.9 7.24019 1008.56 7.70595 1008.25C8.6374 1007.64 9.94434 1007.18 11.4105 1007.18C12.8838 1007.18 14.1711 1007.61 15.0788 1008.19C16.0196 1008.8 16.4363 1009.48 16.4363 1009.94Z" stroke="#333333"/>
<path d="M5.5 995.985V991.508C5.5 990.956 5.94772 990.508 6.5 990.508H8" stroke="#333333" stroke-linecap="round"/>
<path d="M1.5 999.508V991.508C1.5 990.956 1.94772 990.508 2.5 990.508H4" stroke="#333333" stroke-linecap="round"/>
<path fill-rule="evenodd" clip-rule="evenodd" d="M17.5 992.008C17.7761 992.008 18 992.232 18 992.508V996.008H21.5C21.7761 996.008 22 996.232 22 996.508C22 996.784 21.7761 997.008 21.5 997.008H17.5C17.2239 997.008 17 996.784 17 996.508V992.508C17 992.232 17.2239 992.008 17.5 992.008Z" fill="#333333"/>
</g>
<rect x="5" y="1034.01" width="14" height="1" rx="0.5" fill="#333333"/>
<rect x="5" y="1017.01" width="14" height="1" rx="0.5" fill="#333333"/>
<rect x="1.5" y="1019.5" width="21" height="13" rx="1.5" stroke="#FF6F3D"/>
<path d="M14.9035 1025.15C15.5509 1025.54 15.5509 1026.48 14.9035 1026.87L11.1805 1029.1C10.514 1029.5 9.66602 1029.02 9.66602 1028.24L9.66602 1023.77C9.66602 1023 10.514 1022.52 11.1805 1022.92L14.9035 1025.15Z" fill="#FF6F3D"/>
<g clip-path="url(#clip27_14984_128662)">
<path fill-rule="evenodd" clip-rule="evenodd" d="M21.7112 1045.83C21.9503 1045.69 22.2561 1045.77 22.3942 1046.01C25.7079 1051.75 23.7414 1059.09 18.0019 1062.4C12.2624 1065.72 4.9233 1063.75 1.6096 1058.01C-1.70411 1052.27 0.262394 1044.93 6.00191 1041.62C8.66329 1040.08 11.6698 1039.68 14.4581 1040.26C15.8837 1040.56 17.2528 1041.12 18.4904 1041.91C19.2358 1042.39 19.9334 1042.95 20.567 1043.6C20.7603 1043.8 20.7572 1044.11 20.56 1044.31C20.3628 1044.5 20.0462 1044.5 19.8529 1044.3C19.2726 1043.71 18.6335 1043.19 17.9505 1042.75C16.8162 1042.03 15.5607 1041.52 14.2531 1041.24C11.6963 1040.71 8.94204 1041.07 6.50191 1042.48C1.24069 1045.52 -0.561942 1052.25 2.47562 1057.51C5.51319 1062.77 12.2407 1064.57 17.5019 1061.54C22.7631 1058.5 24.5657 1051.77 21.5282 1046.51C21.3901 1046.27 21.472 1045.96 21.7112 1045.83Z" fill="#333333"/>
<path fill-rule="evenodd" clip-rule="evenodd" d="M13.6989 1048.05C13.9527 1048.16 14.0703 1048.45 13.9615 1048.71L10.9615 1055.71C10.8528 1055.96 10.5588 1056.08 10.305 1055.97C10.0512 1055.86 9.93362 1055.57 10.0424 1055.31L13.0424 1048.31C13.1512 1048.06 13.4451 1047.94 13.6989 1048.05ZM15.1257 1048.18C15.3075 1047.97 15.6234 1047.95 15.8312 1048.13L19.8312 1051.63L20.2613 1052.01L19.8312 1052.39L15.8312 1055.89C15.6234 1056.07 15.3075 1056.05 15.1257 1055.84C14.9438 1055.63 14.9649 1055.32 15.1727 1055.13L18.7427 1052.01L15.1727 1048.89C14.9649 1048.7 14.9438 1048.39 15.1257 1048.18ZM8.17272 1048.13C8.38054 1047.95 8.69642 1047.97 8.87826 1048.18C9.0601 1048.39 9.03904 1048.7 8.83122 1048.89L5.26127 1052.01L8.83122 1055.13C9.03904 1055.32 9.0601 1055.63 8.87826 1055.84C8.69642 1056.05 8.38054 1056.07 8.17272 1055.89L4.17272 1052.39L3.74268 1052.01L4.17272 1051.63L8.17272 1048.13Z" fill="#FF6F3D"/>
</g>
<g clip-path="url(#clip28_14984_128662)">
<path d="M22.5 1087.01C22.5 1087.29 22.2761 1087.51 22 1087.51H9C8.72386 1087.51 8.5 1087.29 8.5 1087.01V1069.01C8.5 1068.74 8.72386 1068.51 9 1068.51H17.0872C17.2194 1068.51 17.3462 1068.56 17.4399 1068.66L22.3527 1073.55C22.447 1073.64 22.5 1073.77 22.5 1073.9V1087.01Z" stroke="#333333"/>
<path d="M7 1068.51H5.5C4.94772 1068.51 4.5 1068.96 4.5 1069.51V1086.51C4.5 1087.06 4.94772 1087.51 5.5 1087.51H7" stroke="#FF6F3D" stroke-linecap="round"/>
<path d="M3 1068.51H1.5C0.947715 1068.51 0.5 1068.96 0.5 1069.51V1086.51C0.5 1087.06 0.947715 1087.51 1.5 1087.51H3" stroke="#FF6F3D" stroke-linecap="round"/>
<path fill-rule="evenodd" clip-rule="evenodd" d="M16.5 1070.01C16.7761 1070.01 17 1070.24 17 1070.51V1074.01H20.5C20.7761 1074.01 21 1074.24 21 1074.51C21 1074.79 20.7761 1075.01 20.5 1075.01H16.5C16.2239 1075.01 16 1074.79 16 1074.51V1070.51C16 1070.24 16.2239 1070.01 16.5 1070.01Z" fill="#FF6F3D"/>
<line x1="11.5" y1="1077.51" x2="19.5" y2="1077.51" stroke="#444444" stroke-linecap="round"/>
<line x1="11.5" y1="1080.51" x2="19.5" y2="1080.51" stroke="#444444" stroke-linecap="round"/>
<line x1="11.5" y1="1083.51" x2="19.5" y2="1083.51" stroke="#444444" stroke-linecap="round"/>
<path d="M11.5 1083.51L11.5 1077.7" stroke="#444444" stroke-linecap="round"/>
<path d="M15.5 1083.51L15.5 1077.7" stroke="#444444" stroke-linecap="round"/>
<path d="M19.5 1083.51L19.5 1077.7" stroke="#444444" stroke-linecap="round"/>
</g>
<g clip-path="url(#clip29_14984_128662)">
<path d="M8.5 1100.51V1095.51C8.5 1094.96 8.94772 1094.51 9.5 1094.51H17.0858C17.351 1094.51 17.6054 1094.62 17.7929 1094.8L22.2071 1099.22C22.3946 1099.41 22.5 1099.66 22.5 1099.93V1112.51C22.5 1113.06 22.0523 1113.51 21.5 1113.51H19.5" stroke="#333333" stroke-linecap="round"/>
<path d="M4.5 1102.51V1095.51C4.5 1094.96 4.94772 1094.51 5.5 1094.51H7" stroke="#333333" stroke-linecap="round"/>
<path d="M0.5 1105.51V1095.51C0.5 1094.96 0.947715 1094.51 1.5 1094.51H3" stroke="#333333" stroke-linecap="round"/>
<path fill-rule="evenodd" clip-rule="evenodd" d="M16.5 1096.01C16.7761 1096.01 17 1096.24 17 1096.51V1100.01H20.5C20.7761 1100.01 21 1100.24 21 1100.51C21 1100.79 20.7761 1101.01 20.5 1101.01H16.5C16.2239 1101.01 16 1100.79 16 1100.51V1096.51C16 1096.24 16.2239 1096.01 16.5 1096.01Z" fill="#333333"/>
<path d="M9.18175 1103.51C6.83514 1103.51 4.89549 1105.28 4.62347 1107.52C4.4366 1107.51 4.25165 1107.51 4.08983 1107.51C4.08257 1107.51 4.07535 1107.51 4.06818 1107.51C2.10818 1107.51 0.5 1109.07 0.5 1111.01C0.5 1112.96 2.10818 1114.51 4.06817 1114.51L13.784 1114.51C16.0264 1114.51 17.8636 1112.73 17.8636 1110.51C17.8636 1108.29 16.0264 1106.51 13.784 1106.51C13.6932 1106.51 13.6032 1106.51 13.5141 1106.52C12.8844 1104.76 11.178 1103.51 9.18175 1103.51Z" stroke="#FF6F3D"/>
</g>
<g clip-path="url(#clip30_14984_128662)">
<path d="M3.36958 1137.59C-0.691999 1133.47 -0.609006 1126.41 3.88043 1121.92C7.33922 1118.46 13.2068 1117.39 17.5089 1119.93M6.41585 1140.03C10.7006 1142.53 16.4951 1141.82 20.1381 1138.18C24.4821 1133.84 24.6229 1126.88 20.5605 1122.37" stroke="#333333" stroke-linecap="round"/>
<path fill-rule="evenodd" clip-rule="evenodd" d="M17.512 1134.01C17.7882 1134.01 18.0117 1133.79 18.0113 1133.51L18.0069 1130.58L18.0052 1129.45L18.0051 1129.44L18.0017 1127.16L18.0017 1127.15L18.0007 1126.51C18.0003 1126.23 17.7761 1126.01 17.5 1126.01C17.2238 1126.01 17.0003 1126.24 17.0007 1126.51L17.0113 1133.51C17.0117 1133.79 17.2359 1134.01 17.512 1134.01ZM4.86605 1133.94C5.1308 1134.02 5.40905 1133.87 5.48755 1133.6L5.9707 1131.97H6.72747H6.73356L7.29633 1131.97L8.56976 1131.97L9.05659 1133.62C9.13509 1133.88 9.41335 1134.03 9.6781 1133.95C9.94284 1133.88 10.0938 1133.6 10.0153 1133.33L8.01812 1126.6C7.92762 1126.29 7.66595 1126.08 7.35984 1126.04L7.35656 1126.03C7.33692 1126.03 7.31736 1126.03 7.2979 1126.03C7.26593 1126.03 7.23359 1126.03 7.201 1126.03L7.19594 1126.04C6.88306 1126.07 6.61356 1126.29 6.52118 1126.6L4.52882 1133.32C4.45032 1133.58 4.6013 1133.86 4.86605 1133.94ZM7.27023 1127.59L6.26721 1130.97H8.27326L7.27023 1127.59Z" fill="#FF6F3D"/>
<mask id="path-200-inside-2_14984_128662" fill="white">
<path d="M11.2598 1126.01V1133.51C11.2598 1133.79 11.4836 1134.01 11.7598 1134.01C12.0359 1134.01 12.2598 1133.79 12.2598 1133.51L12.2598 1131.01H13.4777C14.8054 1131.01 16 1130.04 16 1128.51C16 1126.98 14.8218 1126.01 13.4777 1126.01L11.2598 1126.01Z"/>
</mask>
<path d="M11.2598 1126.01L11.2598 1125.01L10.2598 1125.01V1126.01H11.2598ZM12.2598 1131.01V1130.01H11.2598L11.2598 1131.01L12.2598 1131.01ZM12.2598 1133.51L13.2598 1133.51L12.2598 1133.51ZM13.4777 1126.01L13.4777 1127.01H13.4777V1126.01ZM12.2598 1133.51V1126.01H10.2598V1133.51H12.2598ZM13.4777 1130.01H12.2598V1132.01H13.4777V1130.01ZM11.2598 1131.01L11.2598 1133.51L13.2598 1133.51L13.2598 1131.01L11.2598 1131.01ZM11.2598 1127.01L13.4777 1127.01L13.4777 1125.01L11.2598 1125.01L11.2598 1127.01ZM11.7598 1133.01C12.0359 1133.01 12.2598 1133.24 12.2598 1133.51H10.2598C10.2598 1134.34 10.9313 1135.01 11.7598 1135.01V1133.01ZM11.7598 1135.01C12.5882 1135.01 13.2598 1134.34 13.2598 1133.51L11.2598 1133.51C11.2598 1133.24 11.4836 1133.01 11.7598 1133.01V1135.01ZM17 1128.51C17 1126.37 15.3125 1125.01 13.4777 1125.01V1127.01C14.3312 1127.01 15 1127.59 15 1128.51H17ZM15 1128.51C15 1129.42 14.3202 1130.01 13.4777 1130.01V1132.01C15.2907 1132.01 17 1130.66 17 1128.51H15Z" fill="#FF6F3D" mask="url(#path-200-inside-2_14984_128662)"/>
<path d="M3.93392 1135.76L1.61846 1138.06L4.76781 1138.91L3.93392 1135.76Z" fill="#333333"/>
<path d="M19.3714 1121.25L22.5051 1122.16L20.1492 1124.42L19.3714 1121.25Z" fill="#333333"/>
</g>
<g clip-path="url(#clip31_14984_128662)">
<path d="M1.14286 1149.51H22.8571C23.2046 1149.51 23.5 1149.8 23.5 1150.17V1165.85C23.5 1166.22 23.2046 1166.51 22.8571 1166.51H1.14286C0.795403 1166.51 0.5 1166.22 0.5 1165.85V1150.17C0.5 1149.8 0.795403 1149.51 1.14286 1149.51Z" stroke="#333333"/>
<path d="M23.1281 1149.56L18 1145.51H6L0.81665 1149.59" stroke="#333333" stroke-linecap="round" stroke-linejoin="round"/>
<path d="M9.5 1149.51H14.5V1166.51H9.5V1149.51Z" stroke="#FF6F3D"/>
<path d="M9.45288 1149.2L11.0017 1145.51H13L14.5323 1149.2" stroke="#FF6F3D" stroke-linejoin="round"/>
</g>
<g clip-path="url(#clip32_14984_128662)">
<path d="M9.5 1178.51V1173.51C9.5 1172.96 9.94772 1172.51 10.5 1172.51H18.0858C18.351 1172.51 18.6054 1172.62 18.7929 1172.8L23.2071 1177.22C23.3946 1177.41 23.5 1177.66 23.5 1177.93V1190.51C23.5 1191.06 23.0523 1191.51 22.5 1191.51H19.5" stroke="#333333" stroke-linecap="round"/>
<path d="M6.63335 1184.91C5.51622 1184.67 4.81009 1183.55 5.05616 1182.41C5.30223 1181.27 6.40732 1180.54 7.52445 1180.78C8.07499 1180.9 8.52572 1181.23 8.81184 1181.68" stroke="#FF6F3D" stroke-linecap="round"/>
<path d="M7.1097 1186.61C3.97456 1186.61 1.5 1188.57 1.5 1190C1.5 1190.79 2.63757 1191.25 3.96153 1191.51" stroke="#FF6F3D" stroke-linecap="round"/>
<circle cx="11.3686" cy="1185.34" r="2.09829" stroke="#333333"/>
<path d="M16.4363 1191.94C16.4363 1192.05 16.3686 1192.22 16.0494 1192.43C15.7366 1192.64 15.2732 1192.82 14.7159 1192.96C13.6076 1193.26 12.2702 1193.38 11.4105 1193.38C10.5408 1193.38 9.17869 1193.29 8.04817 1193.03C7.47895 1192.9 7.00595 1192.73 6.68706 1192.54C6.36152 1192.34 6.30078 1192.18 6.30078 1192.07C6.30078 1191.86 6.39775 1191.57 6.64044 1191.23C6.87986 1190.91 7.24019 1190.56 7.70595 1190.26C8.6374 1189.64 9.94434 1189.18 11.4105 1189.18C12.8838 1189.18 14.1711 1189.61 15.0788 1190.19C16.0196 1190.8 16.4363 1191.48 16.4363 1191.94Z" stroke="#333333"/>
<path d="M5.5 1177.99V1173.51C5.5 1172.96 5.94772 1172.51 6.5 1172.51H8" stroke="#333333" stroke-linecap="round"/>
<path d="M21.5 1189.51V1180.51L16.5026 1180.52C15.9493 1180.53 15.5001 1180.08 15.5001 1179.52V1174.51H11.5001" stroke="#333333" stroke-linecap="round"/>
<path d="M19.5 1189.51V1182.51L16.5074 1182.52C14.8477 1182.52 13.5001 1181.18 13.5001 1179.52V1176.51H11.5001" stroke="#FF6F3D" stroke-linecap="round"/>
<path d="M17.5 1189.51V1184.51" stroke="#333333" stroke-linecap="round"/>
<path d="M15.5 1187.51V1184.51" stroke="#333333" stroke-linecap="round"/>
<path d="M11.5 1180.51V1178.51" stroke="#333333" stroke-linecap="round"/>
<path d="M7.5 1178.51V1176.51V1174.51" stroke="#FF6F3D" stroke-linecap="round"/>
<path d="M3.5 1180.51V1176.51V1174.51" stroke="#FF6F3D" stroke-linecap="round"/>
<path d="M1.5 1185.51V1173.51C1.5 1172.96 1.94772 1172.51 2.5 1172.51H4" stroke="#333333" stroke-linecap="round"/>
<path fill-rule="evenodd" clip-rule="evenodd" d="M17.5 1174.01C17.7761 1174.01 18 1174.24 18 1174.51V1178.01H21.5C21.7761 1178.01 22 1178.24 22 1178.51C22 1178.79 21.7761 1179.01 21.5 1179.01H17.5C17.2239 1179.01 17 1178.79 17 1178.51V1174.51C17 1174.24 17.2239 1174.01 17.5 1174.01Z" fill="#FF6F3D"/>
</g>
<defs>
<clipPath id="clip0_14984_128662">
<rect width="24" height="24" fill="white"/>
</clipPath>
<clipPath id="clip1_14984_128662">
<rect width="24" height="24" fill="white" transform="translate(0 78)"/>
</clipPath>
<clipPath id="clip2_14984_128662">
<rect width="24" height="24" fill="white" transform="translate(0 104)"/>
</clipPath>
<clipPath id="clip3_14984_128662">
<rect width="24.0039" height="24.004" fill="white" transform="translate(0 130)"/>
</clipPath>
<clipPath id="clip4_14984_128662">
<rect width="24" height="24" fill="white" transform="translate(0 156.004)"/>
</clipPath>
<clipPath id="clip5_14984_128662">
<rect width="24.004" height="24.0039" fill="white" transform="translate(0 182.004)"/>
</clipPath>
<clipPath id="clip6_14984_128662">
<rect width="24" height="24" fill="white" transform="translate(0 208.008)"/>
</clipPath>
<clipPath id="clip7_14984_128662">
<rect width="24" height="24" fill="white" transform="translate(0 234.008)"/>
</clipPath>
<clipPath id="clip8_14984_128662">
<rect width="24" height="24" fill="white" transform="translate(0 260.008)"/>
</clipPath>
<clipPath id="clip9_14984_128662">
<rect width="24" height="24" fill="white" transform="translate(0 286.008)"/>
</clipPath>
<clipPath id="clip10_14984_128662">
<rect width="24" height="24" fill="white" transform="translate(0 312.008)"/>
</clipPath>
<clipPath id="clip11_14984_128662">
<rect width="24" height="24" fill="white" transform="translate(0 338.008)"/>
</clipPath>
<clipPath id="clip12_14984_128662">
<rect width="24.0001" height="24" fill="white" transform="translate(0 416.008)"/>
</clipPath>
<clipPath id="clip13_14984_128662">
<rect width="24" height="24" fill="white" transform="translate(0 468.008)"/>
</clipPath>
<clipPath id="clip14_14984_128662">
<rect width="24" height="24" fill="white" transform="translate(0 676.008)"/>
</clipPath>
<clipPath id="clip15_14984_128662">
<rect width="24" height="24" fill="white" transform="translate(0 702.008)"/>
</clipPath>
<clipPath id="clip16_14984_128662">
<rect width="24" height="24" fill="white" transform="translate(0 728.008)"/>
</clipPath>
<clipPath id="clip17_14984_128662">
<rect width="24" height="24" fill="white" transform="translate(0 754.008)"/>
</clipPath>
<clipPath id="clip18_14984_128662">
<rect width="24" height="24" fill="white" transform="translate(0 780.008)"/>
</clipPath>
<clipPath id="clip19_14984_128662">
<rect width="24" height="24" fill="white" transform="translate(0 806.008)"/>
</clipPath>
<clipPath id="clip20_14984_128662">
<rect width="24" height="24" fill="white" transform="translate(0 832.008)"/>
</clipPath>
<clipPath id="clip21_14984_128662">
<rect width="24" height="24" fill="white" transform="translate(0 858.008)"/>
</clipPath>
<clipPath id="clip22_14984_128662">
<rect width="24.0001" height="24" fill="white" transform="translate(0 884.008)"/>
</clipPath>
<clipPath id="clip23_14984_128662">
<rect width="24" height="24" fill="white" transform="translate(0 910.008)"/>
</clipPath>
<clipPath id="clip24_14984_128662">
<rect width="24" height="24" fill="white" transform="translate(0 936.008)"/>
</clipPath>
<clipPath id="clip25_14984_128662">
<rect width="24" height="24" fill="white" transform="translate(0 962.008)"/>
</clipPath>
<clipPath id="clip26_14984_128662">
<rect width="24" height="24" fill="white" transform="translate(0 988.008)"/>
</clipPath>
<clipPath id="clip27_14984_128662">
<rect width="24.004" height="24.0039" fill="white" transform="translate(0 1040.01)"/>
</clipPath>
<clipPath id="clip28_14984_128662">
<rect width="24" height="24" fill="white" transform="translate(0 1066.01)"/>
</clipPath>
<clipPath id="clip29_14984_128662">
<rect width="24" height="24" fill="white" transform="translate(0 1092.01)"/>
</clipPath>
<clipPath id="clip30_14984_128662">
<rect width="24" height="24" fill="white" transform="translate(0 1118.01)"/>
</clipPath>
<clipPath id="clip31_14984_128662">
<rect width="24" height="24" fill="white" transform="translate(0 1144.01)"/>
</clipPath>
<clipPath id="clip32_14984_128662">
<rect width="24" height="24" fill="white" transform="translate(0 1170.01)"/>
</clipPath>
</defs>
</svg>
