<svg width="180" height="90" viewBox="0 0 180 90" fill="none" xmlns="http://www.w3.org/2000/svg">
<g clip-path="url(#clip0_14628_128051)">
<rect width="180" height="90" fill="#F5F5F5"/>
<g filter="url(#filter0_d_14628_128051)">
<path d="M30.2558 19.489H157.943V99.8153H30.2558V19.489Z" fill="white"/>
<path d="M30.7558 19.989H157.443V99.3153H30.7558V19.989Z" stroke="#CCCCCC"/>
</g>
<path fill-rule="evenodd" clip-rule="evenodd" d="M50.3145 38.4521C50.3145 38.176 50.5383 37.9521 50.8145 37.9521H53.5C53.7761 37.9521 54 38.176 54 38.4521C54 38.7283 53.7761 38.9521 53.5 38.9521H52.6055V47.0479H53.5C53.7761 47.0479 54 47.2717 54 47.5479C54 47.824 53.7761 48.0479 53.5 48.0479H50.8145C50.5383 48.0479 50.3145 47.824 50.3145 47.5479C50.3145 47.2717 50.5383 47.0479 50.8145 47.0479H51.6055V38.9521H50.8145C50.5383 38.9521 50.3145 38.7283 50.3145 38.4521Z" fill="black"/>
<path d="M55 9L31 9L31 3L55 3L55 9Z" fill="#CFCFCF"/>
<path d="M158.5 8.5L55.5 8.5L55.5 3.49999L158.5 3.49999L158.5 8.5Z" fill="white" stroke="#C2C2C2"/>
<path d="M35 6L35 7L36 7L36 6L35 6Z" fill="#444444"/>
<path d="M39 7H40L40 5H39L39 7Z" fill="#444444"/>
<path d="M43 6L43 7L44 7L44 6L43 6Z" fill="#444444"/>
<path d="M47 7H48L48 5H47L47 7Z" fill="#444444"/>
<path d="M51 6L51 7L52 7L52 6L51 6Z" fill="#444444"/>
<path d="M63 7L64 7L64 4.99999L63 4.99999L63 7Z" fill="#AAAAAA"/>
<path d="M59 7L60 7L60 6L59 6L59 7Z" fill="#AAAAAA"/>
<path d="M71 7L72 7L72 4.99999L71 4.99999L71 7Z" fill="#AAAAAA"/>
<path d="M67 7L68 7L68 6L67 6L67 7Z" fill="#AAAAAA"/>
<path d="M79 7L80 7L80 4.99999L79 4.99999L79 7Z" fill="#AAAAAA"/>
<path d="M75 7L76 7L76 6L75 6L75 7Z" fill="#AAAAAA"/>
<path d="M87 7L88 7L88 4.99999L87 4.99999L87 7Z" fill="#AAAAAA"/>
<path d="M83 7L84 7L84 6L83 6L83 7Z" fill="#AAAAAA"/>
<path d="M95 7L96 7L96 4.99999L95 4.99999L95 7Z" fill="#AAAAAA"/>
<path d="M91 7L92 7L92 6L91 6L91 7Z" fill="#AAAAAA"/>
<path d="M103 7L104 7L104 4.99999L103 4.99999L103 7Z" fill="#AAAAAA"/>
<path d="M99 7L100 7L100 6L99 6L99 7Z" fill="#AAAAAA"/>
<path d="M111 7L112 7L112 4.99999L111 4.99999L111 7Z" fill="#AAAAAA"/>
<path d="M107 7L108 7L108 6L107 6L107 7Z" fill="#AAAAAA"/>
<path d="M119 7L120 7L120 4.99999L119 4.99999L119 7Z" fill="#AAAAAA"/>
<path d="M115 7L116 7L116 6L115 6L115 7Z" fill="#AAAAAA"/>
<path d="M127 7L128 7L128 4.99999L127 4.99999L127 7Z" fill="#AAAAAA"/>
<path d="M123 7L124 7L124 6L123 6L123 7Z" fill="#AAAAAA"/>
<path d="M135 7L136 7L136 4.99999L135 4.99999L135 7Z" fill="#AAAAAA"/>
<path d="M131 7L132 7L132 6L131 6L131 7Z" fill="#AAAAAA"/>
<path d="M143 7L144 7L144 4.99999L143 4.99999L143 7Z" fill="#AAAAAA"/>
<path d="M139 7L140 7L140 6L139 6L139 7Z" fill="#AAAAAA"/>
<path d="M151 7L152 7L152 4.99999L151 4.99999L151 7Z" fill="#AAAAAA"/>
<path d="M147 7L148 7L148 6L147 6L147 7Z" fill="#AAAAAA"/>
<path d="M10 42L10 18L4 18L4 42L10 42Z" fill="#CFCFCF"/>
<path fill-rule="evenodd" clip-rule="evenodd" d="M9 19L9 42L5 41.9744L5 19L9 19ZM10 43L4 43L4 18L10 18L10 43Z" fill="#BBBEC2"/>
<path d="M10 226L10 42L4.00001 42L4 226L10 226Z" fill="white"/>
<path fill-rule="evenodd" clip-rule="evenodd" d="M9 43L8.99851 225.003L5 225.003L5 43L9 43ZM10 226L4 226L4.00001 42L10 42L10 226Z" fill="#BBBEC2"/>
<path fill-rule="evenodd" clip-rule="evenodd" d="M8 22V23L7 23L7 22H8ZM8 27V26H6L6 27H8ZM8 35V34H6L6 35H8ZM8 31V30H7L7 31H8ZM8 38V39H7L7 38H8Z" fill="#444444"/>
<path d="M8 46V47L7 47L7 46H8Z" fill="#AAAAAA"/>
<path d="M8 51V50H6L6 51H8Z" fill="#AAAAAA"/>
<path d="M8 59V58H6L6 59H8Z" fill="#AAAAAA"/>
<path d="M8 55V54H7L7 55H8Z" fill="#AAAAAA"/>
<path d="M7 63L7 62H8V63H7Z" fill="#AAAAAA"/>
<path d="M8 67V66H6L6 67H8Z" fill="#AAAAAA"/>
<path d="M8 75V74H6L6 75H8Z" fill="#AAAAAA"/>
<path d="M8 71V70H7L7 71H8Z" fill="#AAAAAA"/>
<path d="M8 79H7L7 77.9793H8V79Z" fill="#AAAAAA"/>
<path d="M8 82.9793V81.9793H6L6 82.9793H8Z" fill="#AAAAAA"/>
<path d="M8 90.9793V89.9793H6L6 90.9793H8Z" fill="#AAAAAA"/>
<path d="M8 86.9793V85.9793H7L7 86.9793H8Z" fill="#AAAAAA"/>
<path d="M7 94.9793L7 93.9793H8V94.9793H7Z" fill="#AAAAAA"/>
<path d="M8 98.9793V97.9793H6L6 98.9793H8Z" fill="#AAAAAA"/>
<path d="M8 106.979V105.979H6L6 106.979H8Z" fill="#AAAAAA"/>
<path d="M8 102.979V101.979H7L7 102.979H8Z" fill="#AAAAAA"/>
<path d="M8 109.979V111H7L7 109.979H8Z" fill="#AAAAAA"/>
<path d="M8 115V114H6L6 115H8Z" fill="#AAAAAA"/>
<path d="M8 123V122H6L6 123H8Z" fill="#AAAAAA"/>
<path d="M8 119V118H7L7 119H8Z" fill="#AAAAAA"/>
<path d="M7 127L7 126H8V127H7Z" fill="#AAAAAA"/>
<path d="M8 131V130H6L6 131H8Z" fill="#AAAAAA"/>
<path d="M8 139V138H6L6 139H8Z" fill="#AAAAAA"/>
<path d="M8 135V134H7L7 135H8Z" fill="#AAAAAA"/>
<path d="M8 143H7L7 141.979H8V143Z" fill="#AAAAAA"/>
<path d="M8 146.979V145.979H6L6 146.979H8Z" fill="#AAAAAA"/>
<path d="M8 154.979V153.979H6L6 154.979H8Z" fill="#AAAAAA"/>
<path d="M8 150.979V149.979H7L7 150.979H8Z" fill="#AAAAAA"/>
<path d="M7 158.979L7 157.979H8V158.979H7Z" fill="#AAAAAA"/>
<path d="M8 162.979V161.979H6L6 162.979H8Z" fill="#AAAAAA"/>
<path d="M8 170.979V169.979H6L6 170.979H8Z" fill="#AAAAAA"/>
<path d="M8 166.979V165.979H7L7 166.979H8Z" fill="#AAAAAA"/>
<path d="M8 173.979V175H7L7 173.979H8Z" fill="#AAAAAA"/>
<path d="M8 178.002V179.002H6L6 178.002H8Z" fill="#AAAAAA"/>
<path d="M8 186.004V187.004H6L6 186.004H8Z" fill="#AAAAAA"/>
<path d="M8 182.003V183.003H7L7 182.003H8Z" fill="#AAAAAA"/>
<path d="M8 191.005V190.005L7 190.005L7 191.005H8Z" fill="#AAAAAA"/>
<path d="M8 194.007V195.007H6L6 194.007H8Z" fill="#AAAAAA"/>
<path d="M8 202.009V203.009H6L6 202.009H8Z" fill="#AAAAAA"/>
<path d="M8 198.008V199.008H7L7 198.008H8Z" fill="#AAAAAA"/>
<path d="M8 207.011V205.989H7L7 207.011H8Z" fill="#AAAAAA"/>
<path d="M8 209.991V210.991H6L6 209.991H8Z" fill="#AAAAAA"/>
<path d="M8 217.994V218.994H6L6 217.994H8Z" fill="#AAAAAA"/>
<path d="M8 213.992V214.992H7L7 213.992H8Z" fill="#AAAAAA"/>
<path d="M8 222.995V221.995L7 221.995V222.995H8Z" fill="#AAAAAA"/>
<path fill-rule="evenodd" clip-rule="evenodd" d="M8.99595 4H5V8H8.99595V4ZM4 3V9H10V3H4Z" fill="#BBBEC2"/>
<path fill-rule="evenodd" clip-rule="evenodd" d="M6 5H6.98715V6.01514H8V7H6V5Z" fill="#444444"/>
</g>
<rect x="0.5" y="0.5" width="179" height="89" stroke="#CCCCCC"/>
<defs>
<filter id="filter0_d_14628_128051" x="15.2559" y="11.489" width="157.687" height="110.326" filterUnits="userSpaceOnUse" color-interpolation-filters="sRGB">
<feFlood flood-opacity="0" result="BackgroundImageFix"/>
<feColorMatrix in="SourceAlpha" type="matrix" values="0 0 0 0 0 0 0 0 0 0 0 0 0 0 0 0 0 0 127 0" result="hardAlpha"/>
<feOffset dy="7"/>
<feGaussianBlur stdDeviation="7.5"/>
<feColorMatrix type="matrix" values="0 0 0 0 0.333333 0 0 0 0 0.333333 0 0 0 0 0.333333 0 0 0 0.1 0"/>
<feBlend mode="normal" in2="BackgroundImageFix" result="effect1_dropShadow_14628_128051"/>
<feBlend mode="normal" in="SourceGraphic" in2="effect1_dropShadow_14628_128051" result="shape"/>
</filter>
<clipPath id="clip0_14628_128051">
<rect width="180" height="90" fill="white"/>
</clipPath>
</defs>
</svg>
