<svg width="55" height="44" viewBox="0 0 55 44" fill="none" xmlns="http://www.w3.org/2000/svg">
<ellipse cx="29" cy="13.5664" rx="26" ry="26.5" fill="url(#paint0_linear_14927_128552)"/>
<circle cx="26" cy="17.0664" r="25.5" stroke="white"/>
<path d="M14.3204 25.0664L18.8776 15.1055H12.8927V12.9473H21.6002V14.5576L17.0099 25.0664H14.3204ZM23.2893 23.8794C23.2893 23.4146 23.4138 23.0632 23.6628 22.8252C23.9118 22.5872 24.2743 22.4683 24.7502 22.4683C25.2095 22.4683 25.5637 22.59 25.8127 22.8335C26.0673 23.077 26.1945 23.4256 26.1945 23.8794C26.1945 24.3166 26.0673 24.6624 25.8127 24.917C25.5581 25.166 25.204 25.2905 24.7502 25.2905C24.2854 25.2905 23.9257 25.1688 23.6711 24.9253C23.4165 24.6763 23.2893 24.3276 23.2893 23.8794ZM36.4998 25.0664H28.0164V23.2817L31.0628 20.2021C31.9648 19.278 32.5542 18.6388 32.8308 18.2847C33.1075 17.925 33.3068 17.5929 33.4285 17.2886C33.5502 16.9842 33.6111 16.6688 33.6111 16.3423C33.6111 15.8553 33.4755 15.4928 33.2044 15.2549C32.9388 15.0169 32.5818 14.8979 32.1336 14.8979C31.6632 14.8979 31.2067 15.0059 30.764 15.2217C30.3212 15.4375 29.8592 15.7446 29.3777 16.1431L27.9832 14.4912C28.5808 13.9821 29.0761 13.6224 29.469 13.4121C29.8619 13.2018 30.2908 13.0413 30.7557 12.9307C31.2205 12.8145 31.7407 12.7563 32.3162 12.7563C33.0743 12.7563 33.7439 12.8947 34.325 13.1714C34.906 13.4481 35.3571 13.8354 35.678 14.3335C35.999 14.8315 36.1595 15.4015 36.1595 16.0435C36.1595 16.6024 36.0599 17.1281 35.8606 17.6206C35.6669 18.1076 35.3626 18.6084 34.9475 19.123C34.538 19.6377 33.8131 20.3709 32.7727 21.3228L31.2122 22.792V22.9082H36.4998V25.0664Z" fill="white"/>
<defs>
<linearGradient id="paint0_linear_14927_128552" x1="3.0001" y1="-15.0039" x2="56.0292" y2="39.057" gradientUnits="userSpaceOnUse">
<stop stop-color="#FFC671"/>
<stop offset="0.59375" stop-color="#FF7541"/>
<stop offset="1" stop-color="#FF6F3D"/>
</linearGradient>
</defs>
</svg>
